<?xml version="1.0" standalone="no"?>
<!DOCTYPE svg PUBLIC "-//W3C//DTD SVG 1.1//EN" "http://www.w3.org/Graphics/SVG/1.1/DTD/svg11.dtd" >
<svg>
<metadata>
Created by FontForge 20090914 at Sat Aug 20 16:02:27 2022
 By www-data
Copyright (c) 2018 by Typetype. Designer Ivan Gladkikh, technical designers Philipp Nurullin, Vika Usmanova, Nadyr Rakhimov, Marina Khodak. All rights reserved. |DCNT
</metadata>
<defs>
<font id="TTFirsNeue-Black" horiz-adv-x="680" >
  <font-face 
    font-family="TT Firs Neue Black"
    font-weight="900"
    font-stretch="normal"
    units-per-em="1000"
    panose-1="2 0 5 3 3 0 0 2 0 4"
    ascent="800"
    descent="-200"
    x-height="530"
    cap-height="700"
    bbox="-460 -365.002 1450 1035"
    underline-thickness="50"
    underline-position="-200"
    unicode-range="U+000D-U+FB02"
  />
<missing-glyph horiz-adv-x="0" 
 />
    <glyph glyph-name="ff" unicode="ff" horiz-adv-x="805" 
d="M10 345v155h70v200h325v-155h-95v-45h140v200h360v-155h-130v-45h110v-155h-110v-345h-230v345h-140v-345h-230v345h-70z" />
    <glyph glyph-name="fi" unicode="fi" horiz-adv-x="725" 
d="M10 345v155h70v200h490v-155h-260v-45h370v-500h-230v345h-140v-345h-230v345h-70z" />
    <glyph glyph-name="fl" unicode="fl" horiz-adv-x="810" 
d="M10 345v155h70v200h600v-545h120v-155h-350v545h-140v-45h95v-155h-95v-345h-230v345h-70z" />
    <glyph glyph-name="f_t" unicode="ft" horiz-adv-x="840" 
d="M10 345v155h70v200h600v-200h120v-155h-120v-190h130v-155h-360v345h-140v-345h-230v345h-70zM310 495h140v55h-140v-55z" />
    <glyph glyph-name="f_j" unicode="fj" horiz-adv-x="725" 
d="M10 345v155h70v200h490v-155h-260v-45h370v-690h-310v155h80v380h-140v-345h-230v345h-70z" />
    <glyph glyph-name=".notdef" horiz-adv-x="0" 
 />
    <glyph glyph-name=".null" horiz-adv-x="0" 
 />
    <glyph glyph-name=".null" horiz-adv-x="0" 
 />
    <glyph glyph-name="CR" unicode="&#xd;" horiz-adv-x="0" 
 />
    <glyph glyph-name="space" unicode=" " horiz-adv-x="280" 
 />
    <glyph glyph-name="exclam" unicode="!" horiz-adv-x="350" 
d="M60 425v275h230v-275l-40 -170h-150zM65 95c0 30 10.833 55.833 32.5 77.5s47.5 32.5 77.5 32.5c29.333 0 55 -11 77 -33s33 -47.667 33 -77c0 -30 -10.833 -55.833 -32.5 -77.5s-47.5 -32.5 -77.5 -32.5c-30.667 0 -56.667 10.667 -78 32s-32 47.333 -32 78z" />
    <glyph glyph-name="quotedbl" unicode="&#x22;" horiz-adv-x="540" 
d="M40 540v160h200v-160l-25 -85h-150zM300 540v160h200v-160l-25 -85h-150z" />
    <glyph glyph-name="numbersign" unicode="#" horiz-adv-x="775" 
d="M30 140v170h106l23 80h-74v170h121l39 140h200l-39 -140h80l39 140h200l-39 -140h59v-170h-106l-23 -80h74v-170h-121l-39 -140h-200l39 140h-80l-39 -140h-200l39 140h-59zM330 310h92l23 80h-92z" />
    <glyph glyph-name="dollar" unicode="$" horiz-adv-x="730" 
d="M20 235l250.005 -0.00195312c4 -15.333 10.333 -28 19 -38c19.333 -24.667 48 -37 86 -37c50 0 75 13.333 75 40c0 8 -3 15.167 -9 21.5s-16 12.166 -30 17.499s-27 9.83301 -39 13.5s-29.333 8.16699 -52 13.5c-25.333 6 -46.333 11.5 -63 16.5s-37.334 12 -62.001 21
s-45 19 -61 30s-31.833 24.333 -47.5 40s-27.334 34.167 -35.001 55.5s-11.5 45 -11.5 71c0 49.333 19.667 92.833 59 130.5s94.666 64.167 165.999 79.5v100h205v-105c79.333 -20.667 139.666 -63.667 180.999 -129c18 -29.333 31 -59.666 39 -90.999h-250
c-2 10.667 -6.33301 19.667 -13 27c-14 18.667 -34.667 28 -62 28c-43.333 0 -65 -11.667 -65 -35c0 -10.667 8.33301 -19.167 25 -25.5s44 -13.5 82 -21.5l48 -11.5l49 -12.5c23.333 -6 40.833 -11.833 52.5 -17.5l46 -22.5c19 -9.33301 33.667 -19.333 44 -30
s21 -23 32 -37s19 -30 24 -48s7.5 -37.667 7.5 -59c0 -55.333 -20.833 -104.666 -62.5 -147.999s-100.834 -70.666 -177.501 -81.999v-100h-205v105c-89.333 20.667 -157 67 -203 139c-20 32 -34 65.667 -42 101z" />
    <glyph glyph-name="percent" unicode="%" horiz-adv-x="880" 
d="M30 540c0 48.667 17.333 89.167 52 121.5s79 48.5 133 48.5s98.333 -16.167 133 -48.5s52 -72.833 52 -121.5s-17.333 -89.167 -52 -121.5s-79 -48.5 -133 -48.5s-98.333 16.167 -133 48.5s-52 72.833 -52 121.5zM150 0l420 700h160l-420 -700h-160zM170 540
c0 -12.667 4.33301 -23.334 13 -32.001s19.334 -13 32.001 -13s23.334 4.33301 32.001 13s13 19.334 13 32.001s-4.33301 23.334 -13 32.001s-19.334 13 -32.001 13s-23.334 -4.33301 -32.001 -13s-13 -19.334 -13 -32.001zM480 160c0 48.667 17.333 89.167 52 121.5
s79 48.5 133 48.5s98.333 -16.167 133 -48.5s52 -72.833 52 -121.5s-17.333 -89.167 -52 -121.5s-79 -48.5 -133 -48.5s-98.333 16.167 -133 48.5s-52 72.833 -52 121.5zM620 160c0 -12.667 4.33301 -23.334 13 -32.001s19.334 -13 32.001 -13s23.334 4.33301 32.001 13
s13 19.334 13 32.001s-4.33301 23.334 -13 32.001s-19.334 13 -32.001 13s-23.334 -4.33301 -32.001 -13s-13 -19.334 -13 -32.001z" />
    <glyph glyph-name="ampersand" unicode="&#x26;" horiz-adv-x="795" 
d="M10 220c0 67.333 24.668 122.501 74.001 165.501s117.666 64.5 204.999 64.5h1v10l-55 10l-30 45v185h545v-185h-275v-10l330 -505h-270l-25 40l20 60h-10c-12 -23.333 -28.333 -43.333 -49 -60c-45.333 -40 -104 -60 -176 -60c-88 0 -157.5 22.667 -208.5 68
s-76.5 102.666 -76.5 171.999zM240.001 230.001c0 -20 5.83301 -35.833 17.5 -47.5s27.5 -17.5 47.5 -17.5s35.833 5.83301 47.5 17.5s17.5 27.5 17.5 47.5s-5.83301 35.833 -17.5 47.5s-27.5 17.5 -47.5 17.5s-35.833 -5.83301 -47.5 -17.5s-17.5 -27.5 -17.5 -47.5z" />
    <glyph glyph-name="quotesingle" unicode="'" horiz-adv-x="280" 
d="M40 540v160h200v-160l-25 -85h-150z" />
    <glyph glyph-name="parenleft" unicode="(" horiz-adv-x="440" 
d="M50 290c0 126 43.333 243 130 351c37.333 46 80.666 85.667 129.999 119l120 -140c-27.333 -26.667 -52.333 -57.334 -75 -92.001c-50 -75.333 -75 -154.666 -75 -237.999s25 -162.666 75 -237.999c22.667 -34.667 47.667 -65.334 75 -92.001l-120 -140
c-49.333 33.333 -92.666 73 -129.999 119c-86.667 108 -130 225 -130 351z" />
    <glyph glyph-name="parenright" unicode=")" horiz-adv-x="440" 
d="M85 52c50 80 75 159.331 75 237.998s-25 158 -75 238c-22.667 34.667 -47.667 65.334 -75 92.001l120 140c49.333 -33.333 92.666 -73 129.999 -119c86.667 -108 130 -225 130 -351s-43.333 -243 -130 -351c-37.333 -46 -80.666 -85.667 -129.999 -119l-120 140
c27.333 26.667 52.333 57.334 75 92.001z" />
    <glyph glyph-name="asterisk" unicode="*" horiz-adv-x="460" 
d="M50 480v120h115v100h130v-100h115v-120h-85l71 -85l-106 -70l-60 95l-60 -95l-106 70l71 85h-85z" />
    <glyph glyph-name="plus" unicode="+" horiz-adv-x="550" 
d="M40 190v180h145v145h180v-145h145v-180h-145v-145h-180v145h-145z" />
    <glyph glyph-name="comma" unicode="," horiz-adv-x="270" 
d="M25 100c0 30 10 55.001 30 75.001s45 30 75 30c34 0 61.667 -13 83 -39s32 -63 32 -111c0 -68 -17.667 -120 -53 -156s-86 -54 -152 -54v75c31.333 0 55 6.66699 71 20s24 31.666 24 54.999v10l-8 -3c-6.66699 -1.33301 -14 -2 -22 -2c-20.667 0 -39.167 9.5 -55.5 28.5
s-24.5 42.833 -24.5 71.5z" />
    <glyph glyph-name="hyphen" unicode="-" horiz-adv-x="500" 
d="M40 180v180h420v-180h-420z" />
    <glyph glyph-name="period" unicode="." horiz-adv-x="270" 
d="M25 95c0 30 10.833 55.833 32.5 77.5s47.5 32.5 77.5 32.5c29.333 0 55 -11 77 -33s33 -47.667 33 -77c0 -30 -10.833 -55.833 -32.5 -77.5s-47.5 -32.5 -77.5 -32.5c-30.667 0 -56.667 10.667 -78 32s-32 47.333 -32 78z" />
    <glyph glyph-name="slash" unicode="/" horiz-adv-x="490" 
d="M0 0l260 700h230l-260 -700h-230z" />
    <glyph glyph-name="zero" unicode="0" horiz-adv-x="810" 
d="M35 350c0 110 34.167 199.167 102.5 267.5s157.5 102.5 267.5 102.5s199.167 -34.167 267.5 -102.5s102.5 -157.5 102.5 -267.5s-34.167 -199.167 -102.5 -267.5s-157.5 -102.5 -267.5 -102.5s-199.167 34.167 -267.5 102.5s-102.5 157.5 -102.5 267.5zM295 350
c0 -52.667 10.167 -92.5 30.5 -119.5s46.833 -40.5 79.5 -40.5c31.333 0 57.5 13.667 78.5 41s31.5 67 31.5 119s-10.333 91.667 -31 119s-47 41 -79 41s-58.333 -13.667 -79 -41s-31 -67 -31 -119z" />
    <glyph glyph-name="one" unicode="1" horiz-adv-x="480" 
d="M30 350v250l160 100h230v-700h-260v430z" />
    <glyph glyph-name="two" unicode="2" horiz-adv-x="725" 
d="M35 0l0.000976562 205.001l240 125c67.333 34.667 110 59.5 128 74.5s27 31.833 27 50.5c0 14.667 -6.16699 27.5 -18.5 38.5s-29.5 16.5 -51.5 16.5c-29.333 0 -51.333 -10 -66 -30c-6 -8 -10.667 -18 -14 -30h-250c9.33301 50 27.333 95 54 135
c62 90 157.333 135 286 135c98.667 0 176.667 -23.833 234 -71.5s86 -105.5 86 -173.5c0 -30.667 -6.33301 -59.667 -19 -87s-27.834 -49.833 -45.501 -67.5s-38.167 -33.834 -61.5 -48.501s-42.833 -25.5 -58.5 -32.5s-31.167 -13.167 -46.5 -18.5l-19 -6l-20 -5l-15 -5
v-11l70 11h215v-205h-655z" />
    <glyph glyph-name="three" unicode="3" horiz-adv-x="710" 
d="M15 235l244.999 -0.000976562c4 -10 9.66699 -20 17 -30c17.333 -20 41.666 -30 72.999 -30c53.333 0 80 20 80 60s-26.667 60 -80 60h-160v130l140 75v10h-275v190h585v-185l-185 -80l-11 -5v-11l1 1c76 0 135 -18.833 177 -56.5s63 -87.167 63 -148.5
c0 -68.667 -28.167 -125 -84.5 -169s-138.166 -66 -245.499 -66c-131.333 0 -226.666 42.333 -285.999 127c-26.667 36.667 -44.667 79.334 -54 128.001z" />
    <glyph glyph-name="four" unicode="4" horiz-adv-x="740" 
d="M25 110v210l240 380h275l-240 -380h110v55l49 70h191v-125h80v-210h-80v-110h-250v110h-375z" />
    <glyph glyph-name="five" unicode="5" horiz-adv-x="730" 
d="M40 235l245.001 -0.000976562c2.66699 -10 8 -20 16 -30c16 -20 39 -30 69 -30c24.667 0 44.167 6.33301 58.5 19s21.5 28 21.5 46s-7.16699 33.333 -21.5 46s-33.833 19 -58.5 19h-80h-225l25 395h550v-190h-330l-5 -80h10c9.33301 8 19.666 14.667 30.999 20
c28 13.333 64.333 20 109 20c72.667 0 132.5 -21.5 179.5 -64.5s70.5 -98.167 70.5 -165.5c0 -78 -28.667 -140.833 -86 -188.5s-140.333 -71.5 -249 -71.5c-129.333 0 -222.333 42.333 -279 127c-26 36.667 -43 79.334 -51 128.001z" />
    <glyph glyph-name="six" unicode="6" horiz-adv-x="725" 
d="M25 255c0 82.667 40 174.334 120 275.001l135 170h270l-160 -200l-50 -30v-10c6.66699 3.33301 16 6.66602 28 9.99902c25.333 6.66699 51 10 77 10c76 0 138.333 -23 187 -69s73 -102.667 73 -170c0 -74 -30.167 -136 -90.5 -186s-143.5 -75 -249.5 -75
c-106.667 0 -190 25.667 -250 77s-90 117.333 -90 198zM280 235c0 -16.667 7.5 -30.834 22.5 -42.501s35.833 -17.5 62.5 -17.5s47.5 5.83301 62.5 17.5s22.5 25.834 22.5 42.501s-7.5 30.834 -22.5 42.501s-35.833 17.5 -62.5 17.5s-47.5 -5.83301 -62.5 -17.5
s-22.5 -25.834 -22.5 -42.501z" />
    <glyph glyph-name="seven" unicode="7" horiz-adv-x="650" 
d="M20 480v220h610v-220l-260 -480h-275l260 470v10h-335z" />
    <glyph glyph-name="eight" unicode="8" horiz-adv-x="770" 
d="M25 195c0 59.333 25.666 105.999 76.999 139.999c24 15.333 50 27 78 35v10c-25.333 7.33301 -46.333 17 -63 29c-41.333 30.667 -62 69.334 -62 116.001c0 52.667 28.167 98.334 84.5 137.001s138.166 58 245.499 58s189.166 -19.333 245.499 -58
s84.5 -84.334 84.5 -137.001c0 -46 -21 -84.667 -63 -116c-16 -12 -36.667 -21.667 -62 -29v-10c26.667 -7.33301 52.334 -19 77.001 -35c52 -34 78 -80.667 78 -140c0 -60.667 -30.167 -111.667 -90.5 -153s-150.166 -62 -269.499 -62s-209.166 20.667 -269.499 62
s-90.5 92.333 -90.5 153zM314.999 489.999c0 -12.667 6 -23.334 18 -32.001s29.333 -13 52 -13s40 4.33301 52 13s18 19.334 18 32.001s-6 23.334 -18 32.001s-29.333 13 -52 13s-40 -4.33301 -52 -13s-18 -19.334 -18 -32.001zM294.999 229.999
c0 -18.667 7.83301 -34.167 23.5 -46.5s37.834 -18.5 66.501 -18.5s50.834 6.16699 66.501 18.5s23.5 27.833 23.5 46.5s-7.83301 34.167 -23.5 46.5s-37.834 18.5 -66.501 18.5s-50.834 -6.16699 -66.501 -18.5s-23.5 -27.833 -23.5 -46.5z" />
    <glyph glyph-name="nine" unicode="9" horiz-adv-x="725" 
d="M20 459c0 74 30.167 136 90.5 186s143.5 75 249.5 75c106.667 0 190 -25.667 250 -77s90 -117.333 90 -198c0 -82.667 -40 -174.334 -120 -275.001l-135 -170h-270l160 200l50 30v10c-6.66699 -3.33301 -16 -6.66602 -28 -9.99902c-25.333 -6.66699 -51 -10 -77 -10
c-76.667 0 -139.167 22.833 -187.5 68.5s-72.5 102.5 -72.5 170.5zM275 465c0 -16.667 7.5 -30.834 22.5 -42.501s35.833 -17.5 62.5 -17.5s47.5 5.83301 62.5 17.5s22.5 25.834 22.5 42.501s-7.5 30.834 -22.5 42.501s-35.833 17.5 -62.5 17.5s-47.5 -5.83301 -62.5 -17.5
s-22.5 -25.834 -22.5 -42.501z" />
    <glyph glyph-name="colon" unicode=":" horiz-adv-x="290" 
d="M35 95c0 30 10.833 55.833 32.5 77.5s47.5 32.5 77.5 32.5c29.333 0 55 -11 77 -33s33 -47.667 33 -77c0 -30 -10.833 -55.833 -32.5 -77.5s-47.5 -32.5 -77.5 -32.5c-30.667 0 -56.667 10.667 -78 32s-32 47.333 -32 78zM35 435c0 30 10.833 55.833 32.5 77.5
s47.5 32.5 77.5 32.5c29.333 0 55 -11 77 -33s33 -47.667 33 -77c0 -30 -10.833 -55.833 -32.5 -77.5s-47.5 -32.5 -77.5 -32.5c-30.667 0 -56.667 10.667 -78 32s-32 47.333 -32 78z" />
    <glyph glyph-name="semicolon" unicode=";" horiz-adv-x="290" 
d="M35 100c0 30 10 55.001 30 75.001s45 30 75 30c34 0 61.667 -13 83 -39s32 -63 32 -111c0 -68 -17.667 -120 -53 -156s-86 -54 -152 -54v75c31.333 0 55 6.66699 71 20s24 31.666 24 54.999v10l-8 -3c-6.66699 -1.33301 -14 -2 -22 -2c-20.667 0 -39.167 9.5 -55.5 28.5
s-24.5 42.833 -24.5 71.5zM35 435.001c0 30 10.833 55.833 32.5 77.5s47.5 32.5 77.5 32.5c29.333 0 55 -11 77 -33s33 -47.667 33 -77c0 -30 -10.833 -55.833 -32.5 -77.5s-47.5 -32.5 -77.5 -32.5c-30.667 0 -56.667 10.667 -78 32s-32 47.333 -32 78z" />
    <glyph glyph-name="less" unicode="&#x3c;" horiz-adv-x="540" 
d="M40 160v210l450 160v-175l-260 -85v-10l260 -85v-175z" />
    <glyph glyph-name="equal" unicode="=" horiz-adv-x="540" 
d="M50 300v170h440v-170h-440zM50 75v170h440v-170h-440z" />
    <glyph glyph-name="greater" unicode="&#x3e;" horiz-adv-x="540" 
d="M50 0v175l260 85v10l-260 85v175l450 -160v-210z" />
    <glyph glyph-name="question" unicode="?" horiz-adv-x="670" 
d="M245 470l-234.997 -0.00195312c9.33301 45.333 28 87 56 125c65.333 83.333 160 125 284 125c94 0 166.667 -20.833 218 -62.5s77 -94.167 77 -157.5s-34 -113.666 -102 -150.999c-18.667 -9.33301 -31.834 -16.166 -39.501 -20.499s-17.834 -10.833 -30.501 -19.5
s-21.334 -17.334 -26.001 -26.001s-7 -18 -7 -28h-230c0 15.333 2 29.833 6 43.5s8 25.334 12 35.001s11.167 19.834 21.5 30.501l23 23.5c5 5 14.667 12 29 21s23 14.333 26 16s12.167 6.5 27.5 14.5c33.333 19.333 50 36.333 50 51c0 30 -23.333 45 -70 45
c-33.333 0 -58.333 -11 -75 -33c-6.66699 -8.66699 -11.667 -19.334 -15 -32.001zM215.003 94.998c0 30 10.833 55.833 32.5 77.5s47.5 32.5 77.5 32.5c29.333 0 55 -11 77 -33s33 -47.667 33 -77c0 -30 -10.833 -55.833 -32.5 -77.5s-47.5 -32.5 -77.5 -32.5
c-30.667 0 -56.667 10.667 -78 32s-32 47.333 -32 78z" />
    <glyph glyph-name="at" unicode="@" horiz-adv-x="820" 
d="M30 315c0 110.667 37.501 202.499 112.501 275.499s170.833 109.5 287.5 109.5c112 0 201.667 -30 269 -90s101 -135 101 -225c0 -70 -21.5 -126.667 -64.5 -170s-98.833 -65 -167.5 -65h-113v40h-5c-6 -10.667 -12 -19 -18 -25c-16.667 -16.667 -39 -25 -67 -25
c-38.667 0 -71.667 15.667 -99 47s-41 72.333 -41 123s13.667 91.667 41 123s60.333 47 99 47c26.667 0 49 -8.33301 67 -25c6 -6 12 -14.333 18 -25h5v40h150v-200c43.333 0 65 38.333 65 115c0 56.667 -21.167 103.334 -63.5 140.001s-101.166 55 -176.499 55
c-80 0 -145 -24.667 -195 -74s-75 -113 -75 -191s25 -141.667 75 -191s115 -74 195 -74c45.333 0 87.666 5.66699 126.999 17c18 4.66699 34 10.667 48 18v-120c-14.667 -6.66699 -31.334 -12.667 -50.001 -18c-39.333 -11.333 -81 -17 -125 -17
c-116.667 0 -212.5 36.5 -287.5 109.5s-112.5 164.833 -112.5 275.5zM385.001 309.999c0 -40 11.667 -60 35 -60s35 20 35 60s-11.667 60 -35 60s-35 -20 -35 -60z" />
    <glyph glyph-name="A" unicode="A" horiz-adv-x="760" 
d="M-10 0l195 700h395l190 -700h-250l-35 130h-215l-35 -130h-245zM310 305h135l-45 185h-40z" />
    <glyph glyph-name="B" unicode="B" horiz-adv-x="765" 
d="M60 0v699.999h410c76.667 0 135 -15.667 175 -47s60 -72.333 60 -123c0 -45.333 -19.333 -83.333 -58 -114c-18.667 -14 -37.667 -24.333 -57 -31v-10c26 -7.33301 49.333 -17.666 70 -30.999c46.667 -32 70 -78.333 70 -139s-23.667 -110 -71 -148
s-115.333 -57 -204 -57h-395zM310 434.999h80c20 0 34.167 3.5 42.5 10.5s12.5 18.5 12.5 34.5s-4.16699 27.5 -12.5 34.5s-22.5 10.5 -42.5 10.5h-80v-90zM310 174.999h100c43.333 0 65 18.333 65 55s-21.667 55 -65 55h-100v-110z" />
    <glyph glyph-name="C" unicode="C" horiz-adv-x="845" 
d="M30 350c0 104.667 37.168 192.502 111.501 263.502s170.5 106.5 288.5 106.5c131.333 0 234.666 -48.333 309.999 -145c31.333 -42.667 54.666 -91 69.999 -145h-250c-6.66699 15.333 -16 28.666 -28 39.999c-26.667 26.667 -60.667 40 -102 40
c-40.667 0 -74.167 -14.333 -100.5 -43s-39.5 -67.667 -39.5 -117s13.167 -88.333 39.5 -117s59.833 -43 100.5 -43c46 0 82.333 16.667 109 50c12.667 16 21.334 32.667 26.001 50h250c-15.333 -58.667 -39 -110.334 -71 -155.001c-75.333 -103.333 -180 -155 -314 -155
c-118 0 -214.167 35.5 -288.5 106.5s-111.5 158.833 -111.5 263.5z" />
    <glyph glyph-name="D" unicode="D" horiz-adv-x="795" 
d="M60 0v700h305c120 0 216.667 -33.333 290 -100s110 -150 110 -250s-36.667 -183.333 -110 -250s-170 -100 -290 -100h-305zM310 210h50c45.333 0 80.833 12.667 106.5 38s38.5 59.333 38.5 102s-12.833 76.667 -38.5 102s-61.167 38 -106.5 38h-50v-280z" />
    <glyph glyph-name="E" unicode="E" 
d="M60 0v700h575v-200h-325v-65h255v-170h-255v-65h325v-200h-575z" />
    <glyph glyph-name="F" unicode="F" horiz-adv-x="660" 
d="M60 0v700h570v-200h-320v-105h240v-170h-240v-225h-250z" />
    <glyph glyph-name="G" unicode="G" horiz-adv-x="885" 
d="M30 350c0 104.667 37.166 192.5 111.499 263.5s170.5 106.5 288.5 106.5c127.333 0 228 -44.333 302 -133c32.667 -38.667 57 -82.667 73 -132h-250c-6 9.33301 -14.667 18.333 -26 27c-23.333 18.667 -54.666 28 -93.999 28c-43.333 0 -78.333 -14.333 -105 -43
s-40 -67.667 -40 -117s13.333 -88.333 40 -117s61.667 -43 105 -43c44 0 78.667 10 104 30c11.333 9.33301 20 19.333 26 30h-80v145h400v-145h-75c-16.667 -50 -42 -95 -76 -135c-72 -90 -173.333 -135 -304 -135c-118 0 -214.167 35.5 -288.5 106.5
s-111.5 158.833 -111.5 263.5z" />
    <glyph glyph-name="H" unicode="H" horiz-adv-x="820" 
d="M60 0v700h250v-240h200v240h250v-700h-250v240h-200v-240h-250z" />
    <glyph glyph-name="I" unicode="I" horiz-adv-x="370" 
d="M60 0v700h250v-700h-250z" />
    <glyph glyph-name="J" unicode="J" horiz-adv-x="665" 
d="M-5 190l220.001 45.001c4 -8.66699 9.33301 -16.334 16 -23.001c14.667 -14.667 32.667 -22 54 -22c50 0 75 25 75 75v435h250v-430c0 -89.333 -28 -160 -84 -212s-134.667 -78 -236 -78c-102.667 0 -182.334 35 -239.001 105c-25.333 32 -44 67 -56 105z" />
    <glyph glyph-name="K" unicode="K" horiz-adv-x="790" 
d="M60 0v700h250v-230h50l130 230h280l-200 -325l220 -375h-280l-140 245h-60v-245h-250z" />
    <glyph glyph-name="L" unicode="L" horiz-adv-x="635" 
d="M60 0v700h250v-480h315v-220h-565z" />
    <glyph glyph-name="M" unicode="M" horiz-adv-x="1000" 
d="M60 0v700h335l95 -325h25l95 325h330v-700h-250v319l15 91h-10l-80 -250h-230l-80 250h-10l15 -91v-319h-250z" />
    <glyph glyph-name="N" unicode="N" horiz-adv-x="835" 
d="M60 0v700h280l191 -330h9l-15 100v230h250v-700h-280l-190 330h-10l15 -95v-235h-250z" />
    <glyph glyph-name="O" unicode="O" horiz-adv-x="860" 
d="M30 350c0 105.333 36.667 193.333 110 264s170 106 290 106s216.667 -35.333 290 -106s110 -158.667 110 -264s-36.667 -193.333 -110 -264s-170 -106 -290 -106s-216.667 35.333 -290 106s-110 158.667 -110 264zM290 350c0 -49.333 13.167 -88.333 39.5 -117
s59.833 -43 100.5 -43s74.167 14.333 100.5 43s39.5 67.667 39.5 117s-13.167 88.333 -39.5 117s-59.833 43 -100.5 43s-74.167 -14.333 -100.5 -43s-39.5 -67.667 -39.5 -117z" />
    <glyph glyph-name="P" unicode="P" horiz-adv-x="765" 
d="M60 0v700.002h380c90.667 0 163.334 -25.333 218.001 -76s82 -115.334 82 -194.001s-27.333 -143.334 -82 -194.001s-127.334 -76 -218.001 -76h-130v-160h-250zM310 360.002h100c22 0 40 6.66699 54 20s21 30 21 50s-7 36.667 -21 50s-32 20 -54 20h-100v-140z" />
    <glyph glyph-name="Q" unicode="Q" horiz-adv-x="860" 
d="M30 350c0 105.333 36.667 193.333 110 264s170 106 290 106s216.667 -35.333 290 -106s110 -158.667 110 -264c0 -85.333 -24.5 -159.333 -73.5 -222s-116.167 -105.334 -201.5 -128.001v-205h-250v205c-85.333 22.667 -152.5 65.334 -201.5 128.001
s-73.5 136.667 -73.5 222zM290 350c0 -49.333 13.167 -88.333 39.5 -117s59.833 -43 100.5 -43s74.167 14.333 100.5 43s39.5 67.667 39.5 117s-13.167 88.333 -39.5 117s-59.833 43 -100.5 43s-74.167 -14.333 -100.5 -43s-39.5 -67.667 -39.5 -117z" />
    <glyph glyph-name="R" unicode="R" horiz-adv-x="780" 
d="M60 0v700.001h390c88.667 0 159.167 -24.167 211.5 -72.5s78.5 -110.833 78.5 -187.5c0 -64 -20 -116 -60 -156c-17.333 -18.667 -37.333 -33.334 -60 -44.001l130 -240h-250l-100 190h-90v-190h-250zM310 380.001h110c20 0 35.833 5.5 47.5 16.5s17.5 25.5 17.5 43.5
s-5.83301 32.5 -17.5 43.5s-27.5 16.5 -47.5 16.5h-110v-120z" />
    <glyph glyph-name="S" unicode="S" horiz-adv-x="730" 
d="M20 235l250.003 0.00195312c4 -15.333 10.333 -28 19 -38c19.333 -24.667 48 -37 86 -37c50 0 75 13.333 75 40c0 8 -3 15.167 -9 21.5s-16 12.166 -30 17.499s-27 9.83301 -39 13.5s-29.333 8.16699 -52 13.5c-25.333 6 -46.333 11.5 -63 16.5s-37.334 12 -62.001 21
s-45 19 -61 30s-31.833 24.333 -47.5 40s-27.334 34.167 -35.001 55.5s-11.5 45 -11.5 71c0 58.667 28.5 110 85.5 154s135.167 66 234.5 66c121.333 0 212.666 -39.333 273.999 -118c26 -34 44.667 -73 56 -117h-250c-2 10.667 -6.33301 19.667 -13 27
c-14 18.667 -34.667 28 -62 28c-43.333 0 -65 -11.667 -65 -35c0 -10.667 8.33301 -19.167 25 -25.5s44 -13.5 82 -21.5l48 -11.5l49 -12.5c23.333 -6 40.833 -11.833 52.5 -17.5l46 -22.5c19 -9.33301 33.667 -19.333 44 -30s21 -23 32 -37s19 -30 24 -48
s7.5 -37.667 7.5 -59c0 -66.667 -29.667 -123.334 -89 -170.001s-141.333 -70 -246 -70c-134 0 -232.667 42.333 -296 127c-28 35.333 -47.667 78 -59 128z" />
    <glyph glyph-name="T" unicode="T" horiz-adv-x="690" 
d="M10 480v220h670v-220h-210v-480h-250v480h-210z" />
    <glyph glyph-name="U" unicode="U" horiz-adv-x="800" 
d="M55 290v410h250v-400c0 -32 8.33301 -56.667 25 -74s40 -26 70 -26s53.333 8.66699 70 26s25 42 25 74v400h250v-410c0 -94 -30.5 -169.167 -91.5 -225.5s-145.5 -84.5 -253.5 -84.5s-192.5 28.167 -253.5 84.5s-91.5 131.5 -91.5 225.5z" />
    <glyph glyph-name="V" unicode="V" horiz-adv-x="745" 
d="M-5 700h250l110 -490h45l105 490h245l-175 -700h-400z" />
    <glyph glyph-name="W" unicode="W" horiz-adv-x="1045" 
d="M5 700h250l60 -400h10l69 400h261l75 -400h10l55 400h245l-140 -700h-300l-70 380h-10l-65 -380h-305z" />
    <glyph glyph-name="X" unicode="X" horiz-adv-x="760" 
d="M-5 0l170 350l-150 350h260l80 -240h50l75 240h255l-145 -350l175 -350h-275l-95 240h-40l-90 -240h-270z" />
    <glyph glyph-name="Y" unicode="Y" horiz-adv-x="720" 
d="M-15 700h250l120 -240h10l120 240h250l-250 -450v-250h-250v250z" />
    <glyph glyph-name="Z" unicode="Z" horiz-adv-x="705" 
d="M35 0v200l310 290v10h-300v200h615v-200l-310 -290v-10h320v-200h-635z" />
    <glyph glyph-name="bracketleft" unicode="[" horiz-adv-x="430" 
d="M60 -150v880h350v-185h-125v-510h125v-185h-350z" />
    <glyph glyph-name="backslash" unicode="\" horiz-adv-x="490" 
d="M0 700h230l260 -700h-230z" />
    <glyph glyph-name="bracketright" unicode="]" horiz-adv-x="430" 
d="M20 -150v185h125v510h-125v185h350v-880h-350z" />
    <glyph glyph-name="asciicircum" unicode="^" horiz-adv-x="550" 
d="M0 370l155 330h240l155 -330h-185l-80 170h-20l-80 -170h-185z" />
    <glyph glyph-name="underscore" unicode="_" horiz-adv-x="420" 
d="M-20 -230v170h460v-170h-460z" />
    <glyph glyph-name="grave" unicode="`" horiz-adv-x="340" 
d="M30 695v5h210l70 -155h-135z" />
    <glyph glyph-name="a" unicode="a" horiz-adv-x="690" 
d="M30 265c0 86.667 21 155 63 205s94.333 75 157 75c45.333 0 85 -14.333 119 -43c15.333 -12 27.333 -26 36 -42h10v70h230v-530h-230v70h-10c-8.66699 -16.667 -20.667 -31 -36 -43c-33.333 -28 -73 -42 -119 -42c-62.667 0 -115 25 -157 75s-63 118.333 -63 205z
M265 265c0 -29.333 7.33301 -52.5 22 -69.5s32.667 -25.5 54 -25.5c20.667 0 38.167 8.66699 52.5 26s21.5 40.333 21.5 69s-7.16699 51.667 -21.5 69s-31.833 26 -52.5 26c-21.333 0 -39.333 -8.5 -54 -25.5s-22 -40.167 -22 -69.5z" />
    <glyph glyph-name="b" unicode="b" horiz-adv-x="690" 
d="M45 0v700h230v-240h10c8.66699 16 20.667 30 36 42c34 28.667 73.667 43 119 43c62.667 0 115 -25 157 -75s63 -118.333 63 -205s-21 -155 -63 -205s-94.333 -75 -157 -75c-46 0 -85.667 14 -119 42c-15.333 12 -27.333 26.333 -36 43h-10v-70h-230zM275 265
c0 -28.667 7.16699 -51.667 21.5 -69s31.833 -26 52.5 -26c21.333 0 39.333 8.5 54 25.5s22 40.167 22 69.5s-7.33301 52.5 -22 69.5s-32.667 25.5 -54 25.5c-20.667 0 -38.167 -8.66699 -52.5 -26s-21.5 -40.333 -21.5 -69z" />
    <glyph glyph-name="c" unicode="c" horiz-adv-x="660" 
d="M25 265c0 78.667 28.667 145 86 199s130.333 81 219 81c116.667 0 202.334 -39.333 257.001 -118c24 -35.333 40 -74.333 48 -117h-235c-3.33301 11.333 -8 20.333 -14 27c-14 18.667 -32.667 28 -56 28c-21.333 0 -38.333 -8.16699 -51 -24.5s-19 -41.5 -19 -75.5
s6.33301 -59.167 19 -75.5s29.667 -24.5 51 -24.5c24 0 42.667 9 56 27c6 7.33301 10.667 16.666 14 27.999h235c-8 -43.333 -24 -82.666 -48 -117.999c-52.667 -78 -138.334 -117 -257.001 -117c-88.667 0 -161.667 27 -219 81s-86 120.333 -86 199z" />
    <glyph glyph-name="d" unicode="d" horiz-adv-x="690" 
d="M30 265c0 86.667 21 155 63 205s94.333 75 157 75c45.333 0 85 -14.333 119 -43c15.333 -12 27.333 -26 36 -42h10v240h230v-700h-230v70h-10c-8.66699 -16.667 -20.667 -31 -36 -43c-33.333 -28 -73 -42 -119 -42c-62.667 0 -115 25 -157 75s-63 118.333 -63 205z
M265 265c0 -29.333 7.33301 -52.5 22 -69.5s32.667 -25.5 54 -25.5c20.667 0 38.167 8.66699 52.5 26s21.5 40.333 21.5 69s-7.16699 51.667 -21.5 69s-31.833 26 -52.5 26c-21.333 0 -39.333 -8.5 -54 -25.5s-22 -40.167 -22 -69.5z" />
    <glyph glyph-name="e" unicode="e" horiz-adv-x="660" 
d="M25 265c0 78.667 28.666 145 85.999 199s130.333 81 219 81s161.667 -27 219 -81s86 -120.333 86 -199v-15h-375c0 -70 23.333 -105 70 -105c19.333 0 36.333 7.33301 51 22c6.66699 8 11.334 15.667 14.001 23h235c-12 -38.667 -31 -73 -57 -103
c-60 -68 -141 -102 -243 -102c-88.667 0 -161.667 27 -219 81s-86 120.333 -86 199zM264.999 315h130c-0.666992 10.667 -4 22.334 -10 35.001c-12.667 23.333 -31 35 -55 35s-42.333 -11.667 -55 -35c-6 -12.667 -9.33301 -24.334 -10 -35.001z" />
    <glyph glyph-name="f" unicode="f" horiz-adv-x="435" 
d="M10 345v155h70v200h360v-155h-130v-45h110v-155h-110v-345h-230v345h-70z" />
    <glyph glyph-name="g" unicode="g" horiz-adv-x="690" 
d="M30 280c0 80 21.167 144.167 63.5 192.5s94.5 72.5 156.5 72.5c45.333 0 85 -14.333 119 -43c15.333 -12 27.333 -26 36 -42h10v70h230v-720h-550v155h320v135h-10c-8.66699 -16.667 -20.667 -31 -36 -43c-33.333 -28 -73 -42 -119 -42
c-62 0 -114.167 24.167 -156.5 72.5s-63.5 112.5 -63.5 192.5zM265 280c0 -25.333 6.66699 -45 20 -59s32 -21 56 -21c22.667 0 40.667 7 54 21s20 33.667 20 59s-6.66699 45 -20 59s-31.333 21 -54 21c-24 0 -42.667 -7 -56 -21s-20 -33.667 -20 -59z" />
    <glyph glyph-name="h" unicode="h" horiz-adv-x="670" 
d="M45 0v700h230v-245h10c9.33301 16.667 22 31.667 38 45c35.333 30 74.333 45 117 45c59.333 0 105.833 -18.5 139.5 -55.5s50.5 -90.167 50.5 -159.5v-330h-230v290c0 20.667 -5 36.667 -15 48s-23.333 17 -40 17c-20.667 0 -37.5 -7.16699 -50.5 -21.5
s-19.5 -33.833 -19.5 -58.5v-275h-230z" />
    <glyph glyph-name="i" unicode="i" horiz-adv-x="320" 
d="M40 675c0 30.667 10.667 55.834 32 75.501s50.666 29.5 87.999 29.5s66.666 -9.83301 87.999 -29.5s32 -44.834 32 -75.501s-10.667 -55.834 -32 -75.501s-50.666 -29.5 -87.999 -29.5s-66.666 9.83301 -87.999 29.5s-32 44.834 -32 75.501zM45 0v530h230v-530h-230z" />
    <glyph glyph-name="j" unicode="j" horiz-adv-x="335" 
d="M55 675c0 30.667 10.667 55.834 32 75.501s50.666 29.5 87.999 29.5s66.666 -9.83301 87.999 -29.5s32 -44.834 32 -75.501s-10.667 -55.834 -32 -75.501s-50.666 -29.5 -87.999 -29.5s-66.666 9.83301 -87.999 29.5s-32 44.834 -32 75.501zM-60 -190v155h120v565h230
v-720h-350z" />
    <glyph glyph-name="k" unicode="k" horiz-adv-x="640" 
d="M45 0v700h230v-340h35l80 170h235l-125 -255l140 -275h-235l-85 170h-45v-170h-230z" />
    <glyph glyph-name="l" unicode="l" horiz-adv-x="405" 
d="M45 0v700h230v-545h120v-155h-350z" />
    <glyph glyph-name="m" unicode="m" horiz-adv-x="995" 
d="M45 0l0.00195312 530h230v-75h10c9.33301 16.667 22 31.667 38 45c35.333 30 74.333 45 117 45c49.333 0 89.666 -15 120.999 -45c13.333 -12.667 24.666 -27.667 33.999 -45h10c8.66699 16.667 20.667 31.667 36 45c32.667 30 72.334 45 119.001 45
c61.333 0 109.166 -18.5 143.499 -55.5s51.5 -90.167 51.5 -159.5v-330h-230v290c0 43.333 -16.667 65 -50 65c-40 0 -60 -25 -60 -75v-280h-230v290c0 43.333 -16.667 65 -50 65c-40 0 -60 -25 -60 -75v-280h-230z" />
    <glyph glyph-name="n" unicode="n" horiz-adv-x="670" 
d="M45 0v530h230v-75h10c9.33301 16.667 22 31.667 38 45c35.333 30 74.333 45 117 45c59.333 0 105.833 -18.5 139.5 -55.5s50.5 -90.167 50.5 -159.5v-330h-230v290c0 20.667 -5 36.667 -15 48s-23.333 17 -40 17c-20.667 0 -37.5 -7.16699 -50.5 -21.5
s-19.5 -33.833 -19.5 -58.5v-275h-230z" />
    <glyph glyph-name="o" unicode="o" 
d="M25 265c0 79.333 29.167 145.833 87.5 199.5s134.166 80.5 227.499 80.5c92.667 0 168.334 -26.833 227.001 -80.5s88 -120.167 88 -199.5s-29.333 -145.833 -88 -199.5s-134.334 -80.5 -227.001 -80.5c-93.333 0 -169.166 26.833 -227.499 80.5
s-87.5 120.167 -87.5 199.5zM260 265c0 -31.333 7.5 -55.833 22.5 -73.5s34.167 -26.5 57.5 -26.5s42.5 8.83301 57.5 26.5s22.5 42.167 22.5 73.5s-7.5 55.833 -22.5 73.5s-34.167 26.5 -57.5 26.5s-42.5 -8.83301 -57.5 -26.5s-22.5 -42.167 -22.5 -73.5z" />
    <glyph glyph-name="p" unicode="p" horiz-adv-x="690" 
d="M45 -190v720h230v-70h10c8.66699 16 20.667 30 36 42c34 28.667 73.667 43 119 43c62.667 0 115 -25 157 -75s63 -118.333 63 -205s-21 -155 -63 -205s-94.333 -75 -157 -75c-46 0 -85.667 14 -119 42c-15.333 12 -27.333 26.333 -36 43h-10v-260h-230zM275 265
c0 -28.667 7.16699 -51.667 21.5 -69s31.833 -26 52.5 -26c21.333 0 39.333 8.5 54 25.5s22 40.167 22 69.5s-7.33301 52.5 -22 69.5s-32.667 25.5 -54 25.5c-20.667 0 -38.167 -8.66699 -52.5 -26s-21.5 -40.333 -21.5 -69z" />
    <glyph glyph-name="q" unicode="q" horiz-adv-x="690" 
d="M30 265c0 86.667 21 155 63 205s94.333 75 157 75c45.333 0 85 -14.333 119 -43c15.333 -12 27.333 -26 36 -42h10v70h230v-720h-230v260h-10c-8.66699 -16.667 -20.667 -31 -36 -43c-33.333 -28 -73 -42 -119 -42c-62.667 0 -115 25 -157 75s-63 118.333 -63 205z
M265 265c0 -29.333 7.33301 -52.5 22 -69.5s32.667 -25.5 54 -25.5c20.667 0 38.167 8.66699 52.5 26s21.5 40.333 21.5 69s-7.16699 51.667 -21.5 69s-31.833 26 -52.5 26c-21.333 0 -39.333 -8.5 -54 -25.5s-22 -40.167 -22 -69.5z" />
    <glyph glyph-name="r" unicode="r" horiz-adv-x="450" 
d="M45 0l0.000976562 530h220v-80h10c6 16 14.667 31 26 45c24.667 30 56 45 94 45h45v-220h-96c-24.667 0 -42.334 -5.16699 -53.001 -15.5s-16 -26.833 -16 -49.5v-255h-230z" />
    <glyph glyph-name="s" unicode="s" horiz-adv-x="600" 
d="M20 175l215 -0.00195312c0.666992 -6.66699 4 -13.334 10 -20.001c10.667 -13.333 29 -20 55 -20c30 0 45 6.66699 45 20c0 8 -5.33301 14.333 -16 19s-29 10 -55 16c-3.33301 0.666992 -6 1.33398 -8 2.00098l-42 10c-8 2 -22 6 -42 12s-34.667 11.667 -44 17
s-21.5 12.833 -36.5 22.5s-26.167 19.834 -33.5 30.501s-13.833 23.834 -19.5 39.501s-8.5 32.834 -8.5 51.501c0 48.667 21.667 89.167 65 121.5s106.666 48.5 189.999 48.5c102.667 0 179.667 -31 231 -93c22.667 -28 37.334 -58.667 44.001 -92h-215
c-2 5.33301 -4.66699 11 -8 17c-9.33301 12 -21.666 18 -36.999 18c-23.333 0 -35 -6.66699 -35 -20c0 -7.33301 6.16699 -13.333 18.5 -18s32.5 -9.66699 60.5 -15c18 -4 28.833 -6.5 32.5 -7.5l32 -8.5c17.667 -4.66699 29.5 -8.33398 35.5 -11.001l31 -13.5
c14.667 -6.33301 25 -12.166 31 -17.499l24.5 -21.5c10.333 -9 17.666 -18.333 21.999 -28s8.33301 -20.834 12 -33.501s5.5 -26.334 5.5 -41.001c0 -49.333 -23.5 -90.833 -70.5 -124.5s-115.167 -50.5 -204.5 -50.5c-112.667 0 -193.334 31.667 -242.001 95
c-21.333 26.667 -35.666 58.334 -42.999 95.001z" />
    <glyph glyph-name="t" unicode="t" horiz-adv-x="470" 
d="M10 375v155h70v110h230v-110h120v-155h-120v-220h130v-155h-360v375h-70z" />
    <glyph glyph-name="u" unicode="u" horiz-adv-x="675" 
d="M45 200v330h230v-290c0 -20.667 5 -36.667 15 -48s23.333 -17 40 -17c20.667 0 37.5 7.16699 50.5 21.5s19.5 33.833 19.5 58.5v275h230v-530h-230v75h-10c-9.33301 -16.667 -22 -31.667 -38 -45c-35.333 -30 -74.333 -45 -117 -45c-59.333 0 -105.833 18.5 -139.5 55.5
s-50.5 90.167 -50.5 159.5z" />
    <glyph glyph-name="v" unicode="v" horiz-adv-x="620" 
d="M0 530h230l65 -350h30l65 350h230l-120 -530h-380z" />
    <glyph glyph-name="w" unicode="w" horiz-adv-x="920" 
d="M10 530h230l40 -300h15l50 300h230l50 -300h15l40 300h230l-100 -530h-300l-45 300h-10l-45 -300h-300z" />
    <glyph glyph-name="x" unicode="x" horiz-adv-x="640" 
d="M0 0l130 280l-120 250h240l60 -160h20l60 160h240l-120 -250l130 -280h-245l-60 165h-30l-60 -165h-245z" />
    <glyph glyph-name="y" unicode="y" horiz-adv-x="640" 
d="M10 530h230l75 -340h15l75 340h235l-189 -720h-231l55 190h-135z" />
    <glyph glyph-name="z" unicode="z" horiz-adv-x="580" 
d="M30 0v180l220 160v10h-210v180h500v-180l-220 -160v-10h230v-180h-520z" />
    <glyph glyph-name="braceleft" unicode="{" horiz-adv-x="450" 
d="M30 190v200h44c17.333 0 26 10 26 30v140c0 52.667 15.167 94.167 45.5 124.5s71.833 45.5 124.5 45.5h160v-185h-75c-20 0 -30 -10 -30 -30v-110c0 -38.667 -14.333 -69 -43 -91c-13.333 -10 -27.333 -16.333 -42 -19v-10c14.667 -2.66699 28.667 -9 42 -19
c28.667 -22 43 -52.333 43 -91v-110c0 -20 10 -30 30 -30h75v-185h-160c-52.667 0 -94.167 15.167 -124.5 45.5s-45.5 71.833 -45.5 124.5v140c0 20 -8.66699 30 -26 30h-44z" />
    <glyph glyph-name="bar" unicode="|" horiz-adv-x="450" 
d="M120 -100v850h210v-850h-210z" />
    <glyph glyph-name="braceright" unicode="}" horiz-adv-x="450" 
d="M20 -150v185.002h75c20 0 30 10 30 30v110c0 39.333 14 69.666 42 90.999c13.333 10 27.666 16.333 42.999 19v10c-15.333 2.66699 -29.666 9 -42.999 19c-28 21.333 -42 51.666 -42 90.999v110c0 20 -10 30 -30 30h-75v185h160c52.667 0 94.167 -15.167 124.5 -45.5
s45.5 -71.833 45.5 -124.5v-140c0 -20 8.66699 -30 26 -30h44v-200h-44c-17.333 0 -26 -10 -26 -30v-140c0 -52.667 -15.167 -94.167 -45.5 -124.5s-71.833 -45.5 -124.5 -45.5h-160z" />
    <glyph glyph-name="asciitilde" unicode="~" horiz-adv-x="570" 
d="M40 180v95c0 42 11.833 75.833 35.5 101.5s53.5 38.5 89.5 38.5c10.667 0 21 -0.833008 31 -2.5s18.5 -3.33398 25.5 -5.00098s15 -4.33398 24 -8.00098s15.5 -6.5 19.5 -8.5l19 -10c8.66699 -4.66699 14 -7.33398 16 -8.00098c12 -5.33301 23.667 -8 35 -8
c10 0 18.333 3.16699 25 9.5s10 14.833 10 25.5v15h160v-95c0 -44.667 -11.167 -79.167 -33.5 -103.5s-52.833 -36.5 -91.5 -36.5c-10.667 0 -21 0.833008 -31 2.5s-18.5 3.33398 -25.5 5.00098s-15 4.33398 -24 8.00098s-15.5 6.5 -19.5 8.5l-19 10
c-8.66699 4.66699 -14 7.33398 -16 8.00098c-12 5.33301 -23.667 8 -35 8c-10 0 -18.333 -3.16699 -25 -9.5s-10 -14.833 -10 -25.5v-15h-160z" />
    <glyph glyph-name="nbspace" unicode="&#xa0;" horiz-adv-x="280" 
 />
    <glyph glyph-name="exclamdown" unicode="&#xa1;" horiz-adv-x="350" 
d="M65 435c0 30 10.833 55.833 32.5 77.5s47.5 32.5 77.5 32.5c29.333 0 55 -11 77 -33s33 -47.667 33 -77c0 -30 -10.833 -55.833 -32.5 -77.5s-47.5 -32.5 -77.5 -32.5c-30.667 0 -56.667 10.667 -78 32s-32 47.333 -32 78zM60 -190v295l40 170h150l40 -170v-295h-230z
" />
    <glyph glyph-name="cent" unicode="&#xa2;" horiz-adv-x="660" 
d="M25 265c0 88.667 33.3311 159.001 99.998 211.001c28.667 22.667 62 40.667 100 54v90h200v-85c78.667 -20 137.334 -63 176.001 -129c18 -31.333 29.333 -63.333 34 -96h-235c-3.33301 11.333 -8 20.333 -14 27c-14 18.667 -32.667 28 -56 28
c-21.333 0 -38.333 -8.16699 -51 -24.5s-19 -41.5 -19 -75.5s6.33301 -59.167 19 -75.5s29.667 -24.5 51 -24.5c24 0 42.667 9 56 27c6 7.33301 10.667 16.666 14 27.999h235c-4.66699 -32.667 -16 -64.667 -34 -96c-39.333 -68.667 -98 -111.667 -176 -129v-85h-200v90
c-37.333 13.333 -70.666 32 -99.999 56c-66.667 52 -100 121.667 -100 209z" />
    <glyph glyph-name="sterling" unicode="&#xa3;" 
d="M25 0v180h10c22 0 39.167 5.83301 51.5 17.5s18.5 27.5 18.5 47.5v45h-60v140h60v60c0 72 25.167 130 75.5 174s121.833 66 214.5 66c102.667 0 179 -37.667 229 -113c21.333 -34 35 -71.333 41 -112h-235c0 8 -1.33301 14.667 -4 20c-4.66699 13.333 -15 20 -31 20
c-26.667 0 -40 -18.333 -40 -55v-60h135v-140h-135v-15c0 -30.667 -11 -55 -33 -73c-9.33301 -7.33301 -20 -13 -32 -17v-5h375v-180h-640z" />
    <glyph glyph-name="currency" unicode="&#xa4;" horiz-adv-x="765" 
d="M20 80v125h70v65h-70v130h70v300h375c89.333 0 157.5 -19.667 204.5 -59s70.5 -91.333 70.5 -156s-23.5 -116.667 -70.5 -156s-115.167 -59 -204.5 -59h-125v-65h190v-125h-190v-80h-250v80h-70zM340 400h75c46.667 0 70 23.333 70 70s-23.333 70 -70 70h-75v-140z" />
    <glyph glyph-name="yen" unicode="&#xa5;" horiz-adv-x="750" 
d="M0 700h250l120 -200h10l120 200h250l-215 -335h105v-110h-140v-65h140v-110h-140v-80h-250v80h-140v110h140v65h-140v110h105z" />
    <glyph glyph-name="brokenbar" unicode="&#xa6;" horiz-adv-x="450" 
d="M120 385v365h210v-365h-210zM120 -100v365h210v-365h-210z" />
    <glyph glyph-name="section" unicode="&#xa7;" horiz-adv-x="665" 
d="M35 154l220.002 0.00390625c1.33301 -7.33301 4.33301 -14 9 -20c9.33301 -12.667 26.333 -19 51 -19c33.333 0 50 8.33301 50 25c0 7.33301 -6.5 13.666 -19.5 18.999s-34.833 11.666 -65.5 18.999c-26.667 5.33301 -48.334 10.166 -65.001 14.499
s-37.667 11.166 -63 20.499s-45.5 19.5 -60.5 30.5s-28.167 25.333 -39.5 43s-17 37.167 -17 58.5c0 31.333 16.667 59.666 50 84.999c14.667 10 31.334 18.333 50.001 25v10c-14.667 8.66699 -26.334 18 -35.001 28c-23.333 23.333 -35 49 -35 77
c0 44 22.5 81.667 67.5 113s110.833 47 197.5 47c107.333 0 188 -29 242 -87c22.667 -26 38.667 -55 48 -87h-220c-2 6.66699 -5 13 -9 19c-10 13.333 -25.333 20 -46 20c-30 0 -45 -8.33301 -45 -25c0 -12 28.667 -24.333 86 -37c80 -20 135 -38 165 -54
c52.667 -28.667 79 -66.667 79 -114c0 -34 -16.667 -62.333 -50 -85c-14.667 -10.667 -31.334 -19 -50.001 -25v-10c12 -7.33301 23.667 -16.666 35 -27.999c23.333 -26 35 -51.667 35 -77c0 -44.667 -23 -82.5 -69 -113.5s-114.667 -46.5 -206 -46.5
c-112.667 0 -194.667 29 -246 87c-22 24 -36.667 53 -44 87zM270.002 370.004c0 -8 3.66699 -14.833 11 -20.5s22 -12.167 44 -19.5l50 -15c4.66699 1.33301 8 3 10 5c6.66699 5.33301 10 12 10 20s-3.66699 14.833 -11 20.5s-22 12.167 -44 19.5l-50 15
c-4.66699 -1.33301 -8 -3 -10 -5c-6.66699 -5.33301 -10 -12 -10 -20z" />
    <glyph glyph-name="dieresis" unicode="&#xa8;" horiz-adv-x="480" 
d="M260 615c0 28 8.83301 50.833 26.5 68.5s40.5 26.5 68.5 26.5s50.833 -8.83301 68.5 -26.5s26.5 -40.5 26.5 -68.5s-8.83301 -50.833 -26.5 -68.5s-40.5 -26.5 -68.5 -26.5s-50.833 8.83301 -68.5 26.5s-26.5 40.5 -26.5 68.5zM30 615c0 28 8.83301 50.833 26.5 68.5
s40.5 26.5 68.5 26.5s50.833 -8.83301 68.5 -26.5s26.5 -40.5 26.5 -68.5s-8.83301 -50.833 -26.5 -68.5s-40.5 -26.5 -68.5 -26.5s-50.833 8.83301 -68.5 26.5s-26.5 40.5 -26.5 68.5z" />
    <glyph glyph-name="copyright" unicode="&#xa9;" horiz-adv-x="840" 
d="M30 350c0 101.333 37.833 188.333 113.5 261s167.834 109 276.501 109s200.834 -36.333 276.501 -109s113.5 -159.667 113.5 -261s-37.833 -188.333 -113.5 -261s-167.834 -109 -276.501 -109s-200.834 36.333 -276.501 109s-113.5 159.667 -113.5 261zM160 350
c0 -70.667 24.667 -130 74 -178s111.333 -72 186 -72s136.667 24 186 72s74 107.333 74 178s-24.667 130 -74 178s-111.333 72 -186 72s-136.667 -24 -186 -72s-74 -107.333 -74 -178zM235 350c0 50 17.835 92.501 53.502 127.501s79.5 52.5 131.5 52.5
c67.333 0 118.666 -26 153.999 -78c16 -24.667 26.333 -50.334 31 -77.001h-134c-4 6.66699 -7.33301 11.667 -10 15c-10 10 -22 15 -36 15c-15.333 0 -27.5 -4.83301 -36.5 -14.5s-13.5 -23.167 -13.5 -40.5s4.5 -30.833 13.5 -40.5s21.167 -14.5 36.5 -14.5
s27.333 5 36 15c3.33301 3.33301 6.66602 8.33301 9.99902 15h134c-4.66699 -27.333 -15 -53.333 -31 -78c-34 -51.333 -85.667 -77 -155 -77c-52 0 -95.667 17.5 -131 52.5s-53 77.5 -53 127.5z" />
    <glyph glyph-name="ordfeminine" unicode="&#xaa;" horiz-adv-x="410" 
d="M30 460c0 28.667 9.66602 51.665 28.999 68.998s46.333 26 81 26h100v25c0 20 -10 30 -30 30c-10 0 -18 -5 -24 -15c-2.66699 -4.66699 -4.66699 -9.66699 -6 -15h-130c5.33301 24.667 14.333 46.334 27 65.001c32.667 43.333 80.334 65 143.001 65
c51.333 0 90.833 -12.167 118.5 -36.5s41.5 -57.166 41.5 -98.499v-205h-140v45h-5c-4.66699 -10.667 -11.667 -20 -21 -28c-18 -18 -42.667 -27 -74 -27c-32 0 -58.333 9.5 -79 28.5s-31 42.833 -31 71.5zM174.999 489.998c0 -13.333 8.33301 -20 25 -20
c26.667 0 40 13.333 40 40h-40c-16.667 0 -25 -6.66699 -25 -20z" />
    <glyph glyph-name="guillemotleft" unicode="&#xab;" horiz-adv-x="700" 
d="M310 265l235 270l125 -115l-140 -155l140 -155l-125 -115zM15 265l235 270l125 -115l-140 -155l140 -155l-125 -115z" />
    <glyph glyph-name="logicalnot" unicode="&#xac;" horiz-adv-x="540" 
d="M40 230v180h450v-280h-190v100h-260z" />
    <glyph glyph-name="uni00AD" unicode="&#xad;" horiz-adv-x="500" 
d="M40 180v180h420v-180h-420z" />
    <glyph glyph-name="registered" unicode="&#xae;" horiz-adv-x="600" 
d="M15 445c0 75.333 27.667 140 83 194s122.666 81 201.999 81s146.666 -27 201.999 -81s83 -118.667 83 -194s-27.667 -140 -83 -194s-122.666 -81 -201.999 -81s-146.666 27 -201.999 81s-83 118.667 -83 194zM120 445c0 -52 17.001 -94.999 51.001 -128.999
s77 -51 129 -51c40 0 75.333 10 106 30c14.667 10 26 20 34 30h-90l-45 65h-10v-65h-100v245h125c37.333 0 65.833 -8.66699 85.5 -26s29.5 -40.333 29.5 -69c0 -22 -6 -40.333 -18 -55c-4.66699 -6.66699 -10.334 -11.667 -17.001 -15l47 -69
c4.66699 5.33301 10 14.666 16 27.999c11.333 26.667 17 53.667 17 81c0 52 -17 95 -51 129s-77 51 -129 51s-95 -17 -129 -51s-51 -77 -51 -129zM295.001 455.001h15c16.667 0 25 6.66699 25 20s-8.33301 20 -25 20h-15v-40z" />
    <glyph glyph-name="macron" unicode="&#xaf;" horiz-adv-x="420" 
d="M30 570v120h360v-120h-360z" />
    <glyph glyph-name="degree" unicode="&#xb0;" horiz-adv-x="340" 
d="M25 570c0 40 13.667 73.333 41 100s62 40 104 40s76.667 -13.333 104 -40s41 -60 41 -100s-13.667 -73.333 -41 -100s-62 -40 -104 -40s-76.667 13.333 -104 40s-41 60 -41 100zM135 570c0 -10 3.33301 -18.333 10 -25s15 -10 25 -10s18.333 3.33301 25 10s10 15 10 25
s-3.33301 18.333 -10 25s-15 10 -25 10s-18.333 -3.33301 -25 -10s-10 -15 -10 -25z" />
    <glyph glyph-name="plusminus" unicode="&#xb1;" horiz-adv-x="570" 
d="M50 0v170h145v125h-145v170h145v145h180v-145h145v-170h-145v-125h145v-170h-470z" />
    <glyph glyph-name="twosuperior" unicode="&#xb2;" horiz-adv-x="380" 
d="M150 670h-135.001c4.66699 24.667 14.334 48 29.001 70c32 46.667 80.667 70 146 70c50 0 89.167 -11.167 117.5 -33.5s42.5 -49.5 42.5 -81.5c0 -36 -16.667 -66.667 -50 -92c-17.333 -12.667 -34 -22 -50 -28l-15 -5l-15 -5v-5l50 10h80v-110h-330v105l90 45l22 11
c30.667 15.333 50.5 26 59.5 32s13.5 13.333 13.5 22c0 13.333 -8.33301 20 -25 20c-11.333 0 -19.333 -4.33301 -24 -13c-2.66699 -2.66699 -4.66699 -6.66699 -6 -12z" />
    <glyph glyph-name="threesuperior" unicode="&#xb3;" horiz-adv-x="365" 
d="M15 575l135 -0.000976562c0.666992 -3.33301 2.66699 -6.66602 6 -9.99902c5.33301 -6.66699 13.333 -10 24 -10c16.667 0 25 8.33301 25 25s-10 25 -30 25h-65v55l80 45v5l-40 -10h-115v100h295v-95l-75 -43l-11 -6v-6h1c32 0 57.5 -7.66699 76.5 -23s28.5 -36 28.5 -62
c0 -32 -14.5 -59.167 -43.5 -81.5s-69.5 -33.5 -121.5 -33.5c-68.667 0 -117 20.667 -145 62c-14 19.333 -22.333 40.333 -25 63z" />
    <glyph glyph-name="acute" unicode="&#xb4;" horiz-adv-x="340" 
d="M30 545l70 155h210v-5l-145 -150h-135z" />
    <glyph glyph-name="mu" unicode="&#xb5;" horiz-adv-x="675" 
d="M45 -200v730h230v-290c0 -20.667 5 -36.667 15 -48s23.333 -17 40 -17c20.667 0 37.5 7.16699 50.5 21.5s19.5 33.833 19.5 58.5v275h230v-530h-230v75h-10c-5.33301 -18.667 -12 -33.667 -20 -45c-19.333 -30 -46.333 -45 -81 -45c-22.667 0 -42 6.66699 -58 20
c-7.33301 5.33301 -14.333 12 -21 20h-10l75 -170v-55h-230z" />
    <glyph glyph-name="paragraph" unicode="&#xb6;" horiz-adv-x="600" 
d="M20 450c0 70.667 25.332 130 75.999 178s115.334 72 194.001 72h290v-200h-100v-700h-210v400c-70 0 -129.167 24.167 -177.5 72.5s-72.5 107.5 -72.5 177.5z" />
    <glyph glyph-name="periodcentered" unicode="&#xb7;" horiz-adv-x="280" 
d="M30 285c0 30 10.833 55.833 32.5 77.5s47.5 32.5 77.5 32.5c29.333 0 55 -11 77 -33s33 -47.667 33 -77c0 -30 -10.833 -55.833 -32.5 -77.5s-47.5 -32.5 -77.5 -32.5c-30.667 0 -56.667 10.667 -78 32s-32 47.333 -32 78z" />
    <glyph glyph-name="cedilla" unicode="&#xb8;" horiz-adv-x="310" 
d="M30 -260v100.001c5.33301 -2.66699 14 -6 26 -10c21.333 -6.66699 42.666 -10 63.999 -10c33.333 0 50 10 50 30s-13.333 30 -40 30h-65l50 140h80l-25 -65c19.333 -2 37.666 -7 54.999 -15c36.667 -20.667 55 -50.667 55 -90c0 -38.667 -13.167 -70 -39.5 -94
s-63.166 -36 -110.499 -36c-29.333 0 -54.666 3.33301 -75.999 10c-10.667 3.33301 -18.667 6.66602 -24 9.99902z" />
    <glyph glyph-name="onesuperior" unicode="&#xb9;" horiz-adv-x="365" 
d="M30 460v110h90v110l-80 -40v115l90 45h135v-230h75v-110h-310z" />
    <glyph glyph-name="ordmasculine" unicode="&#xba;" horiz-adv-x="400" 
d="M15 540c0 48.667 17.333 89.167 52 121.5s79 48.5 133 48.5s98.333 -16.167 133 -48.5s52 -72.833 52 -121.5c0 -52 -17.333 -95 -52 -129s-79 -51 -133 -51s-98.333 17 -133 51s-52 77 -52 129zM160 535c0 -40 13.333 -60 40 -60s40 20 40 60s-13.333 60 -40 60
s-40 -20 -40 -60z" />
    <glyph glyph-name="guillemotright" unicode="&#xbb;" horiz-adv-x="705" 
d="M330 110l140 155l-140 155l125 115l235 -270l-235 -270zM35 110l140 155l-140 155l125 115l235 -270l-235 -270z" />
    <glyph glyph-name="onequarter" unicode="&#xbc;" horiz-adv-x="885" 
d="M30 360v110h90v110l-80 -40v115l90 45h135v-230h75v-110h-310zM185 0l420 700h155l-420 -700h-155zM510 55v100l115 185h140l-110 -175h45l35 55h90v-55h35v-110h-35v-55h-135v55h-180z" />
    <glyph glyph-name="onehalf" unicode="&#xbd;" horiz-adv-x="920" 
d="M30 360v110h90v110l-80 -40v115l90 45h135v-230h75v-110h-310zM185 0l420 700h155l-420 -700h-155zM690 210h-135.001c4.66699 24.667 14.334 48 29.001 70c32 46.667 80.667 70 146 70c50 0 89.167 -11.167 117.5 -33.5s42.5 -49.5 42.5 -81.5
c0 -36 -16.667 -66.667 -50 -92c-17.333 -12.667 -34 -22 -50 -28l-15 -5l-15 -5v-5l50 10h80v-110h-330v105l90 45l22 11c30.667 15.333 50.5 26 59.5 32s13.5 13.333 13.5 22c0 13.333 -8.33301 20 -25 20c-11.333 0 -19.333 -4.33301 -24 -13
c-2.66699 -2.66699 -4.66699 -6.66699 -6 -12z" />
    <glyph glyph-name="threequarters" unicode="&#xbe;" horiz-adv-x="875" 
d="M25 475l135 -0.000976562c0.666992 -3.33301 2.66699 -6.66602 6 -9.99902c5.33301 -6.66699 13.333 -10 24 -10c16.667 0 25 8.33301 25 25s-10 25 -30 25h-65v55l80 45v5l-40 -10h-115v100h295v-95l-75 -43l-11 -6v-6h1c32 0 57.5 -7.66699 76.5 -23s28.5 -36 28.5 -62
c0 -32 -14.5 -59.167 -43.5 -81.5s-69.5 -33.5 -121.5 -33.5c-68.667 0 -117 20.667 -145 62c-14 19.333 -22.333 40.333 -25 63zM175 -0.000976562l420 700h155l-420 -700h-155zM500 54.999v100l115 185h140l-110 -175h45l35 55h90v-55h35v-110h-35v-55h-135v55h-180z" />
    <glyph glyph-name="questiondown" unicode="&#xbf;" horiz-adv-x="665" 
d="M235 435c0 30 10.833 55.833 32.5 77.5s47.5 32.5 77.5 32.5c29.333 0 55 -11 77 -33s33 -47.667 33 -77c0 -30 -10.833 -55.833 -32.5 -77.5s-47.5 -32.5 -77.5 -32.5c-30.667 0 -56.667 10.667 -78 32s-32 47.333 -32 78zM25 15c0 66.667 34.333 120 103 160
c4.66699 2.66699 12.834 7.66699 24.501 15l25 15.5c5 3 11.667 7.66699 20 14s14.333 12 18 17s7 10.833 10 17.5s4.5 13.667 4.5 21h230c0 -66 -32.333 -118.667 -97 -158c-2.66699 -2 -7 -4.66699 -13 -8c-20 -12 -34.667 -21.333 -44 -28s-18.5 -15.167 -27.5 -25.5
s-13.5 -20.5 -13.5 -30.5c0 -30 23.333 -45 70 -45c32.667 0 57.667 10.667 75 32c6.66699 9.33301 11.667 20.333 15 33h235c-9.33301 -45.333 -28 -87 -56 -125c-62.667 -83.333 -157.334 -125 -284.001 -125c-94 0 -166.667 20.833 -218 62.5s-77 94.167 -77 157.5z" />
    <glyph glyph-name="Agrave" unicode="&#xc0;" horiz-adv-x="760" 
d="M-10 0l195 700h395l190 -700h-250l-35 130h-215l-35 -130h-245zM310 305h135l-45 185h-40zM180 935v5h210l70 -155h-135z" />
    <glyph glyph-name="Aacute" unicode="&#xc1;" horiz-adv-x="760" 
d="M-10 0l195 700h395l190 -700h-250l-35 130h-215l-35 -130h-245zM310 305h135l-45 185h-40zM315 785l70 155h210v-5l-145 -150h-135z" />
    <glyph glyph-name="Acircumflex" unicode="&#xc2;" horiz-adv-x="760" 
d="M-10 0l195 700h395l190 -700h-250l-35 130h-215l-35 -130h-245zM310 305h135l-45 185h-40zM195 785v6l110 149h150l110 -149v-6h-135l-40 60h-20l-40 -60h-135z" />
    <glyph glyph-name="Atilde" unicode="&#xc3;" horiz-adv-x="760" 
d="M-10 0l195 700h395l190 -700h-250l-35 130h-215l-35 -130h-245zM310 305h135l-45 185h-40zM205 775v70c0 30 8 53.333 24 70s38 25 66 25c16 0 41 -5.66699 75 -17c32 -12 52 -18 60 -18c13.333 0 20 6.66699 20 20v10h115v-70c0 -30 -8 -53.333 -24 -70s-38 -25 -66 -25
c-18 0 -43 6 -75 18c-34 11.333 -54 17 -60 17c-13.333 0 -20 -6.66699 -20 -20v-10h-115z" />
    <glyph glyph-name="Adieresis" unicode="&#xc4;" horiz-adv-x="760" 
d="M-10 0l195 700h395l190 -700h-250l-35 130h-215l-35 -130h-245zM310 305h135l-45 185h-40zM400 855c0 28 8.83301 50.833 26.5 68.5s40.5 26.5 68.5 26.5s50.833 -8.83301 68.5 -26.5s26.5 -40.5 26.5 -68.5s-8.83301 -50.833 -26.5 -68.5s-40.5 -26.5 -68.5 -26.5
s-50.833 8.83301 -68.5 26.5s-26.5 40.5 -26.5 68.5zM170 855c0 28 8.83301 50.833 26.5 68.5s40.5 26.5 68.5 26.5s50.833 -8.83301 68.5 -26.5s26.5 -40.5 26.5 -68.5s-8.83301 -50.833 -26.5 -68.5s-40.5 -26.5 -68.5 -26.5s-50.833 8.83301 -68.5 26.5
s-26.5 40.5 -26.5 68.5z" />
    <glyph glyph-name="Aring" unicode="&#xc5;" horiz-adv-x="760" 
d="M-10 0l195 700h395l190 -700h-250l-35 130h-215l-35 -130h-245zM310 305h135l-45 185h-40zM255 865c0 32.667 12.167 60.834 36.5 84.501s53.833 35.5 88.5 35.5s64.167 -11.833 88.5 -35.5s36.5 -51.834 36.5 -84.501s-12.167 -60.834 -36.5 -84.501
s-53.833 -35.5 -88.5 -35.5s-64.167 11.833 -88.5 35.5s-36.5 51.834 -36.5 84.501zM340 865c0 -11.333 3.83301 -20.833 11.5 -28.5s17.167 -11.5 28.5 -11.5s20.833 3.83301 28.5 11.5s11.5 17.167 11.5 28.5s-3.83301 20.833 -11.5 28.5s-17.167 11.5 -28.5 11.5
s-20.833 -3.83301 -28.5 -11.5s-11.5 -17.167 -11.5 -28.5z" />
    <glyph glyph-name="AE" unicode="&#xc6;" horiz-adv-x="1045" 
d="M-10 0l195 700h815v-200h-310v-65h240v-170h-240v-65h310v-200h-560v130h-170l-35 -130h-245zM310 305h130v195h-75z" />
    <glyph glyph-name="Ccedilla" unicode="&#xc7;" horiz-adv-x="845" 
d="M30 350c0 104.667 37.1689 192.502 111.502 263.502s170.5 106.5 288.5 106.5c131.333 0 234.666 -48.333 309.999 -145c31.333 -42.667 54.666 -91 69.999 -145h-250c-6.66699 15.333 -16 28.666 -28 39.999c-26.667 26.667 -60.667 40 -102 40
c-40.667 0 -74.167 -14.333 -100.5 -43s-39.5 -67.667 -39.5 -117s13.167 -88.333 39.5 -117s59.833 -43 100.5 -43c46 0 82.333 16.667 109 50c12.667 16 21.334 32.667 26.001 50h250c-12.667 -55.333 -35.334 -106 -68.001 -152c-30 -44 -70.167 -81 -120.5 -111
s-110.833 -45.667 -181.5 -47l-10 -25c19.333 -2 37.666 -7 54.999 -15c36.667 -20.667 55 -50.667 55 -90c0 -38.667 -13.167 -70 -39.5 -94s-63.166 -36 -110.499 -36c-29.333 0 -54.666 3.33301 -75.999 10c-10.667 3.33301 -18.667 6.66602 -24 9.99902v100
c5.33301 -2.66699 14 -6 26 -10c21.333 -6.66699 42.666 -10 63.999 -10c33.333 0 50 10 50 30s-13.333 30 -40 30h-65l37 105c-101.333 12 -182.833 52.333 -244.5 121s-92.5 150 -92.5 244z" />
    <glyph glyph-name="Egrave" unicode="&#xc8;" 
d="M60 0v700h575v-200h-325v-65h255v-170h-255v-65h325v-200h-575zM145 935v5h210l70 -155h-135z" />
    <glyph glyph-name="Eacute" unicode="&#xc9;" 
d="M60 0v700h575v-200h-325v-65h255v-170h-255v-65h325v-200h-575zM261 785l70 155h210v-5l-145 -150h-135z" />
    <glyph glyph-name="Ecircumflex" unicode="&#xca;" 
d="M60 0v700h575v-200h-325v-65h255v-170h-255v-65h325v-200h-575zM161 785v6l110 149h150l110 -149v-6h-135l-40 60h-20l-40 -60h-135z" />
    <glyph glyph-name="Edieresis" unicode="&#xcb;" 
d="M60 0v700h575v-200h-325v-65h255v-170h-255v-65h325v-200h-575zM370 855c0 28 8.83301 50.833 26.5 68.5s40.5 26.5 68.5 26.5s50.833 -8.83301 68.5 -26.5s26.5 -40.5 26.5 -68.5s-8.83301 -50.833 -26.5 -68.5s-40.5 -26.5 -68.5 -26.5s-50.833 8.83301 -68.5 26.5
s-26.5 40.5 -26.5 68.5zM140 855c0 28 8.83301 50.833 26.5 68.5s40.5 26.5 68.5 26.5s50.833 -8.83301 68.5 -26.5s26.5 -40.5 26.5 -68.5s-8.83301 -50.833 -26.5 -68.5s-40.5 -26.5 -68.5 -26.5s-50.833 8.83301 -68.5 26.5s-26.5 40.5 -26.5 68.5z" />
    <glyph glyph-name="Igrave" unicode="&#xcc;" horiz-adv-x="370" 
d="M60 0v700h250v-700h-250zM-25 935v5h210l70 -155h-135z" />
    <glyph glyph-name="Iacute" unicode="&#xcd;" horiz-adv-x="370" 
d="M60 0v700h250v-700h-250zM115 785l70 155h210v-5l-145 -150h-135z" />
    <glyph glyph-name="Icircumflex" unicode="&#xce;" horiz-adv-x="370" 
d="M60 0v700h250v-700h-250zM0 785v6l110 149h150l110 -149v-6h-135l-40 60h-20l-40 -60h-135z" />
    <glyph glyph-name="Idieresis" unicode="&#xcf;" horiz-adv-x="370" 
d="M60 0v700h250v-700h-250zM205 855c0 28 8.83301 50.833 26.5 68.5s40.5 26.5 68.5 26.5s50.833 -8.83301 68.5 -26.5s26.5 -40.5 26.5 -68.5s-8.83301 -50.833 -26.5 -68.5s-40.5 -26.5 -68.5 -26.5s-50.833 8.83301 -68.5 26.5s-26.5 40.5 -26.5 68.5zM-25 855
c0 28 8.83301 50.833 26.5 68.5s40.5 26.5 68.5 26.5s50.833 -8.83301 68.5 -26.5s26.5 -40.5 26.5 -68.5s-8.83301 -50.833 -26.5 -68.5s-40.5 -26.5 -68.5 -26.5s-50.833 8.83301 -68.5 26.5s-26.5 40.5 -26.5 68.5z" />
    <glyph glyph-name="Eth" unicode="&#xd0;" horiz-adv-x="825" 
d="M20 265v170h70v265h305c120 0 216.667 -33.333 290 -100s110 -150 110 -250s-36.667 -183.333 -110 -250s-170 -100 -290 -100h-305v265h-70zM340 200h50c46 0 81.667 13 107 39s38 63 38 111s-12.667 85 -38 111s-61 39 -107 39h-50v-65h90v-170h-90v-65z" />
    <glyph glyph-name="Ntilde" unicode="&#xd1;" horiz-adv-x="835" 
d="M60 0v700h280l191 -330h9l-15 100v230h250v-700h-280l-190 330h-10l15 -95v-235h-250zM240 775v70c0 30 8 53.333 24 70s38 25 66 25c16 0 41 -5.66699 75 -17c32 -12 52 -18 60 -18c13.333 0 20 6.66699 20 20v10h115v-70c0 -30 -8 -53.333 -24 -70s-38 -25 -66 -25
c-18 0 -43 6 -75 18c-34 11.333 -54 17 -60 17c-13.333 0 -20 -6.66699 -20 -20v-10h-115z" />
    <glyph glyph-name="Ograve" unicode="&#xd2;" horiz-adv-x="860" 
d="M30 350c0 105.333 36.667 193.333 110 264s170 106 290 106s216.667 -35.333 290 -106s110 -158.667 110 -264s-36.667 -193.333 -110 -264s-170 -106 -290 -106s-216.667 35.333 -290 106s-110 158.667 -110 264zM290 350c0 -49.333 13.167 -88.333 39.5 -117
s59.833 -43 100.5 -43s74.167 14.333 100.5 43s39.5 67.667 39.5 117s-13.167 88.333 -39.5 117s-59.833 43 -100.5 43s-74.167 -14.333 -100.5 -43s-39.5 -67.667 -39.5 -117zM225 935v5h210l70 -155h-135z" />
    <glyph glyph-name="Oacute" unicode="&#xd3;" horiz-adv-x="860" 
d="M30 350c0 105.333 36.667 193.333 110 264s170 106 290 106s216.667 -35.333 290 -106s110 -158.667 110 -264s-36.667 -193.333 -110 -264s-170 -106 -290 -106s-216.667 35.333 -290 106s-110 158.667 -110 264zM290 350c0 -49.333 13.167 -88.333 39.5 -117
s59.833 -43 100.5 -43s74.167 14.333 100.5 43s39.5 67.667 39.5 117s-13.167 88.333 -39.5 117s-59.833 43 -100.5 43s-74.167 -14.333 -100.5 -43s-39.5 -67.667 -39.5 -117zM350 785l70 155h210v-5l-145 -150h-135z" />
    <glyph glyph-name="Ocircumflex" unicode="&#xd4;" horiz-adv-x="860" 
d="M30 350c0 105.333 36.667 193.333 110 264s170 106 290 106s216.667 -35.333 290 -106s110 -158.667 110 -264s-36.667 -193.333 -110 -264s-170 -106 -290 -106s-216.667 35.333 -290 106s-110 158.667 -110 264zM290 350c0 -49.333 13.167 -88.333 39.5 -117
s59.833 -43 100.5 -43s74.167 14.333 100.5 43s39.5 67.667 39.5 117s-13.167 88.333 -39.5 117s-59.833 43 -100.5 43s-74.167 -14.333 -100.5 -43s-39.5 -67.667 -39.5 -117zM245 785v6l110 149h150l110 -149v-6h-135l-40 60h-20l-40 -60h-135z" />
    <glyph glyph-name="Otilde" unicode="&#xd5;" horiz-adv-x="860" 
d="M30 350c0 105.333 36.667 193.333 110 264s170 106 290 106s216.667 -35.333 290 -106s110 -158.667 110 -264s-36.667 -193.333 -110 -264s-170 -106 -290 -106s-216.667 35.333 -290 106s-110 158.667 -110 264zM290 350c0 -49.333 13.167 -88.333 39.5 -117
s59.833 -43 100.5 -43s74.167 14.333 100.5 43s39.5 67.667 39.5 117s-13.167 88.333 -39.5 117s-59.833 43 -100.5 43s-74.167 -14.333 -100.5 -43s-39.5 -67.667 -39.5 -117zM250 775v70c0 30 8 53.333 24 70s38 25 66 25c16 0 41 -5.66699 75 -17c32 -12 52 -18 60 -18
c13.333 0 20 6.66699 20 20v10h115v-70c0 -30 -8 -53.333 -24 -70s-38 -25 -66 -25c-18 0 -43 6 -75 18c-34 11.333 -54 17 -60 17c-13.333 0 -20 -6.66699 -20 -20v-10h-115z" />
    <glyph glyph-name="Odieresis" unicode="&#xd6;" horiz-adv-x="860" 
d="M30 350c0 105.333 36.667 193.333 110 264s170 106 290 106s216.667 -35.333 290 -106s110 -158.667 110 -264s-36.667 -193.333 -110 -264s-170 -106 -290 -106s-216.667 35.333 -290 106s-110 158.667 -110 264zM290 350c0 -49.333 13.167 -88.333 39.5 -117
s59.833 -43 100.5 -43s74.167 14.333 100.5 43s39.5 67.667 39.5 117s-13.167 88.333 -39.5 117s-59.833 43 -100.5 43s-74.167 -14.333 -100.5 -43s-39.5 -67.667 -39.5 -117zM450 855c0 28 8.83301 50.833 26.5 68.5s40.5 26.5 68.5 26.5s50.833 -8.83301 68.5 -26.5
s26.5 -40.5 26.5 -68.5s-8.83301 -50.833 -26.5 -68.5s-40.5 -26.5 -68.5 -26.5s-50.833 8.83301 -68.5 26.5s-26.5 40.5 -26.5 68.5zM220 855c0 28 8.83301 50.833 26.5 68.5s40.5 26.5 68.5 26.5s50.833 -8.83301 68.5 -26.5s26.5 -40.5 26.5 -68.5
s-8.83301 -50.833 -26.5 -68.5s-40.5 -26.5 -68.5 -26.5s-50.833 8.83301 -68.5 26.5s-26.5 40.5 -26.5 68.5z" />
    <glyph glyph-name="multiply" unicode="&#xd7;" horiz-adv-x="564" 
d="M45 190l110 110l-110 110l127 127l110 -110l110 110l127 -127l-110 -110l110 -110l-127 -127l-110 110l-110 -110z" />
    <glyph glyph-name="Oslash" unicode="&#xd8;" horiz-adv-x="860" 
d="M20 -10v109.999l70 50c-10.667 17.333 -20.667 36.333 -30 57c-20 48 -30 95.667 -30 143c0 105.333 36.667 193.333 110 264s170 106 290 106c76 0 146 -17.667 210 -53c27.333 -14 52.333 -31.333 75 -52l125 95v-110l-70 -50c10.667 -17.333 20.667 -36.333 30 -57
c20 -48 30 -95.667 30 -143c0 -105.333 -36.667 -193.333 -110 -264s-170 -106 -290 -106c-77.333 0 -147.333 17.333 -210 52c-28 14.667 -53 32.334 -75 53.001zM290 349.999c0 -10 0.666992 -21 2 -33l3 -15l230 170c-4.66699 4.66699 -13 11 -25 19
c-22.667 12.667 -46 19 -70 19c-40.667 0 -74.167 -14.333 -100.5 -43s-39.5 -67.667 -39.5 -117zM565 397.999l-229.999 -170c7.33301 -8 15.666 -14.333 24.999 -19c18.667 -12.667 42 -19 70 -19c40.667 0 74.167 14.333 100.5 43s39.5 67.667 39.5 117c0 4 -1 15 -3 33z
" />
    <glyph glyph-name="Ugrave" unicode="&#xd9;" horiz-adv-x="800" 
d="M55 290v410h250v-400c0 -32 8.33301 -56.667 25 -74s40 -26 70 -26s53.333 8.66699 70 26s25 42 25 74v400h250v-410c0 -94 -30.5 -169.167 -91.5 -225.5s-145.5 -84.5 -253.5 -84.5s-192.5 28.167 -253.5 84.5s-91.5 131.5 -91.5 225.5zM190 935v5h210l70 -155h-135z
" />
    <glyph glyph-name="Uacute" unicode="&#xda;" horiz-adv-x="800" 
d="M55 290v410h250v-400c0 -32 8.33301 -56.667 25 -74s40 -26 70 -26s53.333 8.66699 70 26s25 42 25 74v400h250v-410c0 -94 -30.5 -169.167 -91.5 -225.5s-145.5 -84.5 -253.5 -84.5s-192.5 28.167 -253.5 84.5s-91.5 131.5 -91.5 225.5zM330 785l70 155h210v-5
l-145 -150h-135z" />
    <glyph glyph-name="Ucircumflex" unicode="&#xdb;" horiz-adv-x="800" 
d="M55 290v410h250v-400c0 -32 8.33301 -56.667 25 -74s40 -26 70 -26s53.333 8.66699 70 26s25 42 25 74v400h250v-410c0 -94 -30.5 -169.167 -91.5 -225.5s-145.5 -84.5 -253.5 -84.5s-192.5 28.167 -253.5 84.5s-91.5 131.5 -91.5 225.5zM215 785v6l110 149h150l110 -149
v-6h-135l-40 60h-20l-40 -60h-135z" />
    <glyph glyph-name="Udieresis" unicode="&#xdc;" horiz-adv-x="800" 
d="M55 290v410h250v-400c0 -32 8.33301 -56.667 25 -74s40 -26 70 -26s53.333 8.66699 70 26s25 42 25 74v400h250v-410c0 -94 -30.5 -169.167 -91.5 -225.5s-145.5 -84.5 -253.5 -84.5s-192.5 28.167 -253.5 84.5s-91.5 131.5 -91.5 225.5zM420 855
c0 28 8.83301 50.833 26.5 68.5s40.5 26.5 68.5 26.5s50.833 -8.83301 68.5 -26.5s26.5 -40.5 26.5 -68.5s-8.83301 -50.833 -26.5 -68.5s-40.5 -26.5 -68.5 -26.5s-50.833 8.83301 -68.5 26.5s-26.5 40.5 -26.5 68.5zM190 855c0 28 8.83301 50.833 26.5 68.5
s40.5 26.5 68.5 26.5s50.833 -8.83301 68.5 -26.5s26.5 -40.5 26.5 -68.5s-8.83301 -50.833 -26.5 -68.5s-40.5 -26.5 -68.5 -26.5s-50.833 8.83301 -68.5 26.5s-26.5 40.5 -26.5 68.5z" />
    <glyph glyph-name="Yacute" unicode="&#xdd;" horiz-adv-x="720" 
d="M-15 700h250l120 -240h10l120 240h250l-250 -450v-250h-250v250zM284 785l70 155h210v-5l-145 -150h-135z" />
    <glyph glyph-name="Thorn" unicode="&#xde;" horiz-adv-x="815" 
d="M60 0v700h250v-95h180c95.333 0 169.166 -23 221.499 -69s78.5 -106.333 78.5 -181s-26.167 -135 -78.5 -181s-126.166 -69 -221.499 -69h-180v-105h-250zM310 300h160c21.333 0 37.5 5 48.5 15s16.5 23.333 16.5 40s-5.5 30 -16.5 40s-27.167 15 -48.5 15h-160v-110z
" />
    <glyph glyph-name="germandbls" unicode="&#xdf;" 
d="M45 0l0.000976562 495.003c0 67.333 24.667 121.666 74 162.999s119.666 62 210.999 62c80 0 144.167 -18.5 192.5 -55.5s72.5 -78.5 72.5 -124.5s-17.667 -81.333 -53 -106c-14.667 -10.667 -32 -18.667 -52 -24v-10c30.667 -6 58 -17 82 -33
c55.333 -36.667 83 -89 83 -157c0 -64.667 -21.833 -115.834 -65.5 -153.501s-106.834 -56.5 -189.501 -56.5h-75v180h45c17.333 0 30.833 4.5 40.5 13.5s14.5 21.167 14.5 36.5s-4.83301 27.5 -14.5 36.5s-23.167 13.5 -40.5 13.5h-45v170c26.667 0 40 15 40 45
c0 13.333 -4.16699 24.166 -12.5 32.499s-19.166 12.5 -32.499 12.5c-14 0 -25 -4.33301 -33 -13s-12 -21 -12 -37v-490h-230z" />
    <glyph glyph-name="agrave" unicode="&#xe0;" horiz-adv-x="690" 
d="M30 265c0 86.667 21 155 63 205s94.333 75 157 75c45.333 0 85 -14.333 119 -43c15.333 -12 27.333 -26 36 -42h10v70h230v-530h-230v70h-10c-8.66699 -16.667 -20.667 -31 -36 -43c-33.333 -28 -73 -42 -119 -42c-62.667 0 -115 25 -157 75s-63 118.333 -63 205z
M265 265c0 -29.333 7.33301 -52.5 22 -69.5s32.667 -25.5 54 -25.5c20.667 0 38.167 8.66699 52.5 26s21.5 40.333 21.5 69s-7.16699 51.667 -21.5 69s-31.833 26 -52.5 26c-21.333 0 -39.333 -8.5 -54 -25.5s-22 -40.167 -22 -69.5zM155 775v5h210l70 -155h-135z" />
    <glyph glyph-name="aacute" unicode="&#xe1;" horiz-adv-x="690" 
d="M30 265c0 86.667 21 155 63 205s94.333 75 157 75c45.333 0 85 -14.333 119 -43c15.333 -12 27.333 -26 36 -42h10v70h230v-530h-230v70h-10c-8.66699 -16.667 -20.667 -31 -36 -43c-33.333 -28 -73 -42 -119 -42c-62.667 0 -115 25 -157 75s-63 118.333 -63 205z
M265 265c0 -29.333 7.33301 -52.5 22 -69.5s32.667 -25.5 54 -25.5c20.667 0 38.167 8.66699 52.5 26s21.5 40.333 21.5 69s-7.16699 51.667 -21.5 69s-31.833 26 -52.5 26c-21.333 0 -39.333 -8.5 -54 -25.5s-22 -40.167 -22 -69.5zM260 625l70 155h210v-5l-145 -150h-135z
" />
    <glyph glyph-name="acircumflex" unicode="&#xe2;" horiz-adv-x="690" 
d="M30 265c0 86.667 21 155 63 205s94.333 75 157 75c45.333 0 85 -14.333 119 -43c15.333 -12 27.333 -26 36 -42h10v70h230v-530h-230v70h-10c-8.66699 -16.667 -20.667 -31 -36 -43c-33.333 -28 -73 -42 -119 -42c-62.667 0 -115 25 -157 75s-63 118.333 -63 205z
M265 265c0 -29.333 7.33301 -52.5 22 -69.5s32.667 -25.5 54 -25.5c20.667 0 38.167 8.66699 52.5 26s21.5 40.333 21.5 69s-7.16699 51.667 -21.5 69s-31.833 26 -52.5 26c-21.333 0 -39.333 -8.5 -54 -25.5s-22 -40.167 -22 -69.5zM170 625v6l110 149h150l110 -149v-6
h-135l-40 60h-20l-40 -60h-135z" />
    <glyph glyph-name="atilde" unicode="&#xe3;" horiz-adv-x="690" 
d="M30 265c0 86.667 21 155 63 205s94.333 75 157 75c45.333 0 85 -14.333 119 -43c15.333 -12 27.333 -26 36 -42h10v70h230v-530h-230v70h-10c-8.66699 -16.667 -20.667 -31 -36 -43c-33.333 -28 -73 -42 -119 -42c-62.667 0 -115 25 -157 75s-63 118.333 -63 205z
M265 265c0 -29.333 7.33301 -52.5 22 -69.5s32.667 -25.5 54 -25.5c20.667 0 38.167 8.66699 52.5 26s21.5 40.333 21.5 69s-7.16699 51.667 -21.5 69s-31.833 26 -52.5 26c-21.333 0 -39.333 -8.5 -54 -25.5s-22 -40.167 -22 -69.5zM180 605v70c0 30 8 53.333 24 70
s38 25 66 25c16 0 41 -5.66699 75 -17c32 -12 52 -18 60 -18c13.333 0 20 6.66699 20 20v10h115v-70c0 -30 -8 -53.333 -24 -70s-38 -25 -66 -25c-18 0 -43 6 -75 18c-34 11.333 -54 17 -60 17c-13.333 0 -20 -6.66699 -20 -20v-10h-115z" />
    <glyph glyph-name="adieresis" unicode="&#xe4;" horiz-adv-x="690" 
d="M30 265c0 86.667 21 155 63 205s94.333 75 157 75c45.333 0 85 -14.333 119 -43c15.333 -12 27.333 -26 36 -42h10v70h230v-530h-230v70h-10c-8.66699 -16.667 -20.667 -31 -36 -43c-33.333 -28 -73 -42 -119 -42c-62.667 0 -115 25 -157 75s-63 118.333 -63 205z
M265 265c0 -29.333 7.33301 -52.5 22 -69.5s32.667 -25.5 54 -25.5c20.667 0 38.167 8.66699 52.5 26s21.5 40.333 21.5 69s-7.16699 51.667 -21.5 69s-31.833 26 -52.5 26c-21.333 0 -39.333 -8.5 -54 -25.5s-22 -40.167 -22 -69.5zM370 695c0 28 8.83301 50.833 26.5 68.5
s40.5 26.5 68.5 26.5s50.833 -8.83301 68.5 -26.5s26.5 -40.5 26.5 -68.5s-8.83301 -50.833 -26.5 -68.5s-40.5 -26.5 -68.5 -26.5s-50.833 8.83301 -68.5 26.5s-26.5 40.5 -26.5 68.5zM140 695c0 28 8.83301 50.833 26.5 68.5s40.5 26.5 68.5 26.5
s50.833 -8.83301 68.5 -26.5s26.5 -40.5 26.5 -68.5s-8.83301 -50.833 -26.5 -68.5s-40.5 -26.5 -68.5 -26.5s-50.833 8.83301 -68.5 26.5s-26.5 40.5 -26.5 68.5z" />
    <glyph glyph-name="aring" unicode="&#xe5;" horiz-adv-x="690" 
d="M30 265c0 86.667 21 155 63 205s94.333 75 157 75c45.333 0 85 -14.333 119 -43c15.333 -12 27.333 -26 36 -42h10v70h230v-530h-230v70h-10c-8.66699 -16.667 -20.667 -31 -36 -43c-33.333 -28 -73 -42 -119 -42c-62.667 0 -115 25 -157 75s-63 118.333 -63 205z
M265 265c0 -29.333 7.33301 -52.5 22 -69.5s32.667 -25.5 54 -25.5c20.667 0 38.167 8.66699 52.5 26s21.5 40.333 21.5 69s-7.16699 51.667 -21.5 69s-31.833 26 -52.5 26c-21.333 0 -39.333 -8.5 -54 -25.5s-22 -40.167 -22 -69.5zM225 700
c0 32.667 12.167 60.834 36.5 84.501s53.833 35.5 88.5 35.5s64.167 -11.833 88.5 -35.5s36.5 -51.834 36.5 -84.501s-12.167 -60.834 -36.5 -84.501s-53.833 -35.5 -88.5 -35.5s-64.167 11.833 -88.5 35.5s-36.5 51.834 -36.5 84.501zM310 700
c0 -11.333 3.83301 -20.833 11.5 -28.5s17.167 -11.5 28.5 -11.5s20.833 3.83301 28.5 11.5s11.5 17.167 11.5 28.5s-3.83301 20.833 -11.5 28.5s-17.167 11.5 -28.5 11.5s-20.833 -3.83301 -28.5 -11.5s-11.5 -17.167 -11.5 -28.5z" />
    <glyph glyph-name="ae" unicode="&#xe6;" horiz-adv-x="1020" 
d="M25 150c0 46.667 17.666 85 52.999 115s84.333 45 147 45h165v25c0 15.333 -4.83301 27.5 -14.5 36.5s-23.167 13.5 -40.5 13.5c-19.333 0 -35 -6 -47 -18c-6 -6 -10.333 -11.667 -13 -17h-230c8.66699 34.667 24.334 67 47.001 97c50.667 65.333 125 98 223 98
c56 0 104.667 -13.333 146 -40c19.333 -12.667 34 -26 44 -40h10c11.333 14 26.333 27.333 45 40c41.333 26.667 91.333 40 150 40c82 0 150 -27 204 -81s81 -122 81 -204v-15h-375c0 -34 6.33301 -59.167 19 -75.5s29.667 -24.5 51 -24.5c19.333 0 36.333 7.33301 51 22
c6.66699 8 11.334 15.667 14.001 23h235c-11.333 -38 -30 -72.333 -56 -103c-57.333 -68 -135.333 -102 -234 -102c-69.333 0 -127 17.333 -173 52c-22 15.333 -39.333 33 -52 53h-10c-14 -21.333 -30.667 -39 -50 -53c-44.667 -34.667 -101.334 -52 -170.001 -52
c-70 0 -124.167 15.5 -162.5 46.5s-57.5 70.5 -57.5 118.5zM624.999 310h130c-0.666992 12 -4 24.333 -10 37c-12 25.333 -30.333 38 -55 38s-43 -12.667 -55 -38c-6 -12.667 -9.33301 -25 -10 -37zM254.999 194c0 -14.667 4.5 -26.5 13.5 -35.5s21.167 -13.5 36.5 -13.5
c56.667 0 85 33.333 85 100h-80c-17.333 0 -30.833 -4.5 -40.5 -13.5s-14.5 -21.5 -14.5 -37.5z" />
    <glyph glyph-name="ccedilla" unicode="&#xe7;" horiz-adv-x="660" 
d="M25 265c0 78.667 28.666 145.002 85.999 199.002s130.333 81 219 81c116.667 0 202.334 -39.333 257.001 -118c24 -35.333 40 -74.333 48 -117h-235c-3.33301 11.333 -8 20.333 -14 27c-14 18.667 -32.667 28 -56 28c-21.333 0 -38.333 -8.16699 -51 -24.5
s-19 -41.5 -19 -75.5s6.33301 -59.167 19 -75.5s29.667 -24.5 51 -24.5c24 0 42.667 9 56 27c6 7.33301 10.667 16.666 14 27.999h235c-7.33301 -42.667 -22.333 -80.667 -45 -114c-52 -76.667 -132 -117 -240 -121l-10 -30c19.333 -2 37.666 -7 54.999 -15
c36.667 -20.667 55 -50.667 55 -90c0 -38.667 -13.167 -70 -39.5 -94s-63.166 -36 -110.499 -36c-29.333 0 -54.666 3.33301 -75.999 10c-10.667 3.33301 -18.667 6.66602 -24 9.99902v100c5.33301 -2.66699 14 -6 26 -10c21.333 -6.66699 42.666 -10 63.999 -10
c33.333 0 50 10 50 30s-13.333 30 -40 30h-65l40 110c-74 9.33301 -134.167 40 -180.5 92s-69.5 113 -69.5 183z" />
    <glyph glyph-name="egrave" unicode="&#xe8;" horiz-adv-x="660" 
d="M25 265c0 78.667 28.666 145 85.999 199s130.333 81 219 81s161.667 -27 219 -81s86 -120.333 86 -199v-15h-375c0 -70 23.333 -105 70 -105c19.333 0 36.333 7.33301 51 22c6.66699 8 11.334 15.667 14.001 23h235c-12 -38.667 -31 -73 -57 -103
c-60 -68 -141 -102 -243 -102c-88.667 0 -161.667 27 -219 81s-86 120.333 -86 199zM264.999 315h130c-0.666992 10.667 -4 22.334 -10 35.001c-12.667 23.333 -31 35 -55 35s-42.333 -11.667 -55 -35c-6 -12.667 -9.33301 -24.334 -10 -35.001zM124.999 775v5h210l70 -155
h-135z" />
    <glyph glyph-name="eacute" unicode="&#xe9;" horiz-adv-x="660" 
d="M25 265c0 78.667 28.666 145 85.999 199s130.333 81 219 81s161.667 -27 219 -81s86 -120.333 86 -199v-15h-375c0 -70 23.333 -105 70 -105c19.333 0 36.333 7.33301 51 22c6.66699 8 11.334 15.667 14.001 23h235c-12 -38.667 -31 -73 -57 -103
c-60 -68 -141 -102 -243 -102c-88.667 0 -161.667 27 -219 81s-86 120.333 -86 199zM264.999 315h130c-0.666992 10.667 -4 22.334 -10 35.001c-12.667 23.333 -31 35 -55 35s-42.333 -11.667 -55 -35c-6 -12.667 -9.33301 -24.334 -10 -35.001zM249.999 625l70 155h210v-5
l-145 -150h-135z" />
    <glyph glyph-name="ecircumflex" unicode="&#xea;" horiz-adv-x="660" 
d="M25 265c0 78.667 28.666 145 85.999 199s130.333 81 219 81s161.667 -27 219 -81s86 -120.333 86 -199v-15h-375c0 -70 23.333 -105 70 -105c19.333 0 36.333 7.33301 51 22c6.66699 8 11.334 15.667 14.001 23h235c-12 -38.667 -31 -73 -57 -103
c-60 -68 -141 -102 -243 -102c-88.667 0 -161.667 27 -219 81s-86 120.333 -86 199zM264.999 315h130c-0.666992 10.667 -4 22.334 -10 35.001c-12.667 23.333 -31 35 -55 35s-42.333 -11.667 -55 -35c-6 -12.667 -9.33301 -24.334 -10 -35.001zM144.999 625v6l110 149h150
l110 -149v-6h-135l-40 60h-20l-40 -60h-135z" />
    <glyph glyph-name="edieresis" unicode="&#xeb;" horiz-adv-x="660" 
d="M25 265c0 78.667 28.666 145 85.999 199s130.333 81 219 81s161.667 -27 219 -81s86 -120.333 86 -199v-15h-375c0 -70 23.333 -105 70 -105c19.333 0 36.333 7.33301 51 22c6.66699 8 11.334 15.667 14.001 23h235c-12 -38.667 -31 -73 -57 -103
c-60 -68 -141 -102 -243 -102c-88.667 0 -161.667 27 -219 81s-86 120.333 -86 199zM264.999 315h130c-0.666992 10.667 -4 22.334 -10 35.001c-12.667 23.333 -31 35 -55 35s-42.333 -11.667 -55 -35c-6 -12.667 -9.33301 -24.334 -10 -35.001zM349.999 695
c0 28 8.83301 50.833 26.5 68.5s40.5 26.5 68.5 26.5s50.833 -8.83301 68.5 -26.5s26.5 -40.5 26.5 -68.5s-8.83301 -50.833 -26.5 -68.5s-40.5 -26.5 -68.5 -26.5s-50.833 8.83301 -68.5 26.5s-26.5 40.5 -26.5 68.5zM119.999 695c0 28 8.83301 50.833 26.5 68.5
s40.5 26.5 68.5 26.5s50.833 -8.83301 68.5 -26.5s26.5 -40.5 26.5 -68.5s-8.83301 -50.833 -26.5 -68.5s-40.5 -26.5 -68.5 -26.5s-50.833 8.83301 -68.5 26.5s-26.5 40.5 -26.5 68.5z" />
    <glyph glyph-name="igrave" unicode="&#xec;" horiz-adv-x="320" 
d="M45 0v530h230v-530h-230zM-60 775v5h210l70 -155h-135z" />
    <glyph glyph-name="iacute" unicode="&#xed;" horiz-adv-x="320" 
d="M45 0v530h230v-530h-230zM90 625l70 155h210v-5l-145 -150h-135z" />
    <glyph glyph-name="icircumflex" unicode="&#xee;" horiz-adv-x="320" 
d="M45 0v530h230v-530h-230zM-25 625v6l110 149h150l110 -149v-6h-135l-40 60h-20l-40 -60h-135z" />
    <glyph glyph-name="idieresis" unicode="&#xef;" horiz-adv-x="320" 
d="M45 0v530h230v-530h-230zM180 695c0 28 8.83301 50.833 26.5 68.5s40.5 26.5 68.5 26.5s50.833 -8.83301 68.5 -26.5s26.5 -40.5 26.5 -68.5s-8.83301 -50.833 -26.5 -68.5s-40.5 -26.5 -68.5 -26.5s-50.833 8.83301 -68.5 26.5s-26.5 40.5 -26.5 68.5zM-50 695
c0 28 8.83301 50.833 26.5 68.5s40.5 26.5 68.5 26.5s50.833 -8.83301 68.5 -26.5s26.5 -40.5 26.5 -68.5s-8.83301 -50.833 -26.5 -68.5s-40.5 -26.5 -68.5 -26.5s-50.833 8.83301 -68.5 26.5s-26.5 40.5 -26.5 68.5z" />
    <glyph glyph-name="eth" unicode="&#xf0;" horiz-adv-x="665" 
d="M25 235c0 68 22.167 124.164 66.5 168.497s100.5 66.5 168.5 66.5c48.667 0 91.667 -11.667 129 -35c16 -12 28 -23.667 36 -35h10c-2 20.667 -11.5 42.334 -28.5 65.001s-42.833 51 -77.5 85l-1 1l-103 -61v80l50 30l-110 100h240l19 -15l96 55v-80l-41 -24
c52.667 -47.333 91.834 -96.666 117.501 -147.999s38.5 -110.666 38.5 -177.999c0 -102 -27.667 -181.667 -83 -239s-131 -86 -227 -86c-92.667 0 -165.834 23.667 -219.501 71s-80.5 107 -80.5 179zM260 244.997c0 -24.667 6.5 -44.167 19.5 -58.5s29.833 -21.5 50.5 -21.5
c21.333 0 38.333 6.66699 51 20s19 33.333 19 60c0 24.667 -6.5 44.167 -19.5 58.5s-29.833 21.5 -50.5 21.5s-37.5 -7.16699 -50.5 -21.5s-19.5 -33.833 -19.5 -58.5z" />
    <glyph glyph-name="ntilde" unicode="&#xf1;" horiz-adv-x="670" 
d="M45 0v530h230v-75h10c9.33301 16.667 22 31.667 38 45c35.333 30 74.333 45 117 45c59.333 0 105.833 -18.5 139.5 -55.5s50.5 -90.167 50.5 -159.5v-330h-230v290c0 20.667 -5 36.667 -15 48s-23.333 17 -40 17c-20.667 0 -37.5 -7.16699 -50.5 -21.5
s-19.5 -33.833 -19.5 -58.5v-275h-230zM160 605v70c0 30 8 53.333 24 70s38 25 66 25c16 0 41 -5.66699 75 -17c32 -12 52 -18 60 -18c13.333 0 20 6.66699 20 20v10h115v-70c0 -30 -8 -53.333 -24 -70s-38 -25 -66 -25c-18 0 -43 6 -75 18c-34 11.333 -54 17 -60 17
c-13.333 0 -20 -6.66699 -20 -20v-10h-115z" />
    <glyph glyph-name="ograve" unicode="&#xf2;" 
d="M25 265c0 79.333 29.167 145.833 87.5 199.5s134.166 80.5 227.499 80.5c92.667 0 168.334 -26.833 227.001 -80.5s88 -120.167 88 -199.5s-29.333 -145.833 -88 -199.5s-134.334 -80.5 -227.001 -80.5c-93.333 0 -169.166 26.833 -227.499 80.5
s-87.5 120.167 -87.5 199.5zM260 265c0 -31.333 7.5 -55.833 22.5 -73.5s34.167 -26.5 57.5 -26.5s42.5 8.83301 57.5 26.5s22.5 42.167 22.5 73.5s-7.5 55.833 -22.5 73.5s-34.167 26.5 -57.5 26.5s-42.5 -8.83301 -57.5 -26.5s-22.5 -42.167 -22.5 -73.5zM130 760v5h210
l70 -155h-135z" />
    <glyph glyph-name="oacute" unicode="&#xf3;" 
d="M25 265c0 79.333 29.167 145.833 87.5 199.5s134.166 80.5 227.499 80.5c92.667 0 168.334 -26.833 227.001 -80.5s88 -120.167 88 -199.5s-29.333 -145.833 -88 -199.5s-134.334 -80.5 -227.001 -80.5c-93.333 0 -169.166 26.833 -227.499 80.5
s-87.5 120.167 -87.5 199.5zM260 265c0 -31.333 7.5 -55.833 22.5 -73.5s34.167 -26.5 57.5 -26.5s42.5 8.83301 57.5 26.5s22.5 42.167 22.5 73.5s-7.5 55.833 -22.5 73.5s-34.167 26.5 -57.5 26.5s-42.5 -8.83301 -57.5 -26.5s-22.5 -42.167 -22.5 -73.5zM265 610l70 155
h210v-5l-145 -150h-135z" />
    <glyph glyph-name="ocircumflex" unicode="&#xf4;" 
d="M25 265c0 79.333 29.167 145.833 87.5 199.5s134.166 80.5 227.499 80.5c92.667 0 168.334 -26.833 227.001 -80.5s88 -120.167 88 -199.5s-29.333 -145.833 -88 -199.5s-134.334 -80.5 -227.001 -80.5c-93.333 0 -169.166 26.833 -227.499 80.5
s-87.5 120.167 -87.5 199.5zM260 265c0 -31.333 7.5 -55.833 22.5 -73.5s34.167 -26.5 57.5 -26.5s42.5 8.83301 57.5 26.5s22.5 42.167 22.5 73.5s-7.5 55.833 -22.5 73.5s-34.167 26.5 -57.5 26.5s-42.5 -8.83301 -57.5 -26.5s-22.5 -42.167 -22.5 -73.5zM155 610v6
l110 149h150l110 -149v-6h-135l-40 60h-20l-40 -60h-135z" />
    <glyph glyph-name="otilde" unicode="&#xf5;" 
d="M25 265c0 79.333 29.167 145.833 87.5 199.5s134.166 80.5 227.499 80.5c92.667 0 168.334 -26.833 227.001 -80.5s88 -120.167 88 -199.5s-29.333 -145.833 -88 -199.5s-134.334 -80.5 -227.001 -80.5c-93.333 0 -169.166 26.833 -227.499 80.5
s-87.5 120.167 -87.5 199.5zM260 265c0 -31.333 7.5 -55.833 22.5 -73.5s34.167 -26.5 57.5 -26.5s42.5 8.83301 57.5 26.5s22.5 42.167 22.5 73.5s-7.5 55.833 -22.5 73.5s-34.167 26.5 -57.5 26.5s-42.5 -8.83301 -57.5 -26.5s-22.5 -42.167 -22.5 -73.5zM155 605v70
c0 30 8 53.333 24 70s38 25 66 25c16 0 41 -5.66699 75 -17c32 -12 52 -18 60 -18c13.333 0 20 6.66699 20 20v10h115v-70c0 -30 -8 -53.333 -24 -70s-38 -25 -66 -25c-18 0 -43 6 -75 18c-34 11.333 -54 17 -60 17c-13.333 0 -20 -6.66699 -20 -20v-10h-115z" />
    <glyph glyph-name="odieresis" unicode="&#xf6;" 
d="M25 265c0 79.333 29.167 145.833 87.5 199.5s134.166 80.5 227.499 80.5c92.667 0 168.334 -26.833 227.001 -80.5s88 -120.167 88 -199.5s-29.333 -145.833 -88 -199.5s-134.334 -80.5 -227.001 -80.5c-93.333 0 -169.166 26.833 -227.499 80.5
s-87.5 120.167 -87.5 199.5zM260 265c0 -31.333 7.5 -55.833 22.5 -73.5s34.167 -26.5 57.5 -26.5s42.5 8.83301 57.5 26.5s22.5 42.167 22.5 73.5s-7.5 55.833 -22.5 73.5s-34.167 26.5 -57.5 26.5s-42.5 -8.83301 -57.5 -26.5s-22.5 -42.167 -22.5 -73.5zM360 695
c0 28 8.83301 50.833 26.5 68.5s40.5 26.5 68.5 26.5s50.833 -8.83301 68.5 -26.5s26.5 -40.5 26.5 -68.5s-8.83301 -50.833 -26.5 -68.5s-40.5 -26.5 -68.5 -26.5s-50.833 8.83301 -68.5 26.5s-26.5 40.5 -26.5 68.5zM130 695c0 28 8.83301 50.833 26.5 68.5
s40.5 26.5 68.5 26.5s50.833 -8.83301 68.5 -26.5s26.5 -40.5 26.5 -68.5s-8.83301 -50.833 -26.5 -68.5s-40.5 -26.5 -68.5 -26.5s-50.833 8.83301 -68.5 26.5s-26.5 40.5 -26.5 68.5z" />
    <glyph glyph-name="divide" unicode="&#xf7;" horiz-adv-x="550" 
d="M170 525c0 30 10 55 30 75s45 30 75 30s55 -10 75 -30s30 -45 30 -75s-10 -55 -30 -75s-45 -30 -75 -30s-55 10 -75 30s-30 45 -30 75zM45 230v160h460v-160h-460zM170 95c0 30 10 55 30 75s45 30 75 30s55 -10 75 -30s30 -45 30 -75s-10 -55 -30 -75s-45 -30 -75 -30
s-55 10 -75 30s-30 45 -30 75z" />
    <glyph glyph-name="oslash" unicode="&#xf8;" 
d="M25 -10l0.00292969 110l38 26c-8 12.667 -14.333 25.334 -19 38.001c-12.667 27.333 -19 61 -19 101c0 79.333 29.167 145.833 87.5 199.5s134.166 80.5 227.499 80.5c59.333 0 113 -12.333 161 -37c22 -10.667 41 -22.667 57 -36l97 68v-110l-38 -26
c5.33301 -8.66699 11.666 -21.334 18.999 -38.001c12.667 -34 19 -67.667 19 -101c0 -79.333 -29.333 -145.833 -88 -199.5s-134.334 -80.5 -227.001 -80.5c-61.333 0 -115.333 12 -162 36c-23.333 12 -42 24.333 -56 37zM260.003 250l140 100.001
c-2.66699 5.33301 -7 11 -13 17c-12 12 -27.667 18 -47 18c-24 0 -43.333 -9.83301 -58 -29.5s-22 -49.834 -22 -90.501v-15zM420.003 280.001l-140 -100.001c2.66699 -6 7 -12 13 -18c11.333 -11.333 27 -17 47 -17c24 0 43.333 9.83301 58 29.5s22 49.834 22 90.501v15z
" />
    <glyph glyph-name="ugrave" unicode="&#xf9;" horiz-adv-x="675" 
d="M45 200v330h230v-290c0 -20.667 5 -36.667 15 -48s23.333 -17 40 -17c20.667 0 37.5 7.16699 50.5 21.5s19.5 33.833 19.5 58.5v275h230v-530h-230v75h-10c-9.33301 -16.667 -22 -31.667 -38 -45c-35.333 -30 -74.333 -45 -117 -45c-59.333 0 -105.833 18.5 -139.5 55.5
s-50.5 90.167 -50.5 159.5zM135 775v5h210l70 -155h-135z" />
    <glyph glyph-name="uacute" unicode="&#xfa;" horiz-adv-x="675" 
d="M45 200v330h230v-290c0 -20.667 5 -36.667 15 -48s23.333 -17 40 -17c20.667 0 37.5 7.16699 50.5 21.5s19.5 33.833 19.5 58.5v275h230v-530h-230v75h-10c-9.33301 -16.667 -22 -31.667 -38 -45c-35.333 -30 -74.333 -45 -117 -45c-59.333 0 -105.833 18.5 -139.5 55.5
s-50.5 90.167 -50.5 159.5zM265 625l70 155h210v-5l-145 -150h-135z" />
    <glyph glyph-name="ucircumflex" unicode="&#xfb;" horiz-adv-x="675" 
d="M45 200v330h230v-290c0 -20.667 5 -36.667 15 -48s23.333 -17 40 -17c20.667 0 37.5 7.16699 50.5 21.5s19.5 33.833 19.5 58.5v275h230v-530h-230v75h-10c-9.33301 -16.667 -22 -31.667 -38 -45c-35.333 -30 -74.333 -45 -117 -45c-59.333 0 -105.833 18.5 -139.5 55.5
s-50.5 90.167 -50.5 159.5zM152 625v6l110 149h150l110 -149v-6h-135l-40 60h-20l-40 -60h-135z" />
    <glyph glyph-name="udieresis" unicode="&#xfc;" horiz-adv-x="675" 
d="M45 200v330h230v-290c0 -20.667 5 -36.667 15 -48s23.333 -17 40 -17c20.667 0 37.5 7.16699 50.5 21.5s19.5 33.833 19.5 58.5v275h230v-530h-230v75h-10c-9.33301 -16.667 -22 -31.667 -38 -45c-35.333 -30 -74.333 -45 -117 -45c-59.333 0 -105.833 18.5 -139.5 55.5
s-50.5 90.167 -50.5 159.5zM357 695c0 28 8.83301 50.833 26.5 68.5s40.5 26.5 68.5 26.5s50.833 -8.83301 68.5 -26.5s26.5 -40.5 26.5 -68.5s-8.83301 -50.833 -26.5 -68.5s-40.5 -26.5 -68.5 -26.5s-50.833 8.83301 -68.5 26.5s-26.5 40.5 -26.5 68.5zM127 695
c0 28 8.83301 50.833 26.5 68.5s40.5 26.5 68.5 26.5s50.833 -8.83301 68.5 -26.5s26.5 -40.5 26.5 -68.5s-8.83301 -50.833 -26.5 -68.5s-40.5 -26.5 -68.5 -26.5s-50.833 8.83301 -68.5 26.5s-26.5 40.5 -26.5 68.5z" />
    <glyph glyph-name="yacute" unicode="&#xfd;" horiz-adv-x="640" 
d="M10 530h230l75 -340h15l75 340h235l-189 -720h-231l55 190h-135zM245 625l70 155h210v-5l-145 -150h-135z" />
    <glyph glyph-name="thorn" unicode="&#xfe;" horiz-adv-x="690" 
d="M45 -190v890h230v-240h10c8.66699 16 20.667 30 36 42c34 28.667 73.667 43 119 43c62.667 0 115 -25 157 -75s63 -118.333 63 -205s-21 -155 -63 -205s-94.333 -75 -157 -75c-46 0 -85.667 14 -119 42c-15.333 12 -27.333 26.333 -36 43h-10v-260h-230zM275 265
c0 -28.667 7.16699 -51.667 21.5 -69s31.833 -26 52.5 -26c21.333 0 39.333 8.5 54 25.5s22 40.167 22 69.5s-7.33301 52.5 -22 69.5s-32.667 25.5 -54 25.5c-20.667 0 -38.167 -8.66699 -52.5 -26s-21.5 -40.333 -21.5 -69z" />
    <glyph glyph-name="ydieresis" unicode="&#xff;" horiz-adv-x="640" 
d="M10 530h230l75 -340h15l75 340h235l-189 -720h-231l55 190h-135zM344 695c0 28 8.83301 50.833 26.5 68.5s40.5 26.5 68.5 26.5s50.833 -8.83301 68.5 -26.5s26.5 -40.5 26.5 -68.5s-8.83301 -50.833 -26.5 -68.5s-40.5 -26.5 -68.5 -26.5s-50.833 8.83301 -68.5 26.5
s-26.5 40.5 -26.5 68.5zM114 695c0 28 8.83301 50.833 26.5 68.5s40.5 26.5 68.5 26.5s50.833 -8.83301 68.5 -26.5s26.5 -40.5 26.5 -68.5s-8.83301 -50.833 -26.5 -68.5s-40.5 -26.5 -68.5 -26.5s-50.833 8.83301 -68.5 26.5s-26.5 40.5 -26.5 68.5z" />
    <glyph glyph-name="Amacron" unicode="&#x100;" horiz-adv-x="760" 
d="M-10 0l195 700h395l190 -700h-250l-35 130h-215l-35 -130h-245zM310 305h135l-45 185h-40zM200 790v120h360v-120h-360z" />
    <glyph glyph-name="amacron" unicode="&#x101;" horiz-adv-x="690" 
d="M30 265c0 86.667 21 155 63 205s94.333 75 157 75c45.333 0 85 -14.333 119 -43c15.333 -12 27.333 -26 36 -42h10v70h230v-530h-230v70h-10c-8.66699 -16.667 -20.667 -31 -36 -43c-33.333 -28 -73 -42 -119 -42c-62.667 0 -115 25 -157 75s-63 118.333 -63 205z
M265 265c0 -29.333 7.33301 -52.5 22 -69.5s32.667 -25.5 54 -25.5c20.667 0 38.167 8.66699 52.5 26s21.5 40.333 21.5 69s-7.16699 51.667 -21.5 69s-31.833 26 -52.5 26c-21.333 0 -39.333 -8.5 -54 -25.5s-22 -40.167 -22 -69.5zM180 625v120h360v-120h-360z" />
    <glyph glyph-name="Abreve" unicode="&#x102;" horiz-adv-x="760" 
d="M-10 0l195 700h395l190 -700h-250l-35 130h-215l-35 -130h-245zM310 305h135l-45 185h-40zM215 930h115c0 -12 4.5 -21.667 13.5 -29s21.167 -11 36.5 -11s27.5 3.66699 36.5 11s13.5 17 13.5 29h115c0 -46 -14.5 -82.5 -43.5 -109.5s-69.5 -40.5 -121.5 -40.5
s-92.5 13.5 -121.5 40.5s-43.5 63.5 -43.5 109.5z" />
    <glyph glyph-name="abreve" unicode="&#x103;" horiz-adv-x="690" 
d="M30 265c0 86.667 21 155 63 205s94.333 75 157 75c45.333 0 85 -14.333 119 -43c15.333 -12 27.333 -26 36 -42h10v70h230v-530h-230v70h-10c-8.66699 -16.667 -20.667 -31 -36 -43c-33.333 -28 -73 -42 -119 -42c-62.667 0 -115 25 -157 75s-63 118.333 -63 205z
M265 265c0 -29.333 7.33301 -52.5 22 -69.5s32.667 -25.5 54 -25.5c20.667 0 38.167 8.66699 52.5 26s21.5 40.333 21.5 69s-7.16699 51.667 -21.5 69s-31.833 26 -52.5 26c-21.333 0 -39.333 -8.5 -54 -25.5s-22 -40.167 -22 -69.5zM175 770h115
c0 -12 4.5 -21.667 13.5 -29s21.167 -11 36.5 -11s27.5 3.66699 36.5 11s13.5 17 13.5 29h115c0 -46 -14.5 -82.5 -43.5 -109.5s-69.5 -40.5 -121.5 -40.5s-92.5 13.5 -121.5 40.5s-43.5 63.5 -43.5 109.5z" />
    <glyph glyph-name="Aogonek" unicode="&#x104;" horiz-adv-x="760" 
d="M-10 0l194.998 700.003h395l190 -700c-19.333 -14.667 -37.666 -30.667 -54.999 -48c-36.667 -36.667 -55 -67.334 -55 -92.001c0 -20 11.667 -30 35 -30c14 0 27 1.66699 39 5c4 0.666992 9.33301 2.33398 16 5.00098v-90c-4.66699 -2.66699 -13 -6 -25 -10
c-21.333 -6.66699 -44.666 -10 -69.999 -10c-41.333 0 -72.5 8.83301 -93.5 26.5s-31.5 42.167 -31.5 73.5c0 22 7.5 44.167 22.5 66.5s32.5 40.666 52.5 54.999s37.167 25.666 51.5 33.999s23.5 13.166 27.5 14.499h-164l-35 130h-215l-35 -130h-245zM309.998 305.003h135
l-45 185h-40z" />
    <glyph glyph-name="aogonek" unicode="&#x105;" horiz-adv-x="690" 
d="M30 265c0 86.667 20.998 155.003 62.998 205.003s94.333 75 157 75c45.333 0 85 -14.333 119 -43c15.333 -12 27.333 -26 36 -42h10v70h230v-530c-19.333 -14.667 -37.666 -30.667 -54.999 -48c-36.667 -36.667 -55 -67.334 -55 -92.001c0 -20 11.667 -30 35 -30
c14 0 27 1.66699 39 5c4 0.666992 9.33301 2.33398 16 5.00098v-90c-4.66699 -2.66699 -13 -6 -25 -10c-21.333 -6.66699 -44.666 -10 -69.999 -10c-41.333 0 -72.5 8.83301 -93.5 26.5s-31.5 42.167 -31.5 73.5c0 22 7.5 44.167 22.5 66.5s32.5 40.666 52.5 54.999
s37.167 25.666 51.5 33.999s23.5 13.166 27.5 14.499h-144v70h-10c-8.66699 -16.667 -20.667 -31 -36 -43c-33.333 -28 -73 -42 -119 -42c-62.667 0 -115 25 -157 75s-63 118.333 -63 205zM264.998 265.003c0 -29.333 7.33301 -52.5 22 -69.5s32.667 -25.5 54 -25.5
c20.667 0 38.167 8.66699 52.5 26s21.5 40.333 21.5 69s-7.16699 51.667 -21.5 69s-31.833 26 -52.5 26c-21.333 0 -39.333 -8.5 -54 -25.5s-22 -40.167 -22 -69.5z" />
    <glyph glyph-name="Cacute" unicode="&#x106;" horiz-adv-x="845" 
d="M30 350c0 104.667 37.168 192.502 111.501 263.502s170.5 106.5 288.5 106.5c131.333 0 234.666 -48.333 309.999 -145c31.333 -42.667 54.666 -91 69.999 -145h-250c-6.66699 15.333 -16 28.666 -28 39.999c-26.667 26.667 -60.667 40 -102 40
c-40.667 0 -74.167 -14.333 -100.5 -43s-39.5 -67.667 -39.5 -117s13.167 -88.333 39.5 -117s59.833 -43 100.5 -43c46 0 82.333 16.667 109 50c12.667 16 21.334 32.667 26.001 50h250c-15.333 -58.667 -39 -110.334 -71 -155.001c-75.333 -103.333 -180 -155 -314 -155
c-118 0 -214.167 35.5 -288.5 106.5s-111.5 158.833 -111.5 263.5zM350.001 785.002l70 155h210v-5l-145 -150h-135z" />
    <glyph glyph-name="cacute" unicode="&#x107;" horiz-adv-x="660" 
d="M25 265c0 78.667 28.667 145 86 199s130.333 81 219 81c116.667 0 202.334 -39.333 257.001 -118c24 -35.333 40 -74.333 48 -117h-235c-3.33301 11.333 -8 20.333 -14 27c-14 18.667 -32.667 28 -56 28c-21.333 0 -38.333 -8.16699 -51 -24.5s-19 -41.5 -19 -75.5
s6.33301 -59.167 19 -75.5s29.667 -24.5 51 -24.5c24 0 42.667 9 56 27c6 7.33301 10.667 16.666 14 27.999h235c-8 -43.333 -24 -82.666 -48 -117.999c-52.667 -78 -138.334 -117 -257.001 -117c-88.667 0 -161.667 27 -219 81s-86 120.333 -86 199zM255 625l70 155h210v-5
l-145 -150h-135z" />
    <glyph glyph-name="Ccircumflex" unicode="&#x108;" horiz-adv-x="845" 
d="M30 350c0 104.667 37.168 192.502 111.501 263.502s170.5 106.5 288.5 106.5c131.333 0 234.666 -48.333 309.999 -145c31.333 -42.667 54.666 -91 69.999 -145h-250c-6.66699 15.333 -16 28.666 -28 39.999c-26.667 26.667 -60.667 40 -102 40
c-40.667 0 -74.167 -14.333 -100.5 -43s-39.5 -67.667 -39.5 -117s13.167 -88.333 39.5 -117s59.833 -43 100.5 -43c46 0 82.333 16.667 109 50c12.667 16 21.334 32.667 26.001 50h250c-15.333 -58.667 -39 -110.334 -71 -155.001c-75.333 -103.333 -180 -155 -314 -155
c-118 0 -214.167 35.5 -288.5 106.5s-111.5 158.833 -111.5 263.5zM235.001 785.002v6l110 149h150l110 -149v-6h-135l-40 60h-20l-40 -60h-135z" />
    <glyph glyph-name="ccircumflex" unicode="&#x109;" horiz-adv-x="660" 
d="M25 265c0 78.667 28.667 145 86 199s130.333 81 219 81c116.667 0 202.334 -39.333 257.001 -118c24 -35.333 40 -74.333 48 -117h-235c-3.33301 11.333 -8 20.333 -14 27c-14 18.667 -32.667 28 -56 28c-21.333 0 -38.333 -8.16699 -51 -24.5s-19 -41.5 -19 -75.5
s6.33301 -59.167 19 -75.5s29.667 -24.5 51 -24.5c24 0 42.667 9 56 27c6 7.33301 10.667 16.666 14 27.999h235c-8 -43.333 -24 -82.666 -48 -117.999c-52.667 -78 -138.334 -117 -257.001 -117c-88.667 0 -161.667 27 -219 81s-86 120.333 -86 199zM150 625v6l110 149h150
l110 -149v-6h-135l-40 60h-20l-40 -60h-135z" />
    <glyph glyph-name="Ccaron" unicode="&#x10c;" horiz-adv-x="845" 
d="M30 350c0 104.667 37.168 192.502 111.501 263.502s170.5 106.5 288.5 106.5c131.333 0 234.666 -48.333 309.999 -145c31.333 -42.667 54.666 -91 69.999 -145h-250c-6.66699 15.333 -16 28.666 -28 39.999c-26.667 26.667 -60.667 40 -102 40
c-40.667 0 -74.167 -14.333 -100.5 -43s-39.5 -67.667 -39.5 -117s13.167 -88.333 39.5 -117s59.833 -43 100.5 -43c46 0 82.333 16.667 109 50c12.667 16 21.334 32.667 26.001 50h250c-15.333 -58.667 -39 -110.334 -71 -155.001c-75.333 -103.333 -180 -155 -314 -155
c-118 0 -214.167 35.5 -288.5 106.5s-111.5 158.833 -111.5 263.5zM240.001 934.002v6h135l40 -60h20l40 60h135v-6l-110 -149h-150z" />
    <glyph glyph-name="ccaron" unicode="&#x10d;" horiz-adv-x="660" 
d="M25 265c0 78.667 28.667 145 86 199s130.333 81 219 81c116.667 0 202.334 -39.333 257.001 -118c24 -35.333 40 -74.333 48 -117h-235c-3.33301 11.333 -8 20.333 -14 27c-14 18.667 -32.667 28 -56 28c-21.333 0 -38.333 -8.16699 -51 -24.5s-19 -41.5 -19 -75.5
s6.33301 -59.167 19 -75.5s29.667 -24.5 51 -24.5c24 0 42.667 9 56 27c6 7.33301 10.667 16.666 14 27.999h235c-8 -43.333 -24 -82.666 -48 -117.999c-52.667 -78 -138.334 -117 -257.001 -117c-88.667 0 -161.667 27 -219 81s-86 120.333 -86 199zM140 774v6h135l40 -60
h20l40 60h135v-6l-110 -149h-150z" />
    <glyph glyph-name="Dcaron" unicode="&#x10e;" horiz-adv-x="795" 
d="M60 0v700h305c120 0 216.667 -33.333 290 -100s110 -150 110 -250s-36.667 -183.333 -110 -250s-170 -100 -290 -100h-305zM310 210h50c45.333 0 80.833 12.667 106.5 38s38.5 59.333 38.5 102s-12.833 76.667 -38.5 102s-61.167 38 -106.5 38h-50v-280zM175 934v6h135
l40 -60h20l40 60h135v-6l-110 -149h-150z" />
    <glyph glyph-name="dcaron" unicode="&#x10f;" horiz-adv-x="850" 
d="M30 265c0 86.667 21 155 63 205s94.333 75 157 75c45.333 0 85 -14.333 119 -43c15.333 -12 27.333 -26 36 -42h10v240h230v-700h-230v70h-10c-8.66699 -16.667 -20.667 -31 -36 -43c-33.333 -28 -73 -42 -119 -42c-62.667 0 -115 25 -157 75s-63 118.333 -63 205z
M265 265c0 -29.333 7.33301 -52.5 22 -69.5s32.667 -25.5 54 -25.5c20.667 0 38.167 8.66699 52.5 26s21.5 40.333 21.5 69s-7.16699 51.667 -21.5 69s-31.833 26 -52.5 26c-21.333 0 -39.333 -8.5 -54 -25.5s-22 -40.167 -22 -69.5zM685 625c0 26 8.83398 47.5 26.501 64.5
s40.5 25.5 68.5 25.5c29.333 0 53.333 -11.5 72 -34.5s28 -56.5 28 -100.5c0 -47.333 -15.5 -85.833 -46.5 -115.5s-70.5 -44.5 -118.5 -44.5v65c22 0 40 6 54 18s21 26 21 42v10c-4.66699 -3.33301 -7.33398 -5 -8.00098 -5c-5.33301 -3.33301 -12.666 -5 -21.999 -5
c-22.667 0 -40.834 7 -54.501 21s-20.5 33.667 -20.5 59z" />
    <glyph glyph-name="Dcroat" unicode="&#x110;" horiz-adv-x="825" 
d="M20 265v170h70v265h305c120 0 216.667 -33.333 290 -100s110 -150 110 -250s-36.667 -183.333 -110 -250s-170 -100 -290 -100h-305v265h-70zM340 200h50c46 0 81.667 13 107 39s38 63 38 111s-12.667 85 -38 111s-61 39 -107 39h-50v-65h90v-170h-90v-65z" />
    <glyph glyph-name="dcroat" unicode="&#x111;" horiz-adv-x="725" 
d="M30 245c0 78 21.167 140.833 63.5 188.5s94.5 71.5 156.5 71.5c45.333 0 85 -14.333 119 -43c15.333 -12 27.333 -26 36 -42h10v110h-95v115h95v55h230v-55h70v-115h-70v-530h-230v70h-10c-8.66699 -16.667 -20.667 -31 -36 -43c-33.333 -28 -73 -42 -119 -42
c-62 0 -114.167 23.833 -156.5 71.5s-63.5 110.5 -63.5 188.5zM265 245c0 -22.667 6.83301 -40.834 20.5 -54.501s32.167 -20.5 55.5 -20.5c22 0 39.833 6.83301 53.5 20.5s20.5 31.834 20.5 54.501s-6.83301 40.834 -20.5 54.501s-31.5 20.5 -53.5 20.5
c-23.333 0 -41.833 -6.83301 -55.5 -20.5s-20.5 -31.834 -20.5 -54.501z" />
    <glyph glyph-name="Emacron" unicode="&#x112;" 
d="M60 0v700h575v-200h-325v-65h255v-170h-255v-65h325v-200h-575zM165 790v120h360v-120h-360z" />
    <glyph glyph-name="emacron" unicode="&#x113;" horiz-adv-x="660" 
d="M25 265c0 78.667 28.666 145 85.999 199s130.333 81 219 81s161.667 -27 219 -81s86 -120.333 86 -199v-15h-375c0 -70 23.333 -105 70 -105c19.333 0 36.333 7.33301 51 22c6.66699 8 11.334 15.667 14.001 23h235c-12 -38.667 -31 -73 -57 -103
c-60 -68 -141 -102 -243 -102c-88.667 0 -161.667 27 -219 81s-86 120.333 -86 199zM264.999 315h130c-0.666992 10.667 -4 22.334 -10 35.001c-12.667 23.333 -31 35 -55 35s-42.333 -11.667 -55 -35c-6 -12.667 -9.33301 -24.334 -10 -35.001zM144.999 625v120h360v-120
h-360z" />
    <glyph glyph-name="Edotaccent" unicode="&#x116;" 
d="M60 0v700h575v-200h-325v-65h255v-170h-255v-65h325v-200h-575zM235 845c0 30.667 10.667 55.834 32 75.501s50.666 29.5 87.999 29.5s66.666 -9.83301 87.999 -29.5s32 -44.834 32 -75.501s-10.667 -55.834 -32 -75.501s-50.666 -29.5 -87.999 -29.5
s-66.666 9.83301 -87.999 29.5s-32 44.834 -32 75.501z" />
    <glyph glyph-name="edotaccent" unicode="&#x117;" horiz-adv-x="660" 
d="M25 265c0 78.667 28.666 145 85.999 199s130.333 81 219 81s161.667 -27 219 -81s86 -120.333 86 -199v-15h-375c0 -70 23.333 -105 70 -105c19.333 0 36.333 7.33301 51 22c6.66699 8 11.334 15.667 14.001 23h235c-12 -38.667 -31 -73 -57 -103
c-60 -68 -141 -102 -243 -102c-88.667 0 -161.667 27 -219 81s-86 120.333 -86 199zM264.999 315h130c-0.666992 10.667 -4 22.334 -10 35.001c-12.667 23.333 -31 35 -55 35s-42.333 -11.667 -55 -35c-6 -12.667 -9.33301 -24.334 -10 -35.001zM209.999 695
c0 30.667 10.667 55.834 32 75.501s50.666 29.5 87.999 29.5s66.666 -9.83301 87.999 -29.5s32 -44.834 32 -75.501s-10.667 -55.834 -32 -75.501s-50.666 -29.5 -87.999 -29.5s-66.666 9.83301 -87.999 29.5s-32 44.834 -32 75.501z" />
    <glyph glyph-name="Eogonek" unicode="&#x118;" 
d="M60 0l-0.00195312 700.003h575v-200h-325v-65h255v-170h-255v-65h325v-200c-19.333 -14.667 -37.666 -30.667 -54.999 -48c-36.667 -36.667 -55 -67.334 -55 -92.001c0 -20 11.667 -30 35 -30c14 0 27 1.66699 39 5c4 0.666992 9.33301 2.33398 16 5.00098v-90
c-4.66699 -2.66699 -13 -6 -25 -10c-21.333 -6.66699 -44.666 -10 -69.999 -10c-41.333 0 -72.5 8.83301 -93.5 26.5s-31.5 42.167 -31.5 73.5c0 22 7.5 44.167 22.5 66.5s32.5 40.666 52.5 54.999s37.167 25.666 51.5 33.999s23.5 13.166 27.5 14.499h-489z" />
    <glyph glyph-name="eogonek" unicode="&#x119;" horiz-adv-x="660" 
d="M25 265c0 78.667 28.667 144.999 86 198.999s130.333 81 219 81s161.667 -27 219 -81s86 -120.333 86 -199v-15h-375c0 -70 23.333 -105 70 -105c19.333 0 36.333 7.33301 51 22c6.66699 8 11.334 15.667 14.001 23h235c-8.66699 -35.333 -26 -67.166 -52 -95.499
s-58.667 -56.833 -98 -85.5l-53 -38c-61.333 -38.667 -92 -75.667 -92 -111c0 -20 11.667 -30 35 -30c14 0 27 1.66699 39 5c4 0.666992 9.33301 2.33398 16 5.00098v-90c-4.66699 -2.66699 -13 -6 -25 -10c-21.333 -6.66699 -44.666 -10 -69.999 -10
c-41.333 0 -72.5 8.83301 -93.5 26.5s-31.5 42.167 -31.5 73.5c0 8.66699 1.33301 17.334 4 26.001s6 16.667 10 24s9 14.666 15 21.999s12.167 14 18.5 20s13 11.833 20 17.5s13.667 10.667 20 15l19 12.5c6.33301 4 11.666 7.16699 15.999 9.5
s8.16602 4.16602 11.499 5.49902l5 3h-14c-88.667 0 -161.667 27 -219 81s-86 120.333 -86 199zM265 314.999h130c-0.666992 10.667 -4 22.334 -10 35.001c-12.667 23.333 -31 35 -55 35s-42.333 -11.667 -55 -35c-6 -12.667 -9.33301 -24.334 -10 -35.001z" />
    <glyph glyph-name="Ecaron" unicode="&#x11a;" 
d="M60 0v700h575v-200h-325v-65h255v-170h-255v-65h325v-200h-575zM165 934v6h135l40 -60h20l40 60h135v-6l-110 -149h-150z" />
    <glyph glyph-name="ecaron" unicode="&#x11b;" horiz-adv-x="660" 
d="M25 265c0 78.667 28.666 145 85.999 199s130.333 81 219 81s161.667 -27 219 -81s86 -120.333 86 -199v-15h-375c0 -70 23.333 -105 70 -105c19.333 0 36.333 7.33301 51 22c6.66699 8 11.334 15.667 14.001 23h235c-12 -38.667 -31 -73 -57 -103
c-60 -68 -141 -102 -243 -102c-88.667 0 -161.667 27 -219 81s-86 120.333 -86 199zM264.999 315h130c-0.666992 10.667 -4 22.334 -10 35.001c-12.667 23.333 -31 35 -55 35s-42.333 -11.667 -55 -35c-6 -12.667 -9.33301 -24.334 -10 -35.001zM144.999 774v6h135l40 -60
h20l40 60h135v-6l-110 -149h-150z" />
    <glyph glyph-name="Gbreve" unicode="&#x11e;" horiz-adv-x="885" 
d="M30 350c0 104.667 37.166 192.5 111.499 263.5s170.5 106.5 288.5 106.5c127.333 0 228 -44.333 302 -133c32.667 -38.667 57 -82.667 73 -132h-250c-6 9.33301 -14.667 18.333 -26 27c-23.333 18.667 -54.666 28 -93.999 28c-43.333 0 -78.333 -14.333 -105 -43
s-40 -67.667 -40 -117s13.333 -88.333 40 -117s61.667 -43 105 -43c44 0 78.667 10 104 30c11.333 9.33301 20 19.333 26 30h-80v145h400v-145h-75c-16.667 -50 -42 -95 -76 -135c-72 -90 -173.333 -135 -304 -135c-118 0 -214.167 35.5 -288.5 106.5
s-111.5 158.833 -111.5 263.5zM254.999 930h115c0 -12 4.5 -21.667 13.5 -29s21.167 -11 36.5 -11s27.5 3.66699 36.5 11s13.5 17 13.5 29h115c0 -46 -14.5 -82.5 -43.5 -109.5s-69.5 -40.5 -121.5 -40.5s-92.5 13.5 -121.5 40.5s-43.5 63.5 -43.5 109.5z" />
    <glyph glyph-name="gbreve" unicode="&#x11f;" horiz-adv-x="690" 
d="M30 280c0 80 21.167 144.167 63.5 192.5s94.5 72.5 156.5 72.5c45.333 0 85 -14.333 119 -43c15.333 -12 27.333 -26 36 -42h10v70h230v-720h-550v155h320v135h-10c-8.66699 -16.667 -20.667 -31 -36 -43c-33.333 -28 -73 -42 -119 -42
c-62 0 -114.167 24.167 -156.5 72.5s-63.5 112.5 -63.5 192.5zM265 280c0 -25.333 6.66699 -45 20 -59s32 -21 56 -21c22.667 0 40.667 7 54 21s20 33.667 20 59s-6.66699 45 -20 59s-31.333 21 -54 21c-24 0 -42.667 -7 -56 -21s-20 -33.667 -20 -59zM165 770h115
c0 -12 4.5 -21.667 13.5 -29s21.167 -11 36.5 -11s27.5 3.66699 36.5 11s13.5 17 13.5 29h115c0 -46 -14.5 -82.5 -43.5 -109.5s-69.5 -40.5 -121.5 -40.5s-92.5 13.5 -121.5 40.5s-43.5 63.5 -43.5 109.5z" />
    <glyph glyph-name="Gcommaaccent" unicode="&#x122;" horiz-adv-x="885" 
d="M30 350c0 104.667 37.166 192.5 111.499 263.5s170.5 106.5 288.5 106.5c127.333 0 228 -44.333 302 -133c32.667 -38.667 57 -82.667 73 -132h-250c-6 9.33301 -14.667 18.333 -26 27c-23.333 18.667 -54.666 28 -93.999 28c-43.333 0 -78.333 -14.333 -105 -43
s-40 -67.667 -40 -117s13.333 -88.333 40 -117s61.667 -43 105 -43c44 0 78.667 10 104 30c11.333 9.33301 20 19.333 26 30h-80v145h400v-145h-75c-16.667 -50 -42 -95 -76 -135c-72 -90 -173.333 -135 -304 -135c-118 0 -214.167 35.5 -288.5 106.5
s-111.5 158.833 -111.5 263.5zM329.999 -160c0 26 8.83398 47.5 26.501 64.5s40.5 25.5 68.5 25.5c29.333 0 53.333 -11.5 72 -34.5s28 -56.5 28 -100.5c0 -47.333 -15.5 -85.833 -46.5 -115.5s-70.5 -44.5 -118.5 -44.5v65c22 0 40 6 54 18s21 26 21 42v10
c-4.66699 -3.33301 -7.33398 -5 -8.00098 -5c-5.33301 -3.33301 -12.666 -5 -21.999 -5c-22.667 0 -40.834 7 -54.501 21s-20.5 33.667 -20.5 59z" />
    <glyph glyph-name="gcommaaccent" unicode="&#x123;" horiz-adv-x="690" 
d="M260 745c0 47.333 15.499 85.833 46.499 115.5s70.5 44.5 118.5 44.5v-65c-22 0 -40 -6 -54 -18s-21 -26 -21 -42v-10l7 5c5.33301 3.33301 13 5 23 5c22.667 0 40.834 -7 54.501 -21s20.5 -33.667 20.5 -59c0 -26 -8.83301 -47.5 -26.5 -64.5s-40.5 -25.5 -68.5 -25.5
c-29.333 0 -53.333 11.5 -72 34.5s-28 56.5 -28 100.5zM29.999 280c0 80 21.167 144.167 63.5 192.5s94.5 72.5 156.5 72.5c45.333 0 85 -14.333 119 -43c15.333 -12 27.333 -26 36 -42h10v70h230v-720h-550v155h320v135h-10c-8.66699 -16.667 -20.667 -31 -36 -43
c-33.333 -28 -73 -42 -119 -42c-62 0 -114.167 24.167 -156.5 72.5s-63.5 112.5 -63.5 192.5zM264.999 280c0 -25.333 6.66699 -45 20 -59s32 -21 56 -21c22.667 0 40.667 7 54 21s20 33.667 20 59s-6.66699 45 -20 59s-31.333 21 -54 21c-24 0 -42.667 -7 -56 -21
s-20 -33.667 -20 -59z" />
    <glyph glyph-name="Imacron" unicode="&#x12a;" horiz-adv-x="370" 
d="M60 0v700h250v-700h-250zM5 790v120h360v-120h-360z" />
    <glyph glyph-name="imacron" unicode="&#x12b;" horiz-adv-x="320" 
d="M45 0v530h230v-530h-230zM-20 625v120h360v-120h-360z" />
    <glyph glyph-name="Iogonek" unicode="&#x12e;" horiz-adv-x="370" 
d="M70 -170c0 22 7.49805 44.1699 22.498 66.5029s32.5 40.666 52.5 54.999s37.167 25.666 51.5 33.999s23.5 13.166 27.5 14.499h-164v700h250v-700c-19.333 -14.667 -37.666 -30.667 -54.999 -48c-36.667 -36.667 -55 -67.334 -55 -92.001c0 -20 11.667 -30 35 -30
c14 0 27 1.66699 39 5c4 0.666992 9.33301 2.33398 16 5.00098v-90c-4.66699 -2.66699 -13 -6 -25 -10c-21.333 -6.66699 -44.666 -10 -69.999 -10c-41.333 0 -72.5 8.83301 -93.5 26.5s-31.5 42.167 -31.5 73.5z" />
    <glyph glyph-name="iogonek" unicode="&#x12f;" horiz-adv-x="320" 
d="M35 -170c0 22 7.49805 44.1699 22.498 66.5029s32.5 40.666 52.5 54.999s37.167 25.666 51.5 33.999s23.5 13.166 27.5 14.499h-144v530h230v-530c-19.333 -14.667 -37.666 -30.667 -54.999 -48c-36.667 -36.667 -55 -67.334 -55 -92.001c0 -20 11.667 -30 35 -30
c14 0 27 1.66699 39 5c4 0.666992 9.33301 2.33398 16 5.00098v-90c-4.66699 -2.66699 -13 -6 -25 -10c-21.333 -6.66699 -44.666 -10 -69.999 -10c-41.333 0 -72.5 8.83301 -93.5 26.5s-31.5 42.167 -31.5 73.5zM39.998 675.003c0 30.667 10.667 55.834 32 75.501
s50.666 29.5 87.999 29.5s66.666 -9.83301 87.999 -29.5s32 -44.834 32 -75.501s-10.667 -55.834 -32 -75.501s-50.666 -29.5 -87.999 -29.5s-66.666 9.83301 -87.999 29.5s-32 44.834 -32 75.501z" />
    <glyph glyph-name="Idotaccent" unicode="&#x130;" horiz-adv-x="370" 
d="M60 0v700h250v-700h-250zM65 855c0 30.667 10.667 55.834 32 75.501s50.666 29.5 87.999 29.5s66.666 -9.83301 87.999 -29.5s32 -44.834 32 -75.501s-10.667 -55.834 -32 -75.501s-50.666 -29.5 -87.999 -29.5s-66.666 9.83301 -87.999 29.5s-32 44.834 -32 75.501z" />
    <glyph glyph-name="dotlessi" unicode="&#x131;" horiz-adv-x="320" 
d="M45 0v530h230v-530h-230z" />
    <glyph glyph-name="Kcommaaccent" unicode="&#x136;" horiz-adv-x="790" 
d="M60 0v700h250v-230h50l130 230h280l-200 -325l220 -375h-280l-140 245h-60v-245h-250zM300 -160c0 26 8.83398 47.5 26.501 64.5s40.5 25.5 68.5 25.5c29.333 0 53.333 -11.5 72 -34.5s28 -56.5 28 -100.5c0 -47.333 -15.5 -85.833 -46.5 -115.5
s-70.5 -44.5 -118.5 -44.5v65c22 0 40 6 54 18s21 26 21 42v10c-4.66699 -3.33301 -7.33398 -5 -8.00098 -5c-5.33301 -3.33301 -12.666 -5 -21.999 -5c-22.667 0 -40.834 7 -54.501 21s-20.5 33.667 -20.5 59z" />
    <glyph glyph-name="kcommaaccent" unicode="&#x137;" horiz-adv-x="640" 
d="M45 0v700h230v-340h35l80 170h235l-125 -255l140 -275h-235l-85 170h-45v-170h-230zM235 -160c0 26 8.83398 47.5 26.501 64.5s40.5 25.5 68.5 25.5c29.333 0 53.333 -11.5 72 -34.5s28 -56.5 28 -100.5c0 -47.333 -15.5 -85.833 -46.5 -115.5s-70.5 -44.5 -118.5 -44.5
v65c22 0 40 6 54 18s21 26 21 42v10c-4.66699 -3.33301 -7.33398 -5 -8.00098 -5c-5.33301 -3.33301 -12.666 -5 -21.999 -5c-22.667 0 -40.834 7 -54.501 21s-20.5 33.667 -20.5 59z" />
    <glyph glyph-name="Lacute" unicode="&#x139;" horiz-adv-x="635" 
d="M60 0v700h250v-480h315v-220h-565zM100 785l70 155h210v-5l-145 -150h-135z" />
    <glyph glyph-name="lacute" unicode="&#x13a;" horiz-adv-x="405" 
d="M45 0v700h230v-545h120v-155h-350zM90 785l70 155h210v-5l-145 -150h-135z" />
    <glyph glyph-name="Lcommaaccent" unicode="&#x13b;" horiz-adv-x="635" 
d="M60 0v700h250v-480h315v-220h-565zM235 -160c0 26 8.83398 47.5 26.501 64.5s40.5 25.5 68.5 25.5c29.333 0 53.333 -11.5 72 -34.5s28 -56.5 28 -100.5c0 -47.333 -15.5 -85.833 -46.5 -115.5s-70.5 -44.5 -118.5 -44.5v65c22 0 40 6 54 18s21 26 21 42v10
c-4.66699 -3.33301 -7.33398 -5 -8.00098 -5c-5.33301 -3.33301 -12.666 -5 -21.999 -5c-22.667 0 -40.834 7 -54.501 21s-20.5 33.667 -20.5 59z" />
    <glyph glyph-name="lcommaaccent" unicode="&#x13c;" horiz-adv-x="405" 
d="M45 0v700h230v-545h120v-155h-350zM125 -160c0 26 8.83398 47.5 26.501 64.5s40.5 25.5 68.5 25.5c29.333 0 53.333 -11.5 72 -34.5s28 -56.5 28 -100.5c0 -47.333 -15.5 -85.833 -46.5 -115.5s-70.5 -44.5 -118.5 -44.5v65c22 0 40 6 54 18s21 26 21 42v10
c-4.66699 -3.33301 -7.33398 -5 -8.00098 -5c-5.33301 -3.33301 -12.666 -5 -21.999 -5c-22.667 0 -40.834 7 -54.501 21s-20.5 33.667 -20.5 59z" />
    <glyph glyph-name="Lcaron" unicode="&#x13d;" horiz-adv-x="635" 
d="M60 0v700h250v-480h315v-220h-565zM370 630c0 26 8.83398 47.5 26.501 64.5s40.5 25.5 68.5 25.5c29.333 0 53.333 -11.5 72 -34.5s28 -56.5 28 -100.5c0 -47.333 -15.5 -85.833 -46.5 -115.5s-70.5 -44.5 -118.5 -44.5v65c22 0 40 6 54 18s21 26 21 42v10
c-4.66699 -3.33301 -7.33398 -5 -8.00098 -5c-5.33301 -3.33301 -12.666 -5 -21.999 -5c-22.667 0 -40.834 7 -54.501 21s-20.5 33.667 -20.5 59z" />
    <glyph glyph-name="lcaron" unicode="&#x13e;" horiz-adv-x="480" 
d="M45 0v700h230v-545h120v-155h-350zM315 625c0 26 8.83398 47.5 26.501 64.5s40.5 25.5 68.5 25.5c29.333 0 53.333 -11.5 72 -34.5s28 -56.5 28 -100.5c0 -47.333 -15.5 -85.833 -46.5 -115.5s-70.5 -44.5 -118.5 -44.5v65c22 0 40 6 54 18s21 26 21 42v10
c-4.66699 -3.33301 -7.33398 -5 -8.00098 -5c-5.33301 -3.33301 -12.666 -5 -21.999 -5c-22.667 0 -40.834 7 -54.501 21s-20.5 33.667 -20.5 59z" />
    <glyph glyph-name="Lslash" unicode="&#x141;" horiz-adv-x="665" 
d="M10 215v160l80 35v290h250v-180l140 60v-160l-140 -60v-140h315v-220h-565v250z" />
    <glyph glyph-name="lslash" unicode="&#x142;" horiz-adv-x="440" 
d="M10 220v155l70 31v294h230v-195l105 45v-155l-105 -45v-195h120v-155h-350v251z" />
    <glyph glyph-name="Nacute" unicode="&#x143;" horiz-adv-x="835" 
d="M60 0v700h280l191 -330h9l-15 100v230h250v-700h-280l-190 330h-10l15 -95v-235h-250zM326 785l70 155h210v-5l-145 -150h-135z" />
    <glyph glyph-name="nacute" unicode="&#x144;" horiz-adv-x="670" 
d="M45 0v530h230v-75h10c9.33301 16.667 22 31.667 38 45c35.333 30 74.333 45 117 45c59.333 0 105.833 -18.5 139.5 -55.5s50.5 -90.167 50.5 -159.5v-330h-230v290c0 20.667 -5 36.667 -15 48s-23.333 17 -40 17c-20.667 0 -37.5 -7.16699 -50.5 -21.5
s-19.5 -33.833 -19.5 -58.5v-275h-230zM245 625l70 155h210v-5l-145 -150h-135z" />
    <glyph glyph-name="Ncommaaccent" unicode="&#x145;" horiz-adv-x="835" 
d="M60 0v700h280l191 -330h9l-15 100v230h250v-700h-280l-190 330h-10l15 -95v-235h-250zM320 -160c0 26 8.83398 47.5 26.501 64.5s40.5 25.5 68.5 25.5c29.333 0 53.333 -11.5 72 -34.5s28 -56.5 28 -100.5c0 -47.333 -15.5 -85.833 -46.5 -115.5
s-70.5 -44.5 -118.5 -44.5v65c22 0 40 6 54 18s21 26 21 42v10c-4.66699 -3.33301 -7.33398 -5 -8.00098 -5c-5.33301 -3.33301 -12.666 -5 -21.999 -5c-22.667 0 -40.834 7 -54.501 21s-20.5 33.667 -20.5 59z" />
    <glyph glyph-name="ncommaaccent" unicode="&#x146;" horiz-adv-x="670" 
d="M45 0v530h230v-75h10c9.33301 16.667 22 31.667 38 45c35.333 30 74.333 45 117 45c59.333 0 105.833 -18.5 139.5 -55.5s50.5 -90.167 50.5 -159.5v-330h-230v290c0 20.667 -5 36.667 -15 48s-23.333 17 -40 17c-20.667 0 -37.5 -7.16699 -50.5 -21.5
s-19.5 -33.833 -19.5 -58.5v-275h-230zM245 -160c0 26 8.83398 47.5 26.501 64.5s40.5 25.5 68.5 25.5c29.333 0 53.333 -11.5 72 -34.5s28 -56.5 28 -100.5c0 -47.333 -15.5 -85.833 -46.5 -115.5s-70.5 -44.5 -118.5 -44.5v65c22 0 40 6 54 18s21 26 21 42v10
c-4.66699 -3.33301 -7.33398 -5 -8.00098 -5c-5.33301 -3.33301 -12.666 -5 -21.999 -5c-22.667 0 -40.834 7 -54.501 21s-20.5 33.667 -20.5 59z" />
    <glyph glyph-name="Ncaron" unicode="&#x147;" horiz-adv-x="835" 
d="M60 0v700h280l191 -330h9l-15 100v230h250v-700h-280l-190 330h-10l15 -95v-235h-250zM230 934v6h135l40 -60h20l40 60h135v-6l-110 -149h-150z" />
    <glyph glyph-name="ncaron" unicode="&#x148;" horiz-adv-x="670" 
d="M45 0v530h230v-75h10c9.33301 16.667 22 31.667 38 45c35.333 30 74.333 45 117 45c59.333 0 105.833 -18.5 139.5 -55.5s50.5 -90.167 50.5 -159.5v-330h-230v290c0 20.667 -5 36.667 -15 48s-23.333 17 -40 17c-20.667 0 -37.5 -7.16699 -50.5 -21.5
s-19.5 -33.833 -19.5 -58.5v-275h-230zM150 774v6h135l40 -60h20l40 60h135v-6l-110 -149h-150z" />
    <glyph glyph-name="Omacron" unicode="&#x14c;" horiz-adv-x="860" 
d="M30 350c0 105.333 36.667 193.333 110 264s170 106 290 106s216.667 -35.333 290 -106s110 -158.667 110 -264s-36.667 -193.333 -110 -264s-170 -106 -290 -106s-216.667 35.333 -290 106s-110 158.667 -110 264zM290 350c0 -49.333 13.167 -88.333 39.5 -117
s59.833 -43 100.5 -43s74.167 14.333 100.5 43s39.5 67.667 39.5 117s-13.167 88.333 -39.5 117s-59.833 43 -100.5 43s-74.167 -14.333 -100.5 -43s-39.5 -67.667 -39.5 -117zM250 790v120h360v-120h-360z" />
    <glyph glyph-name="omacron" unicode="&#x14d;" 
d="M25 265c0 79.333 29.167 145.833 87.5 199.5s134.166 80.5 227.499 80.5c92.667 0 168.334 -26.833 227.001 -80.5s88 -120.167 88 -199.5s-29.333 -145.833 -88 -199.5s-134.334 -80.5 -227.001 -80.5c-93.333 0 -169.166 26.833 -227.499 80.5
s-87.5 120.167 -87.5 199.5zM260 265c0 -31.333 7.5 -55.833 22.5 -73.5s34.167 -26.5 57.5 -26.5s42.5 8.83301 57.5 26.5s22.5 42.167 22.5 73.5s-7.5 55.833 -22.5 73.5s-34.167 26.5 -57.5 26.5s-42.5 -8.83301 -57.5 -26.5s-22.5 -42.167 -22.5 -73.5zM160 625v120h360
v-120h-360z" />
    <glyph glyph-name="Ohungarumlaut" unicode="&#x150;" horiz-adv-x="860" 
d="M30 350c0 105.333 36.667 193.333 110 264s170 106 290 106s216.667 -35.333 290 -106s110 -158.667 110 -264s-36.667 -193.333 -110 -264s-170 -106 -290 -106s-216.667 35.333 -290 106s-110 158.667 -110 264zM290 350c0 -49.333 13.167 -88.333 39.5 -117
s59.833 -43 100.5 -43s74.167 14.333 100.5 43s39.5 67.667 39.5 117s-13.167 88.333 -39.5 117s-59.833 43 -100.5 43s-74.167 -14.333 -100.5 -43s-39.5 -67.667 -39.5 -117zM455 785l70 155h180v-5l-140 -150h-110zM250 785l70 155h170v-5l-125 -150h-115z" />
    <glyph glyph-name="ohungarumlaut" unicode="&#x151;" 
d="M25 265c0 79.333 29.167 145.833 87.5 199.5s134.166 80.5 227.499 80.5c92.667 0 168.334 -26.833 227.001 -80.5s88 -120.167 88 -199.5s-29.333 -145.833 -88 -199.5s-134.334 -80.5 -227.001 -80.5c-93.333 0 -169.166 26.833 -227.499 80.5
s-87.5 120.167 -87.5 199.5zM260 265c0 -31.333 7.5 -55.833 22.5 -73.5s34.167 -26.5 57.5 -26.5s42.5 8.83301 57.5 26.5s22.5 42.167 22.5 73.5s-7.5 55.833 -22.5 73.5s-34.167 26.5 -57.5 26.5s-42.5 -8.83301 -57.5 -26.5s-22.5 -42.167 -22.5 -73.5zM371 625l70 155
h180v-5l-140 -150h-110zM166 625l70 155h170v-5l-125 -150h-115z" />
    <glyph glyph-name="OE" unicode="&#x152;" horiz-adv-x="1170" 
d="M30 350c0 105.333 32.667 193.333 98 264s142.666 106 231.999 106c60.667 0 114.334 -13.333 161.001 -40c20 -12 36.333 -25.333 49 -40v60h555v-210h-310v-55h240v-170h-240v-55h310v-210h-555v60c-12.667 -14.667 -29 -28 -49 -40
c-46.667 -26.667 -100.334 -40 -161.001 -40c-89.333 0 -166.666 35.333 -231.999 106s-98 158.667 -98 264zM290 350c0 -49.333 13.167 -88.333 39.5 -117s59.833 -43 100.5 -43s74.167 14.333 100.5 43s39.5 67.667 39.5 117s-13.167 88.333 -39.5 117
s-59.833 43 -100.5 43s-74.167 -14.333 -100.5 -43s-39.5 -67.667 -39.5 -117z" />
    <glyph glyph-name="oe" unicode="&#x153;" horiz-adv-x="1035" 
d="M25 265c0 78 27.498 144.166 82.498 198.499s122.5 81.5 202.5 81.5c57.333 0 108 -13.333 152 -40c19.333 -12.667 35.333 -26 48 -40h10c14.667 14.667 32 28 52 40c46.667 26.667 97.667 40 153 40c80 0 147.5 -27.167 202.5 -81.5s82.5 -120.5 82.5 -198.5v-15h-375
c0 -70 23.333 -105 70 -105c19.333 0 36.333 7.33301 51 22c6.66699 8 11.334 15.667 14.001 23h235c-13.333 -39.333 -31.666 -73.666 -54.999 -102.999c-57.333 -68 -132.333 -102 -225 -102c-55.333 0 -106.333 13.333 -153 40c-20 12 -37.333 25.333 -52 40h-10
c-12.667 -14 -28.667 -27.333 -48 -40c-44 -26.667 -94.667 -40 -152 -40c-80 0 -147.5 27.167 -202.5 81.5s-82.5 120.5 -82.5 198.5zM639.998 314.999h130c-0.666992 10.667 -4 22.334 -10 35.001c-12.667 23.333 -31 35 -55 35s-42.333 -11.667 -55 -35
c-6 -12.667 -9.33301 -24.334 -10 -35.001zM259.998 264.999c0 -34 6.33301 -59.167 19 -75.5s29.667 -24.5 51 -24.5c20.667 0 37.5 8.16699 50.5 24.5s19.5 41.5 19.5 75.5s-6.5 59.167 -19.5 75.5s-29.833 24.5 -50.5 24.5c-21.333 0 -38.333 -8.16699 -51 -24.5
s-19 -41.5 -19 -75.5z" />
    <glyph glyph-name="Racute" unicode="&#x154;" horiz-adv-x="780" 
d="M60 0v700.001h390c88.667 0 159.167 -24.167 211.5 -72.5s78.5 -110.833 78.5 -187.5c0 -64 -20 -116 -60 -156c-17.333 -18.667 -37.333 -33.334 -60 -44.001l130 -240h-250l-100 190h-90v-190h-250zM310 380.001h110c20 0 35.833 5.5 47.5 16.5s17.5 25.5 17.5 43.5
s-5.83301 32.5 -17.5 43.5s-27.5 16.5 -47.5 16.5h-110v-120zM304 785.001l70 155h210v-5l-145 -150h-135z" />
    <glyph glyph-name="racute" unicode="&#x155;" horiz-adv-x="450" 
d="M45 0l0.000976562 530h220v-80h10c6 16 14.667 31 26 45c24.667 30 56 45 94 45h45v-220h-96c-24.667 0 -42.334 -5.16699 -53.001 -15.5s-16 -26.833 -16 -49.5v-255h-230zM160.001 625l70 155h210v-5l-145 -150h-135z" />
    <glyph glyph-name="Rcommaaccent" unicode="&#x156;" horiz-adv-x="780" 
d="M60 0v700.001h390c88.667 0 159.167 -24.167 211.5 -72.5s78.5 -110.833 78.5 -187.5c0 -64 -20 -116 -60 -156c-17.333 -18.667 -37.333 -33.334 -60 -44.001l130 -240h-250l-100 190h-90v-190h-250zM310 380.001h110c20 0 35.833 5.5 47.5 16.5s17.5 25.5 17.5 43.5
s-5.83301 32.5 -17.5 43.5s-27.5 16.5 -47.5 16.5h-110v-120zM310 -159.999c0 26 8.83398 47.5 26.501 64.5s40.5 25.5 68.5 25.5c29.333 0 53.333 -11.5 72 -34.5s28 -56.5 28 -100.5c0 -47.333 -15.5 -85.833 -46.5 -115.5s-70.5 -44.5 -118.5 -44.5v65c22 0 40 6 54 18
s21 26 21 42v10c-4.66699 -3.33301 -7.33398 -5 -8.00098 -5c-5.33301 -3.33301 -12.666 -5 -21.999 -5c-22.667 0 -40.834 7 -54.501 21s-20.5 33.667 -20.5 59z" />
    <glyph glyph-name="rcommaaccent" unicode="&#x157;" horiz-adv-x="450" 
d="M45 0l0.000976562 530h220v-80h10c6 16 14.667 31 26 45c24.667 30 56 45 94 45h45v-220h-96c-24.667 0 -42.334 -5.16699 -53.001 -15.5s-16 -26.833 -16 -49.5v-255h-230zM50.001 -160c0 26 8.83398 47.5 26.501 64.5s40.5 25.5 68.5 25.5
c29.333 0 53.333 -11.5 72 -34.5s28 -56.5 28 -100.5c0 -47.333 -15.5 -85.833 -46.5 -115.5s-70.5 -44.5 -118.5 -44.5v65c22 0 40 6 54 18s21 26 21 42v10c-4.66699 -3.33301 -7.33398 -5 -8.00098 -5c-5.33301 -3.33301 -12.666 -5 -21.999 -5
c-22.667 0 -40.834 7 -54.501 21s-20.5 33.667 -20.5 59z" />
    <glyph glyph-name="Rcaron" unicode="&#x158;" horiz-adv-x="780" 
d="M60 0v700.001h390c88.667 0 159.167 -24.167 211.5 -72.5s78.5 -110.833 78.5 -187.5c0 -64 -20 -116 -60 -156c-17.333 -18.667 -37.333 -33.334 -60 -44.001l130 -240h-250l-100 190h-90v-190h-250zM310 380.001h110c20 0 35.833 5.5 47.5 16.5s17.5 25.5 17.5 43.5
s-5.83301 32.5 -17.5 43.5s-27.5 16.5 -47.5 16.5h-110v-120zM195 934.001v6h135l40 -60h20l40 60h135v-6l-110 -149h-150z" />
    <glyph glyph-name="rcaron" unicode="&#x159;" horiz-adv-x="450" 
d="M45 0l0.000976562 530h220v-80h10c6 16 14.667 31 26 45c24.667 30 56 45 94 45h45v-220h-96c-24.667 0 -42.334 -5.16699 -53.001 -15.5s-16 -26.833 -16 -49.5v-255h-230zM49.001 774v6h135l40 -60h20l40 60h135v-6l-110 -149h-150z" />
    <glyph glyph-name="Sacute" unicode="&#x15a;" horiz-adv-x="730" 
d="M20 235l250.003 0.00195312c4 -15.333 10.333 -28 19 -38c19.333 -24.667 48 -37 86 -37c50 0 75 13.333 75 40c0 8 -3 15.167 -9 21.5s-16 12.166 -30 17.499s-27 9.83301 -39 13.5s-29.333 8.16699 -52 13.5c-25.333 6 -46.333 11.5 -63 16.5s-37.334 12 -62.001 21
s-45 19 -61 30s-31.833 24.333 -47.5 40s-27.334 34.167 -35.001 55.5s-11.5 45 -11.5 71c0 58.667 28.5 110 85.5 154s135.167 66 234.5 66c121.333 0 212.666 -39.333 273.999 -118c26 -34 44.667 -73 56 -117h-250c-2 10.667 -6.33301 19.667 -13 27
c-14 18.667 -34.667 28 -62 28c-43.333 0 -65 -11.667 -65 -35c0 -10.667 8.33301 -19.167 25 -25.5s44 -13.5 82 -21.5l48 -11.5l49 -12.5c23.333 -6 40.833 -11.833 52.5 -17.5l46 -22.5c19 -9.33301 33.667 -19.333 44 -30s21 -23 32 -37s19 -30 24 -48
s7.5 -37.667 7.5 -59c0 -66.667 -29.667 -123.334 -89 -170.001s-141.333 -70 -246 -70c-134 0 -232.667 42.333 -296 127c-28 35.333 -47.667 78 -59 128zM285.003 785.002l70 155h210v-5l-145 -150h-135z" />
    <glyph glyph-name="sacute" unicode="&#x15b;" horiz-adv-x="600" 
d="M20 175l215 -0.00195312c0.666992 -6.66699 4 -13.334 10 -20.001c10.667 -13.333 29 -20 55 -20c30 0 45 6.66699 45 20c0 8 -5.33301 14.333 -16 19s-29 10 -55 16c-3.33301 0.666992 -6 1.33398 -8 2.00098l-42 10c-8 2 -22 6 -42 12s-34.667 11.667 -44 17
s-21.5 12.833 -36.5 22.5s-26.167 19.834 -33.5 30.501s-13.833 23.834 -19.5 39.501s-8.5 32.834 -8.5 51.501c0 48.667 21.667 89.167 65 121.5s106.666 48.5 189.999 48.5c102.667 0 179.667 -31 231 -93c22.667 -28 37.334 -58.667 44.001 -92h-215
c-2 5.33301 -4.66699 11 -8 17c-9.33301 12 -21.666 18 -36.999 18c-23.333 0 -35 -6.66699 -35 -20c0 -7.33301 6.16699 -13.333 18.5 -18s32.5 -9.66699 60.5 -15c18 -4 28.833 -6.5 32.5 -7.5l32 -8.5c17.667 -4.66699 29.5 -8.33398 35.5 -11.001l31 -13.5
c14.667 -6.33301 25 -12.166 31 -17.499l24.5 -21.5c10.333 -9 17.666 -18.333 21.999 -28s8.33301 -20.834 12 -33.501s5.5 -26.334 5.5 -41.001c0 -49.333 -23.5 -90.833 -70.5 -124.5s-115.167 -50.5 -204.5 -50.5c-112.667 0 -193.334 31.667 -242.001 95
c-21.333 26.667 -35.666 58.334 -42.999 95.001zM220 624.998l70 155h210v-5l-145 -150h-135z" />
    <glyph glyph-name="Scedilla" unicode="&#x15e;" horiz-adv-x="730" 
d="M20 235l250.003 0.00292969c4 -15.333 10.333 -28 19 -38c19.333 -24.667 48 -37 86 -37c50 0 75 13.333 75 40c0 8 -3 15.167 -9 21.5s-16 12.166 -30 17.499s-27 9.83301 -39 13.5s-29.333 8.16699 -52 13.5c-25.333 6 -46.333 11.5 -63 16.5s-37.334 12 -62.001 21
s-45 19 -61 30s-31.833 24.333 -47.5 40s-27.334 34.167 -35.001 55.5s-11.5 45 -11.5 71c0 58.667 28.5 110 85.5 154s135.167 66 234.5 66c121.333 0 212.666 -39.333 273.999 -118c26 -34 44.667 -73 56 -117h-250c-2 10.667 -6.33301 19.667 -13 27
c-14 18.667 -34.667 28 -62 28c-43.333 0 -65 -11.667 -65 -35c0 -10.667 8.33301 -19.167 25 -25.5s44 -13.5 82 -21.5l48 -11.5l49 -12.5c23.333 -6 40.833 -11.833 52.5 -17.5l46 -22.5c19 -9.33301 33.667 -19.333 44 -30s21 -23 32 -37s19 -30 24 -48
s7.5 -37.667 7.5 -59c0 -64.667 -28 -120.167 -84 -166.5s-133 -70.833 -231 -73.5l-10 -25c19.333 -2 37.666 -7 54.999 -15c36.667 -20.667 55 -50.667 55 -90c0 -38.667 -13.167 -70 -39.5 -94s-63.166 -36 -110.499 -36c-29.333 0 -54.666 3.33301 -75.999 10
c-10.667 3.33301 -18.667 6.66602 -24 9.99902v100c5.33301 -2.66699 14 -6 26 -10c21.333 -6.66699 42.666 -10 63.999 -10c33.333 0 50 10 50 30s-13.333 30 -40 30h-65l37 103c-112.667 11.333 -195 56.666 -247 135.999c-24 33.333 -40.667 72 -50 116z" />
    <glyph glyph-name="scedilla" unicode="&#x15f;" horiz-adv-x="600" 
d="M20 175l215 -0.000976562c0.666992 -6.66699 4 -13.334 10 -20.001c10.667 -13.333 29 -20 55 -20c30 0 45 6.66699 45 20c0 8 -5.33301 14.333 -16 19s-29 10 -55 16c-3.33301 0.666992 -6 1.33398 -8 2.00098l-42 10c-8 2 -22 6 -42 12s-34.667 11.667 -44 17
s-21.5 12.833 -36.5 22.5s-26.167 19.834 -33.5 30.501s-13.833 23.834 -19.5 39.501s-8.5 32.834 -8.5 51.501c0 48.667 21.667 89.167 65 121.5s106.666 48.5 189.999 48.5c102.667 0 179.667 -31 231 -93c22.667 -28 37.334 -58.667 44.001 -92h-215
c-2 5.33301 -4.66699 11 -8 17c-9.33301 12 -21.666 18 -36.999 18c-23.333 0 -35 -6.66699 -35 -20c0 -7.33301 6.16699 -13.333 18.5 -18s32.5 -9.66699 60.5 -15c18 -4 28.833 -6.5 32.5 -7.5l32 -8.5c17.667 -4.66699 29.5 -8.33398 35.5 -11.001l31 -13.5
c14.667 -6.33301 25 -12.166 31 -17.499l24.5 -21.5c10.333 -9 17.666 -18.333 21.999 -28s8.33301 -20.834 12 -33.501s5.5 -26.334 5.5 -41.001c0 -45.333 -20.333 -84.5 -61 -117.5s-100 -52.167 -178 -57.5l-11 -30c19.333 -2 37.666 -7 54.999 -15
c36.667 -20.667 55 -50.667 55 -90c0 -38.667 -13.167 -70 -39.5 -94s-63.166 -36 -110.499 -36c-29.333 0 -54.666 3.33301 -75.999 10c-10.667 3.33301 -18.667 6.66602 -24 9.99902v100c5.33301 -2.66699 14 -6 26 -10c21.333 -6.66699 42.666 -10 63.999 -10
c33.333 0 50 10 50 30s-13.333 30 -40 30h-65l38 107c-94.667 6.66699 -163 40.334 -205 101.001c-19.333 27.333 -32 56.333 -38 87z" />
    <glyph glyph-name="Scaron" unicode="&#x160;" horiz-adv-x="730" 
d="M20 235l250.003 0.00195312c4 -15.333 10.333 -28 19 -38c19.333 -24.667 48 -37 86 -37c50 0 75 13.333 75 40c0 8 -3 15.167 -9 21.5s-16 12.166 -30 17.499s-27 9.83301 -39 13.5s-29.333 8.16699 -52 13.5c-25.333 6 -46.333 11.5 -63 16.5s-37.334 12 -62.001 21
s-45 19 -61 30s-31.833 24.333 -47.5 40s-27.334 34.167 -35.001 55.5s-11.5 45 -11.5 71c0 58.667 28.5 110 85.5 154s135.167 66 234.5 66c121.333 0 212.666 -39.333 273.999 -118c26 -34 44.667 -73 56 -117h-250c-2 10.667 -6.33301 19.667 -13 27
c-14 18.667 -34.667 28 -62 28c-43.333 0 -65 -11.667 -65 -35c0 -10.667 8.33301 -19.167 25 -25.5s44 -13.5 82 -21.5l48 -11.5l49 -12.5c23.333 -6 40.833 -11.833 52.5 -17.5l46 -22.5c19 -9.33301 33.667 -19.333 44 -30s21 -23 32 -37s19 -30 24 -48
s7.5 -37.667 7.5 -59c0 -66.667 -29.667 -123.334 -89 -170.001s-141.333 -70 -246 -70c-134 0 -232.667 42.333 -296 127c-28 35.333 -47.667 78 -59 128zM180.003 934.002v6h135l40 -60h20l40 60h135v-6l-110 -149h-150z" />
    <glyph glyph-name="scaron" unicode="&#x161;" horiz-adv-x="600" 
d="M20 175l215 -0.00195312c0.666992 -6.66699 4 -13.334 10 -20.001c10.667 -13.333 29 -20 55 -20c30 0 45 6.66699 45 20c0 8 -5.33301 14.333 -16 19s-29 10 -55 16c-3.33301 0.666992 -6 1.33398 -8 2.00098l-42 10c-8 2 -22 6 -42 12s-34.667 11.667 -44 17
s-21.5 12.833 -36.5 22.5s-26.167 19.834 -33.5 30.501s-13.833 23.834 -19.5 39.501s-8.5 32.834 -8.5 51.501c0 48.667 21.667 89.167 65 121.5s106.666 48.5 189.999 48.5c102.667 0 179.667 -31 231 -93c22.667 -28 37.334 -58.667 44.001 -92h-215
c-2 5.33301 -4.66699 11 -8 17c-9.33301 12 -21.666 18 -36.999 18c-23.333 0 -35 -6.66699 -35 -20c0 -7.33301 6.16699 -13.333 18.5 -18s32.5 -9.66699 60.5 -15c18 -4 28.833 -6.5 32.5 -7.5l32 -8.5c17.667 -4.66699 29.5 -8.33398 35.5 -11.001l31 -13.5
c14.667 -6.33301 25 -12.166 31 -17.499l24.5 -21.5c10.333 -9 17.666 -18.333 21.999 -28s8.33301 -20.834 12 -33.501s5.5 -26.334 5.5 -41.001c0 -49.333 -23.5 -90.833 -70.5 -124.5s-115.167 -50.5 -204.5 -50.5c-112.667 0 -193.334 31.667 -242.001 95
c-21.333 26.667 -35.666 58.334 -42.999 95.001zM110 773.998v6h135l40 -60h20l40 60h135v-6l-110 -149h-150z" />
    <glyph glyph-name="Tcommaaccent" unicode="&#x162;" horiz-adv-x="690" 
d="M10 480v220h670v-220h-210v-480h-250v480h-210zM250 -160c0 26 8.83398 47.5 26.501 64.5s40.5 25.5 68.5 25.5c29.333 0 53.333 -11.5 72 -34.5s28 -56.5 28 -100.5c0 -47.333 -15.5 -85.833 -46.5 -115.5s-70.5 -44.5 -118.5 -44.5v65c22 0 40 6 54 18s21 26 21 42v10
c-4.66699 -3.33301 -7.33398 -5 -8.00098 -5c-5.33301 -3.33301 -12.666 -5 -21.999 -5c-22.667 0 -40.834 7 -54.501 21s-20.5 33.667 -20.5 59z" />
    <glyph glyph-name="tcommaaccent" unicode="&#x163;" horiz-adv-x="470" 
d="M10 375v155h70v110h230v-110h120v-155h-120v-220h130v-155h-360v375h-70zM160 -160c0 26 8.83398 47.5 26.501 64.5s40.5 25.5 68.5 25.5c29.333 0 53.333 -11.5 72 -34.5s28 -56.5 28 -100.5c0 -47.333 -15.5 -85.833 -46.5 -115.5s-70.5 -44.5 -118.5 -44.5v65
c22 0 40 6 54 18s21 26 21 42v10c-4.66699 -3.33301 -7.33398 -5 -8.00098 -5c-5.33301 -3.33301 -12.666 -5 -21.999 -5c-22.667 0 -40.834 7 -54.501 21s-20.5 33.667 -20.5 59z" />
    <glyph glyph-name="Tcaron" unicode="&#x164;" horiz-adv-x="690" 
d="M10 480v220h670v-220h-210v-480h-250v480h-210zM160 934v6h135l40 -60h20l40 60h135v-6l-110 -149h-150z" />
    <glyph glyph-name="tcaron" unicode="&#x165;" horiz-adv-x="545" 
d="M350 560c0 26 8.83398 47.5 26.501 64.5s40.5 25.5 68.5 25.5c29.333 0 53.333 -11.5 72 -34.5s28 -56.5 28 -100.5c0 -47.333 -15.5 -85.833 -46.5 -115.5s-70.5 -44.5 -118.5 -44.5v65c22 0 40 6 54 18s21 26 21 42v10c-4.66699 -3.33301 -7.33398 -5 -8.00098 -5
c-5.33301 -3.33301 -12.666 -5 -21.999 -5c-22.667 0 -40.834 7 -54.501 21s-20.5 33.667 -20.5 59zM10.001 375v155h70v110h230v-485h130v-155h-360v375h-70z" />
    <glyph glyph-name="Umacron" unicode="&#x16a;" horiz-adv-x="800" 
d="M55 290v410h250v-400c0 -32 8.33301 -56.667 25 -74s40 -26 70 -26s53.333 8.66699 70 26s25 42 25 74v400h250v-410c0 -94 -30.5 -169.167 -91.5 -225.5s-145.5 -84.5 -253.5 -84.5s-192.5 28.167 -253.5 84.5s-91.5 131.5 -91.5 225.5zM220 790v120h360v-120h-360z" />
    <glyph glyph-name="umacron" unicode="&#x16b;" horiz-adv-x="675" 
d="M45 200v330h230v-290c0 -20.667 5 -36.667 15 -48s23.333 -17 40 -17c20.667 0 37.5 7.16699 50.5 21.5s19.5 33.833 19.5 58.5v275h230v-530h-230v75h-10c-9.33301 -16.667 -22 -31.667 -38 -45c-35.333 -30 -74.333 -45 -117 -45c-59.333 0 -105.833 18.5 -139.5 55.5
s-50.5 90.167 -50.5 159.5zM157 625v120h360v-120h-360z" />
    <glyph glyph-name="Uring" unicode="&#x16e;" horiz-adv-x="800" 
d="M55 290v410h250v-400c0 -32 8.33301 -56.667 25 -74s40 -26 70 -26s53.333 8.66699 70 26s25 42 25 74v400h250v-410c0 -94 -30.5 -169.167 -91.5 -225.5s-145.5 -84.5 -253.5 -84.5s-192.5 28.167 -253.5 84.5s-91.5 131.5 -91.5 225.5zM275 865
c0 32.667 12.167 60.834 36.5 84.501s53.833 35.5 88.5 35.5s64.167 -11.833 88.5 -35.5s36.5 -51.834 36.5 -84.501s-12.167 -60.834 -36.5 -84.501s-53.833 -35.5 -88.5 -35.5s-64.167 11.833 -88.5 35.5s-36.5 51.834 -36.5 84.501zM360 865
c0 -11.333 3.83301 -20.833 11.5 -28.5s17.167 -11.5 28.5 -11.5s20.833 3.83301 28.5 11.5s11.5 17.167 11.5 28.5s-3.83301 20.833 -11.5 28.5s-17.167 11.5 -28.5 11.5s-20.833 -3.83301 -28.5 -11.5s-11.5 -17.167 -11.5 -28.5z" />
    <glyph glyph-name="uring" unicode="&#x16f;" horiz-adv-x="675" 
d="M45 200v330h230v-290c0 -20.667 5 -36.667 15 -48s23.333 -17 40 -17c20.667 0 37.5 7.16699 50.5 21.5s19.5 33.833 19.5 58.5v275h230v-530h-230v75h-10c-9.33301 -16.667 -22 -31.667 -38 -45c-35.333 -30 -74.333 -45 -117 -45c-59.333 0 -105.833 18.5 -139.5 55.5
s-50.5 90.167 -50.5 159.5zM212 700c0 32.667 12.167 60.834 36.5 84.501s53.833 35.5 88.5 35.5s64.167 -11.833 88.5 -35.5s36.5 -51.834 36.5 -84.501s-12.167 -60.834 -36.5 -84.501s-53.833 -35.5 -88.5 -35.5s-64.167 11.833 -88.5 35.5s-36.5 51.834 -36.5 84.501z
M297 700c0 -11.333 3.83301 -20.833 11.5 -28.5s17.167 -11.5 28.5 -11.5s20.833 3.83301 28.5 11.5s11.5 17.167 11.5 28.5s-3.83301 20.833 -11.5 28.5s-17.167 11.5 -28.5 11.5s-20.833 -3.83301 -28.5 -11.5s-11.5 -17.167 -11.5 -28.5z" />
    <glyph glyph-name="Uhungarumlaut" unicode="&#x170;" horiz-adv-x="800" 
d="M55 290v410h250v-400c0 -32 8.33301 -56.667 25 -74s40 -26 70 -26s53.333 8.66699 70 26s25 42 25 74v400h250v-410c0 -94 -30.5 -169.167 -91.5 -225.5s-145.5 -84.5 -253.5 -84.5s-192.5 28.167 -253.5 84.5s-91.5 131.5 -91.5 225.5zM431 785l70 155h180v-5
l-140 -150h-110zM226 785l70 155h170v-5l-125 -150h-115z" />
    <glyph glyph-name="uhungarumlaut" unicode="&#x171;" horiz-adv-x="675" 
d="M45 200v330h230v-290c0 -20.667 5 -36.667 15 -48s23.333 -17 40 -17c20.667 0 37.5 7.16699 50.5 21.5s19.5 33.833 19.5 58.5v275h230v-530h-230v75h-10c-9.33301 -16.667 -22 -31.667 -38 -45c-35.333 -30 -74.333 -45 -117 -45c-59.333 0 -105.833 18.5 -139.5 55.5
s-50.5 90.167 -50.5 159.5zM371 625l70 155h180v-5l-140 -150h-110zM166 625l70 155h170v-5l-125 -150h-115z" />
    <glyph glyph-name="Uogonek" unicode="&#x172;" horiz-adv-x="800" 
d="M55 290l-0.00195312 410h250v-400c0 -32 8.33301 -56.667 25 -74s40 -26 70 -26s53.333 8.66699 70 26s25 42 25 74v400h250v-410c0 -72 -17.667 -132.667 -53 -182s-86 -85.333 -152 -108c-19.333 -14.667 -37.666 -30.667 -54.999 -48
c-36.667 -36.667 -55 -67.334 -55 -92.001c0 -20 11.667 -30 35 -30c14 0 27 1.66699 39 5c4 0.666992 9.33301 2.33398 16 5.00098v-90c-4.66699 -2.66699 -13 -6 -25 -10c-21.333 -6.66699 -44.666 -10 -69.999 -10c-41.333 0 -72.5 8.83301 -93.5 26.5
s-31.5 42.167 -31.5 73.5c0 38 20 74.333 60 109c18 16 38 29.667 60 41h-20c-108 0 -192.5 28.167 -253.5 84.5s-91.5 131.5 -91.5 225.5z" />
    <glyph glyph-name="uogonek" unicode="&#x173;" horiz-adv-x="675" 
d="M45 200l-0.00195312 330.003h230v-290c0 -20.667 5 -36.667 15 -48s23.333 -17 40 -17c20.667 0 37.5 7.16699 50.5 21.5s19.5 33.833 19.5 58.5v275h230v-530c-19.333 -14.667 -37.666 -30.667 -54.999 -48c-36.667 -36.667 -55 -67.334 -55 -92.001
c0 -20 11.667 -30 35 -30c14 0 27 1.66699 39 5c4 0.666992 9.33301 2.33398 16 5.00098v-90c-4.66699 -2.66699 -13 -6 -25 -10c-21.333 -6.66699 -44.666 -10 -69.999 -10c-41.333 0 -72.5 8.83301 -93.5 26.5s-31.5 42.167 -31.5 73.5c0 22 7.5 44.167 22.5 66.5
s32.5 40.666 52.5 54.999s37.167 25.666 51.5 33.999s23.5 13.166 27.5 14.499h-144v75h-10c-9.33301 -16.667 -22 -31.667 -38 -45c-35.333 -30 -74.333 -45 -117 -45c-59.333 0 -105.833 18.5 -139.5 55.5s-50.5 90.167 -50.5 159.5z" />
    <glyph glyph-name="Ydieresis" unicode="&#x178;" horiz-adv-x="720" 
d="M-15 700h250l120 -240h10l120 240h250l-250 -450v-250h-250v250zM380 855c0 28 8.83301 50.833 26.5 68.5s40.5 26.5 68.5 26.5s50.833 -8.83301 68.5 -26.5s26.5 -40.5 26.5 -68.5s-8.83301 -50.833 -26.5 -68.5s-40.5 -26.5 -68.5 -26.5s-50.833 8.83301 -68.5 26.5
s-26.5 40.5 -26.5 68.5zM150 855c0 28 8.83301 50.833 26.5 68.5s40.5 26.5 68.5 26.5s50.833 -8.83301 68.5 -26.5s26.5 -40.5 26.5 -68.5s-8.83301 -50.833 -26.5 -68.5s-40.5 -26.5 -68.5 -26.5s-50.833 8.83301 -68.5 26.5s-26.5 40.5 -26.5 68.5z" />
    <glyph glyph-name="Zacute" unicode="&#x179;" horiz-adv-x="705" 
d="M35 0v200l310 290v10h-300v200h615v-200l-310 -290v-10h320v-200h-635zM275 785l70 155h210v-5l-145 -150h-135z" />
    <glyph glyph-name="zacute" unicode="&#x17a;" horiz-adv-x="580" 
d="M30 0v180l220 160v10h-210v180h500v-180l-220 -160v-10h230v-180h-520zM220 625l70 155h210v-5l-145 -150h-135z" />
    <glyph glyph-name="Zdotaccent" unicode="&#x17b;" horiz-adv-x="705" 
d="M35 0v200l310 290v10h-300v200h615v-200l-310 -290v-10h320v-200h-635zM235 855c0 30.667 10.667 55.834 32 75.501s50.666 29.5 87.999 29.5s66.666 -9.83301 87.999 -29.5s32 -44.834 32 -75.501s-10.667 -55.834 -32 -75.501s-50.666 -29.5 -87.999 -29.5
s-66.666 9.83301 -87.999 29.5s-32 44.834 -32 75.501z" />
    <glyph glyph-name="zdotaccent" unicode="&#x17c;" horiz-adv-x="580" 
d="M30 0v180l220 160v10h-210v180h500v-180l-220 -160v-10h230v-180h-520zM180 695c0 30.667 10.667 55.834 32 75.501s50.666 29.5 87.999 29.5s66.666 -9.83301 87.999 -29.5s32 -44.834 32 -75.501s-10.667 -55.834 -32 -75.501s-50.666 -29.5 -87.999 -29.5
s-66.666 9.83301 -87.999 29.5s-32 44.834 -32 75.501z" />
    <glyph glyph-name="Zcaron" unicode="&#x17d;" horiz-adv-x="705" 
d="M35 0v200l310 290v10h-300v200h615v-200l-310 -290v-10h320v-200h-635zM165 934v6h135l40 -60h20l40 60h135v-6l-110 -149h-150z" />
    <glyph glyph-name="zcaron" unicode="&#x17e;" horiz-adv-x="580" 
d="M30 0v180l220 160v10h-210v180h500v-180l-220 -160v-10h230v-180h-520zM105 774v6h135l40 -60h20l40 60h135v-6l-110 -149h-150z" />
    <glyph glyph-name="florin" unicode="&#x192;" horiz-adv-x="550" 
d="M-20 -190v155h120l53 380h-58v155h80l28 200h347v-155h-139l-6 -45h100v-155h-122l-75 -535h-328z" />
    <glyph glyph-name="uni01FA" unicode="&#x1fa;" horiz-adv-x="760" 
d="M255 865c0 24 7 45.999 21 65.999s32.333 34.667 55 44l29 60h165v-5l-68 -71c32 -25.333 48 -56.666 48 -93.999c0 -32.667 -12.167 -60.834 -36.5 -84.501s-53.833 -35.5 -88.5 -35.5s-64.167 11.833 -88.5 35.5s-36.5 51.834 -36.5 84.501zM340 864.999
c0 -11.333 3.83301 -20.833 11.5 -28.5s17.167 -11.5 28.5 -11.5s20.833 3.83301 28.5 11.5s11.5 17.167 11.5 28.5s-3.83301 20.833 -11.5 28.5s-17.167 11.5 -28.5 11.5s-20.833 -3.83301 -28.5 -11.5s-11.5 -17.167 -11.5 -28.5zM-10 -0.000976562l195 700h395l190 -700
h-250l-35 130h-215l-35 -130h-245zM310 304.999h135l-45 185h-40z" />
    <glyph glyph-name="uni01FB" unicode="&#x1fb;" horiz-adv-x="690" 
d="M225 700c0 24 7 45.999 21 65.999s32.333 34.667 55 44l29 60h165v-5l-68 -71c32 -25.333 48 -56.666 48 -93.999c0 -32.667 -12.167 -60.834 -36.5 -84.501s-53.833 -35.5 -88.5 -35.5s-64.167 11.833 -88.5 35.5s-36.5 51.834 -36.5 84.501zM310 699.999
c0 -11.333 3.83301 -20.833 11.5 -28.5s17.167 -11.5 28.5 -11.5s20.833 3.83301 28.5 11.5s11.5 17.167 11.5 28.5s-3.83301 20.833 -11.5 28.5s-17.167 11.5 -28.5 11.5s-20.833 -3.83301 -28.5 -11.5s-11.5 -17.167 -11.5 -28.5zM30 264.999c0 86.667 21 155 63 205
s94.333 75 157 75c45.333 0 85 -14.333 119 -43c15.333 -12 27.333 -26 36 -42h10v70h230v-530h-230v70h-10c-8.66699 -16.667 -20.667 -31 -36 -43c-33.333 -28 -73 -42 -119 -42c-62.667 0 -115 25 -157 75s-63 118.333 -63 205zM265 264.999
c0 -29.333 7.33301 -52.5 22 -69.5s32.667 -25.5 54 -25.5c20.667 0 38.167 8.66699 52.5 26s21.5 40.333 21.5 69s-7.16699 51.667 -21.5 69s-31.833 26 -52.5 26c-21.333 0 -39.333 -8.5 -54 -25.5s-22 -40.167 -22 -69.5z" />
    <glyph glyph-name="uni01FC" unicode="&#x1fc;" horiz-adv-x="1045" 
d="M-10 0l195 700h815v-200h-310v-65h240v-170h-240v-65h310v-200h-560v130h-170l-35 -130h-245zM310 305h130v195h-75zM500 785l70 155h210v-5l-145 -150h-135z" />
    <glyph glyph-name="uni01FD" unicode="&#x1fd;" horiz-adv-x="1020" 
d="M25 150c0 46.667 17.666 85 52.999 115s84.333 45 147 45h165v25c0 15.333 -4.83301 27.5 -14.5 36.5s-23.167 13.5 -40.5 13.5c-19.333 0 -35 -6 -47 -18c-6 -6 -10.333 -11.667 -13 -17h-230c8.66699 34.667 24.334 67 47.001 97c50.667 65.333 125 98 223 98
c56 0 104.667 -13.333 146 -40c19.333 -12.667 34 -26 44 -40h10c11.333 14 26.333 27.333 45 40c41.333 26.667 91.333 40 150 40c82 0 150 -27 204 -81s81 -122 81 -204v-15h-375c0 -34 6.33301 -59.167 19 -75.5s29.667 -24.5 51 -24.5c19.333 0 36.333 7.33301 51 22
c6.66699 8 11.334 15.667 14.001 23h235c-11.333 -38 -30 -72.333 -56 -103c-57.333 -68 -135.333 -102 -234 -102c-69.333 0 -127 17.333 -173 52c-22 15.333 -39.333 33 -52 53h-10c-14 -21.333 -30.667 -39 -50 -53c-44.667 -34.667 -101.334 -52 -170.001 -52
c-70 0 -124.167 15.5 -162.5 46.5s-57.5 70.5 -57.5 118.5zM624.999 310h130c-0.666992 12 -4 24.333 -10 37c-12 25.333 -30.333 38 -55 38s-43 -12.667 -55 -38c-6 -12.667 -9.33301 -25 -10 -37zM254.999 194c0 -14.667 4.5 -26.5 13.5 -35.5s21.167 -13.5 36.5 -13.5
c56.667 0 85 33.333 85 100h-80c-17.333 0 -30.833 -4.5 -40.5 -13.5s-14.5 -21.5 -14.5 -37.5zM439.999 625l70 155h210v-5l-145 -150h-135z" />
    <glyph glyph-name="uni01FE" unicode="&#x1fe;" horiz-adv-x="860" 
d="M20 -10v109.999l70 50c-10.667 17.333 -20.667 36.333 -30 57c-20 48 -30 95.667 -30 143c0 105.333 36.667 193.333 110 264s170 106 290 106c76 0 146 -17.667 210 -53c27.333 -14 52.333 -31.333 75 -52l125 95v-110l-70 -50c10.667 -17.333 20.667 -36.333 30 -57
c20 -48 30 -95.667 30 -143c0 -105.333 -36.667 -193.333 -110 -264s-170 -106 -290 -106c-77.333 0 -147.333 17.333 -210 52c-28 14.667 -53 32.334 -75 53.001zM290 349.999c0 -10 0.666992 -21 2 -33l3 -15l230 170c-4.66699 4.66699 -13 11 -25 19
c-22.667 12.667 -46 19 -70 19c-40.667 0 -74.167 -14.333 -100.5 -43s-39.5 -67.667 -39.5 -117zM565 397.999l-229.999 -170c7.33301 -8 15.666 -14.333 24.999 -19c18.667 -12.667 42 -19 70 -19c40.667 0 74.167 14.333 100.5 43s39.5 67.667 39.5 117c0 4 -1 15 -3 33z
M360.001 784.999l70 155h210v-5l-145 -150h-135z" />
    <glyph glyph-name="uni01FF" unicode="&#x1ff;" 
d="M25 -10l0.00292969 110l38 26c-8 12.667 -14.333 25.334 -19 38.001c-12.667 27.333 -19 61 -19 101c0 79.333 29.167 145.833 87.5 199.5s134.166 80.5 227.499 80.5c59.333 0 113 -12.333 161 -37c22 -10.667 41 -22.667 57 -36l97 68v-110l-38 -26
c5.33301 -8.66699 11.666 -21.334 18.999 -38.001c12.667 -34 19 -67.667 19 -101c0 -79.333 -29.333 -145.833 -88 -199.5s-134.334 -80.5 -227.001 -80.5c-61.333 0 -115.333 12 -162 36c-23.333 12 -42 24.333 -56 37zM260.003 250l140 100.001
c-2.66699 5.33301 -7 11 -13 17c-12 12 -27.667 18 -47 18c-24 0 -43.333 -9.83301 -58 -29.5s-22 -49.834 -22 -90.501v-15zM420.003 280.001l-140 -100.001c2.66699 -6 7 -12 13 -18c11.333 -11.333 27 -17 47 -17c24 0 43.333 9.83301 58 29.5s22 49.834 22 90.501v15z
M275.003 625l70 155h210v-5l-145 -150h-135z" />
    <glyph glyph-name="Scommaaccent" unicode="&#x218;" horiz-adv-x="730" 
d="M20 235l250.003 0.00195312c4 -15.333 10.333 -28 19 -38c19.333 -24.667 48 -37 86 -37c50 0 75 13.333 75 40c0 8 -3 15.167 -9 21.5s-16 12.166 -30 17.499s-27 9.83301 -39 13.5s-29.333 8.16699 -52 13.5c-25.333 6 -46.333 11.5 -63 16.5s-37.334 12 -62.001 21
s-45 19 -61 30s-31.833 24.333 -47.5 40s-27.334 34.167 -35.001 55.5s-11.5 45 -11.5 71c0 58.667 28.5 110 85.5 154s135.167 66 234.5 66c121.333 0 212.666 -39.333 273.999 -118c26 -34 44.667 -73 56 -117h-250c-2 10.667 -6.33301 19.667 -13 27
c-14 18.667 -34.667 28 -62 28c-43.333 0 -65 -11.667 -65 -35c0 -10.667 8.33301 -19.167 25 -25.5s44 -13.5 82 -21.5l48 -11.5l49 -12.5c23.333 -6 40.833 -11.833 52.5 -17.5l46 -22.5c19 -9.33301 33.667 -19.333 44 -30s21 -23 32 -37s19 -30 24 -48
s7.5 -37.667 7.5 -59c0 -66.667 -29.667 -123.334 -89 -170.001s-141.333 -70 -246 -70c-134 0 -232.667 42.333 -296 127c-28 35.333 -47.667 78 -59 128zM280.003 -159.998c0 26 8.83398 47.5 26.501 64.5s40.5 25.5 68.5 25.5c29.333 0 53.333 -11.5 72 -34.5
s28 -56.5 28 -100.5c0 -47.333 -15.5 -85.833 -46.5 -115.5s-70.5 -44.5 -118.5 -44.5v65c22 0 40 6 54 18s21 26 21 42v10c-4.66699 -3.33301 -7.33398 -5 -8.00098 -5c-5.33301 -3.33301 -12.666 -5 -21.999 -5c-22.667 0 -40.834 7 -54.501 21s-20.5 33.667 -20.5 59z
" />
    <glyph glyph-name="scommaaccent" unicode="&#x219;" horiz-adv-x="600" 
d="M20 175l215 -0.00195312c0.666992 -6.66699 4 -13.334 10 -20.001c10.667 -13.333 29 -20 55 -20c30 0 45 6.66699 45 20c0 8 -5.33301 14.333 -16 19s-29 10 -55 16c-3.33301 0.666992 -6 1.33398 -8 2.00098l-42 10c-8 2 -22 6 -42 12s-34.667 11.667 -44 17
s-21.5 12.833 -36.5 22.5s-26.167 19.834 -33.5 30.501s-13.833 23.834 -19.5 39.501s-8.5 32.834 -8.5 51.501c0 48.667 21.667 89.167 65 121.5s106.666 48.5 189.999 48.5c102.667 0 179.667 -31 231 -93c22.667 -28 37.334 -58.667 44.001 -92h-215
c-2 5.33301 -4.66699 11 -8 17c-9.33301 12 -21.666 18 -36.999 18c-23.333 0 -35 -6.66699 -35 -20c0 -7.33301 6.16699 -13.333 18.5 -18s32.5 -9.66699 60.5 -15c18 -4 28.833 -6.5 32.5 -7.5l32 -8.5c17.667 -4.66699 29.5 -8.33398 35.5 -11.001l31 -13.5
c14.667 -6.33301 25 -12.166 31 -17.499l24.5 -21.5c10.333 -9 17.666 -18.333 21.999 -28s8.33301 -20.834 12 -33.501s5.5 -26.334 5.5 -41.001c0 -49.333 -23.5 -90.833 -70.5 -124.5s-115.167 -50.5 -204.5 -50.5c-112.667 0 -193.334 31.667 -242.001 95
c-21.333 26.667 -35.666 58.334 -42.999 95.001zM220 -160.002c0 26 8.83398 47.5 26.501 64.5s40.5 25.5 68.5 25.5c29.333 0 53.333 -11.5 72 -34.5s28 -56.5 28 -100.5c0 -47.333 -15.5 -85.833 -46.5 -115.5s-70.5 -44.5 -118.5 -44.5v65c22 0 40 6 54 18s21 26 21 42
v10c-4.66699 -3.33301 -7.33398 -5 -8.00098 -5c-5.33301 -3.33301 -12.666 -5 -21.999 -5c-22.667 0 -40.834 7 -54.501 21s-20.5 33.667 -20.5 59z" />
    <glyph glyph-name="uni021A" unicode="&#x21a;" horiz-adv-x="690" 
d="M10 480v220h670v-220h-210v-480h-250v480h-210zM250 -160c0 26 8.83398 47.5 26.501 64.5s40.5 25.5 68.5 25.5c29.333 0 53.333 -11.5 72 -34.5s28 -56.5 28 -100.5c0 -47.333 -15.5 -85.833 -46.5 -115.5s-70.5 -44.5 -118.5 -44.5v65c22 0 40 6 54 18s21 26 21 42v10
c-4.66699 -3.33301 -7.33398 -5 -8.00098 -5c-5.33301 -3.33301 -12.666 -5 -21.999 -5c-22.667 0 -40.834 7 -54.501 21s-20.5 33.667 -20.5 59z" />
    <glyph glyph-name="uni021B" unicode="&#x21b;" horiz-adv-x="470" 
d="M10 375v155h70v110h230v-110h120v-155h-120v-220h130v-155h-360v375h-70zM160 -160c0 26 8.83398 47.5 26.501 64.5s40.5 25.5 68.5 25.5c29.333 0 53.333 -11.5 72 -34.5s28 -56.5 28 -100.5c0 -47.333 -15.5 -85.833 -46.5 -115.5s-70.5 -44.5 -118.5 -44.5v65
c22 0 40 6 54 18s21 26 21 42v10c-4.66699 -3.33301 -7.33398 -5 -8.00098 -5c-5.33301 -3.33301 -12.666 -5 -21.999 -5c-22.667 0 -40.834 7 -54.501 21s-20.5 33.667 -20.5 59z" />
    <glyph glyph-name="afii57929" unicode="&#x2bc;" horiz-adv-x="255" 
d="M30 630c0 26 8.83398 47.5 26.501 64.5s40.5 25.5 68.5 25.5c29.333 0 53.333 -11.5 72 -34.5s28 -56.5 28 -100.5c0 -47.333 -15.5 -85.833 -46.5 -115.5s-70.5 -44.5 -118.5 -44.5v65c22 0 40 6 54 18s21 26 21 42v10c-4.66699 -3.33301 -7.33398 -5 -8.00098 -5
c-5.33301 -3.33301 -12.666 -5 -21.999 -5c-22.667 0 -40.834 7 -54.501 21s-20.5 33.667 -20.5 59z" />
    <glyph glyph-name="circumflex" unicode="&#x2c6;" horiz-adv-x="430" 
d="M30 545v6l110 149h150l110 -149v-6h-135l-40 60h-20l-40 -60h-135z" />
    <glyph glyph-name="caron" unicode="&#x2c7;" horiz-adv-x="430" 
d="M30 694v6h135l40 -60h20l40 60h135v-6l-110 -149h-150z" />
    <glyph glyph-name="breve" unicode="&#x2d8;" horiz-adv-x="390" 
d="M30 700h115c0 -12 4.5 -21.667 13.5 -29s21.167 -11 36.5 -11s27.5 3.66699 36.5 11s13.5 17 13.5 29h115c0 -46 -14.5 -82.5 -43.5 -109.5s-69.5 -40.5 -121.5 -40.5s-92.5 13.5 -121.5 40.5s-43.5 63.5 -43.5 109.5z" />
    <glyph glyph-name="dotaccent" unicode="&#x2d9;" horiz-adv-x="300" 
d="M30 625c0 30.667 10.667 55.834 32 75.501s50.666 29.5 87.999 29.5s66.666 -9.83301 87.999 -29.5s32 -44.834 32 -75.501s-10.667 -55.834 -32 -75.501s-50.666 -29.5 -87.999 -29.5s-66.666 9.83301 -87.999 29.5s-32 44.834 -32 75.501z" />
    <glyph glyph-name="ring" unicode="&#x2da;" horiz-adv-x="310" 
d="M30 590c0 32.667 12.167 60.834 36.5 84.501s53.833 35.5 88.5 35.5s64.167 -11.833 88.5 -35.5s36.5 -51.834 36.5 -84.501s-12.167 -60.834 -36.5 -84.501s-53.833 -35.5 -88.5 -35.5s-64.167 11.833 -88.5 35.5s-36.5 51.834 -36.5 84.501zM115 590
c0 -11.333 3.83301 -20.833 11.5 -28.5s17.167 -11.5 28.5 -11.5s20.833 3.83301 28.5 11.5s11.5 17.167 11.5 28.5s-3.83301 20.833 -11.5 28.5s-17.167 11.5 -28.5 11.5s-20.833 -3.83301 -28.5 -11.5s-11.5 -17.167 -11.5 -28.5z" />
    <glyph glyph-name="ogonek" unicode="&#x2db;" horiz-adv-x="300" 
d="M30 -170c0 40.667 25.665 81.333 76.998 122c23.333 17.333 49.333 33.333 78 48h85c-19.333 -14.667 -37.666 -30.667 -54.999 -48c-36.667 -36.667 -55 -67.334 -55 -92.001c0 -20 11.667 -30 35 -30c14 0 27 1.66699 39 5c4 0.666992 9.33301 2.33398 16 5.00098v-90
c-4.66699 -2.66699 -13 -6 -25 -10c-21.333 -6.66699 -44.666 -10 -69.999 -10c-41.333 0 -72.5 8.83301 -93.5 26.5s-31.5 42.167 -31.5 73.5z" />
    <glyph glyph-name="tilde" unicode="&#x2dc;" horiz-adv-x="420" 
d="M30 550v70c0 30 8 53.333 24 70s38 25 66 25c16 0 41 -5.66699 75 -17c32 -12 52 -18 60 -18c13.333 0 20 6.66699 20 20v10h115v-70c0 -30 -8 -53.333 -24 -70s-38 -25 -66 -25c-18 0 -43 6 -75 18c-34 11.333 -54 17 -60 17c-13.333 0 -20 -6.66699 -20 -20v-10h-115z
" />
    <glyph glyph-name="hungarumlaut" unicode="&#x2dd;" horiz-adv-x="515" 
d="M235 545l70 155h180v-5l-140 -150h-110zM30 545l70 155h170v-5l-125 -150h-115z" />
    <glyph glyph-name="uni0301" unicode="&#x301;" horiz-adv-x="0" 
d="M-440 825l60 125h165v-5l-115 -120h-110z" />
    <glyph glyph-name="uni030A" unicode="&#x30a;" horiz-adv-x="0" 
d="M-460 760c0 32.667 12.167 60.834 36.5 84.501s53.833 35.5 88.5 35.5s64.167 -11.833 88.5 -35.5s36.5 -51.834 36.5 -84.501s-12.167 -60.834 -36.5 -84.501s-53.833 -35.5 -88.5 -35.5s-64.167 11.833 -88.5 35.5s-36.5 51.834 -36.5 84.501zM-375 760
c0 -11.333 3.83301 -20.833 11.5 -28.5s17.167 -11.5 28.5 -11.5s20.833 3.83301 28.5 11.5s11.5 17.167 11.5 28.5s-3.83301 20.833 -11.5 28.5s-17.167 11.5 -28.5 11.5s-20.833 -3.83301 -28.5 -11.5s-11.5 -17.167 -11.5 -28.5z" />
    <glyph glyph-name="afii10023" unicode="&#x401;" 
d="M60 0v700h575v-200h-325v-65h255v-170h-255v-65h325v-200h-575zM370 835c0 28 8.83301 50.833 26.5 68.5s40.5 26.5 68.5 26.5s50.833 -8.83301 68.5 -26.5s26.5 -40.5 26.5 -68.5s-8.83301 -50.833 -26.5 -68.5s-40.5 -26.5 -68.5 -26.5s-50.833 8.83301 -68.5 26.5
s-26.5 40.5 -26.5 68.5zM140 835c0 28 8.83301 50.833 26.5 68.5s40.5 26.5 68.5 26.5s50.833 -8.83301 68.5 -26.5s26.5 -40.5 26.5 -68.5s-8.83301 -50.833 -26.5 -68.5s-40.5 -26.5 -68.5 -26.5s-50.833 8.83301 -68.5 26.5s-26.5 40.5 -26.5 68.5z" />
    <glyph glyph-name="afii10051" unicode="&#x402;" horiz-adv-x="900" 
d="M10 500v200h650v-200h-200v-60h120c193.333 0 290 -88.333 290 -265v-285h-350v200h100v80c0 46.667 -23.333 70 -70 70h-90v-240h-250v500h-200z" />
    <glyph glyph-name="afii10052" unicode="&#x403;" horiz-adv-x="635" 
d="M60 0v700h565v-220h-315v-480h-250zM265 770l70 155h210v-5l-145 -150h-135z" />
    <glyph glyph-name="afii10053" unicode="&#x404;" horiz-adv-x="845" 
d="M30 350c0 104.667 37.1689 192.503 111.502 263.503s170.5 106.5 288.5 106.5c131.333 0 234.666 -48.333 309.999 -145c31.333 -42.667 54.666 -91 69.999 -145h-250c-6.66699 15.333 -16 28.666 -28 39.999c-28 26.667 -63.667 40 -107 40c-46 0 -82.333 -16 -109 -48
c-12.667 -14.667 -21.334 -30.334 -26.001 -47.001h195v-130h-195c4.66699 -17.333 13.334 -33.333 26.001 -48c26 -31.333 62.333 -47 109 -47c47.333 0 85 16.667 113 50c12.667 15.333 21.667 32 27 50h250c-15.333 -58.667 -39 -110.334 -71 -155.001
c-75.333 -103.333 -180 -155 -314 -155c-118 0 -214.167 35.5 -288.5 106.5s-111.5 158.833 -111.5 263.5z" />
    <glyph glyph-name="afii10054" unicode="&#x405;" horiz-adv-x="730" 
d="M20 235l250.003 0.00195312c4 -15.333 10.333 -28 19 -38c19.333 -24.667 48 -37 86 -37c50 0 75 13.333 75 40c0 8 -3 15.167 -9 21.5s-16 12.166 -30 17.499s-27 9.83301 -39 13.5s-29.333 8.16699 -52 13.5c-25.333 6 -46.333 11.5 -63 16.5s-37.334 12 -62.001 21
s-45 19 -61 30s-31.833 24.333 -47.5 40s-27.334 34.167 -35.001 55.5s-11.5 45 -11.5 71c0 58.667 28.5 110 85.5 154s135.167 66 234.5 66c121.333 0 212.666 -39.333 273.999 -118c26 -34 44.667 -73 56 -117h-250c-2 10.667 -6.33301 19.667 -13 27
c-14 18.667 -34.667 28 -62 28c-43.333 0 -65 -11.667 -65 -35c0 -10.667 8.33301 -19.167 25 -25.5s44 -13.5 82 -21.5l48 -11.5l49 -12.5c23.333 -6 40.833 -11.833 52.5 -17.5l46 -22.5c19 -9.33301 33.667 -19.333 44 -30s21 -23 32 -37s19 -30 24 -48
s7.5 -37.667 7.5 -59c0 -66.667 -29.667 -123.334 -89 -170.001s-141.333 -70 -246 -70c-134 0 -232.667 42.333 -296 127c-28 35.333 -47.667 78 -59 128z" />
    <glyph glyph-name="afii10055" unicode="&#x406;" horiz-adv-x="370" 
d="M60 0v700h250v-700h-250z" />
    <glyph glyph-name="afii10056" unicode="&#x407;" horiz-adv-x="370" 
d="M60 0v700h250v-700h-250zM205 835c0 28 8.83301 50.833 26.5 68.5s40.5 26.5 68.5 26.5s50.833 -8.83301 68.5 -26.5s26.5 -40.5 26.5 -68.5s-8.83301 -50.833 -26.5 -68.5s-40.5 -26.5 -68.5 -26.5s-50.833 8.83301 -68.5 26.5s-26.5 40.5 -26.5 68.5zM-25 835
c0 28 8.83301 50.833 26.5 68.5s40.5 26.5 68.5 26.5s50.833 -8.83301 68.5 -26.5s26.5 -40.5 26.5 -68.5s-8.83301 -50.833 -26.5 -68.5s-40.5 -26.5 -68.5 -26.5s-50.833 8.83301 -68.5 26.5s-26.5 40.5 -26.5 68.5z" />
    <glyph glyph-name="afii10057" unicode="&#x408;" horiz-adv-x="665" 
d="M-5 190l220.001 45.001c4 -8.66699 9.33301 -16.334 16 -23.001c14.667 -14.667 32.667 -22 54 -22c50 0 75 25 75 75v435h250v-430c0 -89.333 -28 -160 -84 -212s-134.667 -78 -236 -78c-102.667 0 -182.334 35 -239.001 105c-25.333 32 -44 67 -56 105z" />
    <glyph glyph-name="afii10058" unicode="&#x409;" horiz-adv-x="1095" 
d="M-10 0l190 700h485v-210h110c94.667 0 168.334 -22.667 221.001 -68s79 -104.333 79 -177s-26.333 -131.667 -79 -177s-126.334 -68 -221.001 -68h-360v480h-60l-115 -480h-250zM665 195h100c17.333 0 30.833 4.5 40.5 13.5s14.5 21.167 14.5 36.5
s-4.83301 27.5 -14.5 36.5s-23.167 13.5 -40.5 13.5h-100v-100z" />
    <glyph glyph-name="afii10059" unicode="&#x40a;" horiz-adv-x="1180" 
d="M60 0v700h250v-210h190v210h250v-210h110c94.667 0 168.334 -22.667 221.001 -68s79 -104.333 79 -177s-26.333 -131.667 -79 -177s-126.334 -68 -221.001 -68h-360v270h-190v-270h-250zM750 195h100c17.333 0 30.833 4.5 40.5 13.5s14.5 21.167 14.5 36.5
s-4.83301 27.5 -14.5 36.5s-23.167 13.5 -40.5 13.5h-100v-100z" />
    <glyph glyph-name="afii10060" unicode="&#x40b;" horiz-adv-x="900" 
d="M10 500v200h650v-200h-200v-60h120c193.333 0 290 -88.333 290 -265v-175h-250v170c0 46.667 -23.333 70 -70 70h-90v-240h-250v500h-200z" />
    <glyph glyph-name="afii10061" unicode="&#x40c;" horiz-adv-x="790" 
d="M60 0v700h250v-230h50l130 230h280l-200 -325l220 -375h-280l-140 245h-60v-245h-250zM310 770l70 155h210v-5l-145 -150h-135z" />
    <glyph glyph-name="afii10062" unicode="&#x40e;" horiz-adv-x="745" 
d="M-10 700h260l110 -285h40l100 285h255l-260 -700h-255l75 205h-130zM187 930h140c0 -12 4.5 -21.667 13.5 -29s21.167 -11 36.5 -11s27.5 3.66699 36.5 11s13.5 17 13.5 29h140c0 -50.667 -16.833 -91.667 -50.5 -123s-80.167 -47 -139.5 -47s-105.833 15.667 -139.5 47
s-50.5 72.333 -50.5 123z" />
    <glyph glyph-name="afii10145" unicode="&#x40f;" horiz-adv-x="820" 
d="M60 0v700h250v-480h200v480h250v-700h-235v-120h-230v120h-235z" />
    <glyph glyph-name="afii10017" unicode="&#x410;" horiz-adv-x="760" 
d="M-10 0l195 700h395l190 -700h-250l-35 130h-215l-35 -130h-245zM310 305h135l-45 185h-40z" />
    <glyph glyph-name="afii10018" unicode="&#x411;" horiz-adv-x="770" 
d="M60 0v699.999h620v-180h-370v-60h155c87.333 0 155 -20.667 203 -62s72 -95.666 72 -162.999c0 -72 -23.833 -129.167 -71.5 -171.5s-115.5 -63.5 -203.5 -63.5h-405zM310 179.999h120c17.333 0 30.833 4.5 40.5 13.5s14.5 21.167 14.5 36.5s-4.83301 27.5 -14.5 36.5
s-23.167 13.5 -40.5 13.5h-120v-100z" />
    <glyph glyph-name="afii10019" unicode="&#x412;" horiz-adv-x="765" 
d="M60 0v699.999h410c76.667 0 135 -15.667 175 -47s60 -72.333 60 -123c0 -45.333 -19.333 -83.333 -58 -114c-18.667 -14 -37.667 -24.333 -57 -31v-10c26 -7.33301 49.333 -17.666 70 -30.999c46.667 -32 70 -78.333 70 -139s-23.667 -110 -71 -148
s-115.333 -57 -204 -57h-395zM310 434.999h80c20 0 34.167 3.5 42.5 10.5s12.5 18.5 12.5 34.5s-4.16699 27.5 -12.5 34.5s-22.5 10.5 -42.5 10.5h-80v-90zM310 174.999h100c43.333 0 65 18.333 65 55s-21.667 55 -65 55h-100v-110z" />
    <glyph glyph-name="afii10020" unicode="&#x413;" horiz-adv-x="635" 
d="M60 0v700h565v-220h-315v-480h-250z" />
    <glyph glyph-name="afii10021" unicode="&#x414;" horiz-adv-x="820" 
d="M5 -120v320h75l130 500h405l125 -500h75v-320h-230v120h-350v-120h-230zM310 200h195l-70 300h-50z" />
    <glyph glyph-name="afii10022" unicode="&#x415;" 
d="M60 0v700h575v-200h-325v-65h255v-170h-255v-65h325v-200h-575z" />
    <glyph glyph-name="afii10024" unicode="&#x416;" horiz-adv-x="1160" 
d="M0 0l210 375l-190 325h280l120 -240h35v240h250v-240h35l120 240h280l-190 -325l210 -375h-280l-130 250h-45v-250h-250v250h-45l-130 -250h-280z" />
    <glyph glyph-name="afii10025" unicode="&#x417;" horiz-adv-x="750" 
d="M20 245l249.999 0.00195312c6 -14.667 12.667 -26.334 20 -35.001c18.667 -23.333 45.334 -35 80.001 -35c60 0 90 18.333 90 55s-30 55 -90 55h-95v150h95c21.333 0 37.5 4.16699 48.5 12.5s16.5 19.166 16.5 32.499s-5.5 24.166 -16.5 32.499s-27.167 12.5 -48.5 12.5
c-26 0 -47.333 -8.33301 -64 -25c-8 -8 -13.333 -16.333 -16 -25h-250c11.333 46.667 31 87.334 59 122.001c64.667 82 161.667 123 291 123c101.333 0 178.333 -18.667 231 -56s79 -82 79 -134c0 -47.333 -20 -86 -60 -116c-15.333 -12 -35.333 -21.667 -60 -29v-10
c26 -7.33301 49.333 -17.666 70 -30.999c46.667 -32 70 -78.333 70 -139c0 -62 -29.667 -115 -89 -159s-143 -66 -251 -66c-141.333 0 -243.333 44 -306 132c-28 39.333 -46 83.666 -54 132.999z" />
    <glyph glyph-name="afii10026" unicode="&#x418;" horiz-adv-x="835" 
d="M330 0h-270v700h250v-230l-15 -100h10l200 330h270v-700h-250v230l15 100h-10z" />
    <glyph glyph-name="afii10027" unicode="&#x419;" horiz-adv-x="835" 
d="M330 0h-270v700h250v-230l-15 -100h10l200 330h270v-700h-250v230l15 100h-10zM230 930h140c0 -12 4.5 -21.667 13.5 -29s21.167 -11 36.5 -11s27.5 3.66699 36.5 11s13.5 17 13.5 29h140c0 -50.667 -16.833 -91.667 -50.5 -123s-80.167 -47 -139.5 -47
s-105.833 15.667 -139.5 47s-50.5 72.333 -50.5 123z" />
    <glyph glyph-name="afii10028" unicode="&#x41a;" horiz-adv-x="790" 
d="M60 0v700h250v-230h50l130 230h280l-200 -325l220 -375h-280l-140 245h-60v-245h-250z" />
    <glyph glyph-name="afii10029" unicode="&#x41b;" horiz-adv-x="750" 
d="M-10 0l190 700h395l185 -700h-250l-115 480h-45l-115 -480h-245z" />
    <glyph glyph-name="afii10030" unicode="&#x41c;" horiz-adv-x="1000" 
d="M60 0v700h335l95 -325h25l95 325h330v-700h-250v319l15 91h-10l-80 -250h-230l-80 250h-10l15 -91v-319h-250z" />
    <glyph glyph-name="afii10031" unicode="&#x41d;" horiz-adv-x="820" 
d="M60 0v700h250v-240h200v240h250v-700h-250v240h-200v-240h-250z" />
    <glyph glyph-name="afii10032" unicode="&#x41e;" horiz-adv-x="860" 
d="M30 350c0 105.333 36.667 193.333 110 264s170 106 290 106s216.667 -35.333 290 -106s110 -158.667 110 -264s-36.667 -193.333 -110 -264s-170 -106 -290 -106s-216.667 35.333 -290 106s-110 158.667 -110 264zM290 350c0 -49.333 13.167 -88.333 39.5 -117
s59.833 -43 100.5 -43s74.167 14.333 100.5 43s39.5 67.667 39.5 117s-13.167 88.333 -39.5 117s-59.833 43 -100.5 43s-74.167 -14.333 -100.5 -43s-39.5 -67.667 -39.5 -117z" />
    <glyph glyph-name="afii10033" unicode="&#x41f;" horiz-adv-x="820" 
d="M60 0v700h700v-700h-250v480h-200v-480h-250z" />
    <glyph glyph-name="afii10034" unicode="&#x420;" horiz-adv-x="765" 
d="M60 0v700.002h380c90.667 0 163.334 -25.333 218.001 -76s82 -115.334 82 -194.001s-27.333 -143.334 -82 -194.001s-127.334 -76 -218.001 -76h-130v-160h-250zM310 360.002h100c22 0 40 6.66699 54 20s21 30 21 50s-7 36.667 -21 50s-32 20 -54 20h-100v-140z" />
    <glyph glyph-name="afii10035" unicode="&#x421;" horiz-adv-x="845" 
d="M30 350c0 104.667 37.168 192.502 111.501 263.502s170.5 106.5 288.5 106.5c131.333 0 234.666 -48.333 309.999 -145c31.333 -42.667 54.666 -91 69.999 -145h-250c-6.66699 15.333 -16 28.666 -28 39.999c-26.667 26.667 -60.667 40 -102 40
c-40.667 0 -74.167 -14.333 -100.5 -43s-39.5 -67.667 -39.5 -117s13.167 -88.333 39.5 -117s59.833 -43 100.5 -43c46 0 82.333 16.667 109 50c12.667 16 21.334 32.667 26.001 50h250c-15.333 -58.667 -39 -110.334 -71 -155.001c-75.333 -103.333 -180 -155 -314 -155
c-118 0 -214.167 35.5 -288.5 106.5s-111.5 158.833 -111.5 263.5z" />
    <glyph glyph-name="afii10036" unicode="&#x422;" horiz-adv-x="690" 
d="M10 480v220h670v-220h-210v-480h-250v480h-210z" />
    <glyph glyph-name="afii10037" unicode="&#x423;" horiz-adv-x="745" 
d="M-10 700h260l110 -285h40l100 285h255l-260 -700h-255l75 205h-130z" />
    <glyph glyph-name="afii10038" unicode="&#x424;" horiz-adv-x="1010" 
d="M25 355c0 87.333 32.667 161.166 98 221.499s151 93.166 257 98.499v70h250v-70c106 -5.33301 191.667 -38.166 257 -98.499s98 -134.166 98 -221.499s-32.667 -161.166 -98 -221.499s-151 -93.166 -257 -98.499v-70h-250v70c-106 5.33301 -191.667 38.166 -257 98.499
s-98 134.166 -98 221.499zM625 495v-280c30.667 2.66699 55 16.167 73 40.5s27 57.5 27 99.5s-9 75.167 -27 99.5s-42.333 37.833 -73 40.5zM285 355c0 -42 9 -75.167 27 -99.5s42.333 -37.833 73 -40.5v280c-30.667 -2.66699 -55 -16.167 -73 -40.5s-27 -57.5 -27 -99.5z
" />
    <glyph glyph-name="afii10039" unicode="&#x425;" horiz-adv-x="760" 
d="M-5 0l170 350l-150 350h260l80 -240h50l75 240h255l-145 -350l175 -350h-275l-95 240h-40l-90 -240h-270z" />
    <glyph glyph-name="afii10040" unicode="&#x426;" horiz-adv-x="835" 
d="M60 0v700h250v-480h170v480h250v-480h80v-340h-230v120h-520z" />
    <glyph glyph-name="afii10041" unicode="&#x427;" horiz-adv-x="800" 
d="M50 460l0.000976562 240h250v-215c0 -56.667 28.333 -85 85 -85c29.333 0 55.666 6.66699 78.999 20c10 6 18.667 12.667 26 20v260h250v-700h-250v230c-12.667 -10.667 -25.667 -19 -39 -25c-34.667 -16.667 -75 -25 -121 -25c-85.333 0 -153.333 25.333 -204 76
s-76 118.667 -76 204z" />
    <glyph glyph-name="afii10042" unicode="&#x428;" horiz-adv-x="1090" 
d="M60 0v700h250v-480h110v480h250v-480h110v480h250v-700h-970z" />
    <glyph glyph-name="afii10043" unicode="&#x429;" horiz-adv-x="1135" 
d="M60 0v700h250v-480h110v480h250v-480h110v480h250v-480h80v-340h-230v120h-820z" />
    <glyph glyph-name="afii10044" unicode="&#x42a;" horiz-adv-x="815" 
d="M5 490v210.002h380v-190h105c95.333 0 170 -23.833 224 -71.5s81 -108.834 81 -183.501s-27 -135.834 -81 -183.501s-128.667 -71.5 -224 -71.5h-355v490h-130zM385 195.002l95 0.00195312c17.333 0 31.666 5.66699 42.999 17s17 25.666 17 42.999
s-5.66699 31.666 -17 42.999s-25.666 17 -42.999 17h-95v-120z" />
    <glyph glyph-name="afii10045" unicode="&#x42b;" horiz-adv-x="1050" 
d="M740 0v700h250v-700h-250zM60 0v700.002h250v-190h95c95.333 0 170 -23.833 224 -71.5s81 -108.834 81 -183.501s-27 -135.834 -81 -183.501s-128.667 -71.5 -224 -71.5h-345zM310 195.002l85 0.00195312c17.333 0 31.666 5.66699 42.999 17s17 25.666 17 42.999
s-5.66699 31.666 -17 42.999s-25.666 17 -42.999 17h-85v-120z" />
    <glyph glyph-name="afii10046" unicode="&#x42c;" horiz-adv-x="750" 
d="M60 0v700.002h250v-190h115c95.333 0 170 -23.833 224 -71.5s81 -108.834 81 -183.501s-27 -135.834 -81 -183.501s-128.667 -71.5 -224 -71.5h-365zM310 195.002l105 0.00195312c17.333 0 31.666 5.66699 42.999 17s17 25.666 17 42.999s-5.66699 31.666 -17 42.999
s-25.666 17 -42.999 17h-105v-120z" />
    <glyph glyph-name="afii10047" unicode="&#x42d;" horiz-adv-x="840" 
d="M25 290l250.002 -0.00195312c5.33301 -18 14.333 -34.667 27 -50c28 -33.333 65.667 -50 113 -50c46.667 0 83 15.667 109 47c12.667 14.667 21.334 30.667 26.001 48h-195v130h195c-4.66699 16.667 -13.334 32.334 -26.001 47.001c-26.667 32 -63 48 -109 48
c-43.333 0 -79 -13.333 -107 -40c-12 -12 -21.333 -25.333 -28 -40h-250c15.333 54 38.666 102.333 69.999 145c75.333 96.667 178.666 145 309.999 145c117.333 0 213.333 -35.5 288 -106.5s112 -158.833 112 -263.5s-37.333 -192.5 -112 -263.5
s-170.667 -106.5 -288 -106.5c-134 0 -238.667 51.667 -314 155c-32 44.667 -55.667 96.334 -71 155.001z" />
    <glyph glyph-name="afii10048" unicode="&#x42e;" horiz-adv-x="1170" 
d="M60 0l0.00195312 700h250v-250h80c15.333 50.667 38.666 95.667 69.999 135c72.667 90 171 135 295 135c112.667 0 205 -35.667 277 -107s108 -159 108 -263s-36 -191.667 -108 -263s-164.333 -107 -277 -107c-118 0 -215 43.333 -291 130
c-32.667 38.667 -57.334 82 -74.001 130h-80v-240h-250zM630.002 350c0 -50.667 11.667 -90 35 -118s53.333 -42 90 -42s66.667 14 90 42s35 67.333 35 118s-11.667 90 -35 118s-53.333 42 -90 42s-66.667 -14 -90 -42s-35 -67.333 -35 -118z" />
    <glyph glyph-name="afii10049" unicode="&#x42f;" horiz-adv-x="785" 
d="M45 440c0 76.667 26.167 139.166 78.5 187.499s122.833 72.5 211.5 72.5h390v-700h-250v190h-85l-100 -190h-255l130 240c-22.667 10.667 -42.667 25.334 -60 44.001c-40 40 -60 92 -60 156zM300 439.999c0 -18 5.83301 -32.5 17.5 -43.5s27.5 -16.5 47.5 -16.5h110v120
h-110c-19.333 0 -35 -6 -47 -18s-18 -26 -18 -42z" />
    <glyph glyph-name="afii10065" unicode="&#x430;" horiz-adv-x="690" 
d="M30 265c0 86.667 21 155 63 205s94.333 75 157 75c45.333 0 85 -14.333 119 -43c15.333 -12 27.333 -26 36 -42h10v70h230v-530h-230v70h-10c-8.66699 -16.667 -20.667 -31 -36 -43c-33.333 -28 -73 -42 -119 -42c-62.667 0 -115 25 -157 75s-63 118.333 -63 205z
M265 265c0 -29.333 7.33301 -52.5 22 -69.5s32.667 -25.5 54 -25.5c20.667 0 38.167 8.66699 52.5 26s21.5 40.333 21.5 69s-7.16699 51.667 -21.5 69s-31.833 26 -52.5 26c-21.333 0 -39.333 -8.5 -54 -25.5s-22 -40.167 -22 -69.5z" />
    <glyph glyph-name="afii10066" unicode="&#x431;" horiz-adv-x="670" 
d="M35 315c0 122.667 30.334 217.5 91.001 284.5s142 100.5 244 100.5h220v-180h-175c-53.333 0 -93.333 -10.667 -120 -32s-40 -50.666 -40 -87.999h10c6.66699 12 17 22.667 31 32c31.333 22 69.333 33 114 33c70 0 126.667 -21.333 170 -64s65 -98 65 -166
c0 -72 -26.833 -131.667 -80.5 -179s-126.834 -71 -219.501 -71c-90.667 0 -165 30.167 -223 90.5s-87 140.166 -87 239.499zM270.001 245c0 -24.667 6.5 -44.167 19.5 -58.5s29.833 -21.5 50.5 -21.5s37.5 7.16699 50.5 21.5s19.5 33.833 19.5 58.5
c0 22.667 -6.66699 41.667 -20 57s-30 23 -50 23s-36.667 -7.66699 -50 -23s-20 -34.333 -20 -57z" />
    <glyph glyph-name="afii10067" unicode="&#x432;" horiz-adv-x="645" 
d="M45 0l0.000976562 530.001h340c140 0 210 -43.333 210 -130c0 -35.333 -16.667 -64.333 -50 -87c-16 -10.667 -32.667 -18.334 -50 -23.001v-10c24 -4 44 -11.333 60 -22c40 -24.667 60 -60.667 60 -108c0 -46 -19.333 -82.5 -58 -109.5s-99.334 -40.5 -182.001 -40.5
h-330zM275.001 325.001h50c26.667 0 40 13.333 40 40s-13.333 40 -40 40h-50v-80zM275.001 125.001h60c33.333 0 50 15 50 45s-16.667 45 -50 45h-60v-90z" />
    <glyph glyph-name="afii10068" unicode="&#x433;" horiz-adv-x="510" 
d="M45 0v530h460v-190h-230v-340h-230z" />
    <glyph glyph-name="afii10069" unicode="&#x434;" 
d="M5 -100v280h65l80 350h380l80 -350h65v-280h-215v100h-240v-100h-215zM290 175h100l-40 175h-20z" />
    <glyph glyph-name="afii10070" unicode="&#x435;" horiz-adv-x="660" 
d="M25 265c0 78.667 28.666 145 85.999 199s130.333 81 219 81s161.667 -27 219 -81s86 -120.333 86 -199v-15h-375c0 -70 23.333 -105 70 -105c19.333 0 36.333 7.33301 51 22c6.66699 8 11.334 15.667 14.001 23h235c-12 -38.667 -31 -73 -57 -103
c-60 -68 -141 -102 -243 -102c-88.667 0 -161.667 27 -219 81s-86 120.333 -86 199zM264.999 315h130c-0.666992 10.667 -4 22.334 -10 35.001c-12.667 23.333 -31 35 -55 35s-42.333 -11.667 -55 -35c-6 -12.667 -9.33301 -24.334 -10 -35.001z" />
    <glyph glyph-name="afii10072" unicode="&#x436;" horiz-adv-x="920" 
d="M0 0l135 275l-120 255h230l75 -175h25v175h230v-175h25l75 175h230l-120 -255l135 -275h-230l-75 165h-40v-165h-230v165h-40l-75 -165h-230z" />
    <glyph glyph-name="afii10073" unicode="&#x437;" horiz-adv-x="615" 
d="M20 180l230.002 -0.00292969c2.66699 -6 7 -12.667 13 -20c10.667 -13.333 26.334 -20 47.001 -20c33.333 0 50 12 50 36c0 22.667 -18.667 34 -56 34h-68v120h64c30 0 45 9.66699 45 29c0 20.667 -13.333 31 -40 31c-14 0 -26 -5 -36 -15
c-4 -4.66699 -7 -9.66699 -9 -15h-230c8.66699 34.667 25 65.334 49 92.001c55.333 62 135.666 93 240.999 93c84 0 147.5 -14.667 190.5 -44s64.5 -64.666 64.5 -105.999c0 -39.333 -16 -69.666 -48 -90.999c-15.333 -10 -31 -16.333 -47 -19v-10
c19.333 -4 37.666 -11 54.999 -21c36.667 -26 55 -60.667 55 -104c0 -42 -22.167 -80 -66.5 -114s-113.833 -51 -208.5 -51c-109.333 0 -191 32.333 -245 97c-24.667 30 -41.334 62.667 -50.001 98z" />
    <glyph glyph-name="afii10074" unicode="&#x438;" 
d="M45 0v530h230v-160l-15 -75h10l135 235h230v-530h-230v160l15 75h-10l-135 -235h-230z" />
    <glyph glyph-name="afii10075" unicode="&#x439;" 
d="M45 0v530h230v-160l-15 -75h10l135 235h230v-530h-230v160l15 75h-10l-135 -235h-230zM175 725h115c0 -12 4.5 -21.667 13.5 -29s21.167 -11 36.5 -11s27.5 3.66699 36.5 11s13.5 17 13.5 29h115c0 -46 -14.5 -82.5 -43.5 -109.5s-69.5 -40.5 -121.5 -40.5
s-92.5 13.5 -121.5 40.5s-43.5 63.5 -43.5 109.5z" />
    <glyph glyph-name="afii10076" unicode="&#x43a;" horiz-adv-x="640" 
d="M45 0v530h230v-175h35l80 175h235l-125 -255l140 -275h-235l-80 165h-50v-165h-230z" />
    <glyph glyph-name="afii10077" unicode="&#x43b;" horiz-adv-x="630" 
d="M0 0l125 530h380l125 -530h-230l-75 350h-20l-75 -350h-230z" />
    <glyph glyph-name="afii10078" unicode="&#x43c;" horiz-adv-x="840" 
d="M45 0v530h295l75 -225h10l75 225h295v-530h-230v215l15 75h-10l-70 -180h-160l-70 180h-10l15 -75v-215h-230z" />
    <glyph glyph-name="afii10079" unicode="&#x43d;" horiz-adv-x="670" 
d="M45 0v530h230v-170h120v170h230v-530h-230v170h-120v-170h-230z" />
    <glyph glyph-name="afii10080" unicode="&#x43e;" 
d="M25 265c0 79.333 29.167 145.833 87.5 199.5s134.166 80.5 227.499 80.5c92.667 0 168.334 -26.833 227.001 -80.5s88 -120.167 88 -199.5s-29.333 -145.833 -88 -199.5s-134.334 -80.5 -227.001 -80.5c-93.333 0 -169.166 26.833 -227.499 80.5
s-87.5 120.167 -87.5 199.5zM260 265c0 -31.333 7.5 -55.833 22.5 -73.5s34.167 -26.5 57.5 -26.5s42.5 8.83301 57.5 26.5s22.5 42.167 22.5 73.5s-7.5 55.833 -22.5 73.5s-34.167 26.5 -57.5 26.5s-42.5 -8.83301 -57.5 -26.5s-22.5 -42.167 -22.5 -73.5z" />
    <glyph glyph-name="afii10081" unicode="&#x43f;" horiz-adv-x="665" 
d="M45 0v530h575v-530h-230v340h-115v-340h-230z" />
    <glyph glyph-name="afii10082" unicode="&#x440;" horiz-adv-x="690" 
d="M45 -190v720h230v-70h10c8.66699 16 20.667 30 36 42c34 28.667 73.667 43 119 43c62.667 0 115 -25 157 -75s63 -118.333 63 -205s-21 -155 -63 -205s-94.333 -75 -157 -75c-46 0 -85.667 14 -119 42c-15.333 12 -27.333 26.333 -36 43h-10v-260h-230zM275 265
c0 -28.667 7.16699 -51.667 21.5 -69s31.833 -26 52.5 -26c21.333 0 39.333 8.5 54 25.5s22 40.167 22 69.5s-7.33301 52.5 -22 69.5s-32.667 25.5 -54 25.5c-20.667 0 -38.167 -8.66699 -52.5 -26s-21.5 -40.333 -21.5 -69z" />
    <glyph glyph-name="afii10083" unicode="&#x441;" horiz-adv-x="660" 
d="M25 265c0 78.667 28.667 145 86 199s130.333 81 219 81c116.667 0 202.334 -39.333 257.001 -118c24 -35.333 40 -74.333 48 -117h-235c-3.33301 11.333 -8 20.333 -14 27c-14 18.667 -32.667 28 -56 28c-21.333 0 -38.333 -8.16699 -51 -24.5s-19 -41.5 -19 -75.5
s6.33301 -59.167 19 -75.5s29.667 -24.5 51 -24.5c24 0 42.667 9 56 27c6 7.33301 10.667 16.666 14 27.999h235c-8 -43.333 -24 -82.666 -48 -117.999c-52.667 -78 -138.334 -117 -257.001 -117c-88.667 0 -161.667 27 -219 81s-86 120.333 -86 199z" />
    <glyph glyph-name="afii10084" unicode="&#x442;" horiz-adv-x="580" 
d="M5 340v190h570v-190h-170v-340h-230v340h-170z" />
    <glyph glyph-name="afii10085" unicode="&#x443;" horiz-adv-x="640" 
d="M10 530h230l75 -340h15l75 340h235l-189 -720h-231l55 190h-135z" />
    <glyph glyph-name="afii10086" unicode="&#x444;" horiz-adv-x="840" 
d="M25 265c0 80 25.333 145.333 76 196s118.667 78.667 204 84v175h230v-175c85.333 -5.33301 153.333 -33.333 204 -84s76 -116 76 -196s-25.333 -145.333 -76 -196s-118.667 -78.667 -204 -84v-175h-230v175c-85.333 5.33301 -153.333 33.333 -204 84s-76 116 -76 196z
M525 395v-250c43.333 6 65 47.667 65 125s-21.667 119 -65 125zM250 270c0 -77.333 21.667 -119 65 -125v250c-43.333 -6 -65 -47.667 -65 -125z" />
    <glyph glyph-name="afii10087" unicode="&#x445;" horiz-adv-x="640" 
d="M0 0l130 280l-120 250h240l60 -160h20l60 160h240l-120 -250l130 -280h-245l-60 165h-30l-60 -165h-245z" />
    <glyph glyph-name="afii10088" unicode="&#x446;" 
d="M45 0v530h230v-340h95v340h230v-340h65v-290h-215v100h-405z" />
    <glyph glyph-name="afii10089" unicode="&#x447;" horiz-adv-x="635" 
d="M35 325l-0.000976562 204.999h230v-175c0 -33.333 16.667 -50 50 -50c14 0 25.333 2.33301 34 7c0.666992 0.666992 2.33398 1.83398 5.00098 3.50098s4.66699 3.16699 6 4.5v210h230v-530h-230v140c-12.667 -6.66699 -24 -11 -34 -13c-26 -8 -56.333 -12 -91 -12
c-59.333 0 -107.5 18.5 -144.5 55.5s-55.5 88.5 -55.5 154.5z" />
    <glyph glyph-name="afii10090" unicode="&#x448;" horiz-adv-x="910" 
d="M45 0v530h230v-340h65v340h230v-340h65v340h230v-530h-820z" />
    <glyph glyph-name="afii10091" unicode="&#x449;" horiz-adv-x="945" 
d="M45 0v530h230v-340h65v340h230v-340h65v340h230v-340h65v-290h-215v100h-670z" />
    <glyph glyph-name="afii10092" unicode="&#x44a;" horiz-adv-x="660" 
d="M5 350v180h330v-150h75c72.667 0 129.167 -17.5 169.5 -52.5s60.5 -80.833 60.5 -137.5s-20.167 -102.5 -60.5 -137.5s-96.833 -52.5 -169.5 -52.5h-305v350h-100zM325 140h30c17.333 0 30.833 4.5 40.5 13.5s14.5 21.167 14.5 36.5s-4.83301 27.5 -14.5 36.5
s-23.167 13.5 -40.5 13.5h-30v-100z" />
    <glyph glyph-name="afii10093" unicode="&#x44b;" horiz-adv-x="880" 
d="M605 0v530h230v-530h-230zM45 0v530h230v-150h70c72.667 0 129.167 -17.5 169.5 -52.5s60.5 -80.833 60.5 -137.5s-20.167 -102.5 -60.5 -137.5s-96.833 -52.5 -169.5 -52.5h-300zM265 140h25c17.333 0 30.833 4.5 40.5 13.5s14.5 21.167 14.5 36.5
s-4.83301 27.5 -14.5 36.5s-23.167 13.5 -40.5 13.5h-25v-100z" />
    <glyph glyph-name="afii10094" unicode="&#x44c;" horiz-adv-x="610" 
d="M45 0v530h230v-150h85c72.667 0 129.167 -17.5 169.5 -52.5s60.5 -80.833 60.5 -137.5s-20.167 -102.5 -60.5 -137.5s-96.833 -52.5 -169.5 -52.5h-315zM270 140h35c17.333 0 30.833 4.5 40.5 13.5s14.5 21.167 14.5 36.5s-4.83301 27.5 -14.5 36.5
s-23.167 13.5 -40.5 13.5h-35v-100z" />
    <glyph glyph-name="afii10095" unicode="&#x44d;" horiz-adv-x="660" 
d="M25 220l235.001 0.000976562c2 -15.333 6.33301 -28 13 -38c14 -24.667 34.667 -37 62 -37s47 13.333 59 40c5.33301 13.333 9 26.666 11 39.999h-110v85h110c-2 12.667 -5.66699 25 -11 37c-12 25.333 -31.667 38 -59 38c-26.667 0 -47.334 -12.667 -62.001 -38
c-6.66699 -10 -11 -22.333 -13 -37h-235c6.66699 42.667 22.334 81.667 47.001 117c54 78.667 140 118 258 118c88.667 0 161.667 -27 219 -81s86 -120.333 86 -199s-28.667 -145 -86 -199s-130.333 -81 -219 -81c-119.333 0 -205.333 39 -258 117
c-24.667 36 -40.334 75.333 -47.001 118z" />
    <glyph glyph-name="afii10096" unicode="&#x44e;" horiz-adv-x="895" 
d="M45 0l-0.000976562 530h200v-185h45c12.667 38 30.667 71.333 54 100c52 66.667 127.333 100 226 100c86.667 0 158.334 -27 215.001 -81s85 -120.333 85 -199s-28.333 -145 -85 -199s-128.334 -81 -215.001 -81c-94 0 -167.333 31.667 -220 95
c-23.333 26 -41.666 57.667 -54.999 95h-50v-175h-200zM504.999 265c0 -33.333 6.16699 -58.333 18.5 -75s27.833 -25 46.5 -25s34.167 8.33301 46.5 25s18.5 41.667 18.5 75s-6.16699 58.333 -18.5 75s-27.833 25 -46.5 25s-34.167 -8.33301 -46.5 -25
s-18.5 -41.667 -18.5 -75z" />
    <glyph glyph-name="afii10097" unicode="&#x44f;" horiz-adv-x="630" 
d="M15 0l115 195c-16.667 8.66699 -31 20 -43 34c-28 32 -42 72.333 -42 121c0 52 20 95 60 129s95 51 165 51h315v-530h-230v155h-25l-80 -155h-235zM275 340c0 -15.333 4.33301 -27.5 13 -36.5s19.334 -13.5 32.001 -13.5h40v100h-40
c-12.667 0 -23.334 -4.5 -32.001 -13.5s-13 -21.167 -13 -36.5z" />
    <glyph glyph-name="afii10071" unicode="&#x451;" horiz-adv-x="660" 
d="M25 265c0 78.667 28.666 145 85.999 199s130.333 81 219 81s161.667 -27 219 -81s86 -120.333 86 -199v-15h-375c0 -70 23.333 -105 70 -105c19.333 0 36.333 7.33301 51 22c6.66699 8 11.334 15.667 14.001 23h235c-12 -38.667 -31 -73 -57 -103
c-60 -68 -141 -102 -243 -102c-88.667 0 -161.667 27 -219 81s-86 120.333 -86 199zM264.999 315h130c-0.666992 10.667 -4 22.334 -10 35.001c-12.667 23.333 -31 35 -55 35s-42.333 -11.667 -55 -35c-6 -12.667 -9.33301 -24.334 -10 -35.001zM349.999 670
c0 28 8.83301 50.833 26.5 68.5s40.5 26.5 68.5 26.5s50.833 -8.83301 68.5 -26.5s26.5 -40.5 26.5 -68.5s-8.83301 -50.833 -26.5 -68.5s-40.5 -26.5 -68.5 -26.5s-50.833 8.83301 -68.5 26.5s-26.5 40.5 -26.5 68.5zM119.999 670c0 28 8.83301 50.833 26.5 68.5
s40.5 26.5 68.5 26.5s50.833 -8.83301 68.5 -26.5s26.5 -40.5 26.5 -68.5s-8.83301 -50.833 -26.5 -68.5s-40.5 -26.5 -68.5 -26.5s-50.833 8.83301 -68.5 26.5s-26.5 40.5 -26.5 68.5z" />
    <glyph glyph-name="afii10099" unicode="&#x452;" horiz-adv-x="695" 
d="M5 475v155h70v70h230v-70h125v-155h-125v-135h10c9.33301 16.667 22 31.667 38 45c35.333 30 74.333 45 117 45c59.333 0 105.833 -18.5 139.5 -55.5s50.5 -90.167 50.5 -159.5v-405h-315v155h85v210c0 20.667 -5 36.667 -15 48s-23.333 17 -40 17
c-20.667 0 -37.5 -7.16699 -50.5 -21.5s-19.5 -33.833 -19.5 -58.5v-160h-230v475h-70z" />
    <glyph glyph-name="afii10100" unicode="&#x453;" horiz-adv-x="510" 
d="M45 0v530h460v-190h-230v-340h-230zM199 595l70 155h210v-5l-145 -150h-135z" />
    <glyph glyph-name="afii10101" unicode="&#x454;" horiz-adv-x="660" 
d="M25 265c0 78.667 28.668 144.998 86.001 198.998s130.333 81 219 81c116.667 0 202.334 -39.333 257.001 -118c24 -35.333 40 -74.333 48 -117h-235c-2 14.667 -6.33301 27 -13 37c-14.667 25.333 -35.334 38 -62.001 38c-27.333 0 -47 -12.667 -59 -38
c-5.33301 -12 -9 -24.333 -11 -37h110v-85h-110c2 -13.333 5.66699 -26.666 11 -39.999c12 -26.667 31.667 -40 59 -40s48 12.333 62 37c6.66699 10 11 22.667 13 38h235c-8 -43.333 -24 -82.666 -48 -117.999c-52.667 -78 -138.334 -117 -257.001 -117
c-88.667 0 -161.667 27 -219 81s-86 120.333 -86 199z" />
    <glyph glyph-name="afii10102" unicode="&#x455;" horiz-adv-x="600" 
d="M20 175l215 -0.00195312c0.666992 -6.66699 4 -13.334 10 -20.001c10.667 -13.333 29 -20 55 -20c30 0 45 6.66699 45 20c0 8 -5.33301 14.333 -16 19s-29 10 -55 16c-3.33301 0.666992 -6 1.33398 -8 2.00098l-42 10c-8 2 -22 6 -42 12s-34.667 11.667 -44 17
s-21.5 12.833 -36.5 22.5s-26.167 19.834 -33.5 30.501s-13.833 23.834 -19.5 39.501s-8.5 32.834 -8.5 51.501c0 48.667 21.667 89.167 65 121.5s106.666 48.5 189.999 48.5c102.667 0 179.667 -31 231 -93c22.667 -28 37.334 -58.667 44.001 -92h-215
c-2 5.33301 -4.66699 11 -8 17c-9.33301 12 -21.666 18 -36.999 18c-23.333 0 -35 -6.66699 -35 -20c0 -7.33301 6.16699 -13.333 18.5 -18s32.5 -9.66699 60.5 -15c18 -4 28.833 -6.5 32.5 -7.5l32 -8.5c17.667 -4.66699 29.5 -8.33398 35.5 -11.001l31 -13.5
c14.667 -6.33301 25 -12.166 31 -17.499l24.5 -21.5c10.333 -9 17.666 -18.333 21.999 -28s8.33301 -20.834 12 -33.501s5.5 -26.334 5.5 -41.001c0 -49.333 -23.5 -90.833 -70.5 -124.5s-115.167 -50.5 -204.5 -50.5c-112.667 0 -193.334 31.667 -242.001 95
c-21.333 26.667 -35.666 58.334 -42.999 95.001z" />
    <glyph glyph-name="afii10103" unicode="&#x456;" horiz-adv-x="320" 
d="M40 675c0 30.667 10.667 55.834 32 75.501s50.666 29.5 87.999 29.5s66.666 -9.83301 87.999 -29.5s32 -44.834 32 -75.501s-10.667 -55.834 -32 -75.501s-50.666 -29.5 -87.999 -29.5s-66.666 9.83301 -87.999 29.5s-32 44.834 -32 75.501zM45 0v530h230v-530h-230z" />
    <glyph glyph-name="afii10104" unicode="&#x457;" horiz-adv-x="320" 
d="M45 0v530h230v-530h-230zM180 670c0 28 8.83301 50.833 26.5 68.5s40.5 26.5 68.5 26.5s50.833 -8.83301 68.5 -26.5s26.5 -40.5 26.5 -68.5s-8.83301 -50.833 -26.5 -68.5s-40.5 -26.5 -68.5 -26.5s-50.833 8.83301 -68.5 26.5s-26.5 40.5 -26.5 68.5zM-50 670
c0 28 8.83301 50.833 26.5 68.5s40.5 26.5 68.5 26.5s50.833 -8.83301 68.5 -26.5s26.5 -40.5 26.5 -68.5s-8.83301 -50.833 -26.5 -68.5s-40.5 -26.5 -68.5 -26.5s-50.833 8.83301 -68.5 26.5s-26.5 40.5 -26.5 68.5z" />
    <glyph glyph-name="afii10105" unicode="&#x458;" horiz-adv-x="335" 
d="M55 675c0 30.667 10.667 55.834 32 75.501s50.666 29.5 87.999 29.5s66.666 -9.83301 87.999 -29.5s32 -44.834 32 -75.501s-10.667 -55.834 -32 -75.501s-50.666 -29.5 -87.999 -29.5s-66.666 9.83301 -87.999 29.5s-32 44.834 -32 75.501zM-60 -190v155h120v565h230
v-720h-350z" />
    <glyph glyph-name="afii10106" unicode="&#x459;" horiz-adv-x="880" 
d="M0 0l125 530h435v-150h70c72.667 0 129.167 -17.5 169.5 -52.5s60.5 -80.833 60.5 -137.5s-20.167 -102.5 -60.5 -137.5s-96.833 -52.5 -169.5 -52.5h-300v350h-25l-75 -350h-230zM555 140h20c17.333 0 30.833 4.5 40.5 13.5s14.5 21.167 14.5 36.5
s-4.83301 27.5 -14.5 36.5s-23.167 13.5 -40.5 13.5h-20v-100z" />
    <glyph glyph-name="afii10107" unicode="&#x45a;" horiz-adv-x="935" 
d="M45 0v530h230v-150h110v150h230v-150h70c72.667 0 129.167 -17.5 169.5 -52.5s60.5 -80.833 60.5 -137.5s-20.167 -102.5 -60.5 -137.5s-96.833 -52.5 -169.5 -52.5h-300v190h-110v-190h-230zM610 140h20c17.333 0 30.833 4.5 40.5 13.5s14.5 21.167 14.5 36.5
s-4.83301 27.5 -14.5 36.5s-23.167 13.5 -40.5 13.5h-20v-100z" />
    <glyph glyph-name="afii10108" unicode="&#x45b;" horiz-adv-x="695" 
d="M5 475v155h70v70h230v-70h125v-155h-125v-135h10c9.33301 16.667 22 31.667 38 45c35.333 30 74.333 45 117 45c59.333 0 105.833 -18.5 139.5 -55.5s50.5 -90.167 50.5 -159.5v-215h-230v175c0 20.667 -5 36.667 -15 48s-23.333 17 -40 17
c-20.667 0 -37.5 -7.16699 -50.5 -21.5s-19.5 -33.833 -19.5 -58.5v-160h-230v475h-70z" />
    <glyph glyph-name="afii10109" unicode="&#x45c;" horiz-adv-x="640" 
d="M45 0v530h230v-175h35l80 175h235l-125 -255l140 -275h-235l-80 165h-50v-165h-230zM247 595l70 155h210v-5l-145 -150h-135z" />
    <glyph glyph-name="afii10110" unicode="&#x45e;" horiz-adv-x="640" 
d="M10 530h230l75 -340h15l75 340h235l-189 -720h-231l55 190h-135zM165 725h115c0 -12 4.5 -21.667 13.5 -29s21.167 -11 36.5 -11s27.5 3.66699 36.5 11s13.5 17 13.5 29h115c0 -46 -14.5 -82.5 -43.5 -109.5s-69.5 -40.5 -121.5 -40.5s-92.5 13.5 -121.5 40.5
s-43.5 63.5 -43.5 109.5z" />
    <glyph glyph-name="afii10193" unicode="&#x45f;" horiz-adv-x="665" 
d="M45 0v530h230v-340h115v340h230v-530h-180v-100h-215v100h-180z" />
    <glyph glyph-name="afii10050" unicode="&#x490;" horiz-adv-x="635" 
d="M310 0h-250v700h315v100h250v-320h-315v-480z" />
    <glyph glyph-name="afii10098" unicode="&#x491;" horiz-adv-x="510" 
d="M45 0v530h230v70h230v-260h-230v-340h-230z" />
    <glyph glyph-name="uni1E9E" unicode="&#x1e9e;" horiz-adv-x="810" 
d="M55 0v460c0 72 24.667 130 74 174s118 66 206 66h380v-180l-115 -85v-10c33.333 -7.33301 64 -20 92 -38c62 -40.667 93 -98 93 -172c0 -60.667 -25.5 -111.667 -76.5 -153s-122.167 -62 -213.5 -62h-115v190h85c43.333 0 65 16.667 65 50s-20 50 -60 50h-80v140l100 80
h-125c-40 0 -60 -20 -60 -60v-450h-250z" />
    <glyph glyph-name="endash" unicode="&#x2013;" horiz-adv-x="800" 
d="M40 190v160h720v-160h-720z" />
    <glyph glyph-name="emdash" unicode="&#x2014;" horiz-adv-x="980" 
d="M40 190v160h900v-160h-900z" />
    <glyph glyph-name="quoteleft" unicode="&#x2018;" horiz-adv-x="270" 
d="M25 530c0 68 17.667 119.999 53 155.999s86 54 152 54v-75c-31.333 0 -55 -6.66699 -71 -20s-24 -31.666 -24 -54.999v-10l7 2c10 2 17.667 3 23 3c20.667 0 39.167 -9.5 55.5 -28.5s24.5 -42.833 24.5 -71.5c0 -30 -10 -55 -30 -75s-45 -30 -75 -30
c-34 0 -61.667 13 -83 39s-32 63 -32 111z" />
    <glyph glyph-name="quoteright" unicode="&#x2019;" horiz-adv-x="270" 
d="M25 635c0 30 10 55.001 30 75.001s45 30 75 30c34 0 61.667 -13 83 -39s32 -63 32 -111c0 -68 -17.667 -120 -53 -156s-86 -54 -152 -54v75c31.333 0 55 6.66699 71 20s24 31.666 24 54.999v10l-8 -3c-6.66699 -1.33301 -14 -2 -22 -2c-20.667 0 -39.167 9.5 -55.5 28.5
s-24.5 42.833 -24.5 71.5z" />
    <glyph glyph-name="quotesinglbase" unicode="&#x201a;" horiz-adv-x="270" 
d="M25 100c0 30 10 55.001 30 75.001s45 30 75 30c34 0 61.667 -13 83 -39s32 -63 32 -111c0 -68 -17.667 -120 -53 -156s-86 -54 -152 -54v75c31.333 0 55 6.66699 71 20s24 31.666 24 54.999v10l-8 -3c-6.66699 -1.33301 -14 -2 -22 -2c-20.667 0 -39.167 9.5 -55.5 28.5
s-24.5 42.833 -24.5 71.5z" />
    <glyph glyph-name="quotedblleft" unicode="&#x201c;" horiz-adv-x="530" 
d="M25 530c0 68 17.667 119.999 53 155.999s86 54 152 54v-75c-31.333 0 -55 -6.66699 -71 -20s-24 -31.666 -24 -54.999v-10l7 2c10 2 17.667 3 23 3c20.667 0 39.167 -9.5 55.5 -28.5s24.5 -42.833 24.5 -71.5c0 -30 -10 -55 -30 -75s-45 -30 -75 -30
c-34 0 -61.667 13 -83 39s-32 63 -32 111zM285 529.999c0 68 17.667 119.999 53 155.999s86 54 152 54v-75c-31.333 0 -55 -6.66699 -71 -20s-24 -31.666 -24 -54.999v-10l7 2c10 2 17.667 3 23 3c20.667 0 39.167 -9.5 55.5 -28.5s24.5 -42.833 24.5 -71.5
c0 -30 -10 -55 -30 -75s-45 -30 -75 -30c-34 0 -61.667 13 -83 39s-32 63 -32 111z" />
    <glyph glyph-name="quotedblright" unicode="&#x201d;" horiz-adv-x="530" 
d="M25 635c0 30 10 55.001 30 75.001s45 30 75 30c34 0 61.667 -13 83 -39s32 -63 32 -111c0 -68 -17.667 -120 -53 -156s-86 -54 -152 -54v75c31.333 0 55 6.66699 71 20s24 31.666 24 54.999v10l-8 -3c-6.66699 -1.33301 -14 -2 -22 -2c-20.667 0 -39.167 9.5 -55.5 28.5
s-24.5 42.833 -24.5 71.5zM285 635.001c0 30 10 55.001 30 75.001s45 30 75 30c34 0 61.667 -13 83 -39s32 -63 32 -111c0 -68 -17.667 -120 -53 -156s-86 -54 -152 -54v75c31.333 0 55 6.66699 71 20s24 31.666 24 54.999v10l-8 -3c-6.66699 -1.33301 -14 -2 -22 -2
c-20.667 0 -39.167 9.5 -55.5 28.5s-24.5 42.833 -24.5 71.5z" />
    <glyph glyph-name="quotedblbase" unicode="&#x201e;" horiz-adv-x="530" 
d="M25 100c0 30 10 55.001 30 75.001s45 30 75 30c34 0 61.667 -13 83 -39s32 -63 32 -111c0 -68 -17.667 -120 -53 -156s-86 -54 -152 -54v75c31.333 0 55 6.66699 71 20s24 31.666 24 54.999v10l-8 -3c-6.66699 -1.33301 -14 -2 -22 -2c-20.667 0 -39.167 9.5 -55.5 28.5
s-24.5 42.833 -24.5 71.5zM285 100.001c0 30 10 55.001 30 75.001s45 30 75 30c34 0 61.667 -13 83 -39s32 -63 32 -111c0 -68 -17.667 -120 -53 -156s-86 -54 -152 -54v75c31.333 0 55 6.66699 71 20s24 31.666 24 54.999v10l-8 -3c-6.66699 -1.33301 -14 -2 -22 -2
c-20.667 0 -39.167 9.5 -55.5 28.5s-24.5 42.833 -24.5 71.5z" />
    <glyph glyph-name="dagger" unicode="&#x2020;" horiz-adv-x="490" 
d="M30 350v180h110v170h210v-170h110v-180h-110v-350h-210v350h-110z" />
    <glyph glyph-name="daggerdbl" unicode="&#x2021;" horiz-adv-x="490" 
d="M30 110v180h110v120h-110v180h110v110h210v-110h110v-180h-110v-120h110v-180h-110v-110h-210v110h-110z" />
    <glyph glyph-name="bullet" unicode="&#x2022;" horiz-adv-x="520" 
d="M120 300c0 40 13.333 73.333 40 100s60 40 100 40s73.333 -13.333 100 -40s40 -60 40 -100s-13.333 -73.333 -40 -100s-60 -40 -100 -40s-73.333 13.333 -100 40s-40 60 -40 100z" />
    <glyph glyph-name="ellipsis" unicode="&#x2026;" horiz-adv-x="900" 
d="M25 95c0 30 10.833 55.833 32.5 77.5s47.5 32.5 77.5 32.5c29.333 0 55 -11 77 -33s33 -47.667 33 -77c0 -30 -10.833 -55.833 -32.5 -77.5s-47.5 -32.5 -77.5 -32.5c-30.667 0 -56.667 10.667 -78 32s-32 47.333 -32 78zM340 95c0 30 10.833 55.833 32.5 77.5
s47.5 32.5 77.5 32.5c29.333 0 55 -11 77 -33s33 -47.667 33 -77c0 -30 -10.833 -55.833 -32.5 -77.5s-47.5 -32.5 -77.5 -32.5c-30.667 0 -56.667 10.667 -78 32s-32 47.333 -32 78zM655 95c0 30 10.833 55.833 32.5 77.5s47.5 32.5 77.5 32.5c29.333 0 55 -11 77 -33
s33 -47.667 33 -77c0 -30 -10.833 -55.833 -32.5 -77.5s-47.5 -32.5 -77.5 -32.5c-30.667 0 -56.667 10.667 -78 32s-32 47.333 -32 78z" />
    <glyph glyph-name="perthousand" unicode="&#x2030;" horiz-adv-x="1270" 
d="M30 540c0 48.667 17.333 89.167 52 121.5s79 48.5 133 48.5s98.333 -16.167 133 -48.5s52 -72.833 52 -121.5s-17.333 -89.167 -52 -121.5s-79 -48.5 -133 -48.5s-98.333 16.167 -133 48.5s-52 72.833 -52 121.5zM150 0l420 700h160l-420 -700h-160zM170 540
c0 -12.667 4.33301 -23.334 13 -32.001s19.334 -13 32.001 -13s23.334 4.33301 32.001 13s13 19.334 13 32.001s-4.33301 23.334 -13 32.001s-19.334 13 -32.001 13s-23.334 -4.33301 -32.001 -13s-13 -19.334 -13 -32.001zM870 160c0 48.667 17.333 89.167 52 121.5
s79 48.5 133 48.5s98.333 -16.167 133 -48.5s52 -72.833 52 -121.5s-17.333 -89.167 -52 -121.5s-79 -48.5 -133 -48.5s-98.333 16.167 -133 48.5s-52 72.833 -52 121.5zM470 160c0 48.667 17.333 89.167 52 121.5s79 48.5 133 48.5s98.333 -16.167 133 -48.5
s52 -72.833 52 -121.5s-17.333 -89.167 -52 -121.5s-79 -48.5 -133 -48.5s-98.333 16.167 -133 48.5s-52 72.833 -52 121.5zM1010 160c0 -12.667 4.33301 -23.334 13 -32.001s19.334 -13 32.001 -13s23.334 4.33301 32.001 13s13 19.334 13 32.001
s-4.33301 23.334 -13 32.001s-19.334 13 -32.001 13s-23.334 -4.33301 -32.001 -13s-13 -19.334 -13 -32.001zM610 160c0 -12.667 4.33301 -23.334 13 -32.001s19.334 -13 32.001 -13s23.334 4.33301 32.001 13s13 19.334 13 32.001s-4.33301 23.334 -13 32.001
s-19.334 13 -32.001 13s-23.334 -4.33301 -32.001 -13s-13 -19.334 -13 -32.001z" />
    <glyph glyph-name="guilsinglleft" unicode="&#x2039;" horiz-adv-x="435" 
d="M15 265l260 270l125 -125l-145 -145l145 -145l-125 -125z" />
    <glyph glyph-name="guilsinglright" unicode="&#x203a;" horiz-adv-x="435" 
d="M35 120l145 145l-145 145l125 125l260 -270l-260 -270z" />
    <glyph glyph-name="fraction" unicode="&#x2044;" horiz-adv-x="175" 
d="M-200 0l420 700h155l-420 -700h-155z" />
    <glyph glyph-name="zerosuperior" unicode="&#x2070;" horiz-adv-x="400" 
d="M20 630c0 52 17 95 51 129s77 51 129 51s95 -17 129 -51s51 -77 51 -129s-17 -95 -51 -129s-77 -51 -129 -51s-95 17 -129 51s-51 77 -51 129zM165 630c0 -43.333 11.667 -65 35 -65s35 21.667 35 65s-11.667 65 -35 65s-35 -21.667 -35 -65z" />
    <glyph glyph-name="foursuperior" unicode="&#x2074;" horiz-adv-x="360" 
d="M0 515v100l115 185h140l-110 -175h45l35 55h90v-55h35v-110h-35v-55h-135v55h-180z" />
    <glyph glyph-name="fivesuperior" unicode="&#x2075;" horiz-adv-x="370" 
d="M20 580h135c0.666992 -3.33301 2.66699 -6.66602 6 -9.99902c5.33301 -6.66699 13.333 -10 24 -10c16.667 0 25 8.33301 25 25s-10 25 -30 25h-25h-110l15 190h265v-100h-142l-4 -34l1 -1l15 5c12 3.33301 27 5 45 5c34.667 0 62.5 -9.83301 83.5 -29.5
s31.5 -44.834 31.5 -75.501c0 -34 -14.5 -62.5 -43.5 -85.5s-69.5 -34.5 -121.5 -34.5c-66.667 0 -115 21.667 -145 65c-14 20 -22.333 41.667 -25 65z" />
    <glyph glyph-name="sixsuperior" unicode="&#x2076;" horiz-adv-x="360" 
d="M15 581c0 40.667 20 83.667 60 129l80 90h150l-95 -100l-40 -20v-5l16 5c12 3.33301 26.667 5 44 5c35.333 0 63.333 -10.167 84 -30.5s31 -46.833 31 -79.5c0 -34.667 -14.5 -64.167 -43.5 -88.5s-69.5 -36.5 -121.5 -36.5s-92.5 12.5 -121.5 37.5
s-43.5 56.167 -43.5 93.5zM150 580c0 -8.66699 2.83301 -15.834 8.5 -21.501s12.834 -8.5 21.501 -8.5s15.834 2.83301 21.501 8.5s8.5 12.834 8.5 21.501s-2.83301 15.834 -8.5 21.501s-12.834 8.5 -21.501 8.5s-15.834 -2.83301 -21.501 -8.5s-8.5 -12.834 -8.5 -21.501z
" />
    <glyph glyph-name="sevensuperior" unicode="&#x2077;" horiz-adv-x="315" 
d="M10 690v110h305v-110l-120 -230h-145l125 220v10h-165z" />
    <glyph glyph-name="eightsuperior" unicode="&#x2078;" horiz-adv-x="390" 
d="M15 550c0 27.333 13.333 49.666 40 66.999c12.667 7.33301 26 13.333 40 18v5c-12 4 -23 9.66699 -33 17c-21.333 16 -32 35.333 -32 58c0 27.333 13.5 50 40.5 68s68.5 27 124.5 27s97.5 -9 124.5 -27s40.5 -40.667 40.5 -68c0 -22 -11 -41.333 -33 -58
c-9.33301 -7.33301 -20 -13 -32 -17v-5c14 -4.66699 27.333 -10.667 40 -18c26.667 -17.333 40 -39.666 40 -66.999c0 -66.667 -60 -100 -180 -100s-180 33.333 -180 100zM165 692c0 -14.667 10 -22 30 -22s30 7.33301 30 22c0 15.333 -10 23 -30 23s-30 -7.66699 -30 -23z
M160 570c0 -16.667 11.667 -25 35 -25s35 8.33301 35 25s-11.667 25 -35 25s-35 -8.33301 -35 -25z" />
    <glyph glyph-name="ninesuperior" unicode="&#x2079;" horiz-adv-x="360" 
d="M15 685c0 34.667 14.499 64.168 43.499 88.501s69.5 36.5 121.5 36.5s92.5 -12.5 121.5 -37.5s43.5 -56.167 43.5 -93.5c0 -40.667 -20 -83.667 -60 -129l-80 -90h-150l95 100l40 20v5c-6 -2.66699 -11.667 -4.33398 -17 -5.00098
c-13.333 -3.33301 -27.666 -5 -42.999 -5c-35.333 0 -63.333 10.167 -84 30.5s-31 46.833 -31 79.5zM149.999 680.001c0 -8.66699 2.83301 -15.834 8.5 -21.501s12.834 -8.5 21.501 -8.5s15.834 2.83301 21.501 8.5s8.5 12.834 8.5 21.501s-2.83301 15.834 -8.5 21.501
s-12.834 8.5 -21.501 8.5s-15.834 -2.83301 -21.501 -8.5s-8.5 -12.834 -8.5 -21.501z" />
    <glyph glyph-name="zeroinferior" unicode="&#x2080;" horiz-adv-x="400" 
d="M20 70c0 52 17 95 51 129s77 51 129 51s95 -17 129 -51s51 -77 51 -129s-17 -95 -51 -129s-77 -51 -129 -51s-95 17 -129 51s-51 77 -51 129zM165 70c0 -43.333 11.667 -65 35 -65s35 21.667 35 65s-11.667 65 -35 65s-35 -21.667 -35 -65z" />
    <glyph glyph-name="oneinferior" unicode="&#x2081;" horiz-adv-x="365" 
d="M30 -100v110h90v110l-80 -40v115l90 45h135v-230h75v-110h-310z" />
    <glyph glyph-name="twoinferior" unicode="&#x2082;" horiz-adv-x="380" 
d="M150 110h-135.001c4.66699 24.667 14.334 48 29.001 70c32 46.667 80.667 70 146 70c50 0 89.167 -11.167 117.5 -33.5s42.5 -49.5 42.5 -81.5c0 -36 -16.667 -66.667 -50 -92c-17.333 -12.667 -34 -22 -50 -28l-15 -5l-15 -5v-5l50 10h80v-110h-330v105l90 45l22 11
c30.667 15.333 50.5 26 59.5 32s13.5 13.333 13.5 22c0 13.333 -8.33301 20 -25 20c-11.333 0 -19.333 -4.33301 -24 -13c-2.66699 -2.66699 -4.66699 -6.66699 -6 -12z" />
    <glyph glyph-name="threeinferior" unicode="&#x2083;" horiz-adv-x="365" 
d="M15 15l135 -0.000976562c0.666992 -3.33301 2.66699 -6.66602 6 -9.99902c5.33301 -6.66699 13.333 -10 24 -10c16.667 0 25 8.33301 25 25s-10 25 -30 25h-65v55l80 45v5l-40 -10h-115v100h295v-95l-75 -43l-11 -6v-6h1c32 0 57.5 -7.66699 76.5 -23s28.5 -36 28.5 -62
c0 -32 -14.5 -59.167 -43.5 -81.5s-69.5 -33.5 -121.5 -33.5c-68.667 0 -117 20.667 -145 62c-14 19.333 -22.333 40.333 -25 63z" />
    <glyph glyph-name="fourinferior" unicode="&#x2084;" horiz-adv-x="360" 
d="M0 -45v100l115 185h140l-110 -175h45l35 55h90v-55h35v-110h-35v-55h-135v55h-180z" />
    <glyph glyph-name="fiveinferior" unicode="&#x2085;" horiz-adv-x="370" 
d="M20 20h135c0.666992 -3.33301 2.66699 -6.66602 6 -9.99902c5.33301 -6.66699 13.333 -10 24 -10c16.667 0 25 8.33301 25 25s-10 25 -30 25h-25h-110l15 190h265v-100h-142l-4 -34l1 -1l15 5c12 3.33301 27 5 45 5c34.667 0 62.5 -9.83301 83.5 -29.5
s31.5 -44.834 31.5 -75.501c0 -34 -14.5 -62.5 -43.5 -85.5s-69.5 -34.5 -121.5 -34.5c-66.667 0 -115 21.667 -145 65c-14 20 -22.333 41.667 -25 65z" />
    <glyph glyph-name="sixinferior" unicode="&#x2086;" horiz-adv-x="360" 
d="M15 21c0 40.667 20 83.667 60 129l80 90h150l-95 -100l-40 -20v-5l16 5c12 3.33301 26.667 5 44 5c35.333 0 63.333 -10.167 84 -30.5s31 -46.833 31 -79.5c0 -34.667 -14.5 -64.167 -43.5 -88.5s-69.5 -36.5 -121.5 -36.5s-92.5 12.5 -121.5 37.5
s-43.5 56.167 -43.5 93.5zM150 20c0 -8.66699 2.83301 -15.834 8.5 -21.501s12.834 -8.5 21.501 -8.5s15.834 2.83301 21.501 8.5s8.5 12.834 8.5 21.501s-2.83301 15.834 -8.5 21.501s-12.834 8.5 -21.501 8.5s-15.834 -2.83301 -21.501 -8.5s-8.5 -12.834 -8.5 -21.501z
" />
    <glyph glyph-name="seveninferior" unicode="&#x2087;" horiz-adv-x="315" 
d="M10 130v110h305v-110l-120 -230h-145l125 220v10h-165z" />
    <glyph glyph-name="eightinferior" unicode="&#x2088;" horiz-adv-x="390" 
d="M15 -10c0 27.333 13.333 49.666 40 66.999c12.667 7.33301 26 13.333 40 18v5c-12 4 -23 9.66699 -33 17c-21.333 16 -32 35.333 -32 58c0 27.333 13.5 50 40.5 68s68.5 27 124.5 27s97.5 -9 124.5 -27s40.5 -40.667 40.5 -68c0 -22 -11 -41.333 -33 -58
c-9.33301 -7.33301 -20 -13 -32 -17v-5c14 -4.66699 27.333 -10.667 40 -18c26.667 -17.333 40 -39.666 40 -66.999c0 -66.667 -60 -100 -180 -100s-180 33.333 -180 100zM165 132c0 -14.667 10 -22 30 -22s30 7.33301 30 22c0 15.333 -10 23 -30 23s-30 -7.66699 -30 -23z
M160 10c0 -16.667 11.667 -25 35 -25s35 8.33301 35 25s-11.667 25 -35 25s-35 -8.33301 -35 -25z" />
    <glyph glyph-name="nineinferior" unicode="&#x2089;" horiz-adv-x="360" 
d="M15 125c0 34.667 14.499 64.168 43.499 88.501s69.5 36.5 121.5 36.5s92.5 -12.5 121.5 -37.5s43.5 -56.167 43.5 -93.5c0 -40.667 -20 -83.667 -60 -129l-80 -90h-150l95 100l40 20v5c-6 -2.66699 -11.667 -4.33398 -17 -5.00098
c-13.333 -3.33301 -27.666 -5 -42.999 -5c-35.333 0 -63.333 10.167 -84 30.5s-31 46.833 -31 79.5zM149.999 120.001c0 -8.66699 2.83301 -15.834 8.5 -21.501s12.834 -8.5 21.501 -8.5s15.834 2.83301 21.501 8.5s8.5 12.834 8.5 21.501s-2.83301 15.834 -8.5 21.501
s-12.834 8.5 -21.501 8.5s-15.834 -2.83301 -21.501 -8.5s-8.5 -12.834 -8.5 -21.501z" />
    <glyph glyph-name="Euro" unicode="&#x20ac;" horiz-adv-x="895" 
d="M10 230l0.00195312 90.001h70c-1.33301 14.667 -2 24.667 -2 30s0.666992 15.333 2 30h-70v90h89c26 74.667 72.667 135 140 181s147.666 69 240.999 69c131.333 0 234.666 -48.333 309.999 -145c31.333 -42.667 54.666 -91 69.999 -145h-250
c-7.33301 17.333 -16.666 32.333 -27.999 45c-27.333 30 -63 45 -107 45c-28.667 0 -56.334 -8.33301 -83.001 -25c-10 -6.66699 -19 -15 -27 -25h115v-90h-150c-1.33301 -14.667 -2 -24.667 -2 -30s0.666992 -15.333 2 -30h150v-90h-115c8 -10 17 -18.333 27 -25
c24.667 -16.667 52.334 -25 83.001 -25c48 0 85.667 18.333 113 55c12 16 21 34.333 27 55h250c-15.333 -58.667 -39 -110.334 -71 -155.001c-75.333 -103.333 -180 -155 -314 -155c-94 0 -174.5 22.833 -241.5 68.5s-113.5 106.167 -139.5 181.5h-89z" />
    <glyph glyph-name="uni20B4" unicode="&#x20b4;" horiz-adv-x="730" 
d="M40 370l-0.000976562 89.999h365l7 11c5.33301 9.33301 8 19 8 29c0 13.333 -5.5 24.166 -16.5 32.499s-27.167 12.5 -48.5 12.5c-27.333 0 -48.666 -8.33301 -63.999 -25c-6 -7.33301 -9.66699 -15.666 -11 -24.999h-240c9.33301 42.667 27 80 53 112
c62 75.333 156 113 282 113c102 0 178.333 -16.167 229 -48.5s76 -71.166 76 -116.499c0 -21.333 -7.66699 -44 -23 -68c-8 -11.333 -15.333 -20.333 -22 -27h55v-90h-650zM39.999 239.999v90.001h650v-90h-365c-0.666992 -0.666992 -1.5 -1.66699 -2.5 -3
s-2 -2.83301 -3 -4.5s-1.83301 -2.83398 -2.5 -3.50098c-4.66699 -7.33301 -7 -17 -7 -29c0 -13.333 5.5 -24.166 16.5 -32.499s27.167 -12.5 48.5 -12.5c28.667 0 50 8.33301 64 25c6 7.33301 9.66699 15.666 11 24.999h240c-9.33301 -43.333 -27 -81 -53 -113
c-60 -74.667 -154 -112 -282 -112c-102 0 -178.333 16.167 -229 48.5s-76 71.166 -76 116.499c0 22.667 7.33301 45.334 22 68.001c8 11.333 15.667 20.333 23 27h-55z" />
    <glyph glyph-name="uni20BD" unicode="&#x20bd;" horiz-adv-x="765" 
d="M20 80v125h70v65h-70v130h70v300h375c89.333 0 157.5 -19.667 204.5 -59s70.5 -91.333 70.5 -156s-23.5 -116.667 -70.5 -156s-115.167 -59 -204.5 -59h-125v-65h190v-125h-190v-80h-250v80h-70zM340 400h75c46.667 0 70 23.333 70 70s-23.333 70 -70 70h-75v-140z" />
    <glyph glyph-name="afii61352" unicode="&#x2116;" horiz-adv-x="1195" 
d="M825 541c0 48 16.667 88.167 50 120.5s75 48.5 125 48.5s91.667 -16.167 125 -48.5s50 -72.5 50 -120.5s-16.667 -88.5 -50 -121.5s-75 -49.5 -125 -49.5s-91.667 16.5 -125 49.5s-50 73.5 -50 121.5zM60 0v700h290l155 -290l21 -40h9l-20 100v230h250v-700h-290
l-150 285l-25 45h-10l20 -95v-235h-250zM960 541c0 -11.333 3.83301 -21 11.5 -29s17.167 -12 28.5 -12s20.833 4 28.5 12s11.5 17.667 11.5 29c0 10.667 -3.83301 19.834 -11.5 27.501s-17.167 11.5 -28.5 11.5s-20.833 -3.83301 -28.5 -11.5s-11.5 -16.834 -11.5 -27.501z
M840 180v140h320v-140h-320z" />
    <glyph glyph-name="trademark" unicode="&#x2122;" horiz-adv-x="900" 
d="M395 380v320h190l45 -111h10l45 111h190v-320h-160v90l15 75h-10l-45 -95h-80l-45 95h-10l15 -76v-89h-160zM10 560v140h350v-140h-95v-180h-160v180h-95z" />
    <glyph glyph-name="arrowleft" unicode="&#x2190;" horiz-adv-x="900" 
d="M330 95l-230 245v25l230 245h30v-190h440v-135h-440v-190h-30z" />
    <glyph glyph-name="arrowup" unicode="&#x2191;" horiz-adv-x="900" 
d="M382 440h-190v30l245 230h25l245 -230v-30h-190v-440h-135v440z" />
    <glyph glyph-name="arrowright" unicode="&#x2192;" horiz-adv-x="900" 
d="M540 285h-440v135h440v190h30l230 -245v-25l-230 -245h-30v190z" />
    <glyph glyph-name="arrowdown" unicode="&#x2193;" horiz-adv-x="900" 
d="M437 0l-245 230v30h190v440h135v-440h190v-30l-245 -230h-25z" />
    <glyph glyph-name="uni2196" unicode="&#x2196;" horiz-adv-x="900" 
d="M210 275h-35v335l20 20h335v-35l-115 -112l312 -311l-96 -96l-311 311z" />
    <glyph glyph-name="uni2197" unicode="&#x2197;" horiz-adv-x="900" 
d="M269 76l-96 96l312 311l-115 112v35h335l20 -20v-335h-35l-110 112z" />
    <glyph glyph-name="uni2198" unicode="&#x2198;" horiz-adv-x="900" 
d="M482 245l-311 311l96 96l311 -312l112 115h35v-335l-20 -20h-335v35z" />
    <glyph glyph-name="uni2199" unicode="&#x2199;" horiz-adv-x="900" 
d="M195 100l-20 20v335h35l112 -115l311 312l96 -96l-311 -311l112 -110v-35h-335z" />
    <glyph glyph-name="minus" unicode="&#x2212;" horiz-adv-x="540" 
d="M40 180v180h460v-180h-460z" />
    <glyph glyph-name="approxequal" unicode="&#x2248;" horiz-adv-x="580" 
d="M50 295v60c0 42 11.833 75.833 35.5 101.5s53.5 38.5 89.5 38.5c15.333 0 30.833 -1.66699 46.5 -5s27 -6.5 34 -9.5s18.167 -8.16699 33.5 -15.5l25 -12c12 -5.33301 24 -8 36 -8c10 0 18.333 3.16699 25 9.5s10 14.833 10 25.5v15h145v-60
c0 -44.667 -11.167 -79.167 -33.5 -103.5s-52.833 -36.5 -91.5 -36.5c-15.333 0 -30.833 1.66699 -46.5 5s-27 6.5 -34 9.5s-18.167 8.16699 -33.5 15.5l-25 12c-12 5.33301 -24 8 -36 8c-10 0 -18.333 -3.16699 -25 -9.5s-10 -14.833 -10 -25.5v-15h-145zM50 55v60
c0 42 11.833 75.833 35.5 101.5s53.5 38.5 89.5 38.5c15.333 0 30.833 -1.66699 46.5 -5s27 -6.5 34 -9.5s18.167 -8.16699 33.5 -15.5l25 -12c12 -5.33301 24 -8 36 -8c10 0 18.333 3.16699 25 9.5s10 14.833 10 25.5v15h145v-60c0 -44.667 -11.167 -79.167 -33.5 -103.5
s-52.833 -36.5 -91.5 -36.5c-15.333 0 -30.833 1.66699 -46.5 5s-27 6.5 -34 9.5s-18.167 8.16699 -33.5 15.5l-25 12c-12 5.33301 -24 8 -36 8c-10 0 -18.333 -3.16699 -25 -9.5s-10 -14.833 -10 -25.5v-15h-145z" />
    <glyph glyph-name="notequal" unicode="&#x2260;" horiz-adv-x="540" 
d="M50 80v160h125l25 65h-150v160h215l30 80h160l-30 -80h65v-160h-130l-25 -65h155v-160h-215l-30 -80h-160l30 80h-65z" />
    <glyph glyph-name="lessequal" unicode="&#x2264;" horiz-adv-x="540" 
d="M40 280v210l450 135v-160l-280 -75v-10l280 -75v-160zM40 85v155l450 -145v-155z" />
    <glyph glyph-name="greaterequal" unicode="&#x2265;" horiz-adv-x="540" 
d="M50 145v160l280 75v10l-280 75v160l450 -135v-210zM50 -60v155l450 145v-155z" />
    <glyph glyph-name="commaaccent" unicode="&#xf6c3;" horiz-adv-x="255" 
d="M30 -135c0 26 8.83398 47.5 26.501 64.5s40.5 25.5 68.5 25.5c29.333 0 53.333 -11.5 72 -34.5s28 -56.5 28 -100.5c0 -47.333 -15.5 -85.833 -46.5 -115.5s-70.5 -44.5 -118.5 -44.5v65c22 0 40 6 54 18s21 26 21 42v10c-4.66699 -3.33301 -7.33398 -5 -8.00098 -5
c-5.33301 -3.33301 -12.666 -5 -21.999 -5c-22.667 0 -40.834 7 -54.501 21s-20.5 33.667 -20.5 59z" />
    <glyph glyph-name="cyrBreve" unicode="&#xf6d1;" horiz-adv-x="440" 
d="M30 920h140c0 -12 4.5 -21.667 13.5 -29s21.167 -11 36.5 -11s27.5 3.66699 36.5 11s13.5 17 13.5 29h140c0 -50.667 -16.833 -91.667 -50.5 -123s-80.167 -47 -139.5 -47s-105.833 15.667 -139.5 47s-50.5 72.333 -50.5 123z" />
    <glyph glyph-name="cyrbreve" unicode="&#xf6d4;" horiz-adv-x="390" 
d="M30 700h115c0 -12 4.5 -21.667 13.5 -29s21.167 -11 36.5 -11s27.5 3.66699 36.5 11s13.5 17 13.5 29h115c0 -46 -14.5 -82.5 -43.5 -109.5s-69.5 -40.5 -121.5 -40.5s-92.5 13.5 -121.5 40.5s-43.5 63.5 -43.5 109.5z" />
    <glyph glyph-name="zero.oldstyle" unicode="&#xf730;" 
d="M25 265c0 79.333 29.167 145.833 87.5 199.5s134.166 80.5 227.499 80.5c92.667 0 168.334 -26.833 227.001 -80.5s88 -120.167 88 -199.5s-29.333 -145.833 -88 -199.5s-134.334 -80.5 -227.001 -80.5c-93.333 0 -169.166 26.833 -227.499 80.5
s-87.5 120.167 -87.5 199.5zM260 265c0 -31.333 7.5 -55.833 22.5 -73.5s34.167 -26.5 57.5 -26.5s42.5 8.83301 57.5 26.5s22.5 42.167 22.5 73.5s-7.5 55.833 -22.5 73.5s-34.167 26.5 -57.5 26.5s-42.5 -8.83301 -57.5 -26.5s-22.5 -42.167 -22.5 -73.5z" />
    <glyph glyph-name="one.oldstyle" unicode="&#xf731;" horiz-adv-x="420" 
d="M30 230v205l145 95h200v-530h-230v305z" />
    <glyph glyph-name="two.oldstyle" unicode="&#xf732;" horiz-adv-x="600" 
d="M70 437c54.667 72 134.667 107.999 240 107.999c83.333 0 147.5 -17 192.5 -51s67.5 -75.333 67.5 -124c0 -58 -31.667 -108 -95 -150c-27.333 -18 -59 -33 -95 -45l-20 -5l-15 -5v-10l75 15h155v-170h-550v160l155 80c68.667 34.667 111.667 57.834 129 69.501
s26 23.167 26 34.5c0 7.33301 -3.5 13.5 -10.5 18.5s-16.833 7.5 -29.5 7.5c-22 0 -37.333 -6.66699 -46 -20c-4.66699 -6 -7.66699 -12.667 -9 -20h-215c7.33301 39.333 22.333 75 45 107z" />
    <glyph glyph-name="three.oldstyle" unicode="&#xf733;" horiz-adv-x="610" 
d="M5 25l225 -0.00292969c2.66699 -10.667 6.66699 -20 12 -28c10.667 -18 28.334 -27 53.001 -27c19.333 0 34.166 5 44.499 15s15.5 23.333 15.5 40c0 40 -23.333 60 -70 60h-109v175h104c40 0 60 18.333 60 55c0 17.333 -4.5 30.833 -13.5 40.5s-21.167 14.5 -36.5 14.5
c-20.667 0 -36 -8.33301 -46 -25c-4.66699 -6.66699 -7.66699 -15 -9 -25h-220c7.33301 42.667 22 80 44 112c54 75.333 136 113 246 113c87.333 0 154.166 -19 200.499 -57s69.5 -84 69.5 -138s-23.333 -97 -70 -129c-20.667 -13.333 -44 -23.666 -70 -30.999v-10
c28 -4.66699 53.667 -13.667 77 -27c52 -31.333 78 -78.666 78 -141.999s-24.833 -115.166 -74.5 -155.499s-121.5 -60.5 -215.5 -60.5c-117.333 0 -201.666 38.333 -252.999 115c-22.667 32.667 -36.667 71 -42 115z" />
    <glyph glyph-name="four.oldstyle" unicode="&#xf734;" horiz-adv-x="645" 
d="M15 0v190l200 340h250l-200 -340h70l70 120h150v-120h80v-190h-80v-190h-230v190h-310z" />
    <glyph glyph-name="five.oldstyle" unicode="&#xf735;" horiz-adv-x="645" 
d="M25 40l224.999 -0.000976562c2 -13.333 6 -24.333 12 -33c14.667 -21.333 34 -32 58 -32c20.667 0 37.5 7.16699 50.5 21.5s19.5 33.833 19.5 58.5c0 27.333 -6.5 48.333 -19.5 63s-29.833 22 -50.5 22c-18.667 0 -35.667 -8.33301 -51 -25
c-6 -7.33301 -10.667 -15.666 -14 -24.999h-205l20 440h510v-180h-304l-6 -95h10c8 8 17 14.667 27 20c23.333 13.333 52.666 20 87.999 20c68 0 123.333 -22 166 -66s64 -102 64 -174c0 -76.667 -26.667 -139.167 -80 -187.5s-126.666 -72.5 -219.999 -72.5
c-126 0 -213.667 40.667 -263 122c-21.333 35.333 -33.666 76.333 -36.999 123z" />
    <glyph glyph-name="six.oldstyle" unicode="&#xf736;" horiz-adv-x="655" 
d="M25 260c0 47.333 9.49902 92.668 28.499 136.001s56.167 101.333 111.5 174l100 130h255l-155 -195l-55 -35v-10c6.66699 3.33301 15.667 6.66602 27 9.99902c22.667 6.66699 45.334 10 68.001 10c67.333 0 122.5 -21.5 165.5 -64.5s64.5 -98.167 64.5 -165.5
c0 -74.667 -28.167 -137.5 -84.5 -188.5s-129.833 -76.5 -220.5 -76.5c-91.333 0 -165 26 -221 78s-84 117.667 -84 197zM259.999 240.002c0 -22 6.66699 -40 20 -54s30 -21 50 -21s36.667 7 50 21s20 32 20 54s-6.66699 40 -20 54s-30 21 -50 21s-36.667 -7 -50 -21
s-20 -32 -20 -54z" />
    <glyph glyph-name="seven.oldstyle" unicode="&#xf737;" horiz-adv-x="570" 
d="M15 340v190h545v-190l-230 -530h-235l230 520v10h-310z" />
    <glyph glyph-name="eight.oldstyle" unicode="&#xf738;" 
d="M20 190c0 58 25.667 105.332 77 141.999c24 16.667 50 29.334 78 38.001v10c-22 6 -43.667 16.333 -65 31c-43.333 30 -65 71.333 -65 124c0 52 25.167 95.833 75.5 131.5s123.5 53.5 219.5 53.5s169.167 -17.833 219.5 -53.5s75.5 -79.5 75.5 -131.5
c0 -51.333 -21.667 -92.666 -65 -123.999c-20.667 -14 -42.334 -24.333 -65.001 -31v-10c26.667 -8.66699 52.334 -21.334 77.001 -38.001c52 -38 78 -85.333 78 -142c0 -62 -26.667 -112.5 -80 -151.5s-133.333 -58.5 -240 -58.5s-186.667 19.5 -240 58.5
s-80 89.5 -80 151.5zM295 494.999c0 -36.667 15 -55 45 -55s45 18.333 45 55s-15 55 -45 55s-45 -18.333 -45 -55zM275 224.999c0 -24 6.16699 -42.5 18.5 -55.5s27.833 -19.5 46.5 -19.5s34.167 6.5 46.5 19.5s18.5 31.5 18.5 55.5s-6.16699 42.5 -18.5 55.5
s-27.833 19.5 -46.5 19.5s-34.167 -6.5 -46.5 -19.5s-18.5 -31.5 -18.5 -55.5z" />
    <glyph glyph-name="nine.oldstyle" unicode="&#xf739;" horiz-adv-x="655" 
d="M20 280c0 74.667 28.168 137.498 84.501 188.498s129.833 76.5 220.5 76.5c91.333 0 165 -26 221 -78s84 -117.667 84 -197c0 -45.333 -10.5 -92.166 -31.5 -140.499s-55.5 -104.833 -103.5 -169.5l-115 -150h-255l165 215l55 35v10
c-6 -3.33301 -15 -6.66602 -27 -9.99902c-22.667 -6.66699 -45.334 -10 -68.001 -10c-67.333 0 -122.5 21.5 -165.5 64.5s-64.5 98.167 -64.5 165.5zM255.001 289.998c0 -22 6.66699 -40 20 -54s30 -21 50 -21s36.667 7 50 21s20 32 20 54s-6.66699 40 -20 54s-30 21 -50 21
s-36.667 -7 -50 -21s-20 -32 -20 -54z" />
    <glyph glyph-name="nonmarkingreturn" horiz-adv-x="333" 
 />
    <glyph glyph-name="T_E" horiz-adv-x="770" 
d="M10 510v190h650v-190h-200v-55h270v-135h-270v-35h225v-115h-225v-35h270v-135h-520v510h-200z" />
    <glyph glyph-name="ecircumflex.sc" horiz-adv-x="630" 
d="M60 0v600h525v-170h-285v-50h225v-160h-225v-50h285v-170h-525zM135 685v6l110 149h150l110 -149v-6h-135l-40 60h-20l-40 -60h-135z" />
    <glyph glyph-name="guilsinglright.case" horiz-adv-x="435" 
d="M35 200l145 145l-145 145l125 125l260 -270l-260 -270z" />
    <glyph glyph-name="hyphen.case" horiz-adv-x="500" 
d="M40 275v180h420v-180h-420z" />
    <glyph glyph-name="endash.case" horiz-adv-x="800" 
d="M40 285v160h720v-160h-720z" />
    <glyph glyph-name="emdash.case" horiz-adv-x="980" 
d="M40 285v160h900v-160h-900z" />
    <glyph glyph-name="periodcentered.case" horiz-adv-x="280" 
d="M30 365c0 30 10.833 55.833 32.5 77.5s47.5 32.5 77.5 32.5c29.333 0 55 -11 77 -33s33 -47.667 33 -77c0 -30 -10.833 -55.833 -32.5 -77.5s-47.5 -32.5 -77.5 -32.5c-30.667 0 -56.667 10.667 -78 32s-32 47.333 -32 78z" />
    <glyph glyph-name="Iogonek.alt" horiz-adv-x="620" 
d="M35 0l-0.00195312 190.003h150v320h-150v190h550v-190h-150v-320h150v-190c-19.333 -14.667 -37.666 -30.667 -54.999 -48c-36.667 -36.667 -55 -67.334 -55 -92.001c0 -20 11.667 -30 35 -30c14 0 27 1.66699 39 5c4 0.666992 9.33301 2.33398 16 5.00098v-90
c-4.66699 -2.66699 -13 -6 -25 -10c-21.333 -6.66699 -44.666 -10 -69.999 -10c-41.333 0 -72.5 8.83301 -93.5 26.5s-31.5 42.167 -31.5 73.5c0 22 7.5 44.167 22.5 66.5s32.5 40.666 52.5 54.999s37.167 25.666 51.5 33.999s23.5 13.166 27.5 14.499h-464z" />
    <glyph glyph-name="gbreve.alt" horiz-adv-x="675" 
d="M-10 -35c0 42 20.666 78.333 61.999 109c17.333 12.667 38.333 23 63 31v120c-13.333 8.66699 -26 20 -38 34c-24.667 30 -37 63.667 -37 101c0 53.333 23.333 97.5 70 132.5s115 52.5 205 52.5c30 0 60.333 -2.66699 91 -8l34 -7h230v-145h-10l-75 20l-5 -5
c0.666992 -4.66699 2.33398 -10 5.00098 -16c3.33301 -10 5 -21.333 5 -34c0 -49.333 -23.5 -90.833 -70.5 -124.5s-115.167 -50.5 -204.5 -50.5c-11.333 0 -24.333 0.666992 -39 2l-16 3v-47c7.33301 0 13.333 0.333008 18 1c7.33301 0 13.333 0.333008 18 1h19
c111.333 0 193.333 -16.333 246 -49s79 -73 79 -121s-26.333 -88.333 -79 -121s-134.667 -49 -246 -49s-193.333 16.333 -246 49s-79 73 -79 121zM249.999 360c0 -16 6 -29.167 18 -39.5s27.667 -15.5 47 -15.5s35 5.16699 47 15.5s18 23.5 18 39.5s-6 29.167 -18 39.5
s-27.667 15.5 -47 15.5s-35 -5.16699 -47 -15.5s-18 -23.5 -18 -39.5zM219.999 -35c0 -26.667 31.667 -40 95 -40s95 13.333 95 40s-31.667 40 -95 40s-95 -13.333 -95 -40zM139.999 770h115c0 -12 4.5 -21.667 13.5 -29s21.167 -11 36.5 -11s27.5 3.66699 36.5 11
s13.5 17 13.5 29h115c0 -46 -14.5 -82.5 -43.5 -109.5s-69.5 -40.5 -121.5 -40.5s-92.5 13.5 -121.5 40.5s-43.5 63.5 -43.5 109.5z" />
    <glyph glyph-name="gcommaaccent.alt" horiz-adv-x="675" 
d="M215 745c0 47.333 15.499 85.833 46.499 115.5s70.5 44.5 118.5 44.5v-65c-22 0 -40 -6 -54 -18s-21 -26 -21 -42v-10l7 5c5.33301 3.33301 13 5 23 5c22.667 0 40.834 -7 54.501 -21s20.5 -33.667 20.5 -59c0 -26 -8.83301 -47.5 -26.5 -64.5s-40.5 -25.5 -68.5 -25.5
c-29.333 0 -53.333 11.5 -72 34.5s-28 56.5 -28 100.5zM-10.001 -35c0 42 20.666 78.333 61.999 109c17.333 12.667 38.333 23 63 31v120c-13.333 8.66699 -26 20 -38 34c-24.667 30 -37 63.667 -37 101c0 53.333 23.333 97.5 70 132.5s115 52.5 205 52.5
c30 0 60.333 -2.66699 91 -8l34 -7h230v-145h-10l-75 20l-5 -5c0.666992 -4.66699 2.33398 -10 5.00098 -16c3.33301 -10 5 -21.333 5 -34c0 -49.333 -23.5 -90.833 -70.5 -124.5s-115.167 -50.5 -204.5 -50.5c-11.333 0 -24.333 0.666992 -39 2l-16 3v-47
c7.33301 0 13.333 0.333008 18 1c7.33301 0 13.333 0.333008 18 1h19c111.333 0 193.333 -16.333 246 -49s79 -73 79 -121s-26.333 -88.333 -79 -121s-134.667 -49 -246 -49s-193.333 16.333 -246 49s-79 73 -79 121zM249.998 360c0 -16 6 -29.167 18 -39.5
s27.667 -15.5 47 -15.5s35 5.16699 47 15.5s18 23.5 18 39.5s-6 29.167 -18 39.5s-27.667 15.5 -47 15.5s-35 -5.16699 -47 -15.5s-18 -23.5 -18 -39.5zM219.998 -35c0 -26.667 31.667 -40 95 -40s95 13.333 95 40s-31.667 40 -95 40s-95 -13.333 -95 -40z" />
    <glyph glyph-name="afii10029.alt" horiz-adv-x="845" 
d="M0 5l-0.00195312 215l13 -3c10.667 -1.33301 21.334 -2 32.001 -2c38.667 0 65.834 10.5 81.501 31.5s23.5 60.5 23.5 118.5v335h635v-700h-250v480h-135v-130c0 -240 -100 -360 -300 -360c-28.667 0 -53 2.33301 -73 7c-15.333 4 -24.333 6.66699 -27 8z" />
    <glyph glyph-name="afii10077.alt" 
d="M5 5l0.000976562 190l10 -3c9.33301 -1.33301 17.666 -2 24.999 -2c18 0 30.833 4.83301 38.5 14.5s11.5 28.167 11.5 55.5v270h545v-530h-230v340h-90v-110c0 -78 -18 -137.5 -54 -178.5s-84.667 -61.5 -146 -61.5c-33.333 0 -61 2.33301 -83 7
c-15.333 4 -24.333 6.66699 -27 8z" />
    <glyph glyph-name="afii10028.alt" horiz-adv-x="775" 
d="M60 0v699.999h250v-235h90c23.333 0 35 11.667 35 35v45c0 56 14.667 97.5 44 124.5s76.333 40.5 141 40.5h120v-180h-30c-16.667 0 -25 -8.33301 -25 -25v-40c0 -34.667 -14.333 -61 -43 -79c-14 -8 -28 -13.333 -42 -16v-10c18 -3.33301 33.667 -8.66602 47 -15.999
c32 -20 48 -48 48 -84v-65c0 -16.667 8.33301 -25 25 -25h30v-180h-120c-64.667 0 -111.667 13.667 -141 41s-44 70.333 -44 129v50c0 23.333 -11.667 35 -35 35h-100v-245h-250z" />
    <glyph glyph-name="afii10076.alt" horiz-adv-x="655" 
d="M45 0v530h230v-170h55c20 0 30 10 30 30v40c0 33.333 11.333 60 34 80s54.667 30 96 30h135v-150h-20c-13.333 0 -20 -6.66699 -20 -20v-15c0 -28.667 -11.667 -50.667 -35 -66c-10 -6 -21.667 -10.667 -35 -14v-10c16 -3.33301 29.333 -8 40 -14
c26.667 -14.667 40 -36.667 40 -66v-25c0 -13.333 6.66699 -20 20 -20h20v-150h-135c-41.333 0 -73.333 10 -96 30s-34 46.667 -34 80v40c0 20 -10 30 -30 30h-65v-170h-230z" />
    </font>
</defs>
</svg>
