<svg width="28" height="28" viewBox="0 0 28 28" fill="none" xmlns="http://www.w3.org/2000/svg">
<path d="M10.5 11.6667H8.16667V14H10.5V11.6667ZM15.1667 11.6667H12.8333V14H15.1667V11.6667ZM19.8333 11.6667H17.5V14H19.8333V11.6667ZM22.1667 3.49999H21V1.16666H18.6667V3.49999H9.33333V1.16666H7V3.49999H5.83333C5.21449 3.49999 4.621 3.74582 4.18342 4.18341C3.74583 4.62099 3.5 5.21449 3.5 5.83332V22.1667C3.5 22.7855 3.74583 23.379 4.18342 23.8166C4.621 24.2542 5.21449 24.5 5.83333 24.5H22.1667C22.7855 24.5 23.379 24.2542 23.8166 23.8166C24.2542 23.379 24.5 22.7855 24.5 22.1667V5.83332C24.5 5.21449 24.2542 4.62099 23.8166 4.18341C23.379 3.74582 22.7855 3.49999 22.1667 3.49999ZM22.1667 22.1667H5.83333V9.33332H22.1667V22.1667Z" fill="black"/>
</svg>
