<svg width="16" height="16" viewBox="0 0 16 16" fill="none" xmlns="http://www.w3.org/2000/svg">
<path d="M8.00368 3.95708C5.73225 3.95708 3.90011 5.76059 3.90011 7.99653C3.90011 10.2325 5.73225 12.036 8.00368 12.036C10.2751 12.036 12.1073 10.2325 12.1073 7.99653C12.1073 5.76059 10.2751 3.95708 8.00368 3.95708ZM8.00368 10.6227C6.53583 10.6227 5.33583 9.44497 5.33583 7.99653C5.33583 6.54809 6.53225 5.37036 8.00368 5.37036C9.47511 5.37036 10.6715 6.54809 10.6715 7.99653C10.6715 9.44497 9.47154 10.6227 8.00368 10.6227ZM13.2322 3.79184C13.2322 4.31567 12.8037 4.73403 12.2751 4.73403C11.743 4.73403 11.318 4.31216 11.318 3.79184C11.318 3.27153 11.7465 2.84966 12.2751 2.84966C12.8037 2.84966 13.2322 3.27153 13.2322 3.79184ZM15.9501 4.74809C15.8894 3.48598 15.5965 2.36802 14.6572 1.44692C13.7215 0.52583 12.5858 0.237549 11.3037 0.174268C9.98225 0.100439 6.02154 0.100439 4.70011 0.174268C3.42154 0.234033 2.28583 0.522314 1.34654 1.44341C0.407258 2.3645 0.117972 3.48247 0.0536865 4.74458C-0.0213135 6.04536 -0.0213135 9.94418 0.0536865 11.245C0.114401 12.5071 0.407258 13.625 1.34654 14.5461C2.28583 15.4672 3.41797 15.7555 4.70011 15.8188C6.02154 15.8926 9.98225 15.8926 11.3037 15.8188C12.5858 15.759 13.7215 15.4707 14.6572 14.5461C15.593 13.625 15.8858 12.5071 15.9501 11.245C16.0251 9.94418 16.0251 6.04887 15.9501 4.74809ZM14.243 12.6407C13.9644 13.3297 13.4251 13.8606 12.7215 14.1383C11.668 14.5497 9.16797 14.4547 8.00368 14.4547C6.8394 14.4547 4.33583 14.5461 3.28583 14.1383C2.58583 13.8641 2.04654 13.3332 1.7644 12.6407C1.34654 11.6036 1.44297 9.14262 1.44297 7.99653C1.44297 6.85044 1.35011 4.38598 1.7644 3.35239C2.04297 2.66333 2.58226 2.13247 3.28583 1.85474C4.3394 1.44341 6.8394 1.53833 8.00368 1.53833C9.16797 1.53833 11.6715 1.44692 12.7215 1.85474C13.4215 2.12895 13.9608 2.65981 14.243 3.35239C14.6608 4.3895 14.5644 6.85044 14.5644 7.99653C14.5644 9.14262 14.6608 11.6071 14.243 12.6407Z" fill="#0E0F1D"/>
</svg>
