<svg width="28" height="28" viewBox="0 0 28 28" fill="none" xmlns="http://www.w3.org/2000/svg">
<path d="M21.875 11.375C21.875 9.28642 21.0453 7.28338 19.5685 5.80653C18.0916 4.32968 16.0886 3.5 14 3.5C11.9114 3.5 9.90838 4.32968 8.43153 5.80653C6.95468 7.28338 6.125 9.28642 6.125 11.375C6.125 14.6055 8.70975 18.816 14 23.8595C19.2902 18.816 21.875 14.6055 21.875 11.375ZM14 26.25C7.58275 20.4172 4.375 15.4578 4.375 11.375C4.375 8.82229 5.38906 6.37414 7.1941 4.5691C8.99914 2.76406 11.4473 1.75 14 1.75C16.5527 1.75 19.0009 2.76406 20.8059 4.5691C22.6109 6.37414 23.625 8.82229 23.625 11.375C23.625 15.4578 20.4172 20.4172 14 26.25Z" fill="black"/>
<path d="M14 12.25C14.4641 12.25 14.9092 12.0656 15.2374 11.7374C15.5656 11.4092 15.75 10.9641 15.75 10.5C15.75 10.0359 15.5656 9.59075 15.2374 9.26256C14.9092 8.93437 14.4641 8.75 14 8.75C13.5359 8.75 13.0908 8.93437 12.7626 9.26256C12.4344 9.59075 12.25 10.0359 12.25 10.5C12.25 10.9641 12.4344 11.4092 12.7626 11.7374C13.0908 12.0656 13.5359 12.25 14 12.25ZM14 14C13.0717 14 12.1815 13.6313 11.5251 12.9749C10.8687 12.3185 10.5 11.4283 10.5 10.5C10.5 9.57174 10.8687 8.6815 11.5251 8.02513C12.1815 7.36875 13.0717 7 14 7C14.9283 7 15.8185 7.36875 16.4749 8.02513C17.1313 8.6815 17.5 9.57174 17.5 10.5C17.5 11.4283 17.1313 12.3185 16.4749 12.9749C15.8185 13.6313 14.9283 14 14 14ZM23.45 19.25L26.25 26.25H18.375V24.5H9.625V26.25H1.75L4.55 19.25H23.45ZM21.5653 19.25H6.43475L4.33475 24.5H23.6652L21.5653 19.25Z" fill="black"/>
</svg>
