<svg width="163" height="57" viewBox="0 0 163 57" fill="none" xmlns="http://www.w3.org/2000/svg">
<path d="M17.5625 41.6406C17.5312 41.7344 17.5 41.8438 17.4688 41.9688C17.4688 42.0625 17.4531 42.1562 17.4219 42.25C17.3906 42.375 17.3438 42.4844 17.2812 42.5781C17.1562 42.6406 17.0312 42.7188 16.9062 42.8125C16.7188 42.9688 16.5469 43.0781 16.3906 43.1406C16.2031 43.2344 15.9688 43.2969 15.6875 43.3281C15.2812 43.4219 15.0781 43.4688 15.0781 43.4688C14.7969 43.5 14.6094 43.5156 14.5156 43.5156C14.4219 43.4844 14.3438 43.4688 14.2812 43.4688C14.0312 43.4062 13.8906 43.375 13.8594 43.375H13.7656C13.4844 43.4062 13.2344 43.3594 13.0156 43.2344C12.7656 43.1719 12.5938 43.1406 12.5 43.1406C12.4062 43.1406 12.2812 43.1094 12.125 43.0469L11.7031 42.7188C11.2969 42.5312 10.9062 42.3438 10.5312 42.1562C10.1562 41.9688 9.875 41.7812 9.6875 41.5938C9.46875 41.4688 9.21875 41.3125 8.9375 41.125C8.6875 40.9062 8.5 40.7344 8.375 40.6094C8.3125 40.5469 8.25 40.4844 8.1875 40.4219C8.15625 40.3281 8.125 40.25 8.09375 40.1875L8 40C8 39.9375 7.98438 39.8438 7.95312 39.7188C7.92188 39.625 7.89062 39.5312 7.85938 39.4375C7.82812 39.3438 7.79688 39.25 7.76562 39.1562C7.76562 38.9375 7.73438 38.7344 7.67188 38.5469C7.64062 38.3594 7.57812 38.1406 7.48438 37.8906C7.35938 37.5781 7.28125 37.3438 7.25 37.1875C7.1875 37.0312 7.14062 36.8906 7.10938 36.7656C7.10938 36.6406 7.09375 36.5312 7.0625 36.4375L6.96875 35.5C6.90625 35.3438 6.85938 35.2031 6.82812 35.0781C6.82812 34.9219 6.82812 34.7656 6.82812 34.6094C6.76562 34.3906 6.71875 34.1875 6.6875 34C6.6875 33.8125 6.67188 33.6562 6.64062 33.5312C6.60938 33.4062 6.59375 33.2812 6.59375 33.1562V32.3125L6.45312 31.6094C6.39062 31.4531 6.35938 31.2969 6.35938 31.1406C6.35938 30.9531 6.35938 30.7812 6.35938 30.625C6.35938 30.5312 6.35938 30.4375 6.35938 30.3438C6.35938 30.2188 6.34375 30.1094 6.3125 30.0156C6.28125 29.8594 6.25 29.7344 6.21875 29.6406C6.21875 29.5469 6.21875 29.4375 6.21875 29.3125C6.1875 28.9688 6.17188 28.7344 6.17188 28.6094C6.17188 28.4531 6.17188 28.3125 6.17188 28.1875V27.5781C6.29688 26.9531 6.32812 26.4844 6.26562 26.1719C6.23438 25.8281 6.25 25.4844 6.3125 25.1406C6.3125 25.0156 6.32812 24.8594 6.35938 24.6719C6.39062 24.4844 6.42188 24.3125 6.45312 24.1562C6.48438 23.9688 6.51562 23.7656 6.54688 23.5469L6.17188 23.4531C5.92188 23.3906 5.76562 23.3594 5.70312 23.3594H5.14062C5.07812 23.3906 5 23.4219 4.90625 23.4531C4.84375 23.4531 4.73438 23.4531 4.57812 23.4531H3.92188C3.60938 23.3906 3.39062 23.3594 3.26562 23.3594C3.10938 23.3594 3 23.3594 2.9375 23.3594C2.59375 23.3594 2.34375 23.3281 2.1875 23.2656C2.09375 23.2031 1.98438 23.1562 1.85938 23.125C1.73438 23.0625 1.59375 23 1.4375 22.9375C1.28125 22.875 1.15625 22.7656 1.0625 22.6094C0.9375 22.4531 0.8125 22.2031 0.6875 21.8594C0.71875 21.7969 0.734375 21.7344 0.734375 21.6719C0.703125 21.6094 0.6875 21.5469 0.6875 21.4844C0.65625 21.4219 0.640625 21.3594 0.640625 21.2969C0.703125 21.1094 0.78125 20.9375 0.875 20.7812C0.9375 20.625 1.01562 20.4844 1.10938 20.3594C1.20312 20.2344 1.32812 20.1406 1.48438 20.0781C1.70312 19.7656 1.96875 19.6094 2.28125 19.6094C2.59375 19.5781 2.8125 19.5625 2.9375 19.5625C3.03125 19.5625 3.10938 19.5781 3.17188 19.6094C3.64062 19.6094 3.95312 19.625 4.10938 19.6562C4.29688 19.6562 4.46875 19.6562 4.625 19.6562C4.875 19.5938 5.04688 19.5625 5.14062 19.5625C5.26562 19.5312 5.40625 19.5312 5.5625 19.5625C5.59375 19.5625 5.67188 19.5781 5.79688 19.6094C5.95312 19.6094 6.10938 19.6094 6.26562 19.6094H6.875C6.9375 19.2031 7 18.8281 7.0625 18.4844C7.125 18.1719 7.1875 17.875 7.25 17.5938C7.3125 17.2812 7.375 17.0469 7.4375 16.8906C7.375 16.6406 7.375 16.3906 7.4375 16.1406C7.46875 16.0469 7.48438 15.9531 7.48438 15.8594C7.48438 15.7656 7.5 15.6875 7.53125 15.625C7.59375 15.3125 7.64062 15.0937 7.67188 14.9688C7.70312 14.8438 7.73438 14.7344 7.76562 14.6406C7.79688 14.5781 7.8125 14.5 7.8125 14.4062C7.84375 14.3125 7.875 14.1406 7.90625 13.8906C8.0625 13.7969 8.15625 13.7188 8.1875 13.6562C8.21875 13.5937 8.25 13.4375 8.28125 13.1875C8.5 13.0312 8.625 12.9375 8.65625 12.9062C8.71875 12.875 8.76562 12.8437 8.79688 12.8125C8.95312 12.6562 9.0625 12.5625 9.125 12.5312C9.1875 12.4687 9.23438 12.4375 9.26562 12.4375C9.89062 12.2812 10.4062 12.3125 10.8125 12.5312C11.2188 12.75 11.4531 12.9219 11.5156 13.0469C11.5781 13.1719 11.625 13.2812 11.6562 13.375C11.6875 13.4688 11.7188 13.5469 11.75 13.6094L11.7969 15.2969C11.7031 15.6719 11.6562 15.8594 11.6562 15.8594L11.5625 16.4219C11.5 16.6406 11.4688 16.7969 11.4688 16.8906C11.4688 16.9844 11.4688 17.0781 11.4688 17.1719C11.4375 17.2969 11.4219 17.4219 11.4219 17.5469C11.4219 17.6719 11.3906 17.7969 11.3281 17.9219C11.2031 18.3594 11.125 18.7656 11.0938 19.1406C11.0625 19.3594 11.0312 19.5781 11 19.7969C11.3125 19.8281 11.625 19.8438 11.9375 19.8438C12.1875 19.875 12.4375 19.8906 12.6875 19.8906C12.9375 19.8906 13.1094 19.8906 13.2031 19.8906C13.2969 19.8906 13.4062 19.9062 13.5312 19.9375C13.6562 19.9375 13.7812 19.9375 13.9062 19.9375C14 19.9688 14.125 20 14.2812 20.0312C14.4375 20.0312 14.5938 20.0781 14.75 20.1719C14.9688 20.3281 15.1094 20.4375 15.1719 20.5C15.2344 20.5312 15.2969 20.5781 15.3594 20.6406L15.7344 21.0625C16.0781 21.4688 16.2188 21.8594 16.1562 22.2344C16.125 22.6094 16.0312 22.9062 15.875 23.125C15.7812 23.1875 15.6406 23.2812 15.4531 23.4062C15.2969 23.5 15.1094 23.6094 14.8906 23.7344C14.6719 23.8281 14.4531 23.9219 14.2344 24.0156C14.0469 24.0781 13.8906 24.1094 13.7656 24.1094C13.6719 24.1094 13.4062 24.0938 12.9688 24.0625C12.5625 24.0312 12.2188 23.9844 11.9375 23.9219C11.6875 23.9844 11.4531 23.9844 11.2344 23.9219C11.1406 23.9219 10.9688 23.8906 10.7188 23.8281C10.5938 24.1719 10.5312 24.4219 10.5312 24.5781C10.4688 24.7656 10.4375 24.9531 10.4375 25.1406C10.4375 25.2969 10.4375 25.4531 10.4375 25.6094C10.4062 25.7656 10.375 25.9219 10.3438 26.0781C10.3438 26.2031 10.3125 26.3281 10.25 26.4531C10.25 26.8281 10.25 27.125 10.25 27.3438C10.25 27.5312 10.25 27.7031 10.25 27.8594C10.2812 28.0156 10.2969 28.1719 10.2969 28.3281C10.3281 28.4531 10.3438 28.6562 10.3438 28.9375C10.375 29.0312 10.4062 29.1719 10.4375 29.3594C10.4688 29.5469 10.4844 29.7656 10.4844 30.0156C10.5156 30.2344 10.5312 30.4531 10.5312 30.6719C10.5312 30.8594 10.5312 31 10.5312 31.0938L10.6719 31.9844C10.6719 32.1094 10.6719 32.2188 10.6719 32.3125C10.7031 32.4062 10.7188 32.5 10.7188 32.5938C10.75 32.7188 10.7656 32.9062 10.7656 33.1562C10.7969 33.4062 10.8125 33.5781 10.8125 33.6719C10.8125 33.7344 10.8125 33.7812 10.8125 33.8125C10.875 34.0312 10.9062 34.1875 10.9062 34.2812C10.9375 34.375 10.9531 34.4688 10.9531 34.5625L11.0469 35.1719C11.1094 35.3906 11.2031 35.5781 11.3281 35.7344L11.4219 36.25C11.4531 36.375 11.4688 36.4844 11.4688 36.5781C11.5 36.6719 11.5312 36.7812 11.5625 36.9062C11.5938 36.9688 11.6094 37.0469 11.6094 37.1406C11.6406 37.2344 11.7031 37.375 11.7969 37.5625C11.9531 37.8125 12.0938 38 12.2188 38.125C12.375 38.25 12.5 38.3906 12.5938 38.5469C12.9062 38.7031 13.1406 38.8125 13.2969 38.875C13.4531 38.9062 13.6094 38.9531 13.7656 39.0156C13.9219 39.0781 14.0312 39.1406 14.0938 39.2031C14.1875 39.2656 14.2969 39.3281 14.4219 39.3906C14.5469 39.4219 14.6875 39.4531 14.8438 39.4844C15 39.4844 15.1562 39.5 15.3125 39.5312C15.5312 39.5625 15.7344 39.5938 15.9219 39.625C16.1406 39.6562 16.375 39.7031 16.625 39.7656C16.7812 39.9219 16.8906 40.0312 16.9531 40.0938C17.0156 40.125 17.0781 40.1719 17.1406 40.2344C17.2031 40.2969 17.2656 40.3594 17.3281 40.4219C17.3906 40.4844 17.4531 40.5781 17.5156 40.7031C17.5781 40.9219 17.6094 41.1094 17.6094 41.2656C17.6094 41.3906 17.5938 41.5156 17.5625 41.6406ZM24.8281 17.9688C24.7344 18.2188 24.6719 18.3906 24.6406 18.4844C24.6406 18.5781 24.6406 18.6562 24.6406 18.7188C24.5156 19.0625 24.4375 19.3125 24.4062 19.4688C24.375 19.5938 24.3281 19.7188 24.2656 19.8438C24.1406 20.125 24.0625 20.2969 24.0312 20.3594C24 20.4219 23.9688 20.4688 23.9375 20.5C23.4375 20.75 23.0938 20.875 22.9062 20.875C22.7188 20.875 22.5469 20.8594 22.3906 20.8281C22.2656 20.8281 22.125 20.8281 21.9688 20.8281C21.8438 20.7969 21.6406 20.7969 21.3594 20.8281C21.1719 20.6406 21.0469 20.5156 20.9844 20.4531C20.9531 20.3594 20.9062 20.2812 20.8438 20.2188C20.75 20.0625 20.6719 19.9688 20.6094 19.9375C20.5469 19.9062 20.4375 19.8594 20.2812 19.7969C20.25 19.5469 20.2188 19.375 20.1875 19.2812C20.1562 19.1875 20.125 19.1094 20.0938 19.0469C20.0312 18.9844 19.9688 18.8906 19.9062 18.7656C19.875 18.6094 19.7812 18.3281 19.625 17.9219C19.8125 17.6719 19.9531 17.4688 20.0469 17.3125C20.1406 17.1562 20.2656 17.0156 20.4219 16.8906C20.6406 16.7344 20.8281 16.625 20.9844 16.5625C21.1406 16.4688 21.2656 16.3906 21.3594 16.3281C21.5156 16.2656 21.625 16.2031 21.6875 16.1406C21.7812 16.0469 21.875 15.9531 21.9688 15.8594C22.2188 15.9219 22.4062 15.9375 22.5312 15.9062C22.6562 15.875 22.7969 15.875 22.9531 15.9062C23.7031 16.1562 24.2031 16.5469 24.4531 17.0781L24.8281 17.9688ZM28.3438 41.6875C28.2812 41.8438 28.25 41.9531 28.25 42.0156C28.25 42.0469 28.25 42.125 28.25 42.25C28.0625 42.5 27.9062 42.6875 27.7812 42.8125C27.6562 42.9062 27.5469 42.9844 27.4531 43.0469C26.8594 43.2344 26.3906 43.3438 26.0469 43.375C25.7344 43.4062 25.4531 43.4219 25.2031 43.4219C24.9531 43.4531 24.75 43.4531 24.5938 43.4219C24.4688 43.3906 24.3281 43.3594 24.1719 43.3281C23.8594 43.3906 23.6562 43.4375 23.5625 43.4688C23.5 43.4688 23.4375 43.4688 23.375 43.4688C23.3125 43.5 23.25 43.5156 23.1875 43.5156C23.1562 43.4844 23.1094 43.4688 23.0469 43.4688C22.9844 43.4688 22.9375 43.4531 22.9062 43.4219H22.5781C22.4844 43.4219 22.3906 43.4219 22.2969 43.4219C22.2344 43.3906 22.1875 43.375 22.1562 43.375C21.8125 43.4062 21.5156 43.3438 21.2656 43.1875C21.0156 43.0625 20.8906 42.9844 20.8906 42.9531C20.8594 42.9219 20.8281 42.9062 20.7969 42.9062C20.5469 42.6562 20.3906 42.5 20.3281 42.4375C20.2969 42.3438 20.2656 42.2812 20.2344 42.25C20.1719 42.1562 20.125 42.0781 20.0938 42.0156C20.0625 41.9219 20.0312 41.8438 20 41.7812C19.875 41.4375 19.8281 41.1562 19.8594 40.9375C19.8906 40.6875 20.0781 40.3906 20.4219 40.0469C20.6719 39.9844 20.8281 39.9219 20.8906 39.8594C20.9844 39.7656 21.0625 39.7188 21.125 39.7188C21.1875 39.6562 21.2969 39.625 21.4531 39.625C21.6406 39.625 21.7812 39.6094 21.875 39.5781C21.8125 39.2969 21.7812 38.9375 21.7812 38.5C21.8125 38.0312 21.8438 37.6875 21.875 37.4688C21.7812 37.3125 21.7188 37.0469 21.6875 36.6719C21.6562 36.4844 21.625 36.25 21.5938 35.9688C21.5625 35.7812 21.5469 35.6094 21.5469 35.4531C21.5469 35.2969 21.5312 35.1719 21.5 35.0781C21.5 34.9844 21.5 34.9062 21.5 34.8438C21.4688 34.5625 21.4531 34.2812 21.4531 34C21.4844 33.7188 21.5 33.4375 21.5 33.1562C21.5312 33.0312 21.5312 32.9375 21.5 32.875C21.5 32.8125 21.4688 32.7031 21.4062 32.5469C21.4688 32.2969 21.5 32.125 21.5 32.0312C21.5312 31.9062 21.5469 31.7969 21.5469 31.7031C21.5156 31.5781 21.4844 31.4531 21.4531 31.3281C21.4531 31.2031 21.4219 31.0469 21.3594 30.8594C21.3906 30.7031 21.4062 30.5781 21.4062 30.4844C21.4375 30.3906 21.4531 30.3125 21.4531 30.25C21.3906 29.9688 21.375 29.7656 21.4062 29.6406C21.4062 29.3281 21.3906 29.0625 21.3594 28.8438C21.3281 28.5938 21.3281 28.375 21.3594 28.1875L21.4062 27.5312C21.2188 27.625 21.0156 27.6719 20.7969 27.6719C20.5781 27.6719 20.3594 27.6875 20.1406 27.7188C19.8906 27.75 19.7344 27.7188 19.6719 27.625C19.6406 27.5 19.5469 27.4375 19.3906 27.4375C19.3281 27.375 19.2812 27.3281 19.25 27.2969C19.2188 27.2344 19.1719 27.1875 19.1094 27.1562C19.0469 27.125 19 27.0938 18.9688 27.0625L18.7812 26.875C18.6562 26.75 18.5938 26.6562 18.5938 26.5938C18.4375 26.3438 18.3594 26.1875 18.3594 26.125C18.3594 26.0312 18.375 25.9531 18.4062 25.8906C18.4375 25.6719 18.4531 25.5 18.4531 25.375C18.4844 25.2188 18.5625 25.0469 18.6875 24.8594C18.8438 24.7656 18.9531 24.7031 19.0156 24.6719C19.1094 24.6406 19.1875 24.5938 19.25 24.5312C19.2812 24.5 19.3281 24.4688 19.3906 24.4375L19.6719 24.2969C19.7969 24.2344 19.9219 24.1562 20.0469 24.0625L21.125 23.8281C21.1875 23.7969 21.2812 23.7656 21.4062 23.7344C21.4688 23.7031 21.5469 23.6719 21.6406 23.6406C21.7656 23.6094 21.8594 23.5781 21.9219 23.5469H22.4844C22.5781 23.5156 22.6875 23.5 22.8125 23.5C22.9688 23.4688 23.1406 23.4688 23.3281 23.5C23.4844 23.5 23.625 23.5156 23.75 23.5469C23.9062 23.5469 24.0469 23.5781 24.1719 23.6406C24.3281 23.7344 24.4219 23.7969 24.4531 23.8281C24.4844 23.8594 24.5625 23.9062 24.6875 23.9688C24.8438 24.3438 24.9219 24.6719 24.9219 24.9531C24.9531 25.2031 24.9531 25.4375 24.9219 25.6562C24.8594 25.9062 24.8281 26.0938 24.8281 26.2188C24.8281 26.6562 24.8438 26.9688 24.875 27.1562C24.9062 27.3125 24.9375 27.4844 24.9688 27.6719C25 27.8281 25.0156 28.0625 25.0156 28.375V29.0781C24.9844 29.3281 24.9688 29.5312 24.9688 29.6875C24.9688 29.8125 24.9688 29.9062 24.9688 29.9688C25.0312 30.0625 25.0781 30.1562 25.1094 30.25C25.1406 30.3125 25.1719 30.4219 25.2031 30.5781C25.2031 30.8281 25.1719 31.0781 25.1094 31.3281C25.0781 31.5781 25.0625 31.75 25.0625 31.8438C25.0625 31.9062 25.0781 32 25.1094 32.125C25.1406 32.25 25.1719 32.3906 25.2031 32.5469C25.2344 32.6719 25.25 32.8281 25.25 33.0156C25.1875 33.3281 25.1562 33.4688 25.1562 33.4375V33.5312C25.0625 33.9688 25.0469 34.2812 25.1094 34.4688C25.1406 34.625 25.1719 34.7656 25.2031 34.8906C25.2656 35.0156 25.2969 35.1406 25.2969 35.2656C25.3281 35.3906 25.3438 35.5625 25.3438 35.7812C25.4062 36.1562 25.4375 36.4062 25.4375 36.5312C25.4375 36.6562 25.4375 36.75 25.4375 36.8125V37.4219C25.6562 37.8281 25.7188 38.1875 25.625 38.5C25.7188 38.875 25.75 39.2188 25.7188 39.5312C25.7812 39.5312 25.8594 39.5312 25.9531 39.5312C26.0781 39.5312 26.1875 39.5625 26.2812 39.625C26.4375 39.625 26.5938 39.6406 26.75 39.6719C26.9062 39.7031 27.0625 39.75 27.2188 39.8125C27.375 39.875 27.5312 39.9219 27.6875 39.9531C27.75 40.0156 27.8281 40.1094 27.9219 40.2344C27.9844 40.3281 28.0469 40.4375 28.1094 40.5625C28.1719 40.6562 28.2344 40.7344 28.2969 40.7969C28.3594 40.9844 28.3906 41.1562 28.3906 41.3125C28.3906 41.4688 28.375 41.5938 28.3438 41.6875ZM50.75 26.875C50.875 27.1875 50.875 27.4844 50.75 27.7656C50.6562 28.0156 50.5625 28.2812 50.4688 28.5625C50.3125 28.6562 50.2031 28.7344 50.1406 28.7969C50.0781 28.8594 49.9844 28.9688 49.8594 29.125C49.7031 29.1875 49.5781 29.2656 49.4844 29.3594C49.3906 29.4219 49.2656 29.5312 49.1094 29.6875C48.8594 29.7188 48.6406 29.8125 48.4531 29.9688L47.6562 30.25C47.3438 30.3125 47.1562 30.3594 47.0938 30.3906C47.0312 30.3906 46.9844 30.4062 46.9531 30.4375C46.8594 30.5 46.7656 30.5469 46.6719 30.5781C46.5781 30.5781 46.5 30.5938 46.4375 30.625C46 30.7812 45.7344 30.875 45.6406 30.9062C45.5469 30.9375 45.4688 30.9688 45.4062 31C45.1875 31.0625 44.9531 31.1562 44.7031 31.2812C44.4531 31.375 44.2031 31.3906 43.9531 31.3281C43.6406 31.2656 43.375 31.125 43.1562 30.9062C43.0625 30.875 42.9531 30.8438 42.8281 30.8125C42.7031 30.75 42.5781 30.6406 42.4531 30.4844C42.2656 30.1719 42.1719 29.9375 42.1719 29.7812C42.0781 29.4375 42.0781 29.125 42.1719 28.8438L42.4062 28.375C42.5312 28.3125 42.6406 28.2656 42.7344 28.2344C42.8281 28.1719 42.9062 28.1094 42.9688 28.0469C43.0625 28.0156 43.1406 27.9844 43.2031 27.9531L43.7656 27.5312C43.6406 27.4375 43.5 27.3438 43.3438 27.25C43.1875 27.1875 43.0156 27.125 42.8281 27.0625C42.6719 26.9688 42.5 26.9062 42.3125 26.875C42.1562 26.875 42.0156 26.8594 41.8906 26.8281C41.7969 26.7969 41.6875 26.75 41.5625 26.6875C41.2812 26.7188 41.0781 26.75 40.9531 26.7812C40.8281 26.7812 40.7188 26.7812 40.625 26.7812C40.625 26.7812 40.5156 26.8125 40.2969 26.875L40.0156 26.9688H39.7344C39.6719 26.9688 39.5781 26.9844 39.4531 27.0156C39.3594 27.0469 39.2812 27.0781 39.2188 27.1094C38.9688 27.1719 38.8125 27.2344 38.75 27.2969C38.7188 27.3281 38.6719 27.3594 38.6094 27.3906C38.4531 27.4531 38.3281 27.5 38.2344 27.5312C38.1406 27.5625 38.0625 27.6094 38 27.6719C37.8438 27.7969 37.7188 27.8906 37.625 27.9531C37.5625 27.9844 37.5 28.0156 37.4375 28.0469C37.0312 28.2656 36.75 28.4531 36.5938 28.6094C36.4688 28.7656 36.375 28.9219 36.3125 29.0781L35.5625 30.0625C35.4062 30.3125 35.2969 30.4688 35.2344 30.5312C35.2031 30.5938 35.1719 30.6406 35.1406 30.6719C34.9219 31.1094 34.7812 31.3906 34.7188 31.5156C34.6875 31.6094 34.6719 31.6875 34.6719 31.75C34.6406 31.875 34.625 32.0156 34.625 32.1719C34.625 32.3281 34.6094 32.5312 34.5781 32.7812C34.5156 33.0312 34.4688 33.1875 34.4375 33.25C34.4375 33.3125 34.4375 33.375 34.4375 33.4375C34.375 33.6562 34.3438 33.8125 34.3438 33.9062C34.375 33.9688 34.3906 34.0312 34.3906 34.0938C34.3281 34.3438 34.2969 34.5156 34.2969 34.6094C34.3281 34.6719 34.375 34.7812 34.4375 34.9375C34.3438 35.125 34.3281 35.375 34.3906 35.6875C34.4219 35.8438 34.4531 36.0156 34.4844 36.2031C34.5156 36.4219 34.5625 36.625 34.625 36.8125C34.6875 36.9688 34.7344 37.1406 34.7656 37.3281C34.7969 37.5156 34.8438 37.6406 34.9062 37.7031C35.0938 37.9844 35.2188 38.2031 35.2812 38.3594C35.3438 38.5156 35.4062 38.6719 35.4688 38.8281C35.6875 39.1094 35.8438 39.3125 35.9375 39.4375C36.0625 39.5625 36.1875 39.6562 36.3125 39.7188C36.4688 39.8125 36.6094 39.9062 36.7344 40C36.8594 40.0625 37 40.125 37.1562 40.1875C37.4062 40.2812 37.5625 40.3438 37.625 40.375C37.7188 40.375 37.7969 40.375 37.8594 40.375C38.0781 40.4375 38.2812 40.4844 38.4688 40.5156C38.6562 40.5156 38.8438 40.5312 39.0312 40.5625C39.1875 40.5938 39.3438 40.625 39.5 40.6562C39.6875 40.6562 39.875 40.6562 40.0625 40.6562C40.2188 40.625 40.3438 40.5938 40.4375 40.5625C40.5312 40.5312 40.6719 40.5 40.8594 40.4688H41.5156C41.7031 40.4062 41.8438 40.375 41.9375 40.375C42.0625 40.375 42.1562 40.3594 42.2188 40.3281C42.2812 40.3281 42.3281 40.3125 42.3594 40.2812C42.5156 40.2188 42.6406 40.1875 42.7344 40.1875C42.8281 40.1562 42.9062 40.1406 42.9688 40.1406C43.2188 39.9844 43.3906 39.8906 43.4844 39.8594C43.6094 39.7969 43.7344 39.75 43.8594 39.7188C44.0469 39.5625 44.25 39.4375 44.4688 39.3438C44.6875 39.2188 44.8906 39.0938 45.0781 38.9688C45.2656 38.8438 45.4844 38.6562 45.7344 38.4062L46.1562 37.9844L46.4375 37.7031C46.625 37.5156 46.7969 37.4062 46.9531 37.375C47.0156 37.3438 47.0938 37.3125 47.1875 37.2812C47.3125 37.25 47.4219 37.2188 47.5156 37.1875C47.6406 37.1562 47.75 37.1406 47.8438 37.1406C47.9688 37.1406 48.0938 37.1562 48.2188 37.1875C48.4688 37.25 48.6094 37.2969 48.6406 37.3281C48.9219 37.6719 49.0938 37.9219 49.1562 38.0781C49.2188 38.2344 49.2344 38.375 49.2031 38.5C49.2969 38.6875 49.3438 38.875 49.3438 39.0625C49.25 39.5312 49.1406 39.875 49.0156 40.0938C48.9531 40.25 48.8906 40.3594 48.8281 40.4219C48.7969 40.4844 48.75 40.5938 48.6875 40.75C48.5 40.8438 48.375 40.9688 48.3125 41.125C48.0625 41.3125 47.8906 41.4531 47.7969 41.5469C47.7031 41.6406 47.5938 41.7188 47.4688 41.7812L47 42.2969C46.6562 42.4844 46.4219 42.625 46.2969 42.7188C46.1719 42.8125 46.0625 42.8906 45.9688 42.9531C45.875 43.0156 45.7656 43.0938 45.6406 43.1875C45.5469 43.25 45.4375 43.3125 45.3125 43.375C45.0625 43.5312 44.8594 43.625 44.7031 43.6562C44.4219 43.8125 44.1406 43.9375 43.8594 44.0312C43.5781 44.0938 43.2969 44.1562 43.0156 44.2188C42.8906 44.2188 42.7969 44.2344 42.7344 44.2656C42.7031 44.2656 42.6562 44.2656 42.5938 44.2656H42.4531C42.1719 44.2969 41.9219 44.3281 41.7031 44.3594C41.4844 44.3906 41.2969 44.4062 41.1406 44.4062C40.8594 44.4062 40.6562 44.4062 40.5312 44.4062C40.4375 44.4062 40.3125 44.4375 40.1562 44.5C39.8438 44.4375 39.6094 44.4062 39.4531 44.4062C39.2969 44.375 39.1406 44.3281 38.9844 44.2656C38.7031 44.2344 38.5156 44.2188 38.4219 44.2188C38.3594 44.2188 38.3125 44.2031 38.2812 44.1719C38.125 44.2031 37.9531 44.2188 37.7656 44.2188C37.5781 44.2188 37.4375 44.2188 37.3438 44.2188C37.2188 44.1875 37.125 44.1562 37.0625 44.125C37 44.0938 36.9531 44.0781 36.9219 44.0781H36.8281C36.4844 44.0156 36.25 43.9531 36.125 43.8906C35.7188 43.7656 35.5312 43.7031 35.5625 43.7031C35.2188 43.6094 34.8438 43.4531 34.4375 43.2344C34.0625 42.9844 33.7656 42.7656 33.5469 42.5781C33.1406 42.3906 32.8281 42.0938 32.6094 41.6875C32.4844 41.4375 32.4062 41.2969 32.375 41.2656C32.3438 41.2344 32.3281 41.2031 32.3281 41.1719C31.9844 40.8281 31.7812 40.5938 31.7188 40.4688C31.6562 40.3125 31.6094 40.2031 31.5781 40.1406C31.3906 39.9531 31.2656 39.8281 31.2031 39.7656C31.1719 39.7031 31.1562 39.6406 31.1562 39.5781C31 39.1719 30.8906 38.9219 30.8281 38.8281C30.7969 38.7031 30.7656 38.6094 30.7344 38.5469C30.6719 38.4219 30.6406 38.2344 30.6406 37.9844C30.6406 37.8594 30.625 37.75 30.5938 37.6562C30.5625 37.5625 30.5312 37.4844 30.5 37.4219C30.4688 37.3281 30.4375 37.25 30.4062 37.1875L30.125 36.3906L30.0781 35.7344V35.125V34.7969V34.375C30.0781 34.2812 30.0781 34.1562 30.0781 34C30.1094 33.8438 30.1719 33.6875 30.2656 33.5312C30.2656 33.375 30.2812 33.25 30.3125 33.1562C30.3438 33.0312 30.375 32.9219 30.4062 32.8281C30.4375 32.7344 30.4531 32.6562 30.4531 32.5938C30.4531 32.5 30.4219 32.3438 30.3594 32.125C30.4531 31.875 30.5156 31.6875 30.5469 31.5625C30.5781 31.4375 30.6406 31.2969 30.7344 31.1406C30.8906 30.7344 30.9688 30.5312 30.9688 30.5312C30.9688 30.4688 30.9688 30.4219 30.9688 30.3906C31 30.3281 31.0156 30.1875 31.0156 29.9688C31.1719 29.7188 31.3125 29.5 31.4375 29.3125C31.5938 29.0938 31.6875 28.9531 31.7188 28.8906C31.9062 28.2344 32.1875 27.7344 32.5625 27.3906C32.625 27.2344 32.7656 27.0625 32.9844 26.875C33.2031 26.6562 33.3438 26.5156 33.4062 26.4531C33.4688 26.3281 33.5156 26.25 33.5469 26.2188C33.5781 26.1562 33.625 26.0625 33.6875 25.9375C33.875 25.7812 33.9844 25.6719 34.0156 25.6094C34.0469 25.5469 34.0625 25.4844 34.0625 25.4219C34.2812 25.3281 34.4062 25.2656 34.4375 25.2344C34.5 25.1719 34.5469 25.1094 34.5781 25.0469C34.7344 24.8906 34.8438 24.7812 34.9062 24.7188C35 24.625 35.1094 24.5312 35.2344 24.4375C35.3594 24.4375 35.4688 24.4062 35.5625 24.3438C35.6875 24.2812 35.8125 24.2188 35.9375 24.1562L36.3125 23.875C36.4062 23.8438 36.5156 23.8125 36.6406 23.7812C36.7344 23.75 36.8281 23.7188 36.9219 23.6875C37.0469 23.6562 37.1406 23.625 37.2031 23.5938C37.4531 23.4375 37.7031 23.3281 37.9531 23.2656C38.1719 23.2344 38.2969 23.2188 38.3281 23.2188C38.3906 23.2188 38.4531 23.2031 38.5156 23.1719C38.7656 23.0469 39.0625 23 39.4062 23.0312C39.7188 23.0938 39.9219 23.125 40.0156 23.125C40.1094 23.0938 40.1875 23.0781 40.25 23.0781C40.5312 23.0781 40.7188 23.0781 40.8125 23.0781C40.9375 23.0469 41.0938 23 41.2812 22.9375L42.3125 23.125C42.5625 23.2188 42.7969 23.2969 43.0156 23.3594C43.2344 23.3906 43.4375 23.4375 43.625 23.5C43.8438 23.5625 44.0625 23.6406 44.2812 23.7344C44.5 23.7969 44.7344 23.9062 44.9844 24.0625C45.3594 24.3125 45.625 24.5 45.7812 24.625C45.9688 24.75 46.1406 24.8438 46.2969 24.9062C46.4531 24.9688 46.5781 25.0781 46.6719 25.2344C46.7969 25.3594 46.9062 25.4844 47 25.6094C47.1562 25.7656 47.25 25.875 47.2812 25.9375C47.3125 26 47.3281 26.0469 47.3281 26.0781L48.3125 25.5625C48.375 25.5938 48.4531 25.6094 48.5469 25.6094C48.7031 25.6094 48.9219 25.5625 49.2031 25.4688C49.3281 25.5312 49.4375 25.5781 49.5312 25.6094C49.625 25.6094 49.7031 25.625 49.7656 25.6562C49.8594 25.6875 49.9219 25.7031 49.9531 25.7031L50.375 26.2188C50.4375 26.2812 50.5 26.3906 50.5625 26.5469C50.6562 26.6719 50.7188 26.7812 50.75 26.875ZM76.8125 40.9375C76.75 41.0625 76.7031 41.1719 76.6719 41.2656C76.6406 41.3281 76.625 41.375 76.625 41.4062C76.625 41.4375 76.6094 41.4688 76.5781 41.5C76.5469 41.5312 76.5312 41.5625 76.5312 41.5938C76.4062 41.75 76.3125 41.8906 76.25 42.0156C76.1875 42.1094 76.0938 42.1875 75.9688 42.25C75.7188 42.4688 75.5312 42.6094 75.4062 42.6719C75.3125 42.7344 75.2344 42.7969 75.1719 42.8594C75.1406 42.8906 75.1094 42.9219 75.0781 42.9531C75.0469 42.9531 75 42.9844 74.9375 43.0469C74.875 43.1094 74.8125 43.1562 74.75 43.1875C74.6875 43.2188 74.6094 43.2344 74.5156 43.2344C74.4531 43.2656 74.3906 43.2812 74.3281 43.2812C74.2656 43.2812 74.2188 43.2969 74.1875 43.3281C73.9375 43.4219 73.7344 43.5469 73.5781 43.7031C73.4531 43.7656 73.3281 43.8125 73.2031 43.8438C73.1094 43.8438 73.0156 43.8594 72.9219 43.8906C72.6406 44.0469 72.4219 44.1406 72.2656 44.1719C72.1406 44.2031 72.0469 44.2188 71.9844 44.2188L70.8594 44.6406C70.4844 44.8281 70.2344 44.9531 70.1094 45.0156C69.9844 45.0781 69.9062 45.1094 69.875 45.1094C69.6562 45.2656 69.4844 45.3594 69.3594 45.3906C69.1094 45.4844 68.9531 45.5469 68.8906 45.5781C68.8281 45.5781 68.7656 45.5781 68.7031 45.5781C68.4531 45.7031 68.2969 45.7969 68.2344 45.8594C68.1719 45.8906 68.0625 45.9531 67.9062 46.0469C67.7188 45.9531 67.5938 45.9062 67.5312 45.9062C67.4688 45.875 67.4219 45.8594 67.3906 45.8594C67.2969 45.8594 67.2031 45.875 67.1094 45.9062C67.0156 45.9062 66.875 45.875 66.6875 45.8125C66.4688 45.6562 66.2656 45.4844 66.0781 45.2969C65.8906 45.1094 65.7969 44.8906 65.7969 44.6406C65.7969 44.4844 65.7969 44.375 65.7969 44.3125C65.7969 44.2188 65.7656 44.0625 65.7031 43.8438C65.9844 43.5 66.1406 43.3125 66.1719 43.2812C66.3281 43 66.4219 42.8281 66.4531 42.7656C66.5156 42.6719 66.5781 42.6094 66.6406 42.5781C66.7656 42.4531 66.9219 42.3281 67.1094 42.2031C67.2031 42.1406 67.2812 42.0938 67.3438 42.0625L68.375 41.5C68.125 41.3125 67.9688 41.0938 67.9062 40.8438C67.6562 40.6562 67.4844 40.5312 67.3906 40.4688C67.3281 40.375 67.2188 40.2656 67.0625 40.1406C66.9062 39.9219 66.7656 39.75 66.6406 39.625C66.5156 39.5 66.4219 39.3906 66.3594 39.2969L65.9375 38.875C65.4375 38.5625 65.1719 38.2812 65.1406 38.0312C64.9844 37.875 64.8594 37.7812 64.7656 37.75C64.7031 37.6875 64.6406 37.625 64.5781 37.5625C64.5156 37.5 64.3594 37.3438 64.1094 37.0938C63.8594 36.8125 63.6562 36.5625 63.5 36.3438C63.2812 36.2188 63.0938 36.0469 62.9375 35.8281C62.6562 35.5781 62.4844 35.4219 62.4219 35.3594C62.3906 35.2656 62.375 35.2031 62.375 35.1719C62.25 35.0156 62.1562 34.8906 62.0938 34.7969C62.0625 34.7031 62.0156 34.6094 61.9531 34.5156C61.7656 34.3281 61.6406 34.1406 61.5781 33.9531C61.5156 33.8281 61.4531 33.75 61.3906 33.7188C61.3594 33.6562 61.2812 33.5625 61.1562 33.4375C61.0625 33.5 60.9219 33.5781 60.7344 33.6719C60.5469 33.7656 60.3906 33.8281 60.2656 33.8594C60.1406 33.9531 60.0312 34.0312 59.9375 34.0938C59.875 34.125 59.8125 34.1719 59.75 34.2344C59.5312 34.3906 59.3281 34.5312 59.1406 34.6562C58.9844 34.75 58.8281 34.8594 58.6719 34.9844C58.5781 35.0469 58.4844 35.1094 58.3906 35.1719C58.3281 35.2031 58.25 35.25 58.1562 35.3125C58.125 35.4688 58.1094 35.6094 58.1094 35.7344C58.1406 35.8594 58.1719 35.9688 58.2031 36.0625C58.2344 36.1875 58.2656 36.2969 58.2969 36.3906L58.1562 37C58.1562 37.0625 58.1562 37.125 58.1562 37.1875C58.1875 37.25 58.2031 37.375 58.2031 37.5625C58.1406 37.8125 58.1094 37.9844 58.1094 38.0781C58.1094 38.1406 58.1094 38.1875 58.1094 38.2188C58.1406 38.3125 58.1562 38.4062 58.1562 38.5C58.1875 38.5625 58.2031 38.6406 58.2031 38.7344C58.2344 39.0781 58.2344 39.3281 58.2031 39.4844C58.2031 39.6406 58.1875 39.7969 58.1562 39.9531C58.2188 40.3906 58.2656 40.7031 58.2969 40.8906C58.3281 41.0469 58.3438 41.2031 58.3438 41.3594C58.3438 41.4219 58.3281 41.5469 58.2969 41.7344C58.2969 41.8906 58.2969 42.0469 58.2969 42.2031C58.2656 42.4219 58.25 42.6406 58.25 42.8594H58.5312C58.5938 42.8594 58.6719 42.875 58.7656 42.9062C58.8594 42.9062 58.9375 42.9062 59 42.9062C59.2812 42.9688 59.4531 43 59.5156 43C59.6094 43 59.6719 43 59.7031 43C59.9219 43 60.1406 43.0781 60.3594 43.2344L60.9688 43.375C61.0312 43.5312 61.0938 43.6406 61.1562 43.7031C61.25 43.7656 61.3281 43.8281 61.3906 43.8906C61.4844 43.9531 61.5781 43.9844 61.6719 43.9844C61.6406 44.1406 61.625 44.2812 61.625 44.4062V44.9219C61.5938 45.0781 61.5469 45.2188 61.4844 45.3438C61.4531 45.4375 61.4062 45.5156 61.3438 45.5781C61.0938 45.8594 60.9062 46.0312 60.7812 46.0938C60.6875 46.1562 60.6094 46.2031 60.5469 46.2344C59.5469 46.7031 58.75 46.9375 58.1562 46.9375C58 46.9062 57.7969 46.8594 57.5469 46.7969C57.3594 46.7656 57.2031 46.75 57.0781 46.75C56.9844 46.7812 56.9062 46.7969 56.8438 46.7969L56.3281 46.9844C55.8906 46.8906 55.5938 46.8281 55.4375 46.7969C55.3125 46.7969 55.1875 46.8125 55.0625 46.8438C54.9062 46.875 54.7344 46.9062 54.5469 46.9375C54.3906 46.9688 54.2344 46.9688 54.0781 46.9375C53.7656 46.875 53.5469 46.8125 53.4219 46.75C53.3594 46.7188 53.2969 46.6875 53.2344 46.6562C53.1719 46.6562 53.0156 46.6562 52.7656 46.6562C52.7031 46.4375 52.625 46.2969 52.5312 46.2344C52.4688 46.2031 52.375 46.1875 52.25 46.1875C52.0625 45.6562 51.9844 45.2656 52.0156 45.0156C52.0469 44.7656 52.1406 44.4062 52.2969 43.9375C52.5156 43.7812 52.6719 43.6719 52.7656 43.6094C52.8594 43.5156 52.9531 43.4219 53.0469 43.3281C53.3281 43.2656 53.5312 43.2188 53.6562 43.1875C53.8125 43.125 54 43.0938 54.2188 43.0938C54.2812 42.875 54.3281 42.6406 54.3594 42.3906C54.4219 42.1094 54.3906 41.875 54.2656 41.6875C54.3281 41.4688 54.3594 41.3125 54.3594 41.2188C54.3906 41.0938 54.4219 40.9844 54.4531 40.8906C54.4219 40.6094 54.3906 40.4062 54.3594 40.2812C54.3594 40.1562 54.3594 40.0469 54.3594 39.9531C54.3906 39.7031 54.4062 39.5625 54.4062 39.5312C54.4062 39.4688 54.4062 39.4219 54.4062 39.3906C54.375 39.2344 54.3594 39.1094 54.3594 39.0156C54.3906 38.9219 54.4062 38.8438 54.4062 38.7812C54.4375 38.2812 54.4375 37.9062 54.4062 37.6562C54.4062 37.4062 54.3594 37.1406 54.2656 36.8594C54.2969 36.7656 54.3125 36.5938 54.3125 36.3438C54.3438 36.0625 54.3594 35.7656 54.3594 35.4531C54.3594 35.1406 54.3438 34.8594 54.3125 34.6094C54.3125 34.3281 54.2969 34.1406 54.2656 34.0469C54.3281 33.8906 54.3594 33.7812 54.3594 33.7188C54.3594 33.625 54.375 33.5469 54.4062 33.4844C54.4688 33.0469 54.4688 32.7188 54.4062 32.5C54.375 32.2812 54.3594 32.0469 54.3594 31.7969C54.3594 31.5156 54.3438 31.25 54.3125 31C54.3125 30.7188 54.3281 30.4688 54.3594 30.25C54.2969 30.0625 54.2656 29.9375 54.2656 29.875C54.2656 29.8125 54.2656 29.75 54.2656 29.6875C54.2656 29.4688 54.2969 29.2656 54.3594 29.0781V28.375C54.3906 28.2188 54.4062 28.1094 54.4062 28.0469C54.4062 27.9531 54.4062 27.8906 54.4062 27.8594C54.375 27.5781 54.375 27.375 54.4062 27.25C54.4062 27 54.375 26.7812 54.3125 26.5938C54.2812 26.5 54.25 26.4375 54.2188 26.4062L54.3125 25.6094V25.2812C54.3125 25.1875 54.3125 25.0938 54.3125 25C54.3125 24.875 54.2969 24.7656 54.2656 24.6719C54.2031 24.4844 54.2031 24.3125 54.2656 24.1562C54.2656 23.8438 54.25 23.625 54.2188 23.5C54.1875 23.3438 54.1719 23.1875 54.1719 23.0312C54.1719 22.9375 54.1719 22.8594 54.1719 22.7969C54.2031 22.7031 54.2344 22.6094 54.2656 22.5156C54.2656 22.3906 54.2812 22.0156 54.3125 21.3906C54.375 20.7656 54.4219 20.2031 54.4531 19.7031C54.1406 19.6406 53.9688 19.5938 53.9375 19.5625C53.9062 19.5312 53.8438 19.5156 53.75 19.5156C53.4375 19.5469 53.1719 19.5469 52.9531 19.5156C52.7031 19.4844 52.5469 19.4688 52.4844 19.4688C52.4219 19.4688 52.3594 19.4688 52.2969 19.4688C52.0781 19.4688 51.9219 19.4062 51.8281 19.2812C51.7344 19.1562 51.6562 19.0469 51.5938 18.9531C51.375 18.6719 51.25 18.3906 51.2188 18.1094C51.1875 17.9531 51.1719 17.8438 51.1719 17.7812C51.1719 17.7188 51.1406 17.6406 51.0781 17.5469C51.2656 17.3281 51.3594 17.1562 51.3594 17.0312C51.3594 16.9688 51.3438 16.9375 51.3125 16.9375C51.3125 16.875 51.3594 16.8125 51.4531 16.75C51.5469 16.6562 51.625 16.5156 51.6875 16.3281C52.0312 16.0781 52.3125 15.9219 52.5312 15.8594C52.7812 15.7969 53 15.7344 53.1875 15.6719C53.3125 15.6719 53.4219 15.6562 53.5156 15.625C53.6094 15.5938 53.6875 15.5625 53.75 15.5312C53.8438 15.5 53.9219 15.4687 53.9844 15.4375C54.0781 15.5 54.1562 15.5469 54.2188 15.5781C54.2812 15.6094 54.3281 15.6406 54.3594 15.6719C54.3906 15.7031 54.4219 15.7188 54.4531 15.7188C54.7344 15.6562 54.9375 15.6094 55.0625 15.5781C55.1875 15.5469 55.3281 15.5625 55.4844 15.625C55.7344 15.5 55.9844 15.5 56.2344 15.625C56.4219 15.5938 56.5312 15.5781 56.5625 15.5781C56.5938 15.5469 56.625 15.5312 56.6562 15.5312H56.7031C57.0781 15.5312 57.3281 15.5312 57.4531 15.5312C57.6094 15.5 57.7344 15.4844 57.8281 15.4844H58.8125C59.0625 15.4844 59.3281 15.5312 59.6094 15.625C59.9844 15.7813 60.25 15.9219 60.4062 16.0469C60.5938 16.2031 60.7188 16.3125 60.7812 16.375C60.8438 16.4375 60.9531 16.5469 61.1094 16.7031C61.1406 16.8906 61.1562 17.0156 61.1562 17.0781C61.1875 17.1406 61.2188 17.2031 61.25 17.2656C61.3438 17.4219 61.4062 17.6094 61.4375 17.8281C61.4688 18.0469 61.4062 18.3594 61.25 18.7656C61.0312 18.9219 60.875 19.0469 60.7812 19.1406C60.7188 19.2031 60.625 19.2969 60.5 19.4219C60.4062 19.4531 60.3125 19.4844 60.2188 19.5156C60.125 19.5469 60.0469 19.5781 59.9844 19.6094C59.8906 19.6406 59.8125 19.6719 59.75 19.7031C59.6562 19.7344 59.5469 19.7656 59.4219 19.7969C59.3281 19.8281 59.2344 19.8594 59.1406 19.8906C59.0469 19.8906 58.9688 19.875 58.9062 19.8438C58.6875 19.7812 58.5625 19.75 58.5312 19.75C58.5312 19.75 58.4844 19.75 58.3906 19.75C58.2969 20.0938 58.2344 20.3594 58.2031 20.5469C58.2031 20.7031 58.2031 20.8438 58.2031 20.9688C58.2031 21.0938 58.2031 21.2188 58.2031 21.3438C58.2031 21.4688 58.1875 21.5938 58.1562 21.7188C58.125 22.0312 58.1094 22.2188 58.1094 22.2812C58.1094 22.3438 58.1094 22.4062 58.1094 22.4688C58.0781 22.7188 58.0625 22.875 58.0625 22.9375C58.0625 22.9688 58.0625 23 58.0625 23.0312C58.0312 23.0938 58.0156 23.1562 58.0156 23.2188C58.0469 23.25 58.0625 23.2969 58.0625 23.3594C58.0625 23.4219 58.0781 23.4844 58.1094 23.5469L58.1562 24.1094V24.2969C58.1562 24.5156 58.1875 24.6719 58.25 24.7656C58.2188 24.9219 58.2031 25.0469 58.2031 25.1406C58.2344 25.2344 58.25 25.3438 58.25 25.4688C58.3125 25.75 58.3438 25.9375 58.3438 26.0312C58.3438 26.0938 58.3438 26.1562 58.3438 26.2188C58.3125 26.6562 58.2969 26.9688 58.2969 27.1562C58.3281 27.3438 58.3438 27.5156 58.3438 27.6719C58.2812 27.9531 58.25 28.125 58.25 28.1875C58.25 28.25 58.25 28.3125 58.25 28.375V29.5938C58.2812 29.9375 58.2812 30.2656 58.25 30.5781C58.25 30.8906 58.2656 31.0938 58.2969 31.1875C58.4844 31.0312 58.6094 30.9375 58.6719 30.9062C58.7344 30.875 58.7969 30.8438 58.8594 30.8125C58.9844 30.75 59.1094 30.7031 59.2344 30.6719C59.3594 30.6094 59.4688 30.5469 59.5625 30.4844C59.6875 30.4219 59.7812 30.3438 59.8438 30.25L62 28.9844L63.6875 27.7188L65.75 26.125C65.375 26.125 65.0156 26.1094 64.6719 26.0781C64.3906 26.0469 64.125 26.0312 63.875 26.0312C63.625 26.0312 63.4844 26 63.4531 25.9375C63.2344 25.9375 63.0625 25.9219 62.9375 25.8906C62.875 25.8906 62.7812 25.8438 62.6562 25.75C62.5312 25.6562 62.4062 25.5625 62.2812 25.4688C62.1562 25.3438 62.0156 25.2188 61.8594 25.0938V23.9219C61.9531 23.7656 62.0469 23.625 62.1406 23.5C62.2031 23.375 62.2656 23.2656 62.3281 23.1719C62.3906 23.0781 62.4375 23.0156 62.4688 22.9844C62.5312 22.9219 62.6094 22.8594 62.7031 22.7969C62.7969 22.7344 62.9531 22.6406 63.1719 22.5156C63.3906 22.5469 63.5312 22.5625 63.5938 22.5625C63.6562 22.5312 63.7188 22.5156 63.7812 22.5156C63.875 22.4844 63.9531 22.4688 64.0156 22.4688C64.0781 22.4375 64.1875 22.4062 64.3438 22.375C64.5938 22.4062 64.75 22.4219 64.8125 22.4219C64.875 22.4219 64.9219 22.4219 64.9531 22.4219H65.6094C65.7969 22.3594 65.9688 22.3281 66.125 22.3281L67.2969 22.375C67.4531 22.4062 67.5938 22.4219 67.7188 22.4219H68.4219C68.5156 22.4531 68.6875 22.4375 68.9375 22.375C69.0312 22.375 69.1406 22.3906 69.2656 22.4219C69.4219 22.4219 69.5781 22.4531 69.7344 22.5156H70.5781L71.75 22.4688H72.2188C72.375 22.4688 72.5156 22.4688 72.6406 22.4688C72.7969 22.4688 72.9375 22.5 73.0625 22.5625C73.1875 22.625 73.2812 22.6875 73.3438 22.75C73.4375 22.7812 73.5156 22.8281 73.5781 22.8906C73.6719 22.9219 73.8281 23.0469 74.0469 23.2656C74.3281 23.7656 74.5156 24.1719 74.6094 24.4844C74.7344 24.7656 74.6875 25.0625 74.4688 25.375C74.375 25.4688 74.2969 25.5469 74.2344 25.6094C74.2031 25.6719 74.1562 25.7344 74.0938 25.7969L74 25.8906C73.9062 25.9531 73.8125 26 73.7188 26.0312C73.5938 26.0938 73.5312 26.125 73.5312 26.125C73.5 26.1562 73.4688 26.1719 73.4375 26.1719C73.375 26.2344 73.2969 26.2969 73.2031 26.3594C73.1406 26.3906 73.0312 26.4531 72.875 26.5469C72.5625 26.5781 72.3281 26.6094 72.1719 26.6406C72.0469 26.6406 71.8594 26.6406 71.6094 26.6406C71.5156 26.7031 71.4062 26.7344 71.2812 26.7344C71.1562 26.7344 71.0469 26.7344 70.9531 26.7344C70.8281 26.7344 70.7188 26.7188 70.625 26.6875C70.5625 26.75 70.4844 26.8125 70.3906 26.875C70.2969 26.9375 70.1719 27.0469 70.0156 27.2031C69.6406 27.4844 69.3438 27.7344 69.125 27.9531C69 28.0781 68.8906 28.1719 68.7969 28.2344C68.6094 28.4219 68.4375 28.5781 68.2812 28.7031C68.125 28.8281 67.9844 28.9531 67.8594 29.0781C67.7344 29.1719 67.6406 29.2344 67.5781 29.2656C67.3906 29.4219 67.2031 29.5781 67.0156 29.7344C66.8594 29.8906 66.7188 30 66.5938 30.0625C66.4062 30.1562 66.2188 30.2969 66.0312 30.4844C65.8438 30.6719 65.6719 30.8438 65.5156 31C65.3594 31.0938 65.2031 31.1875 65.0469 31.2812C64.8906 31.375 64.7656 31.4531 64.6719 31.5156C64.5469 31.6094 64.4375 31.6875 64.3438 31.75C64.5312 32.0312 64.7031 32.2656 64.8594 32.4531C65.0156 32.6094 65.1406 32.7656 65.2344 32.9219C65.3594 33.0469 65.4531 33.1094 65.5156 33.1094C65.6406 33.3281 65.7656 33.5156 65.8906 33.6719C66.0469 33.8281 66.1719 33.9375 66.2656 34C66.4531 34.125 66.5625 34.2031 66.5938 34.2344C66.6562 34.2656 66.7188 34.3125 66.7812 34.375C66.8125 34.4062 66.8438 34.4375 66.875 34.4688C66.9375 34.5 67 34.5469 67.0625 34.6094C67.125 34.6719 67.1875 34.7188 67.25 34.75C67.3125 34.8125 67.375 34.8906 67.4375 34.9844C67.5625 35.1719 67.625 35.2812 67.625 35.3125C67.875 35.4688 68.0312 35.5781 68.0938 35.6406C68.1562 35.7031 68.2188 35.75 68.2812 35.7812C68.3438 35.8438 68.3906 35.8906 68.4219 35.9219C68.4844 35.9531 68.5938 36.0469 68.75 36.2031C68.8125 36.3281 68.875 36.4219 68.9375 36.4844C69 36.5469 69.0625 36.6094 69.125 36.6719C69.4375 36.7969 69.6562 36.9688 69.7812 37.1875C69.9688 37.3438 70.0938 37.4531 70.1562 37.5156C70.2188 37.5781 70.2656 37.625 70.2969 37.6562C70.5469 37.7812 70.6875 37.875 70.7188 37.9375C70.7812 38 70.8281 38.0625 70.8594 38.125C71.1094 38.3438 71.2812 38.5156 71.375 38.6406C71.4688 38.7344 71.5469 38.8281 71.6094 38.9219C71.7969 39.2031 71.9219 39.3906 71.9844 39.4844C72.0469 39.5469 72.1719 39.6094 72.3594 39.6719C72.6094 39.6094 72.9062 39.5 73.25 39.3438C73.625 39.1562 73.875 39 74 38.875C74.5 38.75 74.9219 38.7344 75.2656 38.8281C75.3906 38.8906 75.5156 38.9531 75.6406 39.0156C75.7656 39.0469 75.9375 39.0938 76.1562 39.1562C76.375 39.375 76.5 39.5781 76.5312 39.7656C76.5938 39.9219 76.6406 40.0625 76.6719 40.1875C76.6719 40.2188 76.7031 40.3594 76.7656 40.6094C76.7969 40.7344 76.8125 40.8438 76.8125 40.9375ZM95.8438 37.6562C95.7812 38 95.7344 38.2188 95.7031 38.3125C95.6719 38.4062 95.6406 38.4844 95.6094 38.5469C95.4531 38.9219 95.2969 39.1875 95.1406 39.3438C95.0156 39.5 94.8906 39.6406 94.7656 39.7656C94.7031 39.8594 94.6406 39.9531 94.5781 40.0469C94.5156 40.1094 94.4531 40.1719 94.3906 40.2344C94.3281 40.3281 94.2656 40.4062 94.2031 40.4688C94.1094 40.5312 94 40.6094 93.875 40.7031C93.625 40.8906 93.4062 41.0781 93.2188 41.2656C92.9688 41.4219 92.7969 41.5156 92.7031 41.5469C92.6406 41.5469 92.5781 41.5469 92.5156 41.5469C92.3281 41.7031 92.2031 41.8125 92.1406 41.875C92.0781 41.9062 92.0156 41.9219 91.9531 41.9219C91.8594 41.9844 91.7812 42.0312 91.7188 42.0625C91.6562 42.0938 91.5469 42.1719 91.3906 42.2969C91.1094 42.2969 90.9219 42.3125 90.8281 42.3438C90.7656 42.3438 90.7031 42.3438 90.6406 42.3438C90.6094 42.375 90.5625 42.4062 90.5 42.4375C90.4375 42.4688 90.3125 42.5625 90.125 42.7188C89.7812 42.75 89.5625 42.7656 89.4688 42.7656C89.4062 42.7656 89.3594 42.7656 89.3281 42.7656C89.0469 42.8594 88.875 42.9219 88.8125 42.9531C88.25 43.0469 87.8438 43.1094 87.5938 43.1406C87.375 43.1719 87.1406 43.1719 86.8906 43.1406C86.7031 43.1719 86.5625 43.1875 86.4688 43.1875C86.4062 43.1875 86.3438 43.1875 86.2812 43.1875H84.3125C83.9688 43.0312 83.75 42.9531 83.6562 42.9531C83.5 42.8906 83.3906 42.8594 83.3281 42.8594C83.2656 42.8594 83.2031 42.8281 83.1406 42.7656C82.9531 42.7031 82.6406 42.5781 82.2031 42.3906C81.7969 42.1719 81.5 42 81.3125 41.875C81.1875 41.7812 81.0312 41.6719 80.8438 41.5469C80.75 41.4844 80.6406 41.4219 80.5156 41.3594C80.4219 41.2656 80.3281 41.1875 80.2344 41.125C80.1094 41.0625 80 41 79.9062 40.9375L79.2969 40C79.2656 39.875 79.2188 39.75 79.1562 39.625C79.0625 39.4375 78.9219 39.25 78.7344 39.0625C78.7031 38.75 78.6719 38.5781 78.6406 38.5469C78.5781 38.4531 78.5156 38.3906 78.4531 38.3594C78.3906 38.2969 78.2969 38.2031 78.1719 38.0781C78.1406 37.7656 78.1094 37.5938 78.0781 37.5625C77.8906 37.0312 77.7812 36.625 77.75 36.3438C77.6875 36.0938 77.625 35.9062 77.5625 35.7812C77.5312 35.625 77.5 35.5 77.4688 35.4062C77.4375 35.2812 77.4219 35.2031 77.4219 35.1719C77.3281 34.8281 77.2656 34.5469 77.2344 34.3281C77.2344 34.1094 77.2344 33.9531 77.2344 33.8594C77.2656 33.6719 77.2812 33.5469 77.2812 33.4844C77.2812 33.3906 77.2812 33.3125 77.2812 33.25C77.2812 33.0312 77.2656 32.8906 77.2344 32.8281C77.2344 32.7656 77.2344 32.7031 77.2344 32.6406C77.2344 32.5781 77.2188 32.5 77.1875 32.4062C77.1875 32.2812 77.2188 32.1562 77.2812 32.0312C77.2188 31.7812 77.2344 31.5625 77.3281 31.375C77.3281 31.0625 77.3594 30.8438 77.4219 30.7188L77.8438 29.5938C77.875 29.4688 77.8906 29.3594 77.8906 29.2656C77.9219 29.1406 77.9531 29 77.9844 28.8438C78.0156 28.6875 78.0312 28.5312 78.0312 28.375C78.0625 28.2188 78.1094 28.0625 78.1719 27.9062C78.2656 27.5312 78.3906 27.25 78.5469 27.0625C78.6094 26.9375 78.6562 26.8281 78.6875 26.7344C78.75 26.6406 78.8125 26.5469 78.875 26.4531C78.9375 26.3594 79 26.2656 79.0625 26.1719C79.1562 26.0469 79.2344 25.9375 79.2969 25.8438L79.6719 25.4219C79.8906 25.1719 80.0312 25 80.0938 24.9062C80.1875 24.8125 80.2812 24.7344 80.375 24.6719C80.5 24.4844 80.6094 24.3594 80.7031 24.2969C80.7969 24.2031 80.8906 24.125 80.9844 24.0625C81.2344 23.8125 81.4219 23.6406 81.5469 23.5469C81.6719 23.4219 81.8125 23.3281 81.9688 23.2656C82.0938 23.1094 82.2188 22.9844 82.3438 22.8906C82.5 22.7656 82.7031 22.6719 82.9531 22.6094C83.1094 22.4531 83.2031 22.3594 83.2344 22.3281C83.2969 22.2969 83.3438 22.2656 83.375 22.2344C83.4688 22.1094 83.6406 21.9688 83.8906 21.8125C84.2656 21.6875 84.5156 21.6094 84.6406 21.5781C84.8594 21.5156 85.0938 21.4844 85.3438 21.4844C85.5938 21.4844 85.8438 21.4844 86.0938 21.4844C86.3125 21.4844 86.5312 21.5 86.75 21.5312C86.9688 21.5312 87.2031 21.5312 87.4531 21.5312C87.6719 21.5938 87.8125 21.625 87.875 21.625C87.9688 21.5938 88.0312 21.5781 88.0625 21.5781C88.2812 21.5781 88.4375 21.5938 88.5312 21.625C88.625 21.625 88.7188 21.6406 88.8125 21.6719L89.4688 21.9531C89.6875 22.0156 89.8281 22.0625 89.8906 22.0938C89.9531 22.0938 90.0156 22.0938 90.0781 22.0938C90.0781 22.0938 90.1719 22.125 90.3594 22.1875C90.4531 22.2188 90.5312 22.25 90.5938 22.2812C90.6562 22.3125 90.7344 22.3438 90.8281 22.375C91.0156 22.4375 91.1094 22.4688 91.1094 22.4688C91.5469 22.625 91.9062 22.8125 92.1875 23.0312C92.4688 23.2188 92.6875 23.3906 92.8438 23.5469C93.0312 23.8281 93.1562 24.0312 93.2188 24.1562C93.2812 24.25 93.3281 24.3281 93.3594 24.3906C93.5156 24.6094 93.5938 24.7656 93.5938 24.8594C93.625 24.9219 93.6406 24.9844 93.6406 25.0469C93.7969 25.3594 93.9219 25.5938 94.0156 25.75C94.1094 25.9062 94.1875 26.1094 94.25 26.3594C94.5 26.8594 94.625 27.2031 94.625 27.3906C94.75 27.5781 94.8438 27.7344 94.9062 27.8594C94.9688 28.0156 95 28.1562 95 28.2812C95 28.375 95 28.4531 95 28.5156C95.0625 28.7344 95.1094 28.9219 95.1406 29.0781C95.1719 29.2031 95.2031 29.3281 95.2344 29.4531C95.2656 29.6719 95.3438 29.8906 95.4688 30.1094C95.5312 30.3594 95.5625 30.5469 95.5625 30.6719C95.5625 30.7969 95.5625 30.9375 95.5625 31.0938C95.5 31.3438 95.4531 31.5625 95.4219 31.75C95.3906 31.9375 95.3281 32.1094 95.2344 32.2656L94.8594 33.0156L94.1094 33.4844C93.9219 33.5156 93.7656 33.5312 93.6406 33.5312H93.0312C92.75 33.625 92.5469 33.6719 92.4219 33.6719C92.3594 33.7031 92.2969 33.7188 92.2344 33.7188C92.2031 33.6875 92.1562 33.6719 92.0938 33.6719H91.9062H91.25C91.1562 33.6406 91.0469 33.625 90.9219 33.625C90.8281 33.625 90.7344 33.6094 90.6406 33.5781C90.5156 33.5781 90.3906 33.5938 90.2656 33.625C90.1719 33.625 90.0469 33.625 89.8906 33.625C89.2969 33.5938 88.9688 33.5625 88.9062 33.5312C88.6562 33.5312 88.4375 33.5469 88.25 33.5781C88.0625 33.6094 87.8906 33.625 87.7344 33.625C87.4844 33.625 87.2344 33.6094 86.9844 33.5781C86.7656 33.5156 86.5312 33.4531 86.2812 33.3906C85.8438 33.2969 85.4844 33.25 85.2031 33.25C85.1406 33.25 85.0625 33.2656 84.9688 33.2969C84.875 33.2969 84.7656 33.2969 84.6406 33.2969C84.4531 33.2656 84.3281 33.25 84.2656 33.25C84.2031 33.25 84.1406 33.25 84.0781 33.25C83.9844 33.25 83.8906 33.25 83.7969 33.25C83.7031 33.2188 83.6094 33.2031 83.5156 33.2031C83.2969 33.2031 83.1562 33.2031 83.0938 33.2031C83.0312 33.2031 82.9688 33.2188 82.9062 33.25C82.75 33.2812 82.625 33.2969 82.5312 33.2969C82.4375 33.2656 82.3594 33.25 82.2969 33.25C82.0156 33.2188 81.8125 33.2188 81.6875 33.25C81.5625 33.25 81.4531 33.25 81.3594 33.25C81.2969 33.4062 81.2656 33.5312 81.2656 33.625C81.2969 33.6875 81.3125 33.7344 81.3125 33.7656C81.375 33.9844 81.4062 34.1406 81.4062 34.2344C81.4375 34.2969 81.4531 34.3594 81.4531 34.4219C81.4844 34.5781 81.5 34.6875 81.5 34.75C81.5312 34.8125 81.5781 34.8906 81.6406 34.9844C81.6406 35.4531 81.7344 35.9062 81.9219 36.3438C82.1094 36.7812 82.2656 37.0781 82.3906 37.2344C82.4531 37.4844 82.4844 37.6406 82.4844 37.7031C82.5156 37.7344 82.5312 37.7656 82.5312 37.7969C82.6562 37.8906 82.7344 37.9844 82.7656 38.0781C82.8281 38.1406 82.8906 38.2031 82.9531 38.2656C83.0781 38.4219 83.1562 38.5312 83.1875 38.5938C83.25 38.625 83.3125 38.6719 83.375 38.7344C83.5 38.7969 83.625 38.8594 83.75 38.9219C83.875 38.9844 83.9688 39.0781 84.0312 39.2031C84.2812 39.2031 84.5312 39.25 84.7812 39.3438C84.9688 39.4062 85.2188 39.4531 85.5312 39.4844C85.8438 39.5156 86.1562 39.5312 86.4688 39.5312C86.8125 39.5 87.125 39.4688 87.4062 39.4375C87.7188 39.4062 87.9375 39.375 88.0625 39.3438C88.3125 39.25 88.5312 39.1875 88.7188 39.1562C88.9375 39.125 89.125 39.0781 89.2812 39.0156C89.5312 38.9844 89.75 38.9219 89.9375 38.8281C90.25 38.6094 90.5 38.5 90.6875 38.5C90.875 38.3438 91.0469 38.25 91.2031 38.2188C91.3594 38.0312 91.5312 37.8594 91.7188 37.7031C91.9375 37.5156 92.0781 37.375 92.1406 37.2812C92.3281 37.0938 92.4688 36.9062 92.5625 36.7188C92.625 36.5938 92.6875 36.5 92.75 36.4375L93.2188 35.9688C93.2812 35.9375 93.3594 35.8906 93.4531 35.8281C93.6406 35.7031 93.7344 35.6406 93.7344 35.6406C93.7969 35.6094 93.8594 35.5781 93.9219 35.5469C94.0156 35.5156 94.1406 35.4688 94.2969 35.4062C94.5469 35.4688 94.7188 35.5312 94.8125 35.5938C94.9375 35.625 95.0312 35.6719 95.0938 35.7344C95.3438 35.9531 95.4844 36.1094 95.5156 36.2031C95.5781 36.2969 95.625 36.375 95.6562 36.4375C95.6875 36.5 95.7031 36.5625 95.7031 36.625C95.7344 36.6875 95.7656 36.75 95.7969 36.8125C95.8281 36.9062 95.8438 36.9688 95.8438 37V37.6562ZM91.5781 29.6406C91.5156 29.3594 91.4531 29.1406 91.3906 28.9844C91.3594 28.8281 91.3125 28.6875 91.25 28.5625C91.125 28.3125 91.0469 28.1562 91.0156 28.0938C90.9844 28.0312 90.9531 27.9844 90.9219 27.9531C90.7969 27.7969 90.7188 27.625 90.6875 27.4375C90.5625 27.2812 90.4375 27.125 90.3125 26.9688C90.2188 26.7812 90.1406 26.625 90.0781 26.5C89.7656 26.2188 89.5938 26.0312 89.5625 25.9375C89.3125 25.8438 89.125 25.7812 89 25.75C88.9062 25.6875 88.8281 25.625 88.7656 25.5625C88.4531 25.4688 88.2031 25.3906 88.0156 25.3281C87.8281 25.2656 87.6562 25.2188 87.5 25.1875C87.3438 25.1562 87.2031 25.125 87.0781 25.0938L86.5156 25.1875C86.3594 25.2188 86.2188 25.2344 86.0938 25.2344C85.9688 25.2344 85.875 25.2344 85.8125 25.2344C85.5312 25.3594 85.3594 25.4375 85.2969 25.4688C85.2344 25.5 85.1719 25.5312 85.1094 25.5625C84.8281 25.7188 84.6406 25.8125 84.5469 25.8438C84.4531 25.875 84.375 25.9062 84.3125 25.9375C84.1562 26.0938 84.0156 26.2031 83.8906 26.2656C83.6719 26.6094 83.4219 26.9375 83.1406 27.25C82.8594 27.5625 82.6094 27.7969 82.3906 27.9531C82.2969 28.2031 82.2188 28.375 82.1562 28.4688C82.125 28.5625 82.0781 28.6562 82.0156 28.75C81.9531 28.8438 81.9062 28.9375 81.875 29.0312C81.875 29.125 81.8438 29.2344 81.7812 29.3594H82.3906C82.8594 29.2656 83.2031 29.2188 83.4219 29.2188C83.5781 29.1875 83.6875 29.1719 83.75 29.1719C83.8125 29.1719 83.9219 29.1406 84.0781 29.0781C84.2969 29.1406 84.4219 29.1875 84.4531 29.2188C84.5156 29.2188 84.5625 29.2031 84.5938 29.1719C84.9375 29.1406 85.2031 29.1406 85.3906 29.1719C85.5781 29.1719 85.75 29.1875 85.9062 29.2188C86.1875 29.3125 86.3906 29.3594 86.5156 29.3594C87.1094 29.5156 87.6562 29.625 88.1562 29.6875C88.25 29.7188 88.3594 29.7344 88.4844 29.7344C88.6094 29.7031 88.7344 29.6875 88.8594 29.6875C88.9844 29.6875 89.125 29.6719 89.2812 29.6406H90.4062H90.9219C91.1719 29.6094 91.3281 29.5938 91.3906 29.5938C91.4531 29.5938 91.5156 29.6094 91.5781 29.6406ZM111.5 41.6406C111.469 41.7344 111.438 41.8438 111.406 41.9688C111.406 42.0625 111.391 42.1562 111.359 42.25C111.328 42.375 111.281 42.4844 111.219 42.5781C111.094 42.6406 110.969 42.7188 110.844 42.8125C110.656 42.9688 110.484 43.0781 110.328 43.1406C110.141 43.2344 109.906 43.2969 109.625 43.3281C109.219 43.4219 109.016 43.4688 109.016 43.4688C108.734 43.5 108.547 43.5156 108.453 43.5156C108.359 43.4844 108.281 43.4688 108.219 43.4688C107.969 43.4062 107.828 43.375 107.797 43.375H107.703C107.422 43.4062 107.172 43.3594 106.953 43.2344C106.703 43.1719 106.531 43.1406 106.438 43.1406C106.344 43.1406 106.219 43.1094 106.062 43.0469L105.641 42.7188C105.234 42.5312 104.844 42.3438 104.469 42.1562C104.094 41.9688 103.812 41.7812 103.625 41.5938C103.406 41.4688 103.156 41.3125 102.875 41.125C102.625 40.9062 102.438 40.7344 102.312 40.6094C102.25 40.5469 102.188 40.4844 102.125 40.4219C102.094 40.3281 102.062 40.25 102.031 40.1875L101.938 40C101.938 39.9375 101.922 39.8438 101.891 39.7188C101.859 39.625 101.828 39.5312 101.797 39.4375C101.766 39.3438 101.734 39.25 101.703 39.1562C101.703 38.9375 101.672 38.7344 101.609 38.5469C101.578 38.3594 101.516 38.1406 101.422 37.8906C101.297 37.5781 101.219 37.3438 101.188 37.1875C101.125 37.0312 101.078 36.8906 101.047 36.7656C101.047 36.6406 101.031 36.5312 101 36.4375L100.906 35.5C100.844 35.3438 100.797 35.2031 100.766 35.0781C100.766 34.9219 100.766 34.7656 100.766 34.6094C100.703 34.3906 100.656 34.1875 100.625 34C100.625 33.8125 100.609 33.6562 100.578 33.5312C100.547 33.4062 100.531 33.2812 100.531 33.1562V32.3125L100.391 31.6094C100.328 31.4531 100.297 31.2969 100.297 31.1406C100.297 30.9531 100.297 30.7812 100.297 30.625C100.297 30.5312 100.297 30.4375 100.297 30.3438C100.297 30.2188 100.281 30.1094 100.25 30.0156C100.219 29.8594 100.188 29.7344 100.156 29.6406C100.156 29.5469 100.156 29.4375 100.156 29.3125C100.125 28.9688 100.109 28.7344 100.109 28.6094C100.109 28.4531 100.109 28.3125 100.109 28.1875V27.5781C100.234 26.9531 100.266 26.4844 100.203 26.1719C100.172 25.8281 100.188 25.4844 100.25 25.1406C100.25 25.0156 100.266 24.8594 100.297 24.6719C100.328 24.4844 100.359 24.3125 100.391 24.1562C100.422 23.9688 100.453 23.7656 100.484 23.5469L100.109 23.4531C99.8594 23.3906 99.7031 23.3594 99.6406 23.3594H99.0781C99.0156 23.3906 98.9375 23.4219 98.8438 23.4531C98.7812 23.4531 98.6719 23.4531 98.5156 23.4531H97.8594C97.5469 23.3906 97.3281 23.3594 97.2031 23.3594C97.0469 23.3594 96.9375 23.3594 96.875 23.3594C96.5312 23.3594 96.2812 23.3281 96.125 23.2656C96.0312 23.2031 95.9219 23.1562 95.7969 23.125C95.6719 23.0625 95.5312 23 95.375 22.9375C95.2188 22.875 95.0938 22.7656 95 22.6094C94.875 22.4531 94.75 22.2031 94.625 21.8594C94.6562 21.7969 94.6719 21.7344 94.6719 21.6719C94.6406 21.6094 94.625 21.5469 94.625 21.4844C94.5938 21.4219 94.5781 21.3594 94.5781 21.2969C94.6406 21.1094 94.7188 20.9375 94.8125 20.7812C94.875 20.625 94.9531 20.4844 95.0469 20.3594C95.1406 20.2344 95.2656 20.1406 95.4219 20.0781C95.6406 19.7656 95.9062 19.6094 96.2188 19.6094C96.5312 19.5781 96.75 19.5625 96.875 19.5625C96.9688 19.5625 97.0469 19.5781 97.1094 19.6094C97.5781 19.6094 97.8906 19.625 98.0469 19.6562C98.2344 19.6562 98.4062 19.6562 98.5625 19.6562C98.8125 19.5938 98.9844 19.5625 99.0781 19.5625C99.2031 19.5312 99.3438 19.5312 99.5 19.5625C99.5312 19.5625 99.6094 19.5781 99.7344 19.6094C99.8906 19.6094 100.047 19.6094 100.203 19.6094H100.812C100.875 19.2031 100.938 18.8281 101 18.4844C101.062 18.1719 101.125 17.875 101.188 17.5938C101.25 17.2812 101.312 17.0469 101.375 16.8906C101.312 16.6406 101.312 16.3906 101.375 16.1406C101.406 16.0469 101.422 15.9531 101.422 15.8594C101.422 15.7656 101.438 15.6875 101.469 15.625C101.531 15.3125 101.578 15.0937 101.609 14.9688C101.641 14.8438 101.672 14.7344 101.703 14.6406C101.734 14.5781 101.75 14.5 101.75 14.4062C101.781 14.3125 101.812 14.1406 101.844 13.8906C102 13.7969 102.094 13.7188 102.125 13.6562C102.156 13.5937 102.188 13.4375 102.219 13.1875C102.438 13.0312 102.562 12.9375 102.594 12.9062C102.656 12.875 102.703 12.8437 102.734 12.8125C102.891 12.6562 103 12.5625 103.062 12.5312C103.125 12.4687 103.172 12.4375 103.203 12.4375C103.828 12.2812 104.344 12.3125 104.75 12.5312C105.156 12.75 105.391 12.9219 105.453 13.0469C105.516 13.1719 105.562 13.2812 105.594 13.375C105.625 13.4688 105.656 13.5469 105.688 13.6094L105.734 15.2969C105.641 15.6719 105.594 15.8594 105.594 15.8594L105.5 16.4219C105.438 16.6406 105.406 16.7969 105.406 16.8906C105.406 16.9844 105.406 17.0781 105.406 17.1719C105.375 17.2969 105.359 17.4219 105.359 17.5469C105.359 17.6719 105.328 17.7969 105.266 17.9219C105.141 18.3594 105.062 18.7656 105.031 19.1406C105 19.3594 104.969 19.5781 104.938 19.7969C105.25 19.8281 105.562 19.8438 105.875 19.8438C106.125 19.875 106.375 19.8906 106.625 19.8906C106.875 19.8906 107.047 19.8906 107.141 19.8906C107.234 19.8906 107.344 19.9062 107.469 19.9375C107.594 19.9375 107.719 19.9375 107.844 19.9375C107.938 19.9688 108.062 20 108.219 20.0312C108.375 20.0312 108.531 20.0781 108.688 20.1719C108.906 20.3281 109.047 20.4375 109.109 20.5C109.172 20.5312 109.234 20.5781 109.297 20.6406L109.672 21.0625C110.016 21.4688 110.156 21.8594 110.094 22.2344C110.062 22.6094 109.969 22.9062 109.812 23.125C109.719 23.1875 109.578 23.2812 109.391 23.4062C109.234 23.5 109.047 23.6094 108.828 23.7344C108.609 23.8281 108.391 23.9219 108.172 24.0156C107.984 24.0781 107.828 24.1094 107.703 24.1094C107.609 24.1094 107.344 24.0938 106.906 24.0625C106.5 24.0312 106.156 23.9844 105.875 23.9219C105.625 23.9844 105.391 23.9844 105.172 23.9219C105.078 23.9219 104.906 23.8906 104.656 23.8281C104.531 24.1719 104.469 24.4219 104.469 24.5781C104.406 24.7656 104.375 24.9531 104.375 25.1406C104.375 25.2969 104.375 25.4531 104.375 25.6094C104.344 25.7656 104.312 25.9219 104.281 26.0781C104.281 26.2031 104.25 26.3281 104.188 26.4531C104.188 26.8281 104.188 27.125 104.188 27.3438C104.188 27.5312 104.188 27.7031 104.188 27.8594C104.219 28.0156 104.234 28.1719 104.234 28.3281C104.266 28.4531 104.281 28.6562 104.281 28.9375C104.312 29.0312 104.344 29.1719 104.375 29.3594C104.406 29.5469 104.422 29.7656 104.422 30.0156C104.453 30.2344 104.469 30.4531 104.469 30.6719C104.469 30.8594 104.469 31 104.469 31.0938L104.609 31.9844C104.609 32.1094 104.609 32.2188 104.609 32.3125C104.641 32.4062 104.656 32.5 104.656 32.5938C104.688 32.7188 104.703 32.9062 104.703 33.1562C104.734 33.4062 104.75 33.5781 104.75 33.6719C104.75 33.7344 104.75 33.7812 104.75 33.8125C104.812 34.0312 104.844 34.1875 104.844 34.2812C104.875 34.375 104.891 34.4688 104.891 34.5625L104.984 35.1719C105.047 35.3906 105.141 35.5781 105.266 35.7344L105.359 36.25C105.391 36.375 105.406 36.4844 105.406 36.5781C105.438 36.6719 105.469 36.7812 105.5 36.9062C105.531 36.9688 105.547 37.0469 105.547 37.1406C105.578 37.2344 105.641 37.375 105.734 37.5625C105.891 37.8125 106.031 38 106.156 38.125C106.312 38.25 106.438 38.3906 106.531 38.5469C106.844 38.7031 107.078 38.8125 107.234 38.875C107.391 38.9062 107.547 38.9531 107.703 39.0156C107.859 39.0781 107.969 39.1406 108.031 39.2031C108.125 39.2656 108.234 39.3281 108.359 39.3906C108.484 39.4219 108.625 39.4531 108.781 39.4844C108.938 39.4844 109.094 39.5 109.25 39.5312C109.469 39.5625 109.672 39.5938 109.859 39.625C110.078 39.6562 110.312 39.7031 110.562 39.7656C110.719 39.9219 110.828 40.0312 110.891 40.0938C110.953 40.125 111.016 40.1719 111.078 40.2344C111.141 40.2969 111.203 40.3594 111.266 40.4219C111.328 40.4844 111.391 40.5781 111.453 40.7031C111.516 40.9219 111.547 41.1094 111.547 41.2656C111.547 41.3906 111.531 41.5156 111.5 41.6406ZM131.188 37.6562C131.125 38 131.078 38.2188 131.047 38.3125C131.016 38.4062 130.984 38.4844 130.953 38.5469C130.797 38.9219 130.641 39.1875 130.484 39.3438C130.359 39.5 130.234 39.6406 130.109 39.7656C130.047 39.8594 129.984 39.9531 129.922 40.0469C129.859 40.1094 129.797 40.1719 129.734 40.2344C129.672 40.3281 129.609 40.4062 129.547 40.4688C129.453 40.5312 129.344 40.6094 129.219 40.7031C128.969 40.8906 128.75 41.0781 128.562 41.2656C128.312 41.4219 128.141 41.5156 128.047 41.5469C127.984 41.5469 127.922 41.5469 127.859 41.5469C127.672 41.7031 127.547 41.8125 127.484 41.875C127.422 41.9062 127.359 41.9219 127.297 41.9219C127.203 41.9844 127.125 42.0312 127.062 42.0625C127 42.0938 126.891 42.1719 126.734 42.2969C126.453 42.2969 126.266 42.3125 126.172 42.3438C126.109 42.3438 126.047 42.3438 125.984 42.3438C125.953 42.375 125.906 42.4062 125.844 42.4375C125.781 42.4688 125.656 42.5625 125.469 42.7188C125.125 42.75 124.906 42.7656 124.812 42.7656C124.75 42.7656 124.703 42.7656 124.672 42.7656C124.391 42.8594 124.219 42.9219 124.156 42.9531C123.594 43.0469 123.188 43.1094 122.938 43.1406C122.719 43.1719 122.484 43.1719 122.234 43.1406C122.047 43.1719 121.906 43.1875 121.812 43.1875C121.75 43.1875 121.688 43.1875 121.625 43.1875H119.656C119.312 43.0312 119.094 42.9531 119 42.9531C118.844 42.8906 118.734 42.8594 118.672 42.8594C118.609 42.8594 118.547 42.8281 118.484 42.7656C118.297 42.7031 117.984 42.5781 117.547 42.3906C117.141 42.1719 116.844 42 116.656 41.875C116.531 41.7812 116.375 41.6719 116.188 41.5469C116.094 41.4844 115.984 41.4219 115.859 41.3594C115.766 41.2656 115.672 41.1875 115.578 41.125C115.453 41.0625 115.344 41 115.25 40.9375L114.641 40C114.609 39.875 114.562 39.75 114.5 39.625C114.406 39.4375 114.266 39.25 114.078 39.0625C114.047 38.75 114.016 38.5781 113.984 38.5469C113.922 38.4531 113.859 38.3906 113.797 38.3594C113.734 38.2969 113.641 38.2031 113.516 38.0781C113.484 37.7656 113.453 37.5938 113.422 37.5625C113.234 37.0312 113.125 36.625 113.094 36.3438C113.031 36.0938 112.969 35.9062 112.906 35.7812C112.875 35.625 112.844 35.5 112.812 35.4062C112.781 35.2812 112.766 35.2031 112.766 35.1719C112.672 34.8281 112.609 34.5469 112.578 34.3281C112.578 34.1094 112.578 33.9531 112.578 33.8594C112.609 33.6719 112.625 33.5469 112.625 33.4844C112.625 33.3906 112.625 33.3125 112.625 33.25C112.625 33.0312 112.609 32.8906 112.578 32.8281C112.578 32.7656 112.578 32.7031 112.578 32.6406C112.578 32.5781 112.562 32.5 112.531 32.4062C112.531 32.2812 112.562 32.1562 112.625 32.0312C112.562 31.7812 112.578 31.5625 112.672 31.375C112.672 31.0625 112.703 30.8438 112.766 30.7188L113.188 29.5938C113.219 29.4688 113.234 29.3594 113.234 29.2656C113.266 29.1406 113.297 29 113.328 28.8438C113.359 28.6875 113.375 28.5312 113.375 28.375C113.406 28.2188 113.453 28.0625 113.516 27.9062C113.609 27.5312 113.734 27.25 113.891 27.0625C113.953 26.9375 114 26.8281 114.031 26.7344C114.094 26.6406 114.156 26.5469 114.219 26.4531C114.281 26.3594 114.344 26.2656 114.406 26.1719C114.5 26.0469 114.578 25.9375 114.641 25.8438L115.016 25.4219C115.234 25.1719 115.375 25 115.438 24.9062C115.531 24.8125 115.625 24.7344 115.719 24.6719C115.844 24.4844 115.953 24.3594 116.047 24.2969C116.141 24.2031 116.234 24.125 116.328 24.0625C116.578 23.8125 116.766 23.6406 116.891 23.5469C117.016 23.4219 117.156 23.3281 117.312 23.2656C117.438 23.1094 117.562 22.9844 117.688 22.8906C117.844 22.7656 118.047 22.6719 118.297 22.6094C118.453 22.4531 118.547 22.3594 118.578 22.3281C118.641 22.2969 118.688 22.2656 118.719 22.2344C118.812 22.1094 118.984 21.9688 119.234 21.8125C119.609 21.6875 119.859 21.6094 119.984 21.5781C120.203 21.5156 120.438 21.4844 120.688 21.4844C120.938 21.4844 121.188 21.4844 121.438 21.4844C121.656 21.4844 121.875 21.5 122.094 21.5312C122.312 21.5312 122.547 21.5312 122.797 21.5312C123.016 21.5938 123.156 21.625 123.219 21.625C123.312 21.5938 123.375 21.5781 123.406 21.5781C123.625 21.5781 123.781 21.5938 123.875 21.625C123.969 21.625 124.062 21.6406 124.156 21.6719L124.812 21.9531C125.031 22.0156 125.172 22.0625 125.234 22.0938C125.297 22.0938 125.359 22.0938 125.422 22.0938C125.422 22.0938 125.516 22.125 125.703 22.1875C125.797 22.2188 125.875 22.25 125.938 22.2812C126 22.3125 126.078 22.3438 126.172 22.375C126.359 22.4375 126.453 22.4688 126.453 22.4688C126.891 22.625 127.25 22.8125 127.531 23.0312C127.812 23.2188 128.031 23.3906 128.188 23.5469C128.375 23.8281 128.5 24.0312 128.562 24.1562C128.625 24.25 128.672 24.3281 128.703 24.3906C128.859 24.6094 128.938 24.7656 128.938 24.8594C128.969 24.9219 128.984 24.9844 128.984 25.0469C129.141 25.3594 129.266 25.5938 129.359 25.75C129.453 25.9062 129.531 26.1094 129.594 26.3594C129.844 26.8594 129.969 27.2031 129.969 27.3906C130.094 27.5781 130.188 27.7344 130.25 27.8594C130.312 28.0156 130.344 28.1562 130.344 28.2812C130.344 28.375 130.344 28.4531 130.344 28.5156C130.406 28.7344 130.453 28.9219 130.484 29.0781C130.516 29.2031 130.547 29.3281 130.578 29.4531C130.609 29.6719 130.688 29.8906 130.812 30.1094C130.875 30.3594 130.906 30.5469 130.906 30.6719C130.906 30.7969 130.906 30.9375 130.906 31.0938C130.844 31.3438 130.797 31.5625 130.766 31.75C130.734 31.9375 130.672 32.1094 130.578 32.2656L130.203 33.0156L129.453 33.4844C129.266 33.5156 129.109 33.5312 128.984 33.5312H128.375C128.094 33.625 127.891 33.6719 127.766 33.6719C127.703 33.7031 127.641 33.7188 127.578 33.7188C127.547 33.6875 127.5 33.6719 127.438 33.6719H127.25H126.594C126.5 33.6406 126.391 33.625 126.266 33.625C126.172 33.625 126.078 33.6094 125.984 33.5781C125.859 33.5781 125.734 33.5938 125.609 33.625C125.516 33.625 125.391 33.625 125.234 33.625C124.641 33.5938 124.312 33.5625 124.25 33.5312C124 33.5312 123.781 33.5469 123.594 33.5781C123.406 33.6094 123.234 33.625 123.078 33.625C122.828 33.625 122.578 33.6094 122.328 33.5781C122.109 33.5156 121.875 33.4531 121.625 33.3906C121.188 33.2969 120.828 33.25 120.547 33.25C120.484 33.25 120.406 33.2656 120.312 33.2969C120.219 33.2969 120.109 33.2969 119.984 33.2969C119.797 33.2656 119.672 33.25 119.609 33.25C119.547 33.25 119.484 33.25 119.422 33.25C119.328 33.25 119.234 33.25 119.141 33.25C119.047 33.2188 118.953 33.2031 118.859 33.2031C118.641 33.2031 118.5 33.2031 118.438 33.2031C118.375 33.2031 118.312 33.2188 118.25 33.25C118.094 33.2812 117.969 33.2969 117.875 33.2969C117.781 33.2656 117.703 33.25 117.641 33.25C117.359 33.2188 117.156 33.2188 117.031 33.25C116.906 33.25 116.797 33.25 116.703 33.25C116.641 33.4062 116.609 33.5312 116.609 33.625C116.641 33.6875 116.656 33.7344 116.656 33.7656C116.719 33.9844 116.75 34.1406 116.75 34.2344C116.781 34.2969 116.797 34.3594 116.797 34.4219C116.828 34.5781 116.844 34.6875 116.844 34.75C116.875 34.8125 116.922 34.8906 116.984 34.9844C116.984 35.4531 117.078 35.9062 117.266 36.3438C117.453 36.7812 117.609 37.0781 117.734 37.2344C117.797 37.4844 117.828 37.6406 117.828 37.7031C117.859 37.7344 117.875 37.7656 117.875 37.7969C118 37.8906 118.078 37.9844 118.109 38.0781C118.172 38.1406 118.234 38.2031 118.297 38.2656C118.422 38.4219 118.5 38.5312 118.531 38.5938C118.594 38.625 118.656 38.6719 118.719 38.7344C118.844 38.7969 118.969 38.8594 119.094 38.9219C119.219 38.9844 119.312 39.0781 119.375 39.2031C119.625 39.2031 119.875 39.25 120.125 39.3438C120.312 39.4062 120.562 39.4531 120.875 39.4844C121.188 39.5156 121.5 39.5312 121.812 39.5312C122.156 39.5 122.469 39.4688 122.75 39.4375C123.062 39.4062 123.281 39.375 123.406 39.3438C123.656 39.25 123.875 39.1875 124.062 39.1562C124.281 39.125 124.469 39.0781 124.625 39.0156C124.875 38.9844 125.094 38.9219 125.281 38.8281C125.594 38.6094 125.844 38.5 126.031 38.5C126.219 38.3438 126.391 38.25 126.547 38.2188C126.703 38.0312 126.875 37.8594 127.062 37.7031C127.281 37.5156 127.422 37.375 127.484 37.2812C127.672 37.0938 127.812 36.9062 127.906 36.7188C127.969 36.5938 128.031 36.5 128.094 36.4375L128.562 35.9688C128.625 35.9375 128.703 35.8906 128.797 35.8281C128.984 35.7031 129.078 35.6406 129.078 35.6406C129.141 35.6094 129.203 35.5781 129.266 35.5469C129.359 35.5156 129.484 35.4688 129.641 35.4062C129.891 35.4688 130.062 35.5312 130.156 35.5938C130.281 35.625 130.375 35.6719 130.438 35.7344C130.688 35.9531 130.828 36.1094 130.859 36.2031C130.922 36.2969 130.969 36.375 131 36.4375C131.031 36.5 131.047 36.5625 131.047 36.625C131.078 36.6875 131.109 36.75 131.141 36.8125C131.172 36.9062 131.188 36.9688 131.188 37V37.6562ZM126.922 29.6406C126.859 29.3594 126.797 29.1406 126.734 28.9844C126.703 28.8281 126.656 28.6875 126.594 28.5625C126.469 28.3125 126.391 28.1562 126.359 28.0938C126.328 28.0312 126.297 27.9844 126.266 27.9531C126.141 27.7969 126.062 27.625 126.031 27.4375C125.906 27.2812 125.781 27.125 125.656 26.9688C125.562 26.7812 125.484 26.625 125.422 26.5C125.109 26.2188 124.938 26.0312 124.906 25.9375C124.656 25.8438 124.469 25.7812 124.344 25.75C124.25 25.6875 124.172 25.625 124.109 25.5625C123.797 25.4688 123.547 25.3906 123.359 25.3281C123.172 25.2656 123 25.2188 122.844 25.1875C122.688 25.1562 122.547 25.125 122.422 25.0938L121.859 25.1875C121.703 25.2188 121.562 25.2344 121.438 25.2344C121.312 25.2344 121.219 25.2344 121.156 25.2344C120.875 25.3594 120.703 25.4375 120.641 25.4688C120.578 25.5 120.516 25.5312 120.453 25.5625C120.172 25.7188 119.984 25.8125 119.891 25.8438C119.797 25.875 119.719 25.9062 119.656 25.9375C119.5 26.0938 119.359 26.2031 119.234 26.2656C119.016 26.6094 118.766 26.9375 118.484 27.25C118.203 27.5625 117.953 27.7969 117.734 27.9531C117.641 28.2031 117.562 28.375 117.5 28.4688C117.469 28.5625 117.422 28.6562 117.359 28.75C117.297 28.8438 117.25 28.9375 117.219 29.0312C117.219 29.125 117.188 29.2344 117.125 29.3594H117.734C118.203 29.2656 118.547 29.2188 118.766 29.2188C118.922 29.1875 119.031 29.1719 119.094 29.1719C119.156 29.1719 119.266 29.1406 119.422 29.0781C119.641 29.1406 119.766 29.1875 119.797 29.2188C119.859 29.2188 119.906 29.2031 119.938 29.1719C120.281 29.1406 120.547 29.1406 120.734 29.1719C120.922 29.1719 121.094 29.1875 121.25 29.2188C121.531 29.3125 121.734 29.3594 121.859 29.3594C122.453 29.5156 123 29.625 123.5 29.6875C123.594 29.7188 123.703 29.7344 123.828 29.7344C123.953 29.7031 124.078 29.6875 124.203 29.6875C124.328 29.6875 124.469 29.6719 124.625 29.6406H125.75H126.266C126.516 29.6094 126.672 29.5938 126.734 29.5938C126.797 29.5938 126.859 29.6094 126.922 29.6406ZM152.516 37.6562C152.453 38 152.406 38.2188 152.375 38.3125C152.344 38.4062 152.312 38.4844 152.281 38.5469C152.125 38.9219 151.969 39.1875 151.812 39.3438C151.688 39.5 151.562 39.6406 151.438 39.7656C151.375 39.8594 151.312 39.9531 151.25 40.0469C151.188 40.1094 151.125 40.1719 151.062 40.2344C151 40.3281 150.938 40.4062 150.875 40.4688C150.781 40.5312 150.672 40.6094 150.547 40.7031C150.297 40.8906 150.078 41.0781 149.891 41.2656C149.641 41.4219 149.469 41.5156 149.375 41.5469C149.312 41.5469 149.25 41.5469 149.188 41.5469C149 41.7031 148.875 41.8125 148.812 41.875C148.75 41.9062 148.688 41.9219 148.625 41.9219C148.531 41.9844 148.453 42.0312 148.391 42.0625C148.328 42.0938 148.219 42.1719 148.062 42.2969C147.781 42.2969 147.594 42.3125 147.5 42.3438C147.438 42.3438 147.375 42.3438 147.312 42.3438C147.281 42.375 147.234 42.4062 147.172 42.4375C147.109 42.4688 146.984 42.5625 146.797 42.7188C146.453 42.75 146.234 42.7656 146.141 42.7656C146.078 42.7656 146.031 42.7656 146 42.7656C145.719 42.8594 145.547 42.9219 145.484 42.9531C144.922 43.0469 144.516 43.1094 144.266 43.1406C144.047 43.1719 143.812 43.1719 143.562 43.1406C143.375 43.1719 143.234 43.1875 143.141 43.1875C143.078 43.1875 143.016 43.1875 142.953 43.1875H140.984C140.641 43.0312 140.422 42.9531 140.328 42.9531C140.172 42.8906 140.062 42.8594 140 42.8594C139.938 42.8594 139.875 42.8281 139.812 42.7656C139.625 42.7031 139.312 42.5781 138.875 42.3906C138.469 42.1719 138.172 42 137.984 41.875C137.859 41.7812 137.703 41.6719 137.516 41.5469C137.422 41.4844 137.312 41.4219 137.188 41.3594C137.094 41.2656 137 41.1875 136.906 41.125C136.781 41.0625 136.672 41 136.578 40.9375L135.969 40C135.938 39.875 135.891 39.75 135.828 39.625C135.734 39.4375 135.594 39.25 135.406 39.0625C135.375 38.75 135.344 38.5781 135.312 38.5469C135.25 38.4531 135.188 38.3906 135.125 38.3594C135.062 38.2969 134.969 38.2031 134.844 38.0781C134.812 37.7656 134.781 37.5938 134.75 37.5625C134.562 37.0312 134.453 36.625 134.422 36.3438C134.359 36.0938 134.297 35.9062 134.234 35.7812C134.203 35.625 134.172 35.5 134.141 35.4062C134.109 35.2812 134.094 35.2031 134.094 35.1719C134 34.8281 133.938 34.5469 133.906 34.3281C133.906 34.1094 133.906 33.9531 133.906 33.8594C133.938 33.6719 133.953 33.5469 133.953 33.4844C133.953 33.3906 133.953 33.3125 133.953 33.25C133.953 33.0312 133.938 32.8906 133.906 32.8281C133.906 32.7656 133.906 32.7031 133.906 32.6406C133.906 32.5781 133.891 32.5 133.859 32.4062C133.859 32.2812 133.891 32.1562 133.953 32.0312C133.891 31.7812 133.906 31.5625 134 31.375C134 31.0625 134.031 30.8438 134.094 30.7188L134.516 29.5938C134.547 29.4688 134.562 29.3594 134.562 29.2656C134.594 29.1406 134.625 29 134.656 28.8438C134.688 28.6875 134.703 28.5312 134.703 28.375C134.734 28.2188 134.781 28.0625 134.844 27.9062C134.938 27.5312 135.062 27.25 135.219 27.0625C135.281 26.9375 135.328 26.8281 135.359 26.7344C135.422 26.6406 135.484 26.5469 135.547 26.4531C135.609 26.3594 135.672 26.2656 135.734 26.1719C135.828 26.0469 135.906 25.9375 135.969 25.8438L136.344 25.4219C136.562 25.1719 136.703 25 136.766 24.9062C136.859 24.8125 136.953 24.7344 137.047 24.6719C137.172 24.4844 137.281 24.3594 137.375 24.2969C137.469 24.2031 137.562 24.125 137.656 24.0625C137.906 23.8125 138.094 23.6406 138.219 23.5469C138.344 23.4219 138.484 23.3281 138.641 23.2656C138.766 23.1094 138.891 22.9844 139.016 22.8906C139.172 22.7656 139.375 22.6719 139.625 22.6094C139.781 22.4531 139.875 22.3594 139.906 22.3281C139.969 22.2969 140.016 22.2656 140.047 22.2344C140.141 22.1094 140.312 21.9688 140.562 21.8125C140.938 21.6875 141.188 21.6094 141.312 21.5781C141.531 21.5156 141.766 21.4844 142.016 21.4844C142.266 21.4844 142.516 21.4844 142.766 21.4844C142.984 21.4844 143.203 21.5 143.422 21.5312C143.641 21.5312 143.875 21.5312 144.125 21.5312C144.344 21.5938 144.484 21.625 144.547 21.625C144.641 21.5938 144.703 21.5781 144.734 21.5781C144.953 21.5781 145.109 21.5938 145.203 21.625C145.297 21.625 145.391 21.6406 145.484 21.6719L146.141 21.9531C146.359 22.0156 146.5 22.0625 146.562 22.0938C146.625 22.0938 146.688 22.0938 146.75 22.0938C146.75 22.0938 146.844 22.125 147.031 22.1875C147.125 22.2188 147.203 22.25 147.266 22.2812C147.328 22.3125 147.406 22.3438 147.5 22.375C147.688 22.4375 147.781 22.4688 147.781 22.4688C148.219 22.625 148.578 22.8125 148.859 23.0312C149.141 23.2188 149.359 23.3906 149.516 23.5469C149.703 23.8281 149.828 24.0312 149.891 24.1562C149.953 24.25 150 24.3281 150.031 24.3906C150.188 24.6094 150.266 24.7656 150.266 24.8594C150.297 24.9219 150.312 24.9844 150.312 25.0469C150.469 25.3594 150.594 25.5938 150.688 25.75C150.781 25.9062 150.859 26.1094 150.922 26.3594C151.172 26.8594 151.297 27.2031 151.297 27.3906C151.422 27.5781 151.516 27.7344 151.578 27.8594C151.641 28.0156 151.672 28.1562 151.672 28.2812C151.672 28.375 151.672 28.4531 151.672 28.5156C151.734 28.7344 151.781 28.9219 151.812 29.0781C151.844 29.2031 151.875 29.3281 151.906 29.4531C151.938 29.6719 152.016 29.8906 152.141 30.1094C152.203 30.3594 152.234 30.5469 152.234 30.6719C152.234 30.7969 152.234 30.9375 152.234 31.0938C152.172 31.3438 152.125 31.5625 152.094 31.75C152.062 31.9375 152 32.1094 151.906 32.2656L151.531 33.0156L150.781 33.4844C150.594 33.5156 150.438 33.5312 150.312 33.5312H149.703C149.422 33.625 149.219 33.6719 149.094 33.6719C149.031 33.7031 148.969 33.7188 148.906 33.7188C148.875 33.6875 148.828 33.6719 148.766 33.6719H148.578H147.922C147.828 33.6406 147.719 33.625 147.594 33.625C147.5 33.625 147.406 33.6094 147.312 33.5781C147.188 33.5781 147.062 33.5938 146.938 33.625C146.844 33.625 146.719 33.625 146.562 33.625C145.969 33.5938 145.641 33.5625 145.578 33.5312C145.328 33.5312 145.109 33.5469 144.922 33.5781C144.734 33.6094 144.562 33.625 144.406 33.625C144.156 33.625 143.906 33.6094 143.656 33.5781C143.438 33.5156 143.203 33.4531 142.953 33.3906C142.516 33.2969 142.156 33.25 141.875 33.25C141.812 33.25 141.734 33.2656 141.641 33.2969C141.547 33.2969 141.438 33.2969 141.312 33.2969C141.125 33.2656 141 33.25 140.938 33.25C140.875 33.25 140.812 33.25 140.75 33.25C140.656 33.25 140.562 33.25 140.469 33.25C140.375 33.2188 140.281 33.2031 140.188 33.2031C139.969 33.2031 139.828 33.2031 139.766 33.2031C139.703 33.2031 139.641 33.2188 139.578 33.25C139.422 33.2812 139.297 33.2969 139.203 33.2969C139.109 33.2656 139.031 33.25 138.969 33.25C138.688 33.2188 138.484 33.2188 138.359 33.25C138.234 33.25 138.125 33.25 138.031 33.25C137.969 33.4062 137.938 33.5312 137.938 33.625C137.969 33.6875 137.984 33.7344 137.984 33.7656C138.047 33.9844 138.078 34.1406 138.078 34.2344C138.109 34.2969 138.125 34.3594 138.125 34.4219C138.156 34.5781 138.172 34.6875 138.172 34.75C138.203 34.8125 138.25 34.8906 138.312 34.9844C138.312 35.4531 138.406 35.9062 138.594 36.3438C138.781 36.7812 138.938 37.0781 139.062 37.2344C139.125 37.4844 139.156 37.6406 139.156 37.7031C139.188 37.7344 139.203 37.7656 139.203 37.7969C139.328 37.8906 139.406 37.9844 139.438 38.0781C139.5 38.1406 139.562 38.2031 139.625 38.2656C139.75 38.4219 139.828 38.5312 139.859 38.5938C139.922 38.625 139.984 38.6719 140.047 38.7344C140.172 38.7969 140.297 38.8594 140.422 38.9219C140.547 38.9844 140.641 39.0781 140.703 39.2031C140.953 39.2031 141.203 39.25 141.453 39.3438C141.641 39.4062 141.891 39.4531 142.203 39.4844C142.516 39.5156 142.828 39.5312 143.141 39.5312C143.484 39.5 143.797 39.4688 144.078 39.4375C144.391 39.4062 144.609 39.375 144.734 39.3438C144.984 39.25 145.203 39.1875 145.391 39.1562C145.609 39.125 145.797 39.0781 145.953 39.0156C146.203 38.9844 146.422 38.9219 146.609 38.8281C146.922 38.6094 147.172 38.5 147.359 38.5C147.547 38.3438 147.719 38.25 147.875 38.2188C148.031 38.0312 148.203 37.8594 148.391 37.7031C148.609 37.5156 148.75 37.375 148.812 37.2812C149 37.0938 149.141 36.9062 149.234 36.7188C149.297 36.5938 149.359 36.5 149.422 36.4375L149.891 35.9688C149.953 35.9375 150.031 35.8906 150.125 35.8281C150.312 35.7031 150.406 35.6406 150.406 35.6406C150.469 35.6094 150.531 35.5781 150.594 35.5469C150.688 35.5156 150.812 35.4688 150.969 35.4062C151.219 35.4688 151.391 35.5312 151.484 35.5938C151.609 35.625 151.703 35.6719 151.766 35.7344C152.016 35.9531 152.156 36.1094 152.188 36.2031C152.25 36.2969 152.297 36.375 152.328 36.4375C152.359 36.5 152.375 36.5625 152.375 36.625C152.406 36.6875 152.438 36.75 152.469 36.8125C152.5 36.9062 152.516 36.9688 152.516 37V37.6562ZM148.25 29.6406C148.188 29.3594 148.125 29.1406 148.062 28.9844C148.031 28.8281 147.984 28.6875 147.922 28.5625C147.797 28.3125 147.719 28.1562 147.688 28.0938C147.656 28.0312 147.625 27.9844 147.594 27.9531C147.469 27.7969 147.391 27.625 147.359 27.4375C147.234 27.2812 147.109 27.125 146.984 26.9688C146.891 26.7812 146.812 26.625 146.75 26.5C146.438 26.2188 146.266 26.0312 146.234 25.9375C145.984 25.8438 145.797 25.7812 145.672 25.75C145.578 25.6875 145.5 25.625 145.438 25.5625C145.125 25.4688 144.875 25.3906 144.688 25.3281C144.5 25.2656 144.328 25.2188 144.172 25.1875C144.016 25.1562 143.875 25.125 143.75 25.0938L143.188 25.1875C143.031 25.2188 142.891 25.2344 142.766 25.2344C142.641 25.2344 142.547 25.2344 142.484 25.2344C142.203 25.3594 142.031 25.4375 141.969 25.4688C141.906 25.5 141.844 25.5312 141.781 25.5625C141.5 25.7188 141.312 25.8125 141.219 25.8438C141.125 25.875 141.047 25.9062 140.984 25.9375C140.828 26.0938 140.688 26.2031 140.562 26.2656C140.344 26.6094 140.094 26.9375 139.812 27.25C139.531 27.5625 139.281 27.7969 139.062 27.9531C138.969 28.2031 138.891 28.375 138.828 28.4688C138.797 28.5625 138.75 28.6562 138.688 28.75C138.625 28.8438 138.578 28.9375 138.547 29.0312C138.547 29.125 138.516 29.2344 138.453 29.3594H139.062C139.531 29.2656 139.875 29.2188 140.094 29.2188C140.25 29.1875 140.359 29.1719 140.422 29.1719C140.484 29.1719 140.594 29.1406 140.75 29.0781C140.969 29.1406 141.094 29.1875 141.125 29.2188C141.188 29.2188 141.234 29.2031 141.266 29.1719C141.609 29.1406 141.875 29.1406 142.062 29.1719C142.25 29.1719 142.422 29.1875 142.578 29.2188C142.859 29.3125 143.062 29.3594 143.188 29.3594C143.781 29.5156 144.328 29.625 144.828 29.6875C144.922 29.7188 145.031 29.7344 145.156 29.7344C145.281 29.7031 145.406 29.6875 145.531 29.6875C145.656 29.6875 145.797 29.6719 145.953 29.6406H147.078H147.594C147.844 29.6094 148 29.5938 148.062 29.5938C148.125 29.5938 148.188 29.6094 148.25 29.6406ZM160.578 35.9688V36.25C160.578 36.4688 160.547 36.6094 160.484 36.6719C160.484 36.7344 160.469 36.7969 160.438 36.8594C160.438 36.9219 160.438 37.0781 160.438 37.3281C160.281 37.5781 160.172 37.7344 160.109 37.7969C160.047 37.8594 159.969 37.9375 159.875 38.0312C159.75 38.1562 159.531 38.2188 159.219 38.2188C158.656 38.2188 158.297 38.2188 158.141 38.2188C157.984 38.1875 157.875 38.1562 157.812 38.125C157.75 38.125 157.672 38.125 157.578 38.125C157.516 38.0938 157.359 38.0469 157.109 37.9844C156.891 37.5156 156.734 37.2344 156.641 37.1406C156.609 37.0156 156.578 36.9062 156.547 36.8125C156.547 36.6875 156.547 36.5469 156.547 36.3906C156.391 36.1406 156.344 35.875 156.406 35.5938C156.469 35.3125 156.484 35.1406 156.453 35.0781C156.453 34.9844 156.453 34.9219 156.453 34.8906C156.422 34.6406 156.406 34.4844 156.406 34.4219C156.438 34.3594 156.453 34.3125 156.453 34.2812C156.422 33.9375 156.406 33.7188 156.406 33.625C156.406 33.5 156.406 33.3906 156.406 33.2969C156.406 33.1094 156.391 32.9375 156.359 32.7812C156.359 32.5938 156.359 32.3594 156.359 32.0781C156.359 31.9219 156.344 31.8125 156.312 31.75C156.312 31.6875 156.312 31.6094 156.312 31.5156C156.375 31.3906 156.391 31.2344 156.359 31.0469C156.359 30.8594 156.359 30.6406 156.359 30.3906C156.359 30.1406 156.344 29.9219 156.312 29.7344C156.312 29.5469 156.312 29.4062 156.312 29.3125C156.312 29 156.344 28.7188 156.406 28.4688C156.375 27.9375 156.359 27.5469 156.359 27.2969C156.391 27.0156 156.422 26.7656 156.453 26.5469V25.5156C156.422 25.3281 156.391 25.1719 156.359 25.0469C156.359 24.9219 156.375 24.8125 156.406 24.7188C156.406 24.5 156.391 24.3594 156.359 24.2969C156.359 24.2031 156.344 24.125 156.312 24.0625C156.25 23.625 156.25 23.375 156.312 23.3125C156.344 23.1562 156.359 23.0469 156.359 22.9844C156.359 22.9219 156.359 22.8594 156.359 22.7969C156.391 22.5781 156.406 22.4531 156.406 22.4219C156.406 22.3594 156.406 22.2969 156.406 22.2344C156.375 22.0781 156.359 21.9688 156.359 21.9062C156.359 21.8125 156.359 21.7344 156.359 21.6719C156.328 21.2969 156.312 21.0156 156.312 20.8281C156.344 20.6406 156.359 20.4844 156.359 20.3594C156.391 20.1094 156.406 19.9531 156.406 19.8906C156.406 19.7969 156.406 19.7344 156.406 19.7031C156.375 19.5469 156.359 19.4062 156.359 19.2812C156.359 19.1562 156.359 19.0625 156.359 19V18.2031C156.391 17.8906 156.391 17.6875 156.359 17.5938C156.359 17.5 156.359 17.4219 156.359 17.3594C156.328 17.2656 156.297 17.1719 156.266 17.0781C156.234 16.9531 156.219 16.8125 156.219 16.6562C156.188 16.4062 156.156 16.2344 156.125 16.1406C156.125 16.0156 156.125 15.9219 156.125 15.8594C156.062 15.6094 156.078 15.3281 156.172 15.0156C156.359 14.6719 156.516 14.4531 156.641 14.3594C156.766 14.2656 156.844 14.2031 156.875 14.1719C156.938 14.1094 157.016 14.0469 157.109 13.9844C157.484 13.9219 157.719 13.8906 157.812 13.8906C157.906 13.8906 158 13.8438 158.094 13.75C158.469 13.75 158.781 13.8281 159.031 13.9844C159.281 14.1406 159.453 14.2656 159.547 14.3594L159.969 14.7344C160.062 15.0156 160.125 15.2031 160.156 15.2969C160.188 15.4219 160.203 15.5469 160.203 15.6719C160.234 15.7969 160.219 15.9219 160.156 16.0469V16.7031C160.156 16.7656 160.156 16.8438 160.156 16.9375C160.188 17 160.203 17.0781 160.203 17.1719V17.5V18.1562V18.8125C160.141 19.0625 160.109 19.2188 160.109 19.2812C160.109 19.3125 160.109 19.3438 160.109 19.375C160.141 19.5312 160.156 19.6719 160.156 19.7969C160.156 19.9219 160.156 20.0469 160.156 20.1719L160.297 20.9219V21.7188C160.297 21.8438 160.312 21.9531 160.344 22.0469C160.344 22.1406 160.359 22.2344 160.391 22.3281L160.203 23.2656C160.203 23.3906 160.219 23.5156 160.25 23.6406C160.25 23.7344 160.25 23.8438 160.25 23.9688C160.281 24.0625 160.266 24.1562 160.203 24.25C160.266 24.4375 160.297 24.6094 160.297 24.7656C160.328 24.8906 160.359 25.0156 160.391 25.1406C160.422 25.4531 160.422 25.75 160.391 26.0312C160.328 26.2812 160.297 26.4375 160.297 26.5C160.328 26.5625 160.359 26.625 160.391 26.6875C160.422 26.8438 160.438 26.9844 160.438 27.1094C160.438 27.2344 160.438 27.3438 160.438 27.4375C160.438 27.5312 160.422 27.625 160.391 27.7188C160.391 27.8125 160.391 27.9062 160.391 28C160.359 28.0625 160.344 28.1406 160.344 28.2344C160.375 28.2969 160.391 28.375 160.391 28.4688C160.391 28.5938 160.406 28.7031 160.438 28.7969C160.406 28.8594 160.391 28.9375 160.391 29.0312V29.3594C160.391 29.6094 160.391 29.7656 160.391 29.8281C160.391 29.8594 160.375 29.9062 160.344 29.9688C160.375 30.125 160.391 30.2812 160.391 30.4375C160.391 30.5625 160.391 30.7031 160.391 30.8594C160.359 30.9844 160.344 31.2031 160.344 31.5156C160.438 31.8906 160.469 32.25 160.438 32.5938C160.469 32.75 160.484 32.8594 160.484 32.9219C160.484 32.9844 160.484 33.0469 160.484 33.1094C160.453 33.3281 160.438 33.4688 160.438 33.5312C160.438 33.5625 160.438 33.6094 160.438 33.6719C160.438 33.9219 160.438 34.125 160.438 34.2812C160.469 34.4062 160.484 34.5312 160.484 34.6562C160.578 34.875 160.578 35.125 160.484 35.4062L160.578 35.9688ZM161.281 42.2031C161.219 42.3594 161.188 42.4844 161.188 42.5781C161.188 42.6719 161.188 42.7812 161.188 42.9062C161.188 43 161.188 43.125 161.188 43.2812C161.188 43.4062 161.156 43.5312 161.094 43.6562C161.031 43.9062 160.938 44.125 160.812 44.3125C160.688 44.4688 160.547 44.5938 160.391 44.6875C160.266 44.75 160.141 44.8281 160.016 44.9219C159.891 44.9844 159.719 45.0938 159.5 45.25C159.188 45.1875 158.922 45.125 158.703 45.0625C158.516 45 158.328 44.9219 158.141 44.8281C157.891 44.8281 157.672 44.7812 157.484 44.6875C157.297 44.5625 157.125 44.4219 156.969 44.2656C156.781 44.0781 156.641 43.9531 156.547 43.8906C156.516 43.7969 156.469 43.7188 156.406 43.6562C156.344 43.5625 156.203 43.4375 155.984 43.2812C156.016 43 156.031 42.7969 156.031 42.6719C156.031 42.5469 156.031 42.4375 156.031 42.3438C156.031 42.1875 156.031 42.0312 156.031 41.875C156.031 41.7188 156.062 41.5625 156.125 41.4062C156.188 41.2812 156.234 41.1875 156.266 41.125C156.328 41.0312 156.391 40.9531 156.453 40.8906C156.734 40.6406 156.922 40.4844 157.016 40.4219C157.109 40.3281 157.219 40.2188 157.344 40.0938C157.656 40.0625 157.844 40.0625 157.906 40.0938C158 40.0938 158.078 40.0938 158.141 40.0938C158.578 40.1875 158.875 40.2656 159.031 40.3281C159.219 40.3594 159.391 40.4062 159.547 40.4688C159.828 40.5938 160.031 40.6719 160.156 40.7031C160.281 40.7344 160.453 40.8281 160.672 40.9844C160.859 41.3281 160.984 41.5781 161.047 41.7344C161.141 41.8906 161.219 42.0469 161.281 42.2031Z" fill="black"/>
</svg>
