<svg width="21" height="16" viewBox="0 0 21 16" fill="none" xmlns="http://www.w3.org/2000/svg">
<path d="M2.644 0.800049H18.544C20.044 0.800049 20.8 1.50805 20.8 2.94805V13.052C20.8 14.48 20.044 15.2 18.544 15.2H2.644C1.144 15.2 0.388 14.48 0.388 13.052V2.94805C0.388 1.50805 1.144 0.800049 2.644 0.800049ZM10.588 11.12L18.676 4.48405C18.964 4.24405 19.192 3.69205 18.832 3.20005C18.484 2.70805 17.848 2.69605 17.428 2.99605L10.588 7.62805L3.76 2.99605C3.34 2.69605 2.704 2.70805 2.356 3.20005C1.996 3.69205 2.224 4.24405 2.512 4.48405L10.588 11.12Z" fill="#0E0F1D"/>
</svg>
